<svg id="Grupo_146881" data-name="Grupo 146881" xmlns="http://www.w3.org/2000/svg" xmlns:xlink="http://www.w3.org/1999/xlink" width="59.083" height="53.09" viewBox="0 0 59.083 53.09">
  <defs>
    <clipPath id="clip-path">
      <rect id="Rectángulo_89072" data-name="Rectángulo 89072" width="59.082" height="53.089" fill="none"/>
    </clipPath>
  </defs>
  <g id="Grupo_146882" data-name="Grupo 146882" clip-path="url(#clip-path)">
    <path id="Trazado_220094" data-name="Trazado 220094" d="M59.082,18.925c-.166.757-.308,1.52-.5,2.268a16.286,16.286,0,0,1-3.7,6.814,1.626,1.626,0,0,0-.412.919,6.969,6.969,0,0,0,1.842,5.894c.531.582.609,1.092.256,1.6a1.194,1.194,0,0,1-1.1.507A12.627,12.627,0,0,1,47.173,33.7a.759.759,0,0,0-.855-.193,24.368,24.368,0,0,1-6,1.064c-.319.02-.466.1-.5.456A15.923,15.923,0,0,1,34.2,45.656,20.76,20.76,0,0,1,18.572,50.71a24.2,24.2,0,0,1-5.933-1.085.631.631,0,0,0-.7.2,12.7,12.7,0,0,1-8.226,3.265,1.193,1.193,0,0,1-.949-2.115,6.941,6.941,0,0,0,1.847-5.837,1.819,1.819,0,0,0-.46-1.018A15.754,15.754,0,0,1,0,33.3,15.064,15.064,0,0,1,4.554,22.658a21.617,21.617,0,0,1,13.52-6.381c1.052-.117,1.06-.083,1.219-1.106A16.373,16.373,0,0,1,25.585,4.522,20.815,20.815,0,0,1,42.337.305a21.106,21.106,0,0,1,12.2,6.211,15.239,15.239,0,0,1,4.448,9.267c0,.038,0,.077,0,.115a2.63,2.63,0,0,1,.035.66c.028.211-.063.433.059.635Z" transform="translate(0 0)"/>
    <path id="Trazado_220095" data-name="Trazado 220095" d="M382.369,103.78l.01-.7.095.026v.693q-.066.081-.1-.016" transform="translate(-323.391 -87.179)" fill="#4d4d4d"/>
    <path id="Trazado_220096" data-name="Trazado 220096" d="M382.274,107.63a.6.6,0,0,0,.1.016v.577c-.191-.17-.1-.39-.1-.593" transform="translate(-323.296 -91.029)" fill="#141414"/>
    <path id="Trazado_220097" data-name="Trazado 220097" d="M18.612,151.832a9.536,9.536,0,0,0,.848-6.248,2.84,2.84,0,0,0-.71-1.411,13.457,13.457,0,0,1-3.778-9.329,12.967,12.967,0,0,1,4.307-9.613,19.179,19.179,0,0,1,15.357-5.313,17.711,17.711,0,0,1,11.515,5.188,13.518,13.518,0,0,1-.584,19.985,18.459,18.459,0,0,1-14.144,4.678,21.868,21.868,0,0,1-6.3-1.276,1.293,1.293,0,0,0-1.5.423,10.4,10.4,0,0,1-5.013,2.916" transform="translate(-12.662 -101.361)" fill="#feca2e"/>
    <path id="Trazado_220098" data-name="Trazado 220098" d="M171.143,47.021a9.977,9.977,0,0,1-4.83-2.759,1.639,1.639,0,0,0-2-.461,22.005,22.005,0,0,1-6.029,1.186c-.331.028-.389-.117-.416-.385a15.929,15.929,0,0,0-4.081-9.1,17.53,17.53,0,0,0-2.109-2.017h14.639a3.571,3.571,0,0,0,.633-.024A1.148,1.148,0,0,0,166.9,31.2a4.335,4.335,0,0,0-.634-.017q-8.8,0-17.6,0a2.228,2.228,0,0,1-.993-.221,20.916,20.916,0,0,0-7.524-2c-.646-.047-.654-.072-.512-.92a14.048,14.048,0,0,1,4.9-8.575,18.407,18.407,0,0,1,13.971-4.356,18.816,18.816,0,0,1,11.975,5.3A13.069,13.069,0,0,1,174.8,30.49a13.5,13.5,0,0,1-3.766,8.876,2.834,2.834,0,0,0-.716,1.408,9.324,9.324,0,0,0,.664,5.853c.046.1.084.2.161.393" transform="translate(-118.042 -12.717)" fill="#a7e446"/>
    <path id="Trazado_220099" data-name="Trazado 220099" d="M70.517,241.725H61.35a3.891,3.891,0,0,1-.518-.013,1.149,1.149,0,0,1,.009-2.283,4.145,4.145,0,0,1,.518-.012H79.752a4,4,0,0,1,.518.012,1.149,1.149,0,0,1-.009,2.283,4.089,4.089,0,0,1-.518.012H70.517" transform="translate(-50.594 -202.487)"/>
    <path id="Trazado_220100" data-name="Trazado 220100" d="M98.176,194.511c2.363,0,4.727,0,7.091,0a1.25,1.25,0,0,1,1.072.444,1.071,1.071,0,0,1,.167,1.136,1.1,1.1,0,0,1-.96.719c-.381.033-.768.013-1.152.013H91.365c-.154,0-.308.006-.461,0a1.159,1.159,0,0,1-1.154-1.127,1.136,1.136,0,0,1,1.162-1.172c1.287-.019,2.575-.006,3.862-.007h3.4" transform="translate(-75.907 -164.506)"/>
    <path id="Trazado_220101" data-name="Trazado 220101" d="M60.943,196.852a1.151,1.151,0,1,1,1.173-1.159,1.163,1.163,0,0,1-1.173,1.159" transform="translate(-50.587 -164.542)" fill="#010101"/>
    <path id="Trazado_220102" data-name="Trazado 220102" d="M222.317,77.094c-2.382,0-4.765.009-7.147,0a1.149,1.149,0,0,1-1.085-1.742,1.3,1.3,0,0,1,1.241-.566q6.167.012,12.334,0c.576,0,1.153,0,1.729,0,.841.005,1.365.445,1.37,1.144s-.521,1.161-1.352,1.162q-3.545.006-7.089,0" transform="translate(-180.913 -63.247)"/>
    <path id="Trazado_220103" data-name="Trazado 220103" d="M185.178,77.133a1.151,1.151,0,1,1,1.152-1.178,1.162,1.162,0,0,1-1.152,1.178" transform="translate(-155.644 -63.29)" fill="#010001"/>
  </g>
</svg>
