<svg id="Grupo_146878" data-name="Grupo 146878" xmlns="http://www.w3.org/2000/svg" xmlns:xlink="http://www.w3.org/1999/xlink" width="74.899" height="66.932" viewBox="0 0 74.899 66.932">
  <defs>
    <clipPath id="clip-path">
      <rect id="Rectángulo_89070" data-name="Rectángulo 89070" width="74.899" height="66.932" fill="none"/>
    </clipPath>
  </defs>
  <g id="Grupo_146879" data-name="Grupo 146879" clip-path="url(#clip-path)">
    <path id="Trazado_220065" data-name="Trazado 220065" d="M74.9,63.725c-.226.124-.185.379-.265.569a4.05,4.05,0,0,1-3.628,2.627c-.193.018-.389.008-.584.008H5.1c-2.589,0-4.635-1.4-4.9-3.767-.523-4.655-.154-9.194,2.754-13.17.443-.606.931-.916,1.67-.552a.984.984,0,0,1,.606,1.34,3.916,3.916,0,0,1-.532.952,13.277,13.277,0,0,0-2.238,7.579c0,.9-.012,1.8,0,2.7a2.36,2.36,0,0,0,2.505,2.527c.705.012,1.411-.005,2.116,0,.461.007.665-.2.661-.655,0-.681,0-1.362,0-2.043,0-.267-.008-.535.011-.8a1.388,1.388,0,0,1,1.126-1.417c.659-.112,1.131.227,1.444,1.038.041,1.022.008,2.045.02,3.068.009.776.042.814.843.815q8.219,0,16.437,0c1.851,0,3.7.017,5.552-.01.826-.012.86-.059.87-.879s-.015-1.656.014-2.484a1.614,1.614,0,0,1,.5-1.253,1.27,1.27,0,0,1,1.368-.221,1.14,1.14,0,0,1,.719,1.094c.052.949.009,1.9.024,2.849.013.821.069.884.866.89.73.006,1.462.033,2.191-.013a2.28,2.28,0,0,0,2.3-2.128c.172-2.8.2-5.621-.945-8.269A13.289,13.289,0,0,0,30.3,45.866a1.459,1.459,0,0,0-1.163.31,9.024,9.024,0,0,1-1.617.989,10.246,10.246,0,0,1-4.98,1.22A10.506,10.506,0,0,1,16,46.237a2.062,2.062,0,0,0-1.817-.4A15.863,15.863,0,0,0,8.6,47.864a1.118,1.118,0,0,1-1.771-.384c-.274-.894-.158-1.212.613-1.7A17.763,17.763,0,0,1,14.2,43.415c.336-.056.672-.108,1-.181a1.661,1.661,0,0,0,1.227-2.2c-.074-.205-.264-.276-.418-.384a9.948,9.948,0,0,1-4.28-6.928,4.456,4.456,0,0,0-.4-1.47,11.649,11.649,0,0,1-1.19-4.181c-.156-1.29-.788-2.45-.94-3.738a4.891,4.891,0,0,1,.76-3.616,1.1,1.1,0,0,0,.181-.537,3.846,3.846,0,0,1,2.079-2.99,1.4,1.4,0,0,0,.684-.691A3.237,3.237,0,0,1,15.2,14.641a1.838,1.838,0,0,0,.862-.477,3.445,3.445,0,0,1,2.952-.937.827.827,0,0,0,.666-.141,4.637,4.637,0,0,1,5.135-.022.811.811,0,0,0,.66.173,3.453,3.453,0,0,1,3.015.953,1.71,1.71,0,0,0,.8.445,3.306,3.306,0,0,1,2.342,1.908,1.167,1.167,0,0,0,.577.6,3.971,3.971,0,0,1,2.176,3.014.979.979,0,0,0,.114.485,5.172,5.172,0,0,1,.561,4.813,23.292,23.292,0,0,0-.821,3.689,2.707,2.707,0,0,1-.138.641c-.829,2.049-1.259,4.221-1.948,6.309A8.378,8.378,0,0,1,28.7,40.5a1.386,1.386,0,0,0-.589,1.614A1.331,1.331,0,0,0,29.3,43.233c.689.146,1.389.246,2.077.4.9.2,1.789.423,2.721.645.09-1.063-.005-2.128.136-3.188a13.416,13.416,0,0,1,7.02-10.4c.462-.262.685-.511.627-1.053-.054-.506,0-1.022-.013-1.533a1.13,1.13,0,0,1,.727-1.216c1.184-.241,1.62.1,1.662,1.3a3.558,3.558,0,0,1,0,.365c-.037.539.183.707.7.532.832-.281,1.7-.418,2.548-.641.9-.236,1.151-.584,1.174-1.5a4.684,4.684,0,0,1,0-.511,2.262,2.262,0,0,0-.869-2.175A8.994,8.994,0,0,1,45.648,21c-.07-.155-.123-.318-.207-.467-.194-.344-.515-.326-.834-.275s-.337.313-.345.561c-.021.657.033,1.317-.027,1.971a1.07,1.07,0,0,1-1.371,1.067,1.094,1.094,0,0,1-1-1.219c0-.585,0-1.169,0-1.753a8.332,8.332,0,0,0-.487-2.326c-.613-2.077-.912-4.279.333-6.311a1.736,1.736,0,0,0,.208-.749,12.638,12.638,0,0,1,25.106-.548,3.535,3.535,0,0,0,.6,1.737c.643.891.645,5.149-.008,6.026a2.668,2.668,0,0,0-.464,1.757q.013,4.639,0,9.278c0,.344.005.6.4.819A13.39,13.39,0,0,1,74.789,41.05c.008.059.073.109.111.164v.292a1.117,1.117,0,0,0,0,.877Z" transform="translate(0 0)"/>
    <path id="Trazado_220066" data-name="Trazado 220066" d="M382.69,213.34a.648.648,0,0,1,0-.877Z" transform="translate(-307.79 -170.957)" fill="#222"/>
    <path id="Trazado_220067" data-name="Trazado 220067" d="M16.012,234.777a1.217,1.217,0,0,0,1.753.176,16.558,16.558,0,0,1,6.439-2.17.537.537,0,0,1,.471.112c3.666,2.923,7.647,3.284,11.9,1.457a1.155,1.155,0,0,1,.924.353,14.589,14.589,0,0,1,5.585,9.678,41.2,41.2,0,0,1,.131,5.4,3.192,3.192,0,0,1-.292,1.2,1.411,1.411,0,0,1-1.49,1.006c-7.085-.028-14.171-.016-21.256-.017-.77,0-.76,0-.774-.8-.019-1.069.062-2.14-.045-3.207a1.076,1.076,0,0,0-1.309-.871c-.692.136-.9.663-.893,1.312.006,1.045-.011,2.091.008,3.136.007.369-.093.516-.488.505-.947-.026-1.9.018-2.844-.018a2.368,2.368,0,0,1-2.36-2.164,22.267,22.267,0,0,1,.536-7.377,14.66,14.66,0,0,1,1.952-3.967c.528-.763.481-1.129-.154-1.779.828-.549,1.44-1.341,2.207-1.958" transform="translate(-9.182 -187.296)" fill="#feca2e"/>
    <path id="Trazado_220068" data-name="Trazado 220068" d="M218.288,106.17c.884-.105,1.184-.43,1.194-1.313.007-.632-.009-1.264.007-1.895.006-.236-.126-.625.307-.587s1.034-.315,1.235.268a9.711,9.711,0,0,0,3.1,4.491.518.518,0,0,1,.188.447c0,.7.007,1.409-.011,2.113a1.183,1.183,0,0,1-1.018,1.164c-1.241.321-2.486.626-3.724.937-.378-.976.635-2.748-1.554-2.594.114-.141.4-.122.384-.38a11.689,11.689,0,0,0-.112-2.651" transform="translate(-175.424 -82.318)" fill="#756e77"/>
    <path id="Trazado_220069" data-name="Trazado 220069" d="M216.892,272.165c.959-2.145.586-4.407.506-6.622a14.383,14.383,0,0,0-2.218-7.015c-.224-.368-.341-.567.274-.566q10.814.023,21.628.013a.789.789,0,0,1,.143.026,1.293,1.293,0,0,1,.235.968q.008,5.664,0,11.327a3.86,3.86,0,0,1-.059.727c-.192,1-.45,1.215-1.452,1.215q-9.135,0-18.27,0a1.482,1.482,0,0,1-.787-.072" transform="translate(-172.997 -207.568)" fill="#e9f1fe"/>
    <path id="Trazado_220070" data-name="Trazado 220070" d="M67.376,99.426a10.432,10.432,0,0,1-6.186-2.631,7.522,7.522,0,0,1-1.865-3.657c-.551-1.852-.731-3.8-1.316-5.657a2.48,2.48,0,0,1,.5-2.4A1.718,1.718,0,0,0,58.893,84a1.732,1.732,0,0,1,1.115-1.647,2.444,2.444,0,0,0,1.408-1.48,1.3,1.3,0,0,1,1.172-.854,1.909,1.909,0,0,0,1.315-.7,1.533,1.533,0,0,1,1.888-.5,2.529,2.529,0,0,1,2.621,1.785,1.294,1.294,0,0,0,.712.6A3.189,3.189,0,0,1,70.931,83.7a1.478,1.478,0,0,0,.189.624,5.161,5.161,0,0,1,.345,4.755,9.086,9.086,0,0,0-.4,1.627,15.056,15.056,0,0,1-1.333,4.677,12.554,12.554,0,0,0-.551,2.411c-.063.235-.136.467-.213.7-.351,1.053-.413,1.09-1.587.934" transform="translate(-46.58 -63.317)" fill="#756e78"/>
    <path id="Trazado_220071" data-name="Trazado 220071" d="M99.922,95.657c.88.174,1.212-.287,1.448-1.073.348-1.157.3-2.413.9-3.5a14.493,14.493,0,0,0,1.183-4.386c.1-.52.266-1.029.408-1.541.439-1.58.7-3.14-.455-4.56a.83.83,0,0,1-.106-.488,2.867,2.867,0,0,0-1.671-2.461,1.87,1.87,0,0,1-1.043-1.114,2.178,2.178,0,0,0-1.777-1.342c-.163-.029-.346.019-.472-.136a2.563,2.563,0,0,0,1.741-.622,2.245,2.245,0,0,1,2.657.016,2.231,2.231,0,0,0,2.1.5,1.327,1.327,0,0,1,1.374.485,2.274,2.274,0,0,0,1.488.824,1.3,1.3,0,0,1,1.139.9,2.273,2.273,0,0,0,1.315,1.385,1.813,1.813,0,0,1,1.194,1.756,1.482,1.482,0,0,0,.338.948,2.872,2.872,0,0,1,.464,2.842c-.521,1.609-.712,3.274-1.107,4.9a14.432,14.432,0,0,1-1.454,3.412,5.026,5.026,0,0,1-2.1,1.764,12.476,12.476,0,0,1-7.226,1.6,1.4,1.4,0,0,1-.34-.113" transform="translate(-79.126 -59.549)" fill="#665e66"/>
    <path id="Trazado_220072" data-name="Trazado 220072" d="M197.731,157.3a56.752,56.752,0,0,0-.629,6.8,49.508,49.508,0,0,0,.723,10.036c.094.534.012.672-.53.661q-2.374-.045-4.75,0c-.491.009-.711-.089-.659-.629a11.413,11.413,0,0,0,.005-1.534,1.117,1.117,0,0,0-1.067-1.166,1.106,1.106,0,0,0-1.116,1.184c-.017.681,0,1.363,0,2.023-.158.121-.25.034-.336-.052a15.636,15.636,0,0,0-3.287-2.534.5.5,0,0,1-.316-.44c-.129-3.111.1-6.136,1.949-8.812a11.476,11.476,0,0,1,6.5-4.672c1.139-.321,2.3-.566,3.517-.862" transform="translate(-149.451 -126.569)" fill="#a7e446"/>
    <path id="Trazado_220073" data-name="Trazado 220073" d="M51.973,248.415a10.427,10.427,0,0,1,.1,3.035c-.019.757.21.925.94.922,6.819-.028,13.638-.017,20.456-.017,1.411,0,2.116-.58,2.142-1.987.05-2.738.217-5.5-.724-8.149a14.2,14.2,0,0,0-2.807-4.9,12.317,12.317,0,0,0-2.887-2.514c.644-.433,1.3-.849,1.926-1.306a.945.945,0,0,1,.753-.147,13.589,13.589,0,0,1,12.013,11.237,25.357,25.357,0,0,1,.174,5.609,2.4,2.4,0,0,1-2.415,2.281c-.948.032-1.9-.008-2.848.016-.389.009-.5-.132-.5-.507.019-1.047.013-2.094,0-3.14-.008-.888-.387-1.338-1.093-1.329s-1.082.474-1.093,1.353c-.013,1-.022,2,.005,2.994.012.452-.088.635-.6.634q-11.5-.021-23.005.005c-.465,0-.577-.151-.566-.586.03-1.167.019-2.336.024-3.5" transform="translate(-41.8 -187.752)" fill="#cba124"/>
    <path id="Trazado_220074" data-name="Trazado 220074" d="M224.511,272.175l18.845,0c1.075,0,1.433-.34,1.485-1.455.025-.534,0-1.071,0-1.607q0-5.551,0-11.1c2.677-.01,5.355-.014,8.032-.037.344,0,.455.087.454.444-.013,4.017,0,8.035-.02,12.052a1.84,1.84,0,0,1-2.025,1.839c-2.435.013-4.87.007-7.3.007q-9.423,0-18.846,0c-.216,0-.433-.025-.649-.04-.007,0-.021-.031-.017-.042a.281.281,0,0,1,.043-.059" transform="translate(-180.616 -207.578)" fill="#dae7f8"/>
    <path id="Trazado_220075" data-name="Trazado 220075" d="M259.721,194.442c-1.095,0-2.19-.015-3.285.008-.391.008-.527-.109-.6-.512a50.394,50.394,0,0,1-.708-11.772c.021-.4.111-.5.512-.372a12.987,12.987,0,0,0,8.238-.014c.364-.12.444-.008.465.352a49.448,49.448,0,0,1-.711,11.843c-.067.371-.19.48-.553.474-1.119-.02-2.239-.007-3.358-.007" transform="translate(-205.223 -146.231)" fill="#dae7f8"/>
    <path id="Trazado_220076" data-name="Trazado 220076" d="M310.771,161.427l-.519-4.074c2.587.628,5.2,1.04,7.354,2.734a11.4,11.4,0,0,1,4.588,9.263c.018,1.607-.014,3.214.013,4.82.008.48-.077.7-.623.668a26.278,26.278,0,0,0-2.7,0c-.539.027-.667-.176-.63-.666a13.29,13.29,0,0,0,0-1.533,1.087,1.087,0,1,0-2.173-.057c-.038.606-.023,1.217-.009,1.825.007.31-.1.426-.418.424q-2.592-.015-5.186,0c-.579,0-.41-.3-.278-.6a6.478,6.478,0,0,0,2.865.211c.442,0,.429-.391.434-.7.015-.945,0-1.889.008-2.834a2.016,2.016,0,0,1,.138-1c.265-.291.622-.238.956-.242,1.022-.012,2.044.008,3.066-.008a1.947,1.947,0,0,0,2.132-2.134c.009-.584.03-1.169-.012-1.752a1.875,1.875,0,0,0-1.843-1.813c-1.24-.041-2.482-.014-3.723-.009a4,4,0,0,0-1.314.406c-.4.039-.44-.309-.57-.541a14.574,14.574,0,0,0-1.558-2.388" transform="translate(-249.49 -126.613)" fill="#85b638"/>
    <path id="Trazado_220077" data-name="Trazado 220077" d="M251.038,67.585a3.359,3.359,0,0,0-1.051,1.792,3.721,3.721,0,0,1-1.878,1.92,7.017,7.017,0,0,1-5.533-6.162c-.088-1.429-.018-2.866-.053-4.3-.014-.583.368-.453.684-.45a15.834,15.834,0,0,0,5.93-.938,17.544,17.544,0,0,0,2.317-1.2c.421.049.378.4.381.66.022,2.153.07,4.307-.021,6.458a3.284,3.284,0,0,1-.776,2.217" transform="translate(-195.143 -46.87)" fill="#fedccd"/>
    <path id="Trazado_220078" data-name="Trazado 220078" d="M238.508,17.266a7.2,7.2,0,0,1-4.736,2.867,32.664,32.664,0,0,1-7.116.42c-.587,0-.475-.36-.4-.686a10.444,10.444,0,0,1,6.859-7.884,6.253,6.253,0,0,1,2.269-.474,1.983,1.983,0,0,1,2.294.935,5.61,5.61,0,0,1,.831,4.822" transform="translate(-182.006 -9.194)" fill="#756e78"/>
    <path id="Trazado_220079" data-name="Trazado 220079" d="M264.646,134.3c.315,2.146.62,4.239.93,6.331.053.36.055.613-.4.772a11.213,11.213,0,0,1-7.721,0c-.38-.136-.524-.3-.458-.731.306-2,.576-4,.851-6,.029-.208.024-.414.318-.311a9.5,9.5,0,0,0,6.477-.068" transform="translate(-206.78 -108.063)" fill="#fedccd"/>
    <path id="Trazado_220080" data-name="Trazado 220080" d="M286.116,59.4a9.668,9.668,0,0,0,.6-3.848c-.045-1.58-.006-3.161-.014-4.742,0-.255.1-.544-.168-.745a12.608,12.608,0,0,0,2-1.987,9,9,0,0,0,3.1,3.5.455.455,0,0,1,.24.417c-.038,1.8.09,3.6-.093,5.4a4.611,4.611,0,0,1-.14.641c-.145.58-.27,1.01-1.124.847a15.359,15.359,0,0,0-2.84-.041,3.156,3.156,0,0,0-1.555.557" transform="translate(-230.221 -38.685)" fill="#fecabd"/>
    <path id="Trazado_220081" data-name="Trazado 220081" d="M276.356,17.047c-.089-1.265.145-2.554-.445-3.778a5.665,5.665,0,0,0-1.416-1.808c-.365-.321-.846-.073-1.264-.171a8.625,8.625,0,0,1,5.105.692,10.4,10.4,0,0,1,6.288,7.6c.134.571-.02.733-.629.768-1.711.1-2.556-1.063-3.421-2.212a5.685,5.685,0,0,1-.762-1.566,1.552,1.552,0,0,0-2.906-.291c-.166.265-.367.508-.552.761" transform="translate(-219.854 -8.975)" fill="#665e66"/>
    <path id="Trazado_220082" data-name="Trazado 220082" d="M314.251,186.323c0,1.407-.012,2.814.007,4.221.006.429-.116.616-.575.6-.8-.029-1.6-.021-2.4,0-.35.008-.566-.081-.558-.47.215-1.883.493-3.759.616-5.655.154-2.387.044-4.767-.038-7.15.07-.094.159-.118.229-.019a11.061,11.061,0,0,1,1.694,2.9c.1.181-.006.33-.088.474a4.536,4.536,0,0,0-.36,3.045,2.207,2.207,0,0,0,1.032,1.6c.182.115.387.215.441.457" transform="translate(-250.021 -143.052)" fill="#a7e446"/>
    <path id="Trazado_220083" data-name="Trazado 220083" d="M99.889,217.975a8.5,8.5,0,0,1-9.242.047c-.241-.158-.277-.264-.067-.491a3.147,3.147,0,0,0,.788-1.694c.048-.317.112-.41.447-.3a10.259,10.259,0,0,0,6.45.011c.184-.059.392-.168.425.162a3.748,3.748,0,0,0,1.2,2.266" transform="translate(-72.774 -173.385)" fill="#fedccd"/>
    <path id="Trazado_220084" data-name="Trazado 220084" d="M312.6,128.479c-1.329-.336-2.578-.637-3.819-.97a1.255,1.255,0,0,1-1.017-1.4c.016-.316.014-.633,0-.949-.013-.3.1-.43.411-.463a2.586,2.586,0,0,0,1.926-1.178.686.686,0,0,1,.594-.336,14.98,14.98,0,0,0,1.52-.158c.216-.033.385-.1.384.215,0,1.723,0,3.446,0,5.238" transform="translate(-247.635 -98.968)" fill="#665e66"/>
    <path id="Trazado_220085" data-name="Trazado 220085" d="M96.964,189.067a14.742,14.742,0,0,0,9.111-1.717c-1.373,3.324-7.139,4.92-10.712,3a12.055,12.055,0,0,0,1.6-1.288" transform="translate(-76.733 -150.75)" fill="#fecabd"/>
    <path id="Trazado_220086" data-name="Trazado 220086" d="M326.761,71.406c0-.583.009-1.167,0-1.75-.007-.3.089-.463.414-.439.145.011.292,0,.437,0,1.124,0,1.157.031,1.157,1.131,0,.8-.015,1.6.005,2.406.014.55-.2.788-.769.8-1.242.024-1.241.043-1.241-1.2q0-.474,0-.948" transform="translate(-262.923 -55.693)" fill="#a7e446"/>
    <path id="Trazado_220087" data-name="Trazado 220087" d="M223.049,71.232v.949c0,1.179-.377,1.461-1.548,1.163a.583.583,0,0,1-.465-.644c0-1,0-2,0-2.993,0-.454.229-.643.67-.68,1.345-.112,1.344-.121,1.344,1.184Z" transform="translate(-177.854 -55.505)" fill="#a7e446"/>
    <path id="Trazado_220088" data-name="Trazado 220088" d="M82.681,189.23a2.158,2.158,0,0,1-1.6,1.288,7.52,7.52,0,0,1-3.468-2.965,16.983,16.983,0,0,0,5.069,1.677" transform="translate(-62.45 -150.913)" fill="#fcdbcc"/>
    <path id="Trazado_220089" data-name="Trazado 220089" d="M293.855,115.587c-.411,0-.822.011-1.233,0a.554.554,0,0,1-.608-.578.573.573,0,0,1,.624-.642q1.233-.02,2.466,0a.563.563,0,0,1,.607.585c.018.421-.226.622-.623.636s-.822,0-1.233,0" transform="translate(-234.966 -92.013)" fill="#feca2e"/>
    <path id="Trazado_220090" data-name="Trazado 220090" d="M323.074,102.444c.727-.158.784.261.7.79a1.556,1.556,0,0,1-1.863,1.2c-.263-.059-.3-.168-.193-.4.185-.418.351-.846.507-1.276.167-.462.558-.257.848-.308" transform="translate(-258.825 -82.404)" fill="#645c64"/>
    <path id="Trazado_220091" data-name="Trazado 220091" d="M271.119,117.129a18.479,18.479,0,0,0,1.878-1.92,3.079,3.079,0,0,0,.513,2.065,4.823,4.823,0,0,1-2.391-.145" transform="translate(-218.154 -92.702)" fill="#f9c6b9"/>
    <path id="Trazado_220092" data-name="Trazado 220092" d="M321.713,195.935A2.573,2.573,0,0,1,320,193.149a3.883,3.883,0,0,1,.686-2.793,2.841,2.841,0,0,1,1.959-.626c1.02.031,2.042-.008,3.063.013a2.221,2.221,0,0,1,2.339,2.334c.016.583.023,1.168-.012,1.75a2.166,2.166,0,0,1-2.168,2.119c-1.385.029-2.771,0-4.156-.011" transform="translate(-257.484 -152.663)"/>
    <path id="Trazado_220093" data-name="Trazado 220093" d="M333.046,202.73c-.291,0-.582,0-.873,0-1.089-.016-.906.148-.976-.97-.044-.7.15-.948.869-.882a16.784,16.784,0,0,0,2.181.007c.44-.017.64.07.636.583-.012,1.263.017,1.263-1.254,1.263Z" transform="translate(-266.49 -161.626)" fill="#fdcf63"/>
  </g>
</svg>
