<svg id="Grupo_146872" data-name="Grupo 146872" xmlns="http://www.w3.org/2000/svg" xmlns:xlink="http://www.w3.org/1999/xlink" width="73.353" height="51.272" viewBox="0 0 73.353 51.272">
  <defs>
    <clipPath id="clip-path">
      <rect id="Rectángulo_89065" data-name="Rectángulo 89065" width="73.353" height="51.272" fill="none"/>
    </clipPath>
  </defs>
  <g id="Grupo_146871" data-name="Grupo 146871" clip-path="url(#clip-path)">
    <path id="Trazado_219907" data-name="Trazado 219907" d="M76.2,3.3a3.887,3.887,0,0,0,1.06.257,9.131,9.131,0,0,1,6.914,8,7.731,7.731,0,0,1,.054,1.246c-.023.333.08.466.419.422a3.113,3.113,0,0,1,.49.009.1.1,0,0,1-.046.133c-.71.187-.7.187-.713.965a25.563,25.563,0,0,1-.054,2.838.249.249,0,0,1-.109.114.988.988,0,0,1-.566.081q-9.92,0-19.84,0c-.1,0-.209,0-.313-.006-.38-.038-.425-.116-.2-.431a1.534,1.534,0,0,0,.257-.928,20.342,20.342,0,0,1,.123-3.031,9.3,9.3,0,0,1,7.789-7.74,27.585,27.585,0,0,1,3.3-.1c.253-.007.507.013.759-.013a.83.83,0,0,0,.659-1.308c-.091-.158-.287-.287-.162-.514Z" transform="translate(-55.609 -2.909)" fill="#fc4b52"/>
    <path id="Trazado_219908" data-name="Trazado 219908" d="M50.555,3.3a.413.413,0,0,0,.169.3A.946.946,0,0,1,50.9,4.753a.9.9,0,0,1-.947.519c-.894,0-1.788-.017-2.681,0a8.957,8.957,0,0,0-6.064,2.4A9.123,9.123,0,0,0,38.453,12.4a13.871,13.871,0,0,0-.23,3.589A1.409,1.409,0,0,1,37.7,17.25h.556l19.975,0c.179,0,.357.006.536.009q.04.021.034.051c0,.022-.01.032-.018.032l-.015.015a.728.728,0,0,1-.508.121c-.667,0-1.334.015-2-.007-.312.027-.624.013-.936.013H41.141c-.609,0-1.219.007-1.828-.011-.84.013-1.681.016-2.521,0-.665.022-1.331.009-2,.007a.649.649,0,0,1-.5-.136c0-1.9-.143-3.821.02-5.711a8.8,8.8,0,0,1,4.638-7.178,8.076,8.076,0,0,1,3.27-1.078c.037,0,.069-.047.1-.073Z" transform="translate(-30.148 -2.909)" fill="#fe8b94"/>
    <path id="Trazado_219909" data-name="Trazado 219909" d="M76.519,120.782c1.665,0,3.33-.013,4.995-.012q6,0,12,.007a.959.959,0,0,1,.133.681c0,1.348.009,2.7,0,4.045a.968.968,0,0,0,.31.831c-.43.031-.478.3-.452.662a6.367,6.367,0,0,1-.149,1.53c-.026.152-.093.336.153.386-.321.6-.406,1.282-.677,1.9a8.953,8.953,0,0,1-5.335,5.009,8.794,8.794,0,0,1-1.74.491.672.672,0,0,1-.554-.05c-.054-.1.015-.166.056-.242.324-.6.15-1.005-.5-1.163a14.355,14.355,0,0,1-1.972-.559,8.942,8.942,0,0,1-5.712-6.745,8.378,8.378,0,0,1-.224-2.035c.016-.654.023-1.31,0-1.963a5.447,5.447,0,0,0-.32-2.772" transform="translate(-67.376 -106.34)" fill="#feead1"/>
    <path id="Trazado_219910" data-name="Trazado 219910" d="M89.814,296.982l-14.407,0a.622.622,0,0,1-.14-.459c.007-3.277-.039-6.554.023-9.831a.325.325,0,0,1,.147-.27c.223.086.17.288.176.453.015.371.006.742,0,1.113,0,.223.089.3.3.22.293-.1.59-.2.886-.3.455-.148.4-.577.523-.909.2-.13.3.042.414.139a7.444,7.444,0,0,0,4.285,1.911,6.774,6.774,0,0,0,3.312-.52,7.145,7.145,0,0,0,3.623-3.355.634.634,0,0,1,.244-.311.614.614,0,0,1,.682.317,2.091,2.091,0,0,1,.056.664c0,3.512.008,7.024-.02,10.536a.86.86,0,0,1-.113.6" transform="translate(-66.265 -250.818)" fill="#cae2f9"/>
    <path id="Trazado_219911" data-name="Trazado 219911" d="M56.945,120.865A1.46,1.46,0,0,1,57.4,122.1c-.03,1.236-.044,2.474,0,3.709a9.111,9.111,0,0,0,2.917,6.665,9.371,9.371,0,0,0,4.827,2.321c.372.066.714.2.815.586a.8.8,0,0,1-.34.936c-.09.2-.279.192-.454.215a10.65,10.65,0,0,1-4.649-.549c-.544-.274-1.117-.486-1.643-.8a9,9,0,0,1-3.929-4.649,9.967,9.967,0,0,0-.5-1.544c.174-.017.107-.129.1-.228a22.445,22.445,0,0,1-.189-2.3c-.1-1.8-.051-3.6-.021-5.405a.345.345,0,0,1,.09-.2h2.529" transform="translate(-47.802 -106.423)" fill="#fef2e3"/>
    <path id="Trazado_219912" data-name="Trazado 219912" d="M167.854,209.257a9,9,0,0,0,5.081-4.623c.044-.093.074-.193.111-.29.78.526,1.621.215,2.438.167.753-.044,1.5-.132,2.255-.2a2.294,2.294,0,0,1,1.29.275,1.549,1.549,0,0,0,1.335.2c0,1.027.008,2.055,0,3.082a2.378,2.378,0,0,1-2.864,2.379.891.891,0,0,1-.686.108c-2.1-.2-4.2-.346-6.307-.448-.712-.035-1.424-.062-2.136-.072a.907.907,0,0,1-.517-.1.349.349,0,0,1,0-.48" transform="translate(-147.716 -179.893)" fill="#a7e446"/>
    <path id="Trazado_219913" data-name="Trazado 219913" d="M167.9,249.41c2.273,0,4.537.158,6.8.352.945.081,1.893.139,2.839.207q0,3.255,0,6.509c-.185.071-.307-.054-.433-.148a6.581,6.581,0,0,0-1.389-.755,23.366,23.366,0,0,1-2.565-.894c-.447-.163-.9-.3-1.352-.453a.981.981,0,0,1-.523-.317l-.6-.223a1.661,1.661,0,0,1-.885-.48,5.793,5.793,0,0,1-1.92-3.04c0-.253-.184-.513.026-.758" transform="translate(-147.75 -219.61)" fill="#9f7765"/>
    <path id="Trazado_219914" data-name="Trazado 219914" d="M232.655,300.215a7.562,7.562,0,0,1,1.783,1,5.957,5.957,0,0,1,1.655,2.945,5.744,5.744,0,0,1,.142,1.144c-.009,1.385,0,2.769,0,4.154,0,.774-.282,1.06-1.038,1.059-.878,0-1.757-.005-2.635-.008a.687.687,0,0,1-.133-.5q-.007-4.633,0-9.266c0-.193-.044-.434.226-.522" transform="translate(-204.65 -264.344)" fill="#cae2f9"/>
    <path id="Trazado_219915" data-name="Trazado 219915" d="M13.477,310.178c-.95,0-1.9,0-2.852,0-.561,0-.812-.254-.814-.818,0-1.663-.04-3.328.013-4.99a4.554,4.554,0,0,1,1.156-2.825c.171-.2.355-.391.533-.586a1.873,1.873,0,0,0,.1-.174,4.27,4.27,0,0,1,1.358-.873c.181-.076.4-.175.512.121a2.655,2.655,0,0,1,.042.668q0,2.458,0,4.917a13.044,13.044,0,0,0,.081,1.962c.007.669.015,1.337.008,2.006a.831.831,0,0,1-.141.592" transform="translate(-8.625 -264.008)" fill="#edf6fe"/>
    <path id="Trazado_219916" data-name="Trazado 219916" d="M2.968,200.933l-.08.076c0-2.024-.01-4.048,0-6.072,0-.351-.095-.45-.449-.453a2.327,2.327,0,0,1-2.333-2.131,18.4,18.4,0,0,1,.011-4.131,2.379,2.379,0,0,1,2.486-1.895c1.342.1,2.678.3,4.028.3a.534.534,0,0,1,.3.383,11.76,11.76,0,0,0,.321,1.139.637.637,0,0,1-.684.389c-.388,0-.766-.1-1.156-.089a2.2,2.2,0,0,0-2.224,2.213c-.016.64,0,1.281,0,1.921a8.952,8.952,0,0,1-.107,1.953c.07,1.978.021,3.956.028,5.933a.832.832,0,0,1-.143.462" transform="translate(0 -164.058)" fill="#d9febe"/>
    <path id="Trazado_219917" data-name="Trazado 219917" d="M201.734,293.76c-.155.147-.085.338-.085.507q-.011,4.892-.011,9.784l-4.278-.006a21.693,21.693,0,0,1-.046-2.31c-.008-.221.114-.2.257-.126.1.057.2.136.3.191a.8.8,0,0,0,1.206-.6,3.111,3.111,0,0,0,.018-.49q0-3.416,0-6.832a4.766,4.766,0,0,0-.048-.712c-.015-.1-.089-.237.094-.277a6.806,6.806,0,0,1,1.461.533c.378.11.754.228,1.131.342" transform="translate(-173.73 -257.889)" fill="#c69983"/>
    <path id="Trazado_219918" data-name="Trazado 219918" d="M40.6,310.021q0-1.3,0-2.593c.2-.023.275.153.4.251a.827.827,0,0,0,1.379-.42,2.255,2.255,0,0,0,.065-.664c0-1.415.008-2.83,0-4.245a2.2,2.2,0,0,1,1.414-2.22c.35-.15.682-.338,1.037-.476q0,5.181,0,10.362l-4.29,0" transform="translate(-35.75 -263.851)" fill="#c69982"/>
    <path id="Trazado_219919" data-name="Trazado 219919" d="M198.783,287.771a19,19,0,0,1,.087,3.128c.019,1.606-.007,3.213.012,4.82.006.5-.071.928-.557,1.158-.513.243-.91,0-1.326-.439v2.493a.206.206,0,0,1-.081.008q-.005-5.62-.011-11.239c0-.208-.008-.416-.012-.624.619.259,1.285.392,1.888.694" transform="translate(-173.369 -252.776)" fill="#dfb6a2"/>
    <path id="Trazado_219920" data-name="Trazado 219920" d="M219.316,189.134a.775.775,0,0,1-1.071.064,2.765,2.765,0,0,0-1.955-.372c-.754.131-1.527.151-2.293.209a6.942,6.942,0,0,0-.793.074,1.048,1.048,0,0,1-1.205-.421,9.088,9.088,0,0,0,.46-1.462.555.555,0,0,1,.337-.416c1.3,0,2.592-.225,3.893-.284a2.34,2.34,0,0,1,2.628,2.608" transform="translate(-186.667 -164.235)" fill="#d9febe"/>
    <path id="Trazado_219921" data-name="Trazado 219921" d="M37.094,120.81l0,5.219a.605.605,0,0,1-.073.386,2.5,2.5,0,0,1-2.408-2.718q0-1.136,0-2.271c0-.208.008-.415.012-.623l2.464.007" transform="translate(-30.48 -106.369)" fill="#6e6f80"/>
    <path id="Trazado_219922" data-name="Trazado 219922" d="M219.1,126.387c-.331.061-.455-.042-.45-.41.021-1.716.01-3.432.01-5.147l2.488.013q0,1.448-.008,2.9a2.5,2.5,0,0,1-2.041,2.648" transform="translate(-192.521 -106.392)" fill="#585966"/>
    <path id="Trazado_219923" data-name="Trazado 219923" d="M239.566,95.849q-.007-.042-.017-.083l.01-.01c.2-.171.447-.122.679-.135.506-.029.688-.2.7-.713.017-.62,0-1.241.006-1.861a1.076,1.076,0,0,1,.085-.562c.234-.092.241.105.243.225.006.376.231.423.534.418.564-.01,1.128.011,1.692-.007a2.237,2.237,0,0,1,1.493.483,1.25,1.25,0,0,0,.728.277,1.948,1.948,0,0,1-2.05,1.948c-1.368.013-2.736.013-4.1.019" transform="translate(-210.927 -81.414)" fill="#fc4b52"/>
    <path id="Trazado_219924" data-name="Trazado 219924" d="M252.36,88.507c-.208.194-.377.195-.6-.019a2.129,2.129,0,0,0-1.616-.617c-.609.03-1.221-.014-1.829.014-.374.017-.574-.065-.506-.483a.342.342,0,0,0-.078-.333,4.789,4.789,0,0,0-.628-.631c0-.022,0-.045-.008-.067,1.115,0,2.231-.028,3.345,0a1.927,1.927,0,0,1,1.925,2.139" transform="translate(-217.567 -76.038)" fill="#fe8c94"/>
    <path id="Trazado_219925" data-name="Trazado 219925" d="M106.717,58.972c-1.116,0-2.231,0-3.347,0-.581,0-.77-.214-.734-.8a4.133,4.133,0,0,1,8.2-.082c.1.606-.11.874-.725.877-1.131,0-2.261,0-3.392,0" transform="translate(-90.369 -48.025)" fill="#42434d"/>
    <path id="Trazado_219926" data-name="Trazado 219926" d="M240.443,86.944c.385.036.543.3.628.631,0,.841,0,1.683-.005,2.524,0,.549-.23.782-.769.789-.251,0-.5,0-.753,0,0-1.125.019-2.25-.011-3.373-.012-.437.089-.646.556-.564a1.852,1.852,0,0,0,.354,0" transform="translate(-210.912 -76.545)" fill="#e74857"/>
    <path id="Trazado_219927" data-name="Trazado 219927" d="M111.427,246.2l.084.809c-.046.467-.379.642-.771.749a10.614,10.614,0,0,1-2.155.348,12.545,12.545,0,0,1-3.94-.323,1.323,1.323,0,0,1-.956-.724,2.04,2.04,0,0,1,.084-.884.443.443,0,0,1,.142-.331,20.613,20.613,0,0,0,2.24.5,7.625,7.625,0,0,0,2.939-.048,8.249,8.249,0,0,0,2.323-.535q.005.218.011.436" transform="translate(-91.278 -216.398)" fill="#fed8ac"/>
    <path id="Trazado_219928" data-name="Trazado 219928" d="M111.125,144.447c0,.253.017.508,0,.759a.765.765,0,0,1-.734.711.753.753,0,0,1-.8-.632,5.656,5.656,0,0,1,0-1.69.724.724,0,0,1,.8-.614.741.741,0,0,1,.727.707c.02.252,0,.506,0,.759" transform="translate(-96.44 -125.896)" fill="#585966"/>
    <path id="Trazado_219929" data-name="Trazado 219929" d="M152.662,144.439c0,.253.016.507,0,.758a.77.77,0,0,1-1.536-.009c-.022-.5-.024-1.012,0-1.516a.724.724,0,0,1,.77-.7.74.74,0,0,1,.766.711c.019.251,0,.505,0,.758" transform="translate(-133.051 -125.887)" fill="#585966"/>
    <path id="Trazado_219930" data-name="Trazado 219930" d="M84.21,256.189c.478.8,1.335.75,2.077.867a12.83,12.83,0,0,0,4.667-.184,1.333,1.333,0,0,0,1.015-.688,5.984,5.984,0,0,0,1.652,2.709c.325.29.7.5,1.043.76a7.164,7.164,0,0,1-6.5,4.3,7.31,7.31,0,0,1-5.084-2.034c-.076-.07-.159-.133-.239-.2a4.861,4.861,0,0,1-1.375-2.068c.027-.133.138-.184.239-.245a5.228,5.228,0,0,0,2.22-2.685c.072-.187.082-.413.28-.537" transform="translate(-71.737 -225.573)" fill="#feead1"/>
    <path id="Trazado_219931" data-name="Trazado 219931" d="M44.238,288.058a1.382,1.382,0,0,1-.717.472,2.126,2.126,0,0,0-1.611,2.19c.015,1.533.011,3.067,0,4.6a1.009,1.009,0,0,1-1.428,1.036c-.239-.112-.363-.343-.534-.524-.171-2.15-.034-4.3-.077-6.454-.008-.416-.005-.832-.008-1.247.05-.263.3-.228.469-.3s.348-.136.52-.212c.995-.342,2-.651,2.986-1.021.175-.066.382-.217.564.014a1.742,1.742,0,0,1-.085,1.257l-.08.193" transform="translate(-35.097 -252.254)" fill="#dfb6a2"/>
    <path id="Trazado_219932" data-name="Trazado 219932" d="M76.921,286.569l.015-1.318c.138-.181.294-.311.538-.193a16.751,16.751,0,0,0,1.335,2.05c0,.829-.05.91-.854,1.167-.323.1-.724.4-.95.246s-.058-.634-.073-.971-.009-.655-.012-.982" transform="translate(-67.7 -250.958)" fill="#edf6fe"/>
    <path id="Trazado_219933" data-name="Trazado 219933" d="M34.568,206.992l-.03.369a.746.746,0,0,1-.462.132c-1.467-.032-2.926.128-4.389.191-.782.034-1.563.117-2.346.162-.589.015-1.173.091-1.759.147a.831.831,0,0,1-.676-.1,16.262,16.262,0,0,0,.084-2.638,10.45,10.45,0,0,1,.044-1.514,2.407,2.407,0,0,1,2.994-1.887,1.144,1.144,0,0,0,1.161-.216,8.8,8.8,0,0,0,4.914,5.1,1.2,1.2,0,0,1,.463.252" transform="translate(-21.932 -177.547)" fill="#a7e446"/>
    <path id="Trazado_219934" data-name="Trazado 219934" d="M24.854,252.7c.811.009,1.607-.2,2.42-.171a.821.821,0,0,1,.657.885c.014,1.248.01,2.5,0,3.745a.7.7,0,0,1-.312.65c-.281.244-.681.212-.977.42a5.989,5.989,0,0,0-1.8,1q0-3.264.007-6.528" transform="translate(-21.878 -222.352)" fill="#c69a83"/>
    <path id="Trazado_219935" data-name="Trazado 219935" d="M45.512,255.082a1.518,1.518,0,0,0,.184-.81c-.011-1.128-.026-2.257.006-3.384a1.139,1.139,0,0,0-.536-1.086c2.237-.175,4.474-.351,6.72-.372.164,0,.327.007.491.01l-.134.8a5.467,5.467,0,0,1-2.7,3.484l-.538.192c-1.161.4-2.3.848-3.493,1.164" transform="translate(-39.769 -219.627)" fill="#9f7765"/>
    <path id="Trazado_219936" data-name="Trazado 219936" d="M127.454,190.553c0,1.262-.675,2.286-1.508,2.286s-1.508-1.023-1.508-2.286.675-2.286,1.508-2.286,1.508,1.023,1.508,2.286" transform="translate(-109.569 -165.772)" fill="#fed8ac"/>
    <path id="Trazado_219937" data-name="Trazado 219937" d="M239.882,82.114c-.708-.7-1.432-1.393-2.12-2.117a2.742,2.742,0,0,1-.171-3.7,2.671,2.671,0,0,0,.14-3.431,5.368,5.368,0,0,1,.237-6.27,2.76,2.76,0,0,0,.452-2.795,5.316,5.316,0,0,1,.859-5.373,4.388,4.388,0,0,1,.979-.91,2.451,2.451,0,0,0,1.066-2.831,5.268,5.268,0,0,1,4.471-6.535,3.839,3.839,0,0,0,2.479-1.251,5.106,5.106,0,0,1,2.077-1.618h1.162a3,3,0,0,1,1.5,1.081.862.862,0,0,1-.274,1.112c-.633.525-1.186,1.13-1.775,1.7a3.159,3.159,0,0,1-1.862.886,5.464,5.464,0,0,0-2.811,1.051,5.032,5.032,0,0,0-1.931,5.356,2.67,2.67,0,0,1-1.1,3.008,5.15,5.15,0,0,0-2.163,3.855,5.3,5.3,0,0,0,.368,2.281,2.825,2.825,0,0,1-.451,2.856,5.34,5.34,0,0,0-.208,6.246,2.835,2.835,0,0,1-.184,3.5,2.444,2.444,0,0,0-.354,2.767,2.593,2.593,0,0,1,.19.453.8.8,0,0,1-.58.683" transform="translate(-208.535 -39.872)" fill="#6e6f80"/>
    <path id="Trazado_219938" data-name="Trazado 219938" d="M487.751,257.255a1.311,1.311,0,0,1-.515-.724,1.452,1.452,0,0,1-.057-.574c.007-6.872-.032-13.744-.018-20.616,0-.179-.005-.358.013-.536a.867.867,0,0,1,.844-.87.882.882,0,0,1,.917.8,8.563,8.563,0,0,1,.023,1.473q.031,4.828,0,9.657c.021.824.006,1.648.007,2.473a.779.779,0,0,1-.13.5q0,.311.007.622a7.91,7.91,0,0,1,.128,1.73c0,1.473,0,2.946,0,4.42a1.4,1.4,0,0,1-.132.737,1.024,1.024,0,0,1-.55.9Z" transform="translate(-428.951 -205.983)" fill="#42434d"/>
    <path id="Trazado_219939" data-name="Trazado 219939" d="M290.15,78.089q-.008-.627-.015-1.253c-.008-.588-.305-.933-.792-.921s-.729.3-.729.912q0,10.525,0,21.049c0,.172.066.36-.071.515l-.012.02-.022-.006a.782.782,0,0,1-.078-.138,2.479,2.479,0,0,1-.039-.666c0-2.606-.014-5.212.01-7.818a1.082,1.082,0,0,0-.638-1.105,8.217,8.217,0,0,0-1.188-.506c-1.174-.38-2.33-.811-3.5-1.2a4.24,4.24,0,0,1-1.21-.559,5.893,5.893,0,0,1-.751-.5,5.232,5.232,0,0,1-1.845-3.064,2.221,2.221,0,0,1-.021-1.093.685.685,0,0,1,.348-.264,9.392,9.392,0,0,0,5.368-7.386,11.219,11.219,0,0,0,.13-1.648c-.005-1.627-.012-3.254,0-4.88a1.242,1.242,0,0,0-.845-1.349,5.946,5.946,0,0,1-2.895-2.563c-.43-.714-.762-.8-1.451-.332a20.11,20.11,0,0,1-8.527,3.251,24.975,24.975,0,0,1-3.786.138,5.185,5.185,0,0,1-.579-.032c-.6-.064-.895.19-.9.808-.008,1.864.008,3.728-.008,5.593a8.338,8.338,0,0,0,.455,2.766,9.531,9.531,0,0,0,4.887,5.611c.182.093.4.135.508.342a3.865,3.865,0,0,1-.118,1.23,5.322,5.322,0,0,1-1.778,2.858,4.751,4.751,0,0,1-.814.524c-.373.169-.728.378-1.117.512-1.435.489-2.88.953-4.3,1.5a4.183,4.183,0,0,0-1.279.8c-.116.1-.214.262-.413.2a2.664,2.664,0,0,1,.19-3.446,2.6,2.6,0,0,0,.206-3.055,5.5,5.5,0,0,1,.168-6.653,2.575,2.575,0,0,0,.385-2.6A5.328,5.328,0,0,1,263.412,69a6.107,6.107,0,0,1,1.733-1.835,2.282,2.282,0,0,0,.877-2.4,5.4,5.4,0,0,1,.242-3.66,5.043,5.043,0,0,1,3.977-3.082,4.335,4.335,0,0,0,2.8-1.375,6.709,6.709,0,0,1,1.264-1.193,1.141,1.141,0,0,0,.438-1.12c.18.151.351.316.543.451A2.441,2.441,0,0,0,277.9,55a2.459,2.459,0,0,1,3.737,1.855,3.594,3.594,0,0,0,3.4,2.851,10.092,10.092,0,0,1,1.112.079,2.346,2.346,0,0,1,1.947,2.819,2.594,2.594,0,0,0,1.134,2.945,5.218,5.218,0,0,1,1.941,5.68c-.079.287-.159.574-.251.857a2.339,2.339,0,0,0,.4,2.276,5.622,5.622,0,0,1,1.222,3.962c-.033.029-.067.074-.111.068a9.805,9.805,0,0,1-2.28-.3" transform="translate(-230.262 -47.842)" fill="#585966"/>
    <path id="Trazado_219940" data-name="Trazado 219940" d="M501.2,291.447q0-1.485,0-2.969c.079-.187.256-.179.414-.209a7.977,7.977,0,0,0,6.14-5.03c.058-.137.106-.279.17-.413a.75.75,0,0,1,1.051-.439c.432.29.857.591,1.3.869a13.133,13.133,0,0,0,3.142,1.466,1.582,1.582,0,0,1,1.249,1.456,1.605,1.605,0,0,1-1.015,1.589,10.38,10.38,0,0,1-3.588.981,20.692,20.692,0,0,0-7.891,2.153q-.484.275-.969.547" transform="translate(-441.318 -248.587)" fill="#e0f6be"/>
    <path id="Trazado_219941" data-name="Trazado 219941" d="M508.984,256.7a.92.92,0,0,0-1.055.727,8.163,8.163,0,0,1-3.853,4.454,7.435,7.435,0,0,1-2.524.828c-.116.016-.228.054-.342.082q0-4.822,0-9.643a14.971,14.971,0,0,1,2.391.236c2.157.514,3.744,1.956,5.381,3.317" transform="translate(-441.324 -222.902)" fill="#f2fbe3"/>
    <path id="Trazado_219942" data-name="Trazado 219942" d="M501.217,370.807q0-3.443,0-6.887a2.99,2.99,0,0,1,.333,1.364c.02,1.6.013,3.2.019,4.807a.745.745,0,0,1-.357.715" transform="translate(-441.33 -320.438)" fill="#80a9fe"/>
    <path id="Trazado_219943" data-name="Trazado 219943" d="M255.655,329.033a6.239,6.239,0,0,1,2.615-1.472c1.131-.353,2.224-.818,3.372-1.122a8.963,8.963,0,0,0,1.2,1.993c.1.166.286.322.147.557a11.368,11.368,0,0,1-2,.73,5.949,5.949,0,0,0-2.055,1.129,4.873,4.873,0,0,0-1.714,3.552c-.038.832.007,1.666-.014,2.5-.012.466-.124.892-.654,1.045-.6-.019-1.193.04-1.787-.033a.752.752,0,0,1-.626-.843c.007-1.551-.018-3.1.01-4.654a5.114,5.114,0,0,1,.968-2.738l.542-.644" transform="translate(-223.766 -287.436)" fill="#85b638"/>
    <path id="Trazado_219944" data-name="Trazado 219944" d="M366.332,407.221l-.017.086-14.693-.007c-.581,0-1.161,0-1.742-.005a.1.1,0,0,1,.043-.139.5.5,0,0,1,.24-.066c2.335-.047,4.67-.008,7-.021,1.188-.007,1.045.1,1.064-1.049a1.366,1.366,0,0,1,.126-.866c.247.009.211.214.231.359a5.738,5.738,0,0,1,.015.757c0,.8,0,.8.776.8h4.5c.623,0,1.246,0,1.87,0a.778.778,0,0,1,.587.152" transform="translate(-308.064 -356.745)" fill="#ccd7ee"/>
    <path id="Trazado_219945" data-name="Trazado 219945" d="M270.224,421.285q0,.041,0,.082l-10.444.008c-.13,0-.271.034-.378-.082l1.881-.013a.963.963,0,0,1,.507-.141c2.3,0,4.593-.018,6.889.01.365-.017.731-.012,1.1,0a.564.564,0,0,1,.447.14" transform="translate(-228.408 -370.815)" fill="#d7e1f3"/>
    <path id="Trazado_219946" data-name="Trazado 219946" d="M312.56,130a20.973,20.973,0,0,0,5.71-.513,19.427,19.427,0,0,0,6.54-2.879.963.963,0,0,1,1.6.346,5.822,5.822,0,0,0,3.079,2.666.889.889,0,0,1,.651.866,57.9,57.9,0,0,1-.095,6.932,9.339,9.339,0,0,1-5.77,7.709.727.727,0,0,1-.379.3,9.544,9.544,0,0,1-6.295.151.464.464,0,0,1-.323-.216c.061-.192.233-.156.371-.173a1.405,1.405,0,0,0,1.237-1.069,1.224,1.224,0,0,0-.492-1.421,16.575,16.575,0,0,1-1.929-1.587,9.65,9.65,0,0,1-2.7-5.944c-.1-1.134-.069-2.265-.064-3.4a1.489,1.489,0,0,0-.976-1.584c-.081-.032-.169-.069-.165-.183" transform="translate(-275.215 -111.231)" fill="#dfb6a2"/>
    <path id="Trazado_219947" data-name="Trazado 219947" d="M408.984,337.9c-2.463,0-4.925-.015-7.387,0-.388,0-.508-.094-.5-.494a4.666,4.666,0,0,0-.065-1.584c-.1-.075-.119-.2-.155-.306a1.313,1.313,0,0,0-1.1-.943c-.443-.109-.9.013-1.345-.1-.262-.2-.037-.377.057-.529.44-.71.936-1.383,1.409-2.072q1.582-2.305,3.176-4.6a1.872,1.872,0,0,0,.37-.845c1.094.275,2.132.721,3.2,1.065a7.212,7.212,0,0,1,2.1.95.492.492,0,0,1,.259.429q-.015,4.515-.021,9.029" transform="translate(-350.716 -287.428)" fill="#a7e446"/>
    <path id="Trazado_219948" data-name="Trazado 219948" d="M300.544,156.621a1.6,1.6,0,0,1,1.264,1.815,24.422,24.422,0,0,0,.076,3.612,9.461,9.461,0,0,0,1.96,4.8,9.906,9.906,0,0,0,2.46,2.236,1.43,1.43,0,0,1,.756,1.376,1.65,1.65,0,0,1-.992,1.38,2.2,2.2,0,0,1-.79.082c-.179.112-.311.017-.436-.1a9.984,9.984,0,0,1-4.207-3.424,9.077,9.077,0,0,1-1.7-5.047c-.032-1.97-.019-3.941-.015-5.912a.8.8,0,0,1,1-.878c.207.025.415.038.622.056" transform="translate(-263.199 -137.848)" fill="#f1d0c1"/>
    <path id="Trazado_219949" data-name="Trazado 219949" d="M332.625,296.448a5.609,5.609,0,0,0,1.727-2.762c.064-.134.163-.123.249-.038a3.686,3.686,0,0,0,2.137.781,9.456,9.456,0,0,0,4.1-.249,3.656,3.656,0,0,0,1.169-.662,5.445,5.445,0,0,0,1.789,2.94,3.194,3.194,0,0,1-1.071,1.163,7.056,7.056,0,0,1-8.281.547,11.922,11.922,0,0,1-1.539-1.24.7.7,0,0,1-.283-.479" transform="translate(-292.882 -258.447)" fill="#dfb6a2"/>
    <path id="Trazado_219950" data-name="Trazado 219950" d="M341.63,319.724a8.987,8.987,0,0,0,2.263.9,7.011,7.011,0,0,0,6.311-1.724c.279-.243.531-.519.795-.78l.723.455a.181.181,0,0,1-.045.2c-1.188,1.562-2.241,3.218-3.368,4.823-.76,1.082-1.5,2.181-2.26,3.261a.739.739,0,0,1-.269.291,1.317,1.317,0,0,1-.689.014,2.675,2.675,0,0,1-.816-.983c-1.108-1.587-2.2-3.188-3.3-4.778-.089-.128-.226-.25-.151-.439a.724.724,0,0,1,.268-.139.689.689,0,0,0,.492-.776c-.011-.113-.052-.232.045-.331" transform="translate(-300.083 -280.114)" fill="#a7e446"/>
    <path id="Trazado_219951" data-name="Trazado 219951" d="M319.782,324.386l4.095,5.965c.025.037.047.076.07.114-.233.224-.527.136-.8.145a4.76,4.76,0,0,1-.924-.026.842.842,0,0,1-.5-.412c-1.09-1.626-2.231-3.218-3.316-4.848a.517.517,0,0,1-.14-.319,19.51,19.51,0,0,0-1.153-1.719,1.012,1.012,0,0,1-.219-.778l1.091-.534a1.076,1.076,0,0,1,.6.5c.31.509.686.973,1.007,1.474.086.134.217.253.186.438" transform="translate(-279.019 -283.504)" fill="#6e6f80"/>
    <path id="Trazado_219952" data-name="Trazado 219952" d="M382.84,330.435c.541-.944,1.208-1.8,1.816-2.7,1.144-1.691,2.311-3.366,3.475-5.043.184-.264.4-.5.606-.755a4.83,4.83,0,0,0,1.086.537c.174.291,0,.5-.156.726q-2.372,3.446-4.743,6.894c-.075.11-.142.226-.213.339a2.5,2.5,0,0,1-1.872,0" transform="translate(-337.097 -283.468)" fill="#6e6f80"/>
    <path id="Trazado_219953" data-name="Trazado 219953" d="M354.738,284.89a1.313,1.313,0,0,1-.95.719,9.675,9.675,0,0,1-5.981-.08,1.174,1.174,0,0,1-.492-.364c-.066-.072-.1-.2-.234-.108l.173-1.261.437.1a6.612,6.612,0,0,0,2,.521,9.341,9.341,0,0,0,4.53-.515c.153-.056.3-.123.452-.185a4.891,4.891,0,0,0,.065,1.171" transform="translate(-305.611 -249.819)" fill="#c69983"/>
    <path id="Trazado_219954" data-name="Trazado 219954" d="M327.925,320.924l-1.046-1.5a3.741,3.741,0,0,0-.75-.912l.776-.47a11.19,11.19,0,0,0,1.8,1.608c.195.813,0,1.127-.785,1.272" transform="translate(-287.162 -280.043)" fill="#85b638"/>
    <path id="Trazado_219955" data-name="Trazado 219955" d="M281.521,347.336c.848,1.087,1.572,2.26,2.369,3.382.489.688.96,1.389,1.439,2.084-.167.173-.385.126-.588.133a4.507,4.507,0,0,0-.975.066,1.412,1.412,0,0,0-1.066,1.325c-.015.476,0,.952-.006,1.429,0,.191.022.392-.143.542h-7.4a1.644,1.644,0,0,0,.454-1.337,13.175,13.175,0,0,1,.108-3.069,5.135,5.135,0,0,1,3.276-3.721c.827-.325,1.689-.56,2.535-.836" transform="translate(-242.272 -305.835)" fill="#a7e446"/>
    <path id="Trazado_219956" data-name="Trazado 219956" d="M358.592,393.869a1.357,1.357,0,0,1,1.166,1.337c0,.551-.022,1.1,0,1.652.016.344-.111.425-.436.423-2.629-.012-5.259-.008-7.889-.008a6.453,6.453,0,0,1,.128-1.148,1.672,1.672,0,0,1,1.776-1.485c1.339-.015,2.678,0,4.017,0h.446c.742,0,.777-.038.788-.766" transform="translate(-309.446 -346.808)" fill="#cae2f9"/>
    <path id="Trazado_219957" data-name="Trazado 219957" d="M345.981,393.128a.561.561,0,0,1,.119.653c-.139.258-.38.245-.62.245-1.528,0-3.056.02-4.583-.006a1.684,1.684,0,0,0-1.883,1.85.9.9,0,0,1-.187.662l-.175,0-1.536-.007c0-.637,0-1.275.007-1.912a1.538,1.538,0,0,1,1.529-1.571c.413-.017.828-.009,1.242-.012l1.87-.007.815.006,1.872,0a7.287,7.287,0,0,1,1.531.1" transform="translate(-296.836 -346.067)" fill="#edf6fe"/>
    <path id="Trazado_219958" data-name="Trazado 219958" d="M354.421,184.029c0,.224.011.448,0,.671a.813.813,0,0,1-.691.761.735.735,0,0,1-.837-.574,4.258,4.258,0,0,1,0-1.769.75.75,0,0,1,.826-.6.823.823,0,0,1,.707.8c.011.238,0,.477,0,.715" transform="translate(-310.642 -160.706)" fill="#585966"/>
    <path id="Trazado_219959" data-name="Trazado 219959" d="M394.664,182.528a.8.8,0,0,1,.767.768c.01.237,0,.475,0,.713s.009.476,0,.713a.761.761,0,0,1-.773.754.719.719,0,0,1-.757-.712c-.024-.5-.023-1.011,0-1.515" transform="translate(-346.821 -160.719)" fill="#585966"/>
    <path id="Trazado_219960" data-name="Trazado 219960" d="M422.775,15.127a2.9,2.9,0,0,1,.246-1.463c.133-.383.074-.534-.336-.631a5.968,5.968,0,0,1-4.82-5.213c-.333-2.7.175-5.129,2.93-6.891A5.1,5.1,0,0,1,423.4.081a38.125,38.125,0,0,1,5.974.074,6.093,6.093,0,0,1,5.12,5.67,6.94,6.94,0,0,1-1.265,4.963,5.444,5.444,0,0,1-4.488,2.331,6.793,6.793,0,0,0-5.316,1.641,3.308,3.308,0,0,1-.655.366" transform="translate(-367.857 0)" fill="#a7e446"/>
    <path id="Trazado_219961" data-name="Trazado 219961" d="M459.16,49.958a.921.921,0,0,1-.935.933.952.952,0,1,1,.935-.933" transform="translate(-402.65 -43.134)" fill="#fdfdfe"/>
    <path id="Trazado_219962" data-name="Trazado 219962" d="M486.02,55.7a.57.57,0,0,1,.621-.6.623.623,0,1,1-.029,1.245c-.395-.008-.578-.252-.592-.646" transform="translate(-427.949 -48.514)" fill="#fbfdfe"/>
    <path id="Trazado_219963" data-name="Trazado 219963" d="M509.973,51.863c.334-.011.488.149.505.4a.417.417,0,0,1-.433.479.44.44,0,0,1-.072-.875" transform="translate(-448.708 -45.666)" fill="#f5fafe"/>
  </g>
</svg>
