<svg id="Grupo_148158" data-name="Grupo 148158" xmlns="http://www.w3.org/2000/svg" xmlns:xlink="http://www.w3.org/1999/xlink" width="73.373" height="72.293" viewBox="0 0 73.373 72.293">
  <defs>
    <clipPath id="clip-path">
      <rect id="Rectángulo_89685" data-name="Rectángulo 89685" width="73.373" height="72.293" fill="none"/>
    </clipPath>
  </defs>
  <g id="Grupo_148158-2" data-name="Grupo 148158" clip-path="url(#clip-path)">
    <path id="Trazado_246381" data-name="Trazado 246381" d="M72.5,55.887q-1.277-5.756-2.567-11.509a6.029,6.029,0,0,0-5.323-4.865c-1.206-.123-2.433-.043-3.651-.047a3.665,3.665,0,0,1-3.886-2.633c-.766-1.9-1.543-3.79-2.283-5.7a1.188,1.188,0,0,0-1.49-.867,1.063,1.063,0,0,0-.745,1.552c.89,2.265,1.683,4.574,2.76,6.758a5.655,5.655,0,0,0,5.262,3.227c1.121.037,2.244-.025,3.365.017a3.4,3.4,0,0,1,2.781,1.307c-.162.2-.342.142-.5.151A3.883,3.883,0,0,0,62.6,46.223a6.673,6.673,0,0,0-.054,3.052,3.86,3.86,0,0,0,2.786,3.067,7.762,7.762,0,0,0,2.341.218c1.912.026,1.577-.277,2.061,1.733.127.529-.016.756-.583.743-.883-.021-1.766,0-2.649-.006a3.091,3.091,0,0,0-1.864.632,3.545,3.545,0,0,0-1.425,2.32.667.667,0,0,1-.78.634c-.5-.019-1-.022-1.5,0A1.114,1.114,0,0,1,59.823,58a9.127,9.127,0,0,0-2.608-2.911,9.586,9.586,0,0,0-13.987,2.895,1.159,1.159,0,0,1-1.1.637q-5.048-.017-10.1,0a1.118,1.118,0,0,1-1.088-.642,7.881,7.881,0,0,0-1.6-2.1A9.643,9.643,0,0,0,18,54.418a10,10,0,0,0-3.594,3.51c-.216.351-.439.681-.925.681-.882,0-1.765,0-2.647,0a.579.579,0,0,1-.626-.455C9.364,55.6,8.77,55.162,6.054,55.029c-.047,0-.1,0-.143,0-.394,0-.552-.206-.548-.583,0-.429.009-.859,0-1.288s.189-.6.606-.6c.572.006,1.146.027,1.717-.007a3.986,3.986,0,0,0,3.612-2.062,5.754,5.754,0,0,0,.23-4.656,3.683,3.683,0,0,0-3.887-2.557c-.786.018-.831-.063-.649-.824.227-.951.507-1.888.781-2.827.1-.349.221-.456.6-.313a10.423,10.423,0,0,0,2.512.539,1.367,1.367,0,0,0,1.732-1.077,1.285,1.285,0,0,0-1.1-1.37c-.278-.069-.563-.1-.846-.144a7.51,7.51,0,0,1-5.352-3.22,13.76,13.76,0,0,1-2.051-7.126,1.1,1.1,0,0,1,1.062-1.139,11.468,11.468,0,0,1,1.5-.015,12.181,12.181,0,0,0,7.406-2.236c.711-.481,1.418-.969,2.147-1.423a17.049,17.049,0,0,1,9.473-3.42c.56-.026.652.059.465.6A6.128,6.128,0,0,1,23.3,22.086c-.837.671-1.727,1.271-2.559,1.949A8.112,8.112,0,0,0,17.425,30.9a19.232,19.232,0,0,0,.751,4.712c.212.734.184.779-.556,1-.708.215-1.438.341-2.155.517a1.281,1.281,0,0,0-1.1,1.154.833.833,0,0,0,.025.225,2.6,2.6,0,0,0,.149.439,1.278,1.278,0,0,0,1.467.625A10.638,10.638,0,0,0,18.1,39.1a2.927,2.927,0,0,1,3.02.286c.508.354.714.62.576,1.252A9.313,9.313,0,0,0,27.723,51.5a6.961,6.961,0,0,0,4.771.205,4.847,4.847,0,0,0,3.126-5.226c-.069-.466.079-.684.562-.654.19.012.382,0,.573,0,3.365,0,6.731.033,10.1-.01a4.654,4.654,0,0,0,4.428-6.579c-.9-2.288-1.774-4.586-2.763-6.836a7.77,7.77,0,0,0-5.24-4.506,12.284,12.284,0,0,0-3.342-.228c-.5,0-.738-.178-.764-.7a9.08,9.08,0,0,0-.494-2.3c-.277-.865-.255-.9.631-.9,2.745,0,5.489-.012,8.234,0,1.879.01,1.655-.278,2.414,1.612.32.8.607,1.609.973,2.386.38.808,1.006,1.007,1.63.565a1.147,1.147,0,0,0,.466-1.6c-.4-.966-.754-1.955-1.183-2.908-.2-.444-.091-.568.329-.753A5.12,5.12,0,0,0,55.363,18.9a31.312,31.312,0,0,0,.075-3.647,7.983,7.983,0,0,0-.183-2.275A5.324,5.324,0,0,0,49.883,9q-3.689-.028-7.378.008c-.509.005-.661-.147-.629-.643a15.82,15.82,0,0,0-.014-1.718A6.9,6.9,0,0,0,35.985.209,32.716,32.716,0,0,0,29.051.158,6.716,6.716,0,0,0,23.017,5a8.3,8.3,0,0,0-.332,3.255c.032.578-.1.762-.723.752C19.528,8.97,17.092,8.976,14.657,9A5.157,5.157,0,0,0,9.29,13.3a21.911,21.911,0,0,0-.008,5.921,5.092,5.092,0,0,0,1.646,2.952,7.87,7.87,0,0,1-1.453.68,13.281,13.281,0,0,1-5.084.565A3.358,3.358,0,0,0,.97,26.351a9.411,9.411,0,0,0,.16,2.774C1.626,32.5,2.781,35.539,5.6,37.7c.3.23.187.449.112.682A53.2,53.2,0,0,0,3.009,54.747c0,.307-.063.435-.406.513a3.23,3.23,0,0,0-2.356,2,5.509,5.509,0,0,0-.237,2.258,3.319,3.319,0,0,0,3.464,3.543c1,.02,2.005.008,3.008,0a2.667,2.667,0,0,0,2.486-1c.664-1.217,1.649-1.043,2.669-1.038.263,0,.525,0,.788,0,.966,0,.952,0,.879.93a9.035,9.035,0,0,0,3.939,8.542,8.972,8.972,0,0,0,9.486.817,9.308,9.308,0,0,0,5.262-9.687c-.058-.455,0-.619.519-.615,3.08.025,6.16.017,9.24.007.381,0,.532.03.458.5A8.692,8.692,0,0,0,42.358,65a9.412,9.412,0,0,0,18.475-3.515c-.059-.445.079-.477.426-.469.62.016,1.242.021,1.862,0a.7.7,0,0,1,.734.406,3.14,3.14,0,0,0,2.7,1.616c.905.04,1.814.022,2.721.023,2.371,0,3.185-.531,4.094-2.674V57.806c-.212-.675-.716-1.215-.872-1.918M31.007,6.545c1.193.007,2.387.015,3.58,0,.609-.01.844.24.846.856,0,1.6.023,1.6-1.573,1.6H32.285c-.883,0-1.766-.012-2.649.006-.352.007-.511-.07-.507-.47.022-2.122-.186-2,1.879-1.985" transform="translate(0 0.001)"/>
    <path id="Trazado_246382" data-name="Trazado 246382" d="M75.059,137.94a1.229,1.229,0,0,0,1.509.616c1.073-.229,2.14-.478,3.184-.809a1.014,1.014,0,0,1,.992.137,8.506,8.506,0,0,0,1.371.763c.377.167.452.326.341.751a9.13,9.13,0,0,0,3.475,9.883,8.782,8.782,0,0,0,5.139,1.713,4.628,4.628,0,0,0,4.77-5.611c-.1-.547,0-.619.508-.616,3.6.019,7.209.013,10.814.01,3.67,0,5.71-3,4.355-6.4q-1.23-3.086-2.471-6.167a7.771,7.771,0,0,0-7.625-5.2c-.6-.006-1.328.183-1.749-.094-.447-.294-.185-1.114-.361-1.682-.19-.614-.307-1.255-.551-1.845-.235-.567-.154-.719.48-.713,2.745.028,5.49.012,8.236.012.6,0,1.195.024,1.79-.008a.718.718,0,0,1,.839.552c.431,1.186.92,2.35,1.4,3.516.313.758.7.942,1.521.765a12.127,12.127,0,0,0,.745,1.941c-.75.563-.837.839-.493,1.7.8,2.012,1.585,4.034,2.429,6.028a5.559,5.559,0,0,0,5.346,3.612c1.145.031,2.292-.018,3.437.014a3.9,3.9,0,0,1,3.189,1.726,2.078,2.078,0,0,1-.928.1A3.7,3.7,0,0,0,123.2,145.7a7.908,7.908,0,0,0-.039,2.5,3.74,3.74,0,0,0,3.775,3.323c.835.024,1.672.034,2.506-.006.433-.02.589.15.659.538.106.585.223,1.172.384,1.744.125.443.03.6-.449.583-.906-.029-1.814-.019-2.721-.006a3.258,3.258,0,0,0-3.462,3.163c-.04.466-.2.541-.6.529a12.02,12.02,0,0,1-2.424-.049c-.8-.2-.911-1.184-1.385-1.782a9.44,9.44,0,0,0-15.676,1.222,1.017,1.017,0,0,1-1.048.614c-3.461-.024-6.922-.015-10.383-.01-.367,0-.65-.011-.877-.414a9.35,9.35,0,0,0-10.923-4.686,2.03,2.03,0,0,1-.283.032,3.792,3.792,0,0,1-1.018-1.528,41.142,41.142,0,0,1-4.363-12.729c-.044-.273-.231-.612.187-.79" transform="translate(-60.47 -99.184)" fill="#fe748e"/>
    <path id="Trazado_246383" data-name="Trazado 246383" d="M119.461,58.32a3.073,3.073,0,0,1,2.865,3.025c.049,1.358.053,2.721,0,4.079a3.034,3.034,0,0,1-2.891,3c-1.354.091-2.718.049-4.077.051-2.959.005-5.917,0-8.876,0a1.021,1.021,0,0,1-.931-.372c-2.944-3.691-6.845-5.022-11.46-4.682a21.342,21.342,0,0,0-8.562,2.288c-.228-.3-.083-.6.025-.881a40.3,40.3,0,0,1,2.753-5.9,1.123,1.123,0,0,1,1.078-.654q14.9.021,29.794.01a1.221,1.221,0,0,1,.284.028" transform="translate(-69.052 -47.122)" fill="#a7e446"/>
    <path id="Trazado_246384" data-name="Trazado 246384" d="M103.189,108.809a5.848,5.848,0,0,1,2.456-4.991c.808-.631,1.641-1.23,2.455-1.853a7.629,7.629,0,0,0,3.119-5.033c.11-.738.6-.425.907-.36a9.82,9.82,0,0,1,7.683,6.639,10.028,10.028,0,0,1-5.679,12.531.881.881,0,0,1-1.07-.16,4.563,4.563,0,0,0-5.969-.107.72.72,0,0,1-.949.11.756.756,0,0,0-.13-.059,3.194,3.194,0,0,1-2.187-2.554,20.342,20.342,0,0,1-.637-4.164" transform="translate(-83.425 -77.981)" fill="#fedbcd"/>
    <path id="Trazado_246385" data-name="Trazado 246385" d="M36.353,200.876a3.843,3.843,0,0,0,.206,1.929,42.442,42.442,0,0,0,2.936,9.056c.63,1.386,1.411,2.687,2.053,4.062a9.77,9.77,0,0,0-5.528,4.8c-.141.278-.36.267-.6.267-1.05,0-2.1-.013-3.149.007-.362.007-.47-.1-.509-.476A3.277,3.277,0,0,0,28.2,217.3c-1.292-.014-1.292-.014-1.28-1.255.015-1.591.015-1.586,1.628-1.593a9.5,9.5,0,0,0,1.712-.077,3.7,3.7,0,0,0,3.073-3.078,8.641,8.641,0,0,0-.007-2.641,3.748,3.748,0,0,0-3.96-3.094c-1.091-.011-1.1-.014-.819-1.056.267-.988.565-1.968.835-2.955.1-.358.229-.515.638-.354a9.893,9.893,0,0,0,2.644.575c.942.1,1.205-.043,1.581-.932a2.68,2.68,0,0,1,2.026-.236l.081.268" transform="translate(-21.764 -162.121)" fill="#fc5f7e"/>
    <path id="Trazado_246386" data-name="Trazado 246386" d="M27.471,131.112a15.294,15.294,0,0,1-2.026.236c-.082-.63-.354-1.093-1.053-1.15-4.981-.408-7.336-3.771-8.106-8.226-.126-.727-.182-1.468-.244-2.2a1.316,1.316,0,0,1,1.471-1.573,18.8,18.8,0,0,0,3.994-.213,15.437,15.437,0,0,0,5.876-2.841c.291-.2.6-.385.9-.577.231.258.117.547.048.813a43.072,43.072,0,0,0-1.095,12.183c.038,1.176.224,2.346.217,3.526Z" transform="translate(-12.962 -92.625)" fill="#cba124"/>
    <path id="Trazado_246387" data-name="Trazado 246387" d="M197.252,169.925c-1.026,0-2.051,0-3.077,0-.3,0-.509,0-.61-.4a13.823,13.823,0,0,0-3.648-6.211c-.331-.342-.359-.544-.055-.93a11.319,11.319,0,0,0,2.338-5.3c.077-.489.242-.686.769-.643a18.762,18.762,0,0,1,2.779.146,5.426,5.426,0,0,1,3.974,3.281c.969,2.276,1.876,4.578,2.77,6.885a2.244,2.244,0,0,1-2.162,3.166c-1.025.021-2.051,0-3.077,0" transform="translate(-153.334 -126.482)" fill="#7fd7e5"/>
    <path id="Trazado_246388" data-name="Trazado 246388" d="M95,297.387a7.311,7.311,0,0,1-7.325,7.248,7.277,7.277,0,1,1,.126-14.554,7.321,7.321,0,0,1,7.2,7.306" transform="translate(-65.05 -234.533)" fill="#5c586f"/>
    <path id="Trazado_246389" data-name="Trazado 246389" d="M245.69,297.279a7.25,7.25,0,1,1-7.217-7.27,7.279,7.279,0,0,1,7.217,7.27" transform="translate(-186.919 -234.475)" fill="#5c586f"/>
    <path id="Trazado_246390" data-name="Trazado 246390" d="M73.587,116.543c-.318-.327-.2-.778-.247-1.146a47.775,47.775,0,0,1-.156-7.9,41.13,41.13,0,0,1,1.233-7.472,16.754,16.754,0,0,1,8.727-3.387c.095-.009.19-.01.286-.017,1.572-.111,1.585-.086.946,1.37a6.162,6.162,0,0,1-1.911,2.365q-1.152.905-2.332,1.775c-2.871,2.115-3.809,4.992-3.339,8.429a17.866,17.866,0,0,0,.79,3.474c.17.486.016.664-.439.761-.768.163-1.522.4-2.294.526a1.321,1.321,0,0,0-1.261,1.226" transform="translate(-59.097 -78.083)" fill="#feca2e"/>
    <path id="Trazado_246391" data-name="Trazado 246391" d="M124.236,205.631a6.262,6.262,0,0,1,.471-2.513,2.514,2.514,0,0,1,4.756,1.6c-.438,1.78.194,2.7,1.985,2.885a2.542,2.542,0,0,1,2.332,2.609,2.507,2.507,0,0,1-2.523,2.41,7.017,7.017,0,0,1-7.021-6.989" transform="translate(-100.446 -162.958)" fill="#fec9bc"/>
    <path id="Trazado_246392" data-name="Trazado 246392" d="M98.169,58.144c-.286.01-.571.029-.856.029q-14.495,0-28.99-.008a1.026,1.026,0,0,0-1.044.542,47.817,47.817,0,0,0-2.973,6.411,2.146,2.146,0,0,0-.071.42c-1.055.692-2.122,1.368-3.159,2.086a.6.6,0,0,1-.876-.068,3.058,3.058,0,0,1-1.119-2.311c-.014-1.241-.01-2.483-.007-3.724a3.177,3.177,0,0,1,3.437-3.436c1.886-.013,3.772-.01,5.659-.01q14.612,0,29.225,0a1.64,1.64,0,0,1,.775.066" transform="translate(-47.759 -46.946)" fill="#85b638"/>
    <path id="Trazado_246393" data-name="Trazado 246393" d="M137.339,11.634a24.158,24.158,0,0,1,3.143.091,4.8,4.8,0,0,1,4.023,4.546c.024.548.011,1.1.015,1.646,0,.072.028.169-.008.211-.485.566-1.13.134-1.691.258-.306.067-.492-.05-.472-.42.025-.476.013-.955,0-1.432a2.648,2.648,0,0,0-2.643-2.724c-1.741-.049-3.485-.043-5.226,0a2.688,2.688,0,0,0-2.7,2.682c-.025.428-.006.859-.008,1.288,0,.119.048.282-.012.351-.481.563-1.129.137-1.691.256-.244.052-.474.011-.466-.352a11.551,11.551,0,0,1,.181-2.776,4.886,4.886,0,0,1,4.62-3.617c.882-.031,1.766,0,2.935,0" transform="translate(-104.785 -9.397)" fill="#f7e76a"/>
    <path id="Trazado_246394" data-name="Trazado 246394" d="M169.728,203.8c-1.485,0-2.89.048-4.288-.028-.435-.024-.839-.52-1.28-.562-1.271-.121-1.421-.752-1.367-1.918.04-.86.223-1.218.985-1.5a7.927,7.927,0,0,0,2.131-1.3c.2-.162.345-.254.581-.006a12.846,12.846,0,0,1,3.238,5.307" transform="translate(-131.612 -160.362)" fill="#f7e769"/>
    <path id="Trazado_246395" data-name="Trazado 246395" d="M14.1,299.32c.477,0,.954-.007,1.431,0a1.654,1.654,0,0,1,.635.074c1.078.5.736,1.487.744,2.325a1.084,1.084,0,0,1-1.118,1.158c-1.143.042-2.29.043-3.433,0a1.122,1.122,0,0,1-1.135-1.219c-.044-1.822-.11-2.466,2.232-2.343.214.011.429,0,.644,0" transform="translate(-9.061 -241.991)" fill="#c6c4ca"/>
    <path id="Trazado_246396" data-name="Trazado 246396" d="M345,299.4c.525,0,1.049-.007,1.574,0a1.635,1.635,0,0,1,.56.085c.638.253.886,1.147.676,2.44a1.133,1.133,0,0,1-1.183,1.028c-1.1.028-2.195.034-3.291,0a1.167,1.167,0,0,1-1.221-1.224c-.007-.095,0-.191,0-.286-.017-1.836.2-2.059,2.028-2.059H345v.013" transform="translate(-276.605 -242.058)" fill="#c6c4ca"/>
    <path id="Trazado_246397" data-name="Trazado 246397" d="M29.89,242.652c-1.443.007-1.45.006-1.235-1.483.129-.895.3-1.784.416-2.68.044-.329.17-.447.5-.43.475.024.953,0,1.429.018a1.725,1.725,0,0,1,.555.106c.915.356,1.235,1.366.988,3.077a1.615,1.615,0,0,1-1.58,1.388c-.355.028-.714,0-1.072,0" transform="translate(-23.085 -192.472)" fill="#fabf71"/>
    <path id="Trazado_246398" data-name="Trazado 246398" d="M340.966,242.516c-2.89.206-2.779-1.346-2.6-3.286a1.468,1.468,0,0,1,1.484-1.3c1.658-.132,1.655-.131,2.007,1.5.181.838.364,1.676.564,2.51.1.407.055.642-.453.584a8.918,8.918,0,0,0-1-.007" transform="translate(-273.51 -192.329)" fill="#f7e769"/>
    <path id="Trazado_246399" data-name="Trazado 246399" d="M134.448,145.466a1.093,1.093,0,0,1-1.23-1.01,1.053,1.053,0,0,1,1.109-1.128.991.991,0,0,0,1.022-1.041,1.064,1.064,0,0,1,1.079-1.087,1.136,1.136,0,0,1,1.06,1.21,3.076,3.076,0,0,1-3.04,3.056" transform="translate(-107.706 -114.162)" fill="#010101"/>
    <path id="Trazado_246400" data-name="Trazado 246400" d="M115.775,166.73a2.516,2.516,0,0,1-1.959-1.884,1.022,1.022,0,0,1,.59-.91.953.953,0,0,1,1.076.079,8.837,8.837,0,0,1,1.051,1.053.958.958,0,0,1,.073,1.076,1.048,1.048,0,0,1-.831.587" transform="translate(-92.02 -132.44)" fill="#010101"/>
    <path id="Trazado_246401" data-name="Trazado 246401" d="M158.7,123.723a1.052,1.052,0,0,1-1.584.9,3.652,3.652,0,0,1-1.19-1.206,1.06,1.06,0,0,1,.951-1.559,2.581,2.581,0,0,1,1.824,1.866" transform="translate(-125.957 -98.522)" fill="#010101"/>
    <path id="Trazado_246402" data-name="Trazado 246402" d="M97.192,310.984a3.983,3.983,0,0,1,4.093-4.039,4.063,4.063,0,0,1,4.072,4.028,4.143,4.143,0,0,1-4.1,4.113,4.052,4.052,0,0,1-4.065-4.1" transform="translate(-78.581 -248.169)"/>
    <path id="Trazado_246403" data-name="Trazado 246403" d="M255.9,311a4.083,4.083,0,1,1-8.166-.049A4.083,4.083,0,0,1,255.9,311" transform="translate(-200.292 -248.168)"/>
    <path id="Trazado_246404" data-name="Trazado 246404" d="M110.292,318.07a1.923,1.923,0,1,1-.02,3.845,1.923,1.923,0,0,1,.02-3.845" transform="translate(-87.614 -257.163)" fill="#c6c4ca"/>
    <path id="Trazado_246405" data-name="Trazado 246405" d="M260.907,318.052a1.921,1.921,0,0,1,1.921,1.9,1.932,1.932,0,1,1-1.921-1.9" transform="translate(-209.376 -257.148)" fill="#c6c4ca"/>
  </g>
</svg>
