<svg id="Grupo_148157" data-name="Grupo 148157" xmlns="http://www.w3.org/2000/svg" xmlns:xlink="http://www.w3.org/1999/xlink" width="72.096" height="79.5" viewBox="0 0 72.096 79.5">
  <defs>
    <clipPath id="clip-path">
      <rect id="Rectángulo_89684" data-name="Rectángulo 89684" width="72.096" height="79.5" fill="none"/>
    </clipPath>
  </defs>
  <g id="Grupo_148157-2" data-name="Grupo 148157" clip-path="url(#clip-path)">
    <path id="Trazado_246357" data-name="Trazado 246357" d="M72.092,52.515c0-3.874-2.36-6.236-6.223-6.237-5.456,0-10.913-.012-16.369.015-.624,0-.758-.176-.755-.77.026-4.06.011-8.12.015-12.18a16.508,16.508,0,0,0-.585-4.674c-.307-1.053-.56-1.239-1.65-1.2-.79.231-1.066.7-.89,1.584a14.051,14.051,0,0,1,.487,2.667q.024,6.714,0,13.428c0,.793-.095.876-.912.882-1.941.012-3.881.009-5.822,0-.936,0-1-.076-1.011-1.025-.009-1.526.023-3.054-.01-4.58a6.063,6.063,0,0,0-12.115.494q0,14.631,0,29.262c0,.284,0,.569-.01.854a.556.556,0,0,1-.63.612c-.673.007-1.345,0-2.018,0-.526.006-.754-.243-.744-.756.006-.284,0-.569,0-.854q0-13.156,0-26.313c0-1.035.026-2.07-.009-3.1a6.116,6.116,0,0,0-5.188-5.9,4.212,4.212,0,0,1-.955-.057,1.5,1.5,0,0,0-.279,0,5.546,5.546,0,0,0-2.992.941,6.223,6.223,0,0,0-2.85,5.54q-.017,12.953,0,25.907a4.923,4.923,0,0,0,.028.7,1.473,1.473,0,0,0,1.147,1.392c1.17-.014,1.577-.406,1.626-1.573.013-.31.006-.62.006-.93q0-12.517,0-25.034a5.853,5.853,0,0,1,.213-1.839,3.345,3.345,0,0,1,3.461-2.3,3.431,3.431,0,0,1,1.8.828,3.722,3.722,0,0,1,1.188,3.064q-.013,14.529,0,29.058c0,.155-.01.311,0,.465.031.564-.239.782-.793.775-.852-.011-1.7-.023-2.556.01q-2.282-.043-4.564,0a30.056,30.056,0,0,1-3.644-.078,6.684,6.684,0,0,1-5.666-6.76q-.012-15.8-.008-31.6a14.307,14.307,0,0,1,.859-4.941,12.637,12.637,0,0,1,11.364-8.029c3.286-.008,6.573.006,9.859-.01,2.975,0,5.949-.016,8.923,0a12.31,12.31,0,0,1,7.848,2.883c.713.575,1.265,1.29,1.911,1.919a1.146,1.146,0,0,0,1.7.205c.691-.81.706-1.23.046-2.028a14.727,14.727,0,0,0-9.474-5.374c-.542-.08-.655-.279-.65-.783.024-2.587.027-5.175,0-7.762-.006-.527.151-.69.663-.763A4.283,4.283,0,0,0,36.205.143C36.105.118,36,.12,35.964,0H13.138a3.986,3.986,0,0,0-1.945.641A4.456,4.456,0,0,0,9.412,5.23a4.2,4.2,0,0,0,3.223,3.42,1.03,1.03,0,0,1,.913,1.179c-.033,2.249-.009,4.5-.014,6.749,0,.94-.021.96-.976,1.148a14.454,14.454,0,0,0-4.772,1.779C2.824,22.524.113,26.94.057,32.738-.047,43.417.022,54.1.03,64.778A9.025,9.025,0,0,0,4.551,73a2.475,2.475,0,0,1,1.4,2.572c-.088,2.2.786,3.3,2.835,3.927h1.553a3.168,3.168,0,0,0,1.748-.708,3.865,3.865,0,0,0,1.287-2.956c-.014-1.38.01-1.381,1.415-1.381H34.173c.258,0,.517,0,.775.007a.549.549,0,0,1,.618.619c0,.207.005.413.011.62A3.564,3.564,0,0,0,38.6,79.5h1.553a5.455,5.455,0,0,0,1.993-1.363,4.377,4.377,0,0,0,.727-3.1c-.044-.632.133-.819.792-.817q11.094.038,22.188.012a8.237,8.237,0,0,0,1.544-.09,5.7,5.7,0,0,0,4.688-5.884c.014-5.249.006-10.5,0-15.748M21.366,8.635c2.117.019,4.235.022,6.351,0,.442,0,.5.17.492.539-.017,1.317-.007,2.634-.007,3.95,0,1.343-.012,2.686.008,4.028.006.39-.085.537-.509.533q-3.176-.032-6.352,0c-.46,0-.558-.162-.556-.582q.023-3.95,0-7.9c0-.448.141-.569.574-.565" transform="translate(0)"/>
    <path id="Trazado_246358" data-name="Trazado 246358" d="M136.281,135.96a1.343,1.343,0,0,0-.619,1.784,12,12,0,0,1,.521,3.826c0,4.165-.013,8.33.016,12.495,0,.594-.164.726-.733.717-2.3-.033-4.6-.028-6.907,0-.5.006-.663-.121-.653-.64q.048-2.482,0-4.967a5.862,5.862,0,0,0-11.588-1.208,8.19,8.19,0,0,0-.125,1.854q0,14.862.018,29.724c0,.737-.215.921-.9.873-.824-.057-1.655-.03-2.482-.006-.374.011-.5-.113-.481-.484.026-.542.007-1.086.007-1.63q0-14.4,0-28.793a5.9,5.9,0,0,0-5.131-6.12c-.248-.094-.525.039-.766-.1l.007.005a.847.847,0,0,1-.194-.648c-.1-5.841,2.068-10.485,7.145-13.609a6.847,6.847,0,0,1,1.288-.5,91.381,91.381,0,0,1,10.533.134,11.914,11.914,0,0,1,7.975,4.475,1.486,1.486,0,0,0,1.816.613,7.259,7.259,0,0,1,1.257,2.207" transform="translate(-89.757 -108.492)" fill="#fe8997"/>
    <path id="Trazado_246359" data-name="Trazado 246359" d="M38.855,128.8a16.924,16.924,0,0,0-4.34,3.17A13.971,13.971,0,0,0,30.75,140.4c-.088,1.055-.088,2.106-.135,3.158a10.1,10.1,0,0,0-2.252.51,5.664,5.664,0,0,0-3.6,5.338c-.054,8.993-.022,17.987-.026,26.98a1.28,1.28,0,0,0,.933,1.353c.2.055.423.128.442.363a4.3,4.3,0,0,1-.158,2.537,17.678,17.678,0,0,1-4.02-.128,6.81,6.81,0,0,1-5.428-6.52c-.031-10.971-.075-21.943.014-32.913a12.727,12.727,0,0,1,12.244-12.284c3.361-.071,6.725,0,10.087.007" transform="translate(-13.912 -108.761)" fill="#fc5c6f"/>
    <path id="Trazado_246360" data-name="Trazado 246360" d="M254.618,312.882c6.1-.008,12.207-.01,18.311-.036.554,0,.472.31.472.642q0,5.975,0,11.95c0,3.363,0,6.725.006,10.088,0,.4,0,.652-.549.65-6.053-.023-12.105-.016-18.158-.018a1.715,1.715,0,0,1-.23-.03A2.97,2.97,0,0,1,253.054,334a21.416,21.416,0,0,1-.172-5.333c.016-.75.631-.677,1.167-.594a1.9,1.9,0,0,1,.793.715c1.193,1.5,2.323,3.04,3.514,4.536a2.091,2.091,0,0,0,1.792.9,1.875,1.875,0,0,0,1.922-2.131c-.093-1.081-.287-2.151-.44-3.226-.159-1.111-.007-1.34,1.078-1.309,1.116.032,2.211-.193,3.326-.182a5.718,5.718,0,0,1,2.625.543,5.144,5.144,0,0,0,1.232.464,1.562,1.562,0,0,0,1.82-1.933,1.732,1.732,0,0,0-.215-.5,2.5,2.5,0,0,1-.023-2.9,1.434,1.434,0,0,0-.127-1.922,1.5,1.5,0,0,0-1.913-.331c-2.323,1.243-4.781.777-7.215.618-.666-.043-.675-.52-.608-1.02.152-1.126.37-2.245.442-3.381a2,2,0,0,0-1.151-2.095,2.048,2.048,0,0,0-2.327.561,4.91,4.91,0,0,0-.512.582c-.67.92-1.395,1.8-2.072,2.711-.446.6-.929,1.177-1.379,1.776a1.058,1.058,0,0,1-1.478.4,1.176,1.176,0,0,1-.284-.935c-.009-1.189-.029-2.379.006-3.568a5.618,5.618,0,0,1,.71-2.595,1.932,1.932,0,0,1,1.054-.977" transform="translate(-213.533 -264.251)" fill="#c1e9fa"/>
    <path id="Trazado_246361" data-name="Trazado 246361" d="M400.334,324.469c0-3.646.013-7.292-.013-10.937,0-.563.109-.762.712-.732,1.109.055,2.223.006,3.335.018a3.314,3.314,0,0,1,3.513,3.356q.072,8.3,0,16.6a3.29,3.29,0,0,1-3.511,3.344c-1.138.012-2.276-.026-3.413.015-.521.018-.637-.154-.634-.649.02-3.672.011-7.343.011-11.015" transform="translate(-338.137 -264.209)" fill="#a7e446"/>
    <path id="Trazado_246362" data-name="Trazado 246362" d="M76,274.06c0-.72-.009-1.44.008-2.16a.767.767,0,0,0-.292-.74c1.1-.066,1.4-.391,1.4-1.573q0-13.187,0-26.373a3.573,3.573,0,0,1,3.5-3.849,1.655,1.655,0,0,1,.373.061c-.075.8-.073,1.6-.073,2.4q0,15.406,0,30.812a2.014,2.014,0,0,1-.24,1.418H76" transform="translate(-63.952 -202.182)" fill="#f5334c"/>
    <path id="Trazado_246363" data-name="Trazado 246363" d="M107.531,274.4q0-16.936,0-33.871c0-.285-.131-.651.317-.762a3.48,3.48,0,0,1,3.223,3.283c.015.206.01.414.01.62q0,14.97.018,29.941c0,.7-.184.888-.857.837-.9-.067-1.807-.037-2.711-.048" transform="translate(-90.813 -202.52)" fill="#fc5c6e"/>
    <path id="Trazado_246364" data-name="Trazado 246364" d="M220.157,328.282c-1.047.017-1.075.018-1.041,1.032a38.439,38.439,0,0,0,.106,4.3,5.878,5.878,0,0,0,1.285,2.574c-1.6.007-3.205.065-4.8.009a3.311,3.311,0,0,1-3.1-3.51q-.015-7.1,0-14.194c0-.724-.014-1.448,0-2.172a3.366,3.366,0,0,1,3.4-3.4c1.55-.022,3.1.009,4.651.017a5.208,5.208,0,0,0-1.55,4.11c.017,1.028,0,2.056,0,3.085a1.335,1.335,0,0,0,.149.818c-.175.249-.447.221-.7.237a4.544,4.544,0,0,1-.7,0c-3.093-.277-4.166,2.558-3.438,4.7a3.539,3.539,0,0,0,3.877,2.138,5.22,5.22,0,0,1,1.306-.1c.217.03.561-.073.549.346" transform="translate(-179.571 -264.312)" fill="#90d3f1"/>
    <path id="Trazado_246365" data-name="Trazado 246365" d="M188.181,274.2c-.923,0-1.742-.012-2.561.006-.347.007-.46-.139-.434-.46.013-.154,0-.31,0-.465q0-14.856,0-29.712a5.324,5.324,0,0,1,.13-1.539,3.515,3.515,0,0,1,3.876-2.506,3.447,3.447,0,0,1,3.042,3.374c.033,1.732,0,3.465.021,5.2,0,.393-.142.522-.51.607a5.643,5.643,0,0,0-4.628,5.772c-.011,5.4,0,10.809-.006,16.214a6.526,6.526,0,0,0,1.068,3.513" transform="translate(-156.418 -202.293)" fill="#fc5c6f"/>
    <path id="Trazado_246366" data-name="Trazado 246366" d="M89.025,14.985H99.578a1.973,1.973,0,0,1,1.9,1.112,1.854,1.854,0,0,1-.136,1.985,2.158,2.158,0,0,1-1.956.9q-3.026,0-6.052,0-7.294,0-14.588,0c-1.444,0-2.315-.717-2.361-1.9a1.972,1.972,0,0,1,2.169-2.081c3.492-.008,6.984,0,10.476,0" transform="translate(-64.514 -12.656)" fill="#879baf"/>
    <path id="Trazado_246367" data-name="Trazado 246367" d="M105.972,64.669c-.657.327-1.354.089-2.031.132-.287.018-.29-.238-.289-.448q.006-4.062.014-8.125c0-.22.031-.43.313-.434.567-.008,1.135-.01,1.7,0,.339.006.322.271.321.5q-.012,1.933-.031,3.867a1.589,1.589,0,0,1-1.182.23c-.569-.017-.778.238-.764.789q.031,1.234,0,2.469c-.014.553.2.8.765.787a1.581,1.581,0,0,1,1.181.23" transform="translate(-87.551 -47.121)" fill="#50687f"/>
    <path id="Trazado_246368" data-name="Trazado 246368" d="M198.815,82.6c.011,1.39.024,2.78.031,4.17,0,.171.039.42-.2.43a18.737,18.737,0,0,1-1.928,0c-.283-.017-.2-.318-.2-.507,0-1.313.01-2.626.017-3.939a2.105,2.105,0,0,1,2.283-.15" transform="translate(-165.98 -69.546)" fill="#698199"/>
    <path id="Trazado_246369" data-name="Trazado 246369" d="M198.818,59.976a7.069,7.069,0,0,0-2.283.15c-.007-1.317,0-2.634-.027-3.95-.008-.416.1-.582.557-.6,1.787-.065,1.79-.082,1.785,1.689,0,.9-.02,1.806-.031,2.709" transform="translate(-165.983 -46.927)" fill="#51697f"/>
    <path id="Trazado_246370" data-name="Trazado 246370" d="M106.31,88.368c-.686-.052-1.57.288-2.008-.14-.477-.465-.115-1.364-.159-2.073-.03-.486.041-.981-.017-1.462-.085-.713.221-.905.875-.836a12.169,12.169,0,0,0,1.308.005q.1,2.252,0,4.5" transform="translate(-87.889 -70.821)" fill="#698199"/>
    <path id="Trazado_246371" data-name="Trazado 246371" d="M246.851,477.867c.206,0,.414.016.618,0,.423-.042.631.108.6.559s0,.931-.071,1.385a1.165,1.165,0,0,1-2.3-.011,12.43,12.43,0,0,1-.047-1.542c-.01-.312.155-.4.433-.389.257.01.515,0,.773,0" transform="translate(-207.488 -403.63)" fill="#688097"/>
    <path id="Trazado_246372" data-name="Trazado 246372" d="M56.858,479.074c0,.129,0,.257,0,.386-.019.867-.484,1.409-1.2,1.4s-1.144-.548-1.16-1.435c-.026-1.5-.026-1.5,1.45-1.491,1.049.008.891-.135.907,1.144" transform="translate(-46.03 -403.69)" fill="#698199"/>
    <path id="Trazado_246373" data-name="Trazado 246373" d="M107.487,223.85c.26,0,.532-.094.767.1a1.261,1.261,0,0,1-.767-.1" transform="translate(-90.791 -189.059)" fill="#fc5c6f"/>
    <path id="Trazado_246374" data-name="Trazado 246374" d="M227.717,337.287c-.452-.327-.943-.093-1.407-.071a6.566,6.566,0,0,1-2.528-.212,3.429,3.429,0,0,1-2.206-3.907A3.2,3.2,0,0,1,224.5,330c.767-.078,1.546-.029,2.32-.038a1.147,1.147,0,0,0,1.345-.589c1.214-1.642,2.467-3.256,3.733-4.859a2.214,2.214,0,0,1,3.977,1.68q-.2,1.576-.446,3.147c-.149.959-.161.956.785,1,.7.033,1.4.041,2.093.109a7.938,7.938,0,0,0,4.718-.8,1.751,1.751,0,0,1,2.309,2.456,2.476,2.476,0,0,0,.032,3,1.57,1.57,0,0,1-.225,2.006,1.421,1.421,0,0,1-1.805.5c-2.108-1.331-4.389-.872-6.639-.812-1.38.037-1.38.041-1.2,1.38.125.922.258,1.843.376,2.766a2.135,2.135,0,0,1-1.168,2.385,2.309,2.309,0,0,1-2.848-.725c-1.389-1.769-2.761-3.55-4.14-5.326" transform="translate(-187.132 -273.317)"/>
    <path id="Trazado_246375" data-name="Trazado 246375" d="M410.928,424.986c-.464,0-.932.035-1.392-.008a1.146,1.146,0,0,1-1.1-1.247,1.133,1.133,0,0,1,1.2-1.059c.9-.018,1.807-.022,2.709,0a1.146,1.146,0,0,1,.133,2.284,11.567,11.567,0,0,1-1.545.014v.014" transform="translate(-344.986 -357.005)" fill="#000101"/>
    <path id="Trazado_246376" data-name="Trazado 246376" d="M411.029,366.543c.49,0,.982-.028,1.469.007a1.039,1.039,0,0,1,1.022,1.064,1.022,1.022,0,0,1-.9,1.171,12.132,12.132,0,0,1-3.235,0,1.013,1.013,0,0,1-.908-1.156,1.055,1.055,0,0,1,1.079-1.087c.488-.032.98-.006,1.469-.006v.006" transform="translate(-345.028 -309.594)" fill="#010101"/>
    <path id="Trazado_246377" data-name="Trazado 246377" d="M410.936,396.884c-.439,0-.879.026-1.315-.006a1.15,1.15,0,0,1-1.183-1.174,1.12,1.12,0,0,1,1.2-1.136c.9-.024,1.806-.026,2.708,0a1.116,1.116,0,0,1,1.152,1.11,1.158,1.158,0,0,1-1.094,1.186c-.486.046-.979.009-1.469.009v.007" transform="translate(-344.995 -333.264)" fill="#000101"/>
    <path id="Trazado_246378" data-name="Trazado 246378" d="M410.913,340.434c-.464,0-.931.035-1.391-.008a1.047,1.047,0,0,1-1.035-1.126,1.019,1.019,0,0,1,.951-1.121,14.013,14.013,0,0,1,3.162,0,1.132,1.132,0,0,1-.065,2.236c-.537.047-1.081.01-1.622.01v.005" transform="translate(-345.036 -285.575)" fill="#010101"/>
    <path id="Trazado_246379" data-name="Trazado 246379" d="M246.092,343.036c-.181,1.381-.365,2.762-.543,4.144-.123.96.184,1.34,1.168,1.383,2.323.1,4.646.189,6.97.276a4.487,4.487,0,0,0,1.606-.463,6.129,6.129,0,0,0-.037,2.391c-.981-.708-2.01-.475-3-.455-1.731.035-3.461.1-5.19.189-1.322.064-1.64.446-1.473,1.751.19,1.48.413,2.956.653,4.659a48.842,48.842,0,0,1-3.3-4.337,3.482,3.482,0,0,0-4.1-1.735,3.586,3.586,0,0,1-1.081.028,1.246,1.246,0,0,1-1.157-1.392,1.185,1.185,0,0,1,1.29-1.238c.9-.007,1.81.016,2.712.065a1.568,1.568,0,0,0,1.452-.692c1.311-1.728,2.657-3.429,3.989-5.14a.588.588,0,0,1,.04.565" transform="translate(-199.854 -289.274)" fill="#6a8199"/>
    <path id="Trazado_246380" data-name="Trazado 246380" d="M297.452,342.3l-.04-.565c.027-.092.1-.22.151-.061a.655.655,0,0,1-.111.626" transform="translate(-251.214 -288.534)" fill="#526476"/>
  </g>
</svg>
