<svg xmlns="http://www.w3.org/2000/svg" xmlns:xlink="http://www.w3.org/1999/xlink" width="350" height="231" viewBox="0 0 350 231">
  <defs>
    <clipPath id="clip-path">
      <rect id="Rectángulo_89721" data-name="Rectángulo 89721" width="92.168" height="92.127" fill="none"/>
    </clipPath>
  </defs>
  <g id="Grupo_148273" data-name="Grupo 148273" transform="translate(-4455 9317)">
    <rect id="Image_Place_Holder" data-name="Image Place Holder" width="350" height="231" transform="translate(4455 -9317)" fill="#d9eaea"/>
    <g id="Grupo_148272" data-name="Grupo 148272" transform="translate(4662.166 -9247)" clip-path="url(#clip-path)">
      <path id="Trazado_246670" data-name="Trazado 246670" d="M70.61,0h3.953a16.221,16.221,0,0,1,5.891,1.348c6.005,2.754,10.063,7.3,11.272,13.76,1.545,8.256-.872,15.517-8.607,20.68A3.891,3.891,0,0,0,81.4,38.162c-1.032,3.752-2.125,7.488-3.191,11.232a5.365,5.365,0,0,1-2.892,3.59,1.474,1.474,0,0,0-.86,1.587q.021,10.195.008,20.389,0,4.9,0,9.79c0,1.455-.132,1.588-1.592,1.588q-14.1.007-28.2,0c-1.343,0-1.327.031-1.614,1.209-.682,2.8-2.928,4.951-6.852,4.524a5.78,5.78,0,0,1-5.1-4.506c-.318-1.224-.318-1.226-1.625-1.226q-14.009,0-28.019,0A2.081,2.081,0,0,1,0,86.077V29.651a1.535,1.535,0,0,1,1.108-.259c1.108-.007,2.215,0,3.323,0,1.2,0,1.231-.034,1.236-1.281,0-1.108-.013-2.216.006-3.324.019-1.125.195-1.311,1.314-1.318,2.6-.018,5.209-.006,7.813-.006,5.3,0,10.6.011,15.9-.006a7.972,7.972,0,0,1,5.859,2.285c.378.372.629.426,1.031.037a8.37,8.37,0,0,1,6.3-2.332c2.873.061,5.748.019,8.621.012,1.033,0,1.088-.072.908-1.088A19.575,19.575,0,0,1,62.443,2.664,17.328,17.328,0,0,1,70.61,0"/>
      <path id="Trazado_246671" data-name="Trazado 246671" d="M63.7,163.167c-3.247-1.908-6.761-1.439-10.2-1.487-1.466-.021-2.933,0-4.4,0-3.741,0-7.482-.018-11.222.016-.668.006-.843-.161-.842-.837q.03-24.38,0-48.761c0-.638.109-.861.816-.858,7.093.03,14.186.01,21.279.023a4.371,4.371,0,0,1,4.6,4.631q.012,23.3,0,46.606c0,.174-.017.347-.034.67" transform="translate(-28.141 -84.525)" fill="#e5e8ec"/>
      <path id="Trazado_246672" data-name="Trazado 246672" d="M178.683,114.348a17.859,17.859,0,0,0,6.492,6.172,1.6,1.6,0,0,1,.869,1.142,6.767,6.767,0,0,0,.267.948,20.768,20.768,0,0,1,1.066,7.305c-.065,10.272-.036,20.544-.009,30.816,0,.77-.153.992-.964.986-5.659-.041-11.318-.025-16.977-.019a42.077,42.077,0,0,0-4.487.105,13,13,0,0,0-4.142,1.289.964.964,0,0,1-.122-.725q-.007-23.134,0-46.269a4.472,4.472,0,0,1,3.263-4.683,5.146,5.146,0,0,1,1.424-.139c3.623,0,7.246.01,10.869-.014a.95.95,0,0,1,1.072.668,7.379,7.379,0,0,0,1.178,2.09c-.243.675-.842.445-1.289.448-3.743.027-7.486.014-11.229.015-.3,0-.6,0-.9,0-1.1.019-1.184.087-1.187,1.171-.008,2.875,0,5.75,0,8.626,0,1.2.018,2.4-.006,3.594-.014.692.27.962.956.951,1.227-.02,2.456-.026,3.683,0,1.051.026,1.27.234,1.285,1.279.03,2.126,0,4.253.013,6.379.006,1.058.075,1.133,1.116,1.135q6.064.012,12.128,0c.989,0,1.08-.091,1.083-1.084q.018-5.975,0-11.95c0-1.007-.114-1.1-1.163-1.116-1.168-.017-2.336.023-3.5-.017-.985-.034-1.228-.261-1.243-1.243q-.053-3.459,0-6.918c.005-.357-.073-.816.458-.946" transform="translate(-122.08 -84.543)" fill="#e5e8ec"/>
      <path id="Trazado_246673" data-name="Trazado 246673" d="M77.62,154.444a5.729,5.729,0,0,0,2.452,1.857c.434.152.495.421.494.818q-.011,14.286.01,28.572c0,.763-.4.7-.9.7-9.7-.005-19.4.01-29.105-.025-.922,0-1.284.206-1.165,1.162a11.224,11.224,0,0,1,0,1.974,2.96,2.96,0,0,1-5.913-.038c-.029-.808-.037-1.619,0-2.425.025-.523-.174-.705-.669-.654a6.159,6.159,0,0,1-.628,0q-14.418,0-28.836.017c-.8,0-1.05-.179-1.049-1.024q.04-24.214,0-48.428c0-.858.265-1.033,1.054-1.013,1.92.05,1.921.014,1.921,1.9q0,22.237-.025,44.474c0,.972.286,1.143,1.181,1.138,7.4-.036,14.793.014,22.188-.037a9.145,9.145,0,0,1,7.207,3.006c.476.523.752.518,1.226,0a9.154,9.154,0,0,1,7.208-3c7.456.048,14.912,0,22.368.033.759,0,1-.137,1-.963-.035-8.955-.022-17.91-.022-26.864v-1.181" transform="translate(-9.358 -103.294)" fill="#ce9d76"/>
      <path id="Trazado_246674" data-name="Trazado 246674" d="M251.2,12.422a16.309,16.309,0,1,1-16.342,16.2,16.294,16.294,0,0,1,16.342-16.2" transform="translate(-178.457 -9.439)" fill="#ee7384"/>
      <path id="Trazado_246675" data-name="Trazado 246675" d="M187.964,123.074c-.37.134-.2.453-.2.68-.015,2.454.017,4.91-.026,7.364-.012.672.231.779.823.764,1.5-.039,2.993.007,4.489-.024.513-.011.651.15.649.655q-.027,6.781,0,13.561c0,.463-.119.616-.6.614q-6.824-.024-13.648,0c-.531,0-.643-.181-.639-.673.022-2.484-.015-4.97.027-7.454.011-.651-.19-.791-.8-.772-1.465.045-2.934-.01-4.4.027-.572.014-.768-.127-.764-.737q.039-6.69,0-13.381c0-.656.209-.779.812-.775q6.6.037,13.2,0c.284,0,.655.218.874-.179a.339.339,0,0,1,.2.328" transform="translate(-131.36 -93.27)"/>
      <path id="Trazado_246676" data-name="Trazado 246676" d="M308.938,169.3v-6.154c0-1.465.014-2.93-.008-4.4-.007-.459.066-.7.612-.725a18.316,18.316,0,0,0,3.391-.639c-1.307,4.073-2.13,8.147-3.632,12.009l-.364-.1" transform="translate(-234.743 -119.594)" fill="#ee7284"/>
      <path id="Trazado_246677" data-name="Trazado 246677" d="M284.088,169.884a2.453,2.453,0,0,1-.956-1.524c-.981-3.436-1.965-6.872-2.969-10.384a11.575,11.575,0,0,1,2.551.408c1.381.178,1.375.22,1.375,1.65Z" transform="translate(-212.884 -120.031)" fill="#ee7284"/>
      <path id="Trazado_246678" data-name="Trazado 246678" d="M45.667,141.369c1.26-2.527,2.455-4.925,3.652-7.323q.56-1.121,1.127-2.239a3.691,3.691,0,0,1,4.4-2.217c.557.111.729-.035.861-.525.272-1.008.568-2.01.9-3a3.509,3.509,0,0,1,3.355-2.5,3.472,3.472,0,0,1,3.282,2.478c1.5,4.907,2.957,9.829,4.442,14.741.125.414.1.588-.4.588-7.15-.011-14.3-.008-21.619-.008" transform="translate(-34.701 -93.895)"/>
      <path id="Trazado_246679" data-name="Trazado 246679" d="M86.511,254.476c0-2.185.021-4.37-.013-6.554-.01-.626.092-.886.814-.877,3.441.042,6.882.032,10.324.006.581,0,.765.145.761.746q-.037,6.689,0,13.378c0,.558-.107.773-.728.767q-5.206-.048-10.413,0c-.679.007-.763-.244-.755-.824.03-2.214.012-4.429.012-6.644" transform="translate(-65.726 -187.72)"/>
      <path id="Trazado_246680" data-name="Trazado 246680" d="M59.774,225.35c-3.229,0-6.458-.015-9.686.013-.586.005-.746-.153-.746-.742,0-2.269-.021-2.269,2.26-2.269,5.89,0,11.78.012,17.669-.016.7,0,.912.163.9.885-.04,2.128-.006,2.129-2.144,2.129Z" transform="translate(-37.492 -168.944)" fill="#010101"/>
      <path id="Trazado_246681" data-name="Trazado 246681" d="M52.222,250.086c-.777,0-1.556-.029-2.332.01-.488.025-.584-.158-.6-.613-.07-2.395-.083-2.394,2.313-2.394.987,0,1.974.02,2.96-.009.469-.014.674.071.688.62.063,2.386.084,2.386-2.314,2.386h-.718" transform="translate(-37.441 -187.746)" fill="#010101"/>
      <path id="Trazado_246682" data-name="Trazado 246682" d="M52.3,274.8c-.777,0-1.557-.032-2.331.011-.529.03-.63-.174-.638-.662-.038-2.344-.053-2.344,2.274-2.344.986,0,1.974.026,2.959-.011.518-.019.723.083.73.672.025,2.333.049,2.332-2.276,2.332H52.3" transform="translate(-37.475 -206.522)" fill="#010101"/>
      <path id="Trazado_246683" data-name="Trazado 246683" d="M52.322,296.538c.807,0,1.615.02,2.421-.008.431-.015.544.133.565.56.122,2.44.134,2.439-2.251,2.439-1.046,0-2.093-.017-3.138.008-.419.01-.589-.1-.565-.547a15.675,15.675,0,0,0,0-1.882c-.035-.515.207-.591.638-.577.776.025,1.554.007,2.331.007" transform="translate(-37.499 -225.321)" fill="#010101"/>
      <path id="Trazado_246684" data-name="Trazado 246684" d="M183.318,274.786c-3.229,0-6.459-.013-9.687.012-.573,0-.759-.13-.759-.735,0-2.272-.025-2.272,2.272-2.272,5.89,0,11.781.012,17.671-.016.7,0,.905.171.892.885-.041,2.124-.008,2.125-2.135,2.125h-8.252" transform="translate(-131.358 -206.512)" fill="#010101"/>
      <path id="Trazado_246685" data-name="Trazado 246685" d="M183.272,299.5c-3.2,0-6.4-.015-9.6.014-.6.005-.815-.122-.81-.774.018-2.229-.01-2.23,2.226-2.23,5.89,0,11.78.014,17.669-.018.737,0,.958.175.941.928-.048,2.08-.012,2.08-2.088,2.08h-8.341" transform="translate(-131.354 -225.294)" fill="#010101"/>
      <path id="Trazado_246686" data-name="Trazado 246686" d="M205.041,250.066c-2.211,0-4.422-.031-6.632.018-.7.015-.836-.2-.828-.854.028-2.16,0-2.16,2.2-2.16,3.914,0,7.828.018,11.742-.016.708-.006.981.117.961.906-.053,2.106-.012,2.107-2.155,2.107Z" transform="translate(-150.134 -187.726)" fill="#010101"/>
      <path id="Trazado_246687" data-name="Trazado 246687" d="M174.485,247.116c1.451,0,1.451,0,1.451,1.465,0,1.534,0,1.534-1.553,1.534-1.449,0-1.449,0-1.449-1.456,0-1.543,0-1.543,1.551-1.543" transform="translate(-131.406 -187.774)" fill="#030303"/>
      <path id="Trazado_246688" data-name="Trazado 246688" d="M273.809,38.092A13.361,13.361,0,1,1,260.45,24.718a13.418,13.418,0,0,1,13.358,13.374" transform="translate(-187.751 -18.782)"/>
      <path id="Trazado_246689" data-name="Trazado 246689" d="M194.263,140.357c0,1.287-.023,2.575.011,3.862.013.509-.137.659-.65.654q-3.816-.037-7.633,0c-.469,0-.612-.126-.608-.6q.033-3.862,0-7.725c0-.424.122-.566.556-.564q3.862.026,7.723,0c.469,0,.62.13.609.605-.03,1.257-.01,2.515-.01,3.772" transform="translate(-140.865 -103.326)" fill="#fbd670"/>
      <path id="Trazado_246690" data-name="Trazado 246690" d="M218.97,177.4c0,1.257-.021,2.514.01,3.77.012.509-.147.666-.66.661-2.513-.024-5.026-.029-7.539,0-.573.007-.7-.186-.692-.719q.047-2.288,0-4.578c-.01-.5.125-.674.646-.662,1.465.033,2.933-.018,4.4.025.664.019.936-.105.921-.865-.043-2.229-.005-2.213,2.268-2.161.51.012.67.158.658.665-.03,1.286-.01,2.573-.01,3.86" transform="translate(-159.638 -131.349)" fill="#4fc0e8"/>
      <path id="Trazado_246691" data-name="Trazado 246691" d="M100.855,148.045c-.987.316-1.529-.271-1.962-1.29-.605-1.425-1.359-2.789-2.07-4.168a1.521,1.521,0,0,1-.117-1.275c.466-1.417.872-2.853,1.3-4.282.109-.365.132-.823.666-.806.479.015.5.455.6.781,1.019,3.37,2.016,6.746,3.053,10.11.212.687.217,1.082-.665.935a6,6,0,0,0-.805-.005" transform="translate(-73.415 -103.511)" fill="#9fd367"/>
      <path id="Trazado_246692" data-name="Trazado 246692" d="M73.05,166.515H66.106a5.032,5.032,0,0,1,.694-1.622c.606-1.267,1.243-2.519,1.89-3.765a.884.884,0,0,1,1.564-.174c.942,1.793,1.824,3.618,2.8,5.562" transform="translate(-50.231 -121.997)" fill="#b3dc7e"/>
      <path id="Trazado_246693" data-name="Trazado 246693" d="M104.719,264.05c0,1.224-.02,2.449.01,3.673.012.51-.077.748-.673.732-1.551-.043-3.1-.028-4.657-.007-.454.006-.625-.123-.621-.6.02-2.568.016-5.136,0-7.7,0-.405.091-.588.541-.582,1.612.022,3.225.028,4.837,0,.518-.01.574.222.568.643-.019,1.284-.007,2.568-.007,3.852" transform="translate(-75.057 -197.226)" fill="#ee7384"/>
      <path id="Trazado_246694" data-name="Trazado 246694" d="M269.9,37.129a10.374,10.374,0,1,1-10.334,10.433A10.376,10.376,0,0,1,269.9,37.129" transform="translate(-197.234 -28.213)" fill="#fee9a6"/>
    </g>
  </g>
</svg>
