<svg id="Grupo_148222" data-name="Grupo 148222" xmlns="http://www.w3.org/2000/svg" xmlns:xlink="http://www.w3.org/1999/xlink" width="121.656" height="121.749" viewBox="0 0 121.656 121.749">
  <defs>
    <clipPath id="clip-path">
      <rect id="Rectángulo_89704" data-name="Rectángulo 89704" width="121.656" height="121.749" fill="#cba124"/>
    </clipPath>
  </defs>
  <g id="Grupo_148180" data-name="Grupo 148180" clip-path="url(#clip-path)">
    <path id="Trazado_246540" data-name="Trazado 246540" d="M88.9,70.3q2.14-4.437,4.28-8.874,3.047-6.329,6.089-12.661c1.924-3.992,5.115-5.126,9.081-3.222q17.569,8.435,35.133,16.877c2.082,1,2.359,1.8,1.344,3.91q-12.37,25.72-24.745,51.438c-.983,2.044-1.777,2.331-3.8,1.36-9.237-4.443-18.472-8.89-27.847-13.4a10.616,10.616,0,0,1-6.414,7.245c1.075,3.137.52,5.83-2.269,7.721a5.677,5.677,0,0,1-6.457.1c-2.337-1.393-3.158-3.607-2.7-7.124H53.9c.688,3.107-.124,5.6-2.868,7.242a5.827,5.827,0,0,1-6.757-.562c-2.3-1.95-2.8-4.407-1.758-7.309-.365-.188-.727-.365-1.08-.559a9.759,9.759,0,0,1-5.507-8.91q-.084-26.429-.012-52.859A10.077,10.077,0,0,1,46.091,40.584c2.618-.028,5.237,0,8.062,0V39.088c0-10.31-.033-20.62.014-30.929A8.06,8.06,0,0,1,65.938.92a7.831,7.831,0,0,1,4.432,7.414q.028,15.274.007,30.549v1.695H71.77c2.2,0,4.394-.017,6.59,0a10.119,10.119,0,0,1,10.26,10.3c.032,6.042.007,12.084.008,18.126v1.236l.268.054M54.161,44.637c-2.838,0-5.494-.032-8.149.008A6.007,6.007,0,0,0,39.971,50.7q-.036,26.419,0,52.838a6.017,6.017,0,0,0,5.973,5.993c1.224.033,2.449.009,3.674.009q14.316,0,28.633,0a6.115,6.115,0,0,0,6.117-4.549c.215-.786.131-1.243-.686-1.563-.94-.367-1.834-.854-2.743-1.3-3.728-1.822-4.877-5.1-3.085-8.849,2.094-4.374,4.208-8.739,6.293-13.117a3.515,3.515,0,0,0,.405-1.429c.022-9.376.039-18.753,0-28.129a5.782,5.782,0,0,0-5.13-5.842c-2.962-.251-5.961-.055-9.081-.055v9.973H66.27V44.722H58.144V54.7H54.161Zm83,28.272L100.662,55.323a1.5,1.5,0,0,0-.167.263q-9.55,19.836-19.088,39.677c-.728,1.516-.322,2.427,1.335,3.225q16.642,8.014,33.289,16.018c.286.138.592.236.941.372l20.184-41.97M66.321,40.519V25.04c0-5.533-.008-11.066,0-16.6a4.044,4.044,0,0,0-2.5-4.042c-2.74-1.2-5.6.835-5.609,3.985q-.023,15.648,0,31.3a7.268,7.268,0,0,0,.1.837Zm74.331,25.109c-.426-.22-.753-.4-1.09-.563q-11.507-5.542-23.016-11.08c-3.495-1.681-6.983-3.377-10.492-5.028a1.958,1.958,0,0,0-2.787.892,2.01,2.01,0,0,0,1.047,2.745c.147.081.306.142.457.215l22.56,10.86c3.831,1.843,7.663,3.684,11.58,5.567l1.74-3.608M50.087,115.576a2.02,2.02,0,1,0-1.943,2.064,2.04,2.04,0,0,0,1.943-2.064M76.46,113.6a2.021,2.021,0,1,0,2.018,1.99,2.041,2.041,0,0,0-2.018-1.99" transform="translate(-23.737 0)" fill="#cba124"/>
    <path id="Trazado_246541" data-name="Trazado 246541" d="M232.912,11.719c2.988,1.994,5.818,3.906,8.687,5.758a1.373,1.373,0,0,0,1.2-.04c1.334-.809,2.607-1.719,3.912-2.576,1.4-.918,2.136-.84,3.348.353,1.173,1.156,2.349,2.311,3.489,3.5a2.013,2.013,0,0,1,.011,3.217c-2.578,2.619-5.157,5.238-7.8,7.789a5.773,5.773,0,0,1-7.241.87Q221.632,20.343,204.807,10a2,2,0,0,1-.784-3.014c2.355-3.545,6.972-5.626,11.045-4.559a26,26,0,0,1,5.77,2.779,2.094,2.094,0,0,0,2.289.095c3.141-1.639,6.325-3.193,9.5-4.772,1.5-.748,2.076-.651,3.262.507,2.895,2.827,2.9,2.827.44,6.114-1.108,1.483-2.217,2.965-3.415,4.566m-.3-6.383-.177-.178c-3.012,1.5-6.041,2.977-9.027,4.532a2.85,2.85,0,0,1-3.186-.144c-1.408-.925-2.861-1.791-4.341-2.6a5.507,5.507,0,0,0-6.79.927l8.852,5.408q11.009,6.728,22.013,13.463c.925.567,1.913,1.028,2.782.187,2.233-2.159,4.365-4.422,6.535-6.64-1.186-1.459-1.187-1.461-2.649-.492-.984.652-1.985,1.282-2.943,1.97a2.381,2.381,0,0,1-3.027.006c-3.772-2.552-7.577-5.057-11.359-7.595-1.562-1.048-1.724-2.068-.6-3.59,1.3-1.758,2.61-3.505,3.916-5.257" transform="translate(-134.683 -0.035)" fill="#cba124"/>
    <path id="Trazado_246542" data-name="Trazado 246542" d="M149.936,78.693v-3.92a7.218,7.218,0,0,0,4.586-2.184,14.113,14.113,0,0,1,19.129.017c.314.282.607.588.923.867a2.236,2.236,0,0,0,3.194.114c3.593-2.776,6.529-2.623,9.717.661,3.932,4.049,8.036,7.847,13.228,10.266a36.8,36.8,0,0,0,13.071,3.481l-2.9-7.075,3.5-1.772a59.52,59.52,0,0,1,6.292,23.064c-1.238.075-2.361.2-3.48.164-.225-.007-.562-.6-.625-.963-.476-2.741-.9-5.49-1.328-8.24-.113-.736-.456-1.016-1.233-1.072a41.187,41.187,0,0,1-27.64-13.238c-.757-.795-1.534-1.573-2.333-2.326a2.233,2.233,0,0,0-3.284-.161c-3.465,2.706-6.323,2.552-9.552-.515a10.114,10.114,0,0,0-14.087-.169c-2.456,2.223-4.711,3.177-7.176,3" transform="translate(-99.172 -45.547)" fill="#cba124"/>
    <path id="Trazado_246543" data-name="Trazado 246543" d="M27.507,37.484C6.969,51.911-3.154,81.98,9.841,108.763l-3.353,1.681C-5.108,89.8-2.481,54.208,25.206,34.307l2.3,3.177" transform="translate(0 -22.692)" fill="#cba124"/>
    <path id="Trazado_246544" data-name="Trazado 246544" d="M201.6,340.307l1.129,3.462a59.864,59.864,0,0,1-16.717,3v-3.709l15.588-2.75" transform="translate(-123.034 -225.088)" fill="#cba124"/>
    <path id="Trazado_246545" data-name="Trazado 246545" d="M148.775,1.031C153.339,0,162.328-.271,165.5.51c-.127,1.236-.254,2.484-.363,3.546l-15.74.53-.625-3.555" transform="translate(-98.404 -0.038)" fill="#cba124"/>
    <rect id="Rectángulo_89701" data-name="Rectángulo 89701" width="3.897" height="46.532" transform="translate(24.422 58.887)" fill="#cba124"/>
    <rect id="Rectángulo_89702" data-name="Rectángulo 89702" width="3.908" height="46.487" transform="translate(36.585 58.892)" fill="#cba124"/>
    <rect id="Rectángulo_89703" data-name="Rectángulo 89703" width="3.903" height="46.487" transform="translate(48.755 58.89)" fill="#cba124"/>
    <path id="Trazado_246546" data-name="Trazado 246546" d="M229.962,196.1A14.188,14.188,0,1,1,215.7,210.2a14.126,14.126,0,0,1,14.26-14.108m-.424,24.179c2.815.479,6.94-1.449,8.268-3.952l-3.243-1.557-5.025,5.509M220.05,207.9a10.141,10.141,0,0,0,2.334,9.156c.182-1.642.323-3.092.509-4.537.135-1.047.785-2.35.376-3.06-.45-.78-1.85-1.012-2.839-1.479a2.344,2.344,0,0,0-.381-.081m16.284,3.206,3.3,1.57c1.162-2.944-.478-8.087-2.157-8.884l-1.141,7.314m-14.364-6.917,3.268,1.571,5.015-5.475a9.029,9.029,0,0,0-8.283,3.9m8.845,8.769-3.591-1.713-.759,5.574.476.215,3.874-4.077m2.517-9.219-.505-.234-3.821,4.084,3.594,1.687c.266-2.009.5-3.773.733-5.536" transform="translate(-142.671 -129.703)" fill="#cba124"/>
    <path id="Trazado_246547" data-name="Trazado 246547" d="M219.4,287.628l-1.766,3.646L199.383,282.5l1.749-3.651,18.272,8.777" transform="translate(-131.877 -184.439)" fill="#cba124"/>
  </g>
</svg>
