<svg id="Grupo_148205" data-name="Grupo 148205" xmlns="http://www.w3.org/2000/svg" xmlns:xlink="http://www.w3.org/1999/xlink" width="130.413" height="159.09" viewBox="0 0 130.413 159.09">
  <defs>
    <clipPath id="clip-path">
      <rect id="Rectángulo_89691" data-name="Rectángulo 89691" width="130.413" height="159.09" fill="#cba124"/>
    </clipPath>
  </defs>
  <g id="Grupo_148168" data-name="Grupo 148168" clip-path="url(#clip-path)">
    <path id="Trazado_246500" data-name="Trazado 246500" d="M30.4,159.09c-1.984-.733-3.971-1.46-5.952-2.2a5.621,5.621,0,0,1-3.574-7.615c.37-1.076.742-2.152,1.16-3.209a2.322,2.322,0,1,1,4.383,1.515,28.07,28.07,0,0,1-.991,2.775c-.529,1.205-.318,1.922,1.048,2.3,1.291.358,2.529.908,3.793,1.366,1.789.648,1.956.576,2.59-1.193q4.367-12.194,8.724-24.392c2.106-5.891,4.188-11.792,6.331-17.669a1.96,1.96,0,0,0-.358-2.359c-.858-.884-1.592-1.889-2.413-2.881l-1.26.648c1.517,4.656.635,7.21-2.946,9.452a33.292,33.292,0,0,1-.07,5.772,5.915,5.915,0,0,1-3.618,4.048,21.2,21.2,0,0,1-.066,4.793,5.888,5.888,0,0,1-4.989,4.537,1.883,1.883,0,0,0-1.708,1.424c-.88,2.517-1.8,3.18-3.4,2.6-1.56-.57-1.883-1.757-.94-4.188a1.809,1.809,0,0,0-.5-2.295,26.1,26.1,0,0,1-2.3-2.727c-2.842-3.581-2.077-7.952,1.8-10.383.174-.109.34-.229.509-.344-3.061-4.807-1.237-9.064,2.071-10.677a33.672,33.672,0,0,1,.068-5.711c.342-1.911,1.834-3.183,3.691-4.115-1.531-3.4-.963-6.388,2.073-8.635,2.81-2.079,5.681-1.928,8.5.389.931-2.6,1.81-5.061,2.732-7.639-4.534-1.627-8.954-3.218-13.376-4.8Q16.955,72.5,2.491,67.337C-.075,66.42-.47,65.58.454,63Q11.269,32.849,22.087,2.7C23.115-.167,23.83-.5,26.724.535q20.16,7.2,40.32,14.407c.528.189,1.062.36,1.717.581.634-1.762,1.23-3.457,1.852-5.141,1.328-3.6,4.151-4.932,7.789-3.665,1.71.594,3.427,1.172,5.108,1.84a5.534,5.534,0,0,1,3.382,7.193c-.593,1.815-1.279,3.6-1.967,5.526.627.252,1.182.5,1.752.7q9.713,3.471,19.43,6.933c.438.156.872.327,1.3.519a2.128,2.128,0,0,1,1.227,2.823,2.178,2.178,0,0,1-2.828,1.5c-1.287-.379-2.536-.891-3.8-1.344L27.647,5.811c-.438-.157-.88-.3-1.522-.516L5.268,63.366l99.019,35.439,20.863-58.1c-2.562-.916-4.99-1.775-7.41-2.655a2.329,2.329,0,1,1,1.4-4.437q4.847,1.645,9.638,3.452c1.679.634,2,1.752,1.251,3.836q-6.523,18.178-13.053,36.354-4.405,12.264-8.818,24.525c-.805,2.236-1.823,2.723-4.046,1.928q-20.523-7.34-41.043-14.69c-.672-.241-1.349-.47-2.134-.743-1.252,3.476-2.506,6.865-3.658,10.288a1.985,1.985,0,0,0,.5,1.468c1.988,2.522,4.045,4.988,6.052,7.495a23.28,23.28,0,0,1,5.109,16.662,3.456,3.456,0,0,0,.673,2.2q11.37,14.083,22.835,28.092c1.665,2.045,1.556,3.065-.494,4.612H90.712A11.816,11.816,0,0,1,89.08,157.7q-12.1-14.79-24.164-29.6a3.684,3.684,0,0,1-.865-3.149,17.612,17.612,0,0,0-3.7-14.285c-3.628-4.59-7.356-9.1-11.054-13.635-1.114-1.366-2.134-1.568-3.16-.7-.985.834-.974,1.793.1,3.117,1.986,2.456,3.956,4.927,6.007,7.327a3.415,3.415,0,0,1,.7,3.831c-1.441,3.765-2.743,7.583-4.1,11.381-1.837,5.158-3.67,10.317-5.685,15.984a21.564,21.564,0,0,0,4.452-.349,3.3,3.3,0,0,1,4.016,1.33c4.159,5.226,8.407,10.382,12.621,15.565,1.642,2.021,1.5,3.125-.581,4.578H62.423a24.622,24.622,0,0,1-2.089-2.022c-3.77-4.59-7.5-9.216-11.261-13.812-.3-.364-.759-.821-1.16-.837-2.077-.084-4.159-.039-6.36-.039-1.295,3.618-2.742,7.374-3.971,11.2-.819,2.549-2.094,4.55-4.69,5.511ZM53.578,94.957l2.957-8.3-7.345-2.6-2.523,7.087c3.137-.149,5.228,1.316,6.911,3.809M80.495,19.749c.683-1.908,1.384-3.669,1.907-5.482a1.6,1.6,0,0,0-.707-1.381A41.718,41.718,0,0,0,76.6,11.076a1.59,1.59,0,0,0-1.419.593c-.75,1.734-1.331,3.541-2.021,5.459l7.332,2.62m-42.387,92c.6-.459,1.382-.773,1.622-1.324a2.37,2.37,0,0,0-.182-1.978c-1.24-1.779-2.618-3.465-4.007-5.135a1.747,1.747,0,0,0-2.733-.167,1.808,1.808,0,0,0-.312,2.741c1.321,1.659,2.655,3.309,4.046,4.909a6.66,6.66,0,0,0,1.566.954m-1.376,7.875c-.122-.569-.1-.879-.241-1.062-1.548-2-3.042-4.059-4.755-5.91-.333-.36-1.686-.141-2.321.232a1.594,1.594,0,0,0-.405,2.45,66.275,66.275,0,0,0,4.361,5.252,2.466,2.466,0,0,0,2.089.334c.553-.16.93-.922,1.273-1.3m5.154-17.448c-.471-1.7-1.211-2.98-1.057-4.138.253-1.9-.778-2.989-1.779-4.19-.934-1.119-1.972-1.23-2.941-.368a1.868,1.868,0,0,0-.207,2.861c1.29,1.6,2.55,3.238,3.932,4.759a7.368,7.368,0,0,0,2.052,1.076M32.9,128.253c-.012-.084.032-.343-.078-.482a44.708,44.708,0,0,0-3.617-4.372c-.334-.328-1.683-.109-2.15.316a2.3,2.3,0,0,0-.536,2.124,20.014,20.014,0,0,0,3.505,4.062c1.129.97,2.848-.055,2.876-1.649" transform="translate(0 0)" fill="#cba124"/>
    <path id="Trazado_246501" data-name="Trazado 246501" d="M62.541,34.135c-.127.409-.258.908-.434,1.392Q58.011,46.817,53.9,58.1c-.641,1.759-1.787,2.482-3.109,2.013-1.373-.487-1.883-1.9-1.255-3.634q4.15-11.435,8.317-22.864c.462-1.273,1.221-2.04,2.662-1.791a2.3,2.3,0,0,1,2.025,2.31" transform="translate(-28.817 -18.586)" fill="#cba124"/>
    <path id="Trazado_246502" data-name="Trazado 246502" d="M34.686,128.083c-2.1-.038-3.242-1.392-2.723-2.955,1.057-3.181,2.228-6.327,3.448-9.449a2.065,2.065,0,0,1,2.706-1.212,2.033,2.033,0,0,1,1.568,2.637c-1.087,3.331-2.3,6.624-3.6,9.877-.23.576-1.115.89-1.4,1.1" transform="translate(-18.621 -66.875)" fill="#cba124"/>
  </g>
</svg>
