<svg id="Grupo_148216" data-name="Grupo 148216" xmlns="http://www.w3.org/2000/svg" xmlns:xlink="http://www.w3.org/1999/xlink" width="132.682" height="144.816" viewBox="0 0 132.682 144.816">
  <defs>
    <clipPath id="clip-path">
      <rect id="Rectángulo_89694" data-name="Rectángulo 89694" width="132.682" height="144.816" fill="#cba124"/>
    </clipPath>
  </defs>
  <g id="Grupo_148175" data-name="Grupo 148175" clip-path="url(#clip-path)">
    <path id="Trazado_246522" data-name="Trazado 246522" d="M0,123.322c1.367-3.765,4.19-6.56,6.579-9.61C11.051,108,15.633,102.372,20.4,96.905A36.811,36.811,0,0,1,30.995,89c.393-.212.9-.828.844-1.165-1.147-6.478-.11-12.781,1.56-19,2.933-10.919,7.655-20.981,15.287-29.425,2.562-2.835,5.77-5.086,8.685-7.6.173-.149.356-.286.535-.43-3.031-3.65-3.553-8.155.544-12.542a17.754,17.754,0,0,1-5.138-9.36C52.355,4.88,54.583.994,58.7.206a8.751,8.751,0,0,1,3.734.261,12.8,12.8,0,0,1,6.045,3.753c.421.445.842.892,1.294,1.3,1.945,1.765,3.324,1.741,5.308-.036a39.994,39.994,0,0,1,4.158-3.583A8.931,8.931,0,0,1,85.894.116c4.164.757,6.541,4.659,5.6,9.279a17.869,17.869,0,0,1-5.11,9.407c3.766,5.185,3.894,8.249.588,12.4,16.359,12.012,23.488,29.046,26.577,48.543,1.078-.892,2.158-1.81,3.264-2.7a9.408,9.408,0,0,1,8.9-1.818,9.651,9.651,0,0,1,4.957,15.16,19.02,19.02,0,0,1-1.511,1.68Q114.8,106.7,100.446,121.343a13.322,13.322,0,0,1-10.1,4.21c-13.715-.052-27.431.022-41.146-.051a8.415,8.415,0,0,0-7.445,3.741c-2.745,3.827-5.692,7.51-8.436,11.339a10.012,10.012,0,0,1-5.606,4.234H5.939A8.106,8.106,0,0,1,0,138.877Zm69.236-2.616c7.165,0,14.329-.019,21.494.011a7.789,7.789,0,0,0,6.049-2.543c1.219-1.311,2.5-2.566,3.754-3.844,8.456-8.608,16.937-17.192,25.334-25.856a7.276,7.276,0,0,0,1.869-3.5,4.342,4.342,0,0,0-2.4-4.713,4.837,4.837,0,0,0-5.645.674q-10.046,8.373-20.046,16.8a2.48,2.48,0,0,0-.734,1.531c-.54,5.682-4.44,9.331-10.1,9.339q-12.8.018-25.594,0c-1.786,0-2.9-.913-2.948-2.35-.045-1.487,1.1-2.457,2.967-2.462,4.242-.011,8.484,0,12.727,0,4.384,0,8.767.019,13.151-.009a4.769,4.769,0,0,0,4.615-3.112,4.483,4.483,0,0,0-1.181-5.046,5.488,5.488,0,0,0-4.136-1.472c-7.73.025-15.46-.02-23.19.03a9.231,9.231,0,0,1-6.02-2,13.409,13.409,0,0,0-8.123-2.837c-11.9-.311-21.736,4.114-29.336,13.176-5.569,6.639-10.8,13.564-16.123,20.4a4.149,4.149,0,0,0-.769,2.323c-.077,3.864-.04,7.729-.033,11.595,0,2.326.826,3.152,3.147,3.155,5.845.006,11.69-.04,17.534.03a3.958,3.958,0,0,0,3.556-1.816c2.947-4.032,6.011-7.978,8.957-12.01a12.665,12.665,0,0,1,11-5.512c6.74.071,13.481.018,20.221.018M97.375,93.3c2.172-1.812,4.5-3.72,6.789-5.674,1.492-1.275,3.555-2.363,4.215-4,.69-1.709.006-3.973-.08-5.995a5.312,5.312,0,0,0-.065-.561A69.147,69.147,0,0,0,95.65,46.418C92.134,41.56,88,37.322,82.566,34.592a7.8,7.8,0,0,0-3.224-.763c-3.768-.091-7.562.22-11.3-.105-3.9-.34-6.972,1.14-9.857,3.369a35.09,35.09,0,0,0-4.346,3.819A65.759,65.759,0,0,0,36.285,80.279a51.489,51.489,0,0,0,.1,6.14c3.29-.6,6.274-1.293,9.3-1.675,6.119-.775,11.935-.066,17,3.929a4.1,4.1,0,0,0,2.37.633c7.729.046,15.459-.035,23.186.076a14.233,14.233,0,0,1,5.173,1.082A21.356,21.356,0,0,1,97.375,93.3m-25-76.378c1.932,0,3.865.052,5.8-.01,4.853-.158,9.173-5.176,8.647-9.991-.175-1.6-1.436-2.566-2.875-1.88a14.507,14.507,0,0,0-4.4,2.9c-4.571,4.9-9.686,4.926-14.236.043a14.033,14.033,0,0,0-4.255-2.879c-1.685-.8-3.006.168-3.058,2.041a10.6,10.6,0,0,0,2.577,6.856,7.43,7.43,0,0,0,6.154,2.917c1.885.008,3.769,0,5.654,0m.124,4.835c-2.775,0-5.55-.022-8.324.007a3.593,3.593,0,1,0-.047,7.172q8.253.064,16.507,0a3.6,3.6,0,0,0,3.837-3.634c-.032-2.071-1.616-3.522-3.93-3.542-2.68-.024-5.361-.005-8.042,0" transform="translate(0 0)" fill="#cba124"/>
    <path id="Trazado_246523" data-name="Trazado 246523" d="M173.151,145.627c.6-3.21,1.113-3.961,2.621-3.955,1.562.005,2.161.879,2.536,3.7,1.6-.5,2.617-2.7,2.179-4.707a4.754,4.754,0,0,0-3.941-3.747c-1.065-.175-2.166-.189-3.207-.451a9.579,9.579,0,0,1-1.264-18.148,2.038,2.038,0,0,0,1.483-1.607,2.34,2.34,0,0,1,4.44.068,1.946,1.946,0,0,0,1.395,1.513,9.331,9.331,0,0,1,5.982,8.362,2.461,2.461,0,0,1-2.192,2.919c-1.371.119-2.429-.92-2.6-2.559a4.372,4.372,0,0,0-2.271-3.787c-.2,1.821-.067,3.939-2.734,3.878-1.51-.034-2-.882-2.338-3.714a4.156,4.156,0,0,0-2.163,4.86c.538,2.214,2.2,3.521,4.726,3.715,4.867.373,8.314,3.119,9.33,7.432a9.547,9.547,0,0,1-5.774,11.148c-.681.277-1.178.516-1.332,1.384a2.333,2.333,0,0,1-4.512.009c-.156-.859-.645-1.1-1.322-1.393a9.354,9.354,0,0,1-6.029-8.334c-.145-1.777.789-2.9,2.27-2.96,1.423-.056,2.365.905,2.523,2.626a4.727,4.727,0,0,0,2.2,3.753" transform="translate(-103.365 -71.638)" fill="#cba124"/>
  </g>
</svg>
