<svg id="Grupo_147322" data-name="Grupo 147322" xmlns="http://www.w3.org/2000/svg" xmlns:xlink="http://www.w3.org/1999/xlink" width="66.527" height="79.556" viewBox="0 0 66.527 79.556">
  <defs>
    <clipPath id="clip-path">
      <rect id="Rectángulo_89269" data-name="Rectángulo 89269" width="66.527" height="79.556" fill="none"/>
    </clipPath>
  </defs>
  <g id="Grupo_147322-2" data-name="Grupo 147322" clip-path="url(#clip-path)">
    <path id="Trazado_230169" data-name="Trazado 230169" d="M27.36,0a6.674,6.674,0,0,1,3.112,1.586,5.228,5.228,0,0,1,1.36,2.225.755.755,0,0,0,.6.594,3.442,3.442,0,0,1,1.8,1.014,3.63,3.63,0,0,0,2.422,1.117c7.289,1.54,12.286,5.7,14.364,12.967A15.7,15.7,0,0,1,49.878,30.9c-.217.451-.3.678.255.978a4.609,4.609,0,0,1,2.489,3.876,25.715,25.715,0,0,1,0,3.88,4.883,4.883,0,0,1-4.182,4.534A4.939,4.939,0,0,1,43.1,41.206c-.052-.114-.092-.233-.177-.449a29.533,29.533,0,0,1-2.976,2.372c-.415.294-.062.982-.16,1.477-.141.709.218.842.831.895A28.274,28.274,0,0,1,66,68.241a47.4,47.4,0,0,1,.5,9.829,1.505,1.505,0,0,1-1.5,1.478c-.232.016-.466.006-.7.006H2.233c-1.8,0-2.213-.43-2.222-2.258C0,73.879-.105,70.452.789,67.11q4.217-15.76,19.793-20.652a22.343,22.343,0,0,1,5.406-.968c.544-.032.889-.17.753-.8a.682.682,0,0,1,0-.232,1.629,1.629,0,0,0-.967-1.924,8.044,8.044,0,0,1-2.049-1.707c-.279.07-.255.3-.325.447a4.942,4.942,0,0,1-5.465,2.873A4.87,4.87,0,0,1,13.9,39.559a14.9,14.9,0,0,1,.217-4.862c.095-.326-.087-.406-.305-.509a4.7,4.7,0,0,1-1.8-1.437c-.24-.324-.513-.262-.819-.249a5.432,5.432,0,0,1-5.788-5.957.765.765,0,0,0-.327-.71,5.456,5.456,0,0,1-.022-8.368.739.739,0,0,0,.33-.7,5.46,5.46,0,0,1,5.222-6c.518-.027.618-.141.588-.645A5.409,5.409,0,0,1,15,4.393a.708.708,0,0,0,.533-.476,5.311,5.311,0,0,1,4.28-3.8C19.85.105,19.873.039,19.9,0h1.709a6.279,6.279,0,0,1,1.836.442.532.532,0,0,0,.521,0A6.534,6.534,0,0,1,25.651,0Z" transform="translate(0)"/>
    <path id="Trazado_230170" data-name="Trazado 230170" d="M58.48,274.711c.376,1.2.911,1.519,2.22,1.353A63.043,63.043,0,0,0,75.694,272.3a.875.875,0,0,1,1.164.3,27.057,27.057,0,0,1,4.163,6.421.7.7,0,0,1-.274,1.024,5.574,5.574,0,0,1-6.713-.125c-1.433-1.124-2.307-.863-2.984.837a5.325,5.325,0,0,1-4.445,3.539,5.246,5.246,0,0,1-5.248-2.318c-.427-.6-.881-1.113-1.683-1.034-.836.082-1.195.679-1.475,1.4a5.5,5.5,0,0,1-10.267.012c-.279-.722-.631-1.324-1.467-1.414-.8-.086-1.26.419-1.687,1.023a5.25,5.25,0,0,1-5.244,2.33,5.323,5.323,0,0,1-4.454-3.528c-.695-1.735-1.531-1.974-3.039-.81a5.567,5.567,0,0,1-6.651.093.7.7,0,0,1-.289-1.019,26.846,26.846,0,0,1,4.264-6.539.749.749,0,0,1,.987-.232,62.889,62.889,0,0,0,15.063,3.8c1.3.169,1.822-.144,2.228-1.351a9.915,9.915,0,0,1,3.717.149c.272.1.329.372.458.588a1.329,1.329,0,0,0,2.48.023c.13-.215.181-.488.448-.6a9.606,9.606,0,0,1,3.733-.157" transform="translate(-19.801 -215.653)" fill="#fc4b52"/>
    <path id="Trazado_230171" data-name="Trazado 230171" d="M45.1,332.942q-14.683,0-29.365.016c-.645,0-.8-.148-.8-.793a32.114,32.114,0,0,1,.72-7.94c.112-.45.141-.662.7-.345a8.386,8.386,0,0,0,7.956.378c.421-.189.588-.12.846.248a8.574,8.574,0,0,0,12.421,1.979c.349-.258.488-.248.775.089a8.583,8.583,0,0,0,13.492,0c.286-.335.425-.349.775-.09a8.572,8.572,0,0,0,12.421-1.978c.258-.367.424-.439.847-.249a8.435,8.435,0,0,0,7.959-.372c.42-.235.537-.288.678.263a32.206,32.206,0,0,1,.726,8.4c0,.3-.091.424-.4.393a5.385,5.385,0,0,0-.543,0H45.1" transform="translate(-11.832 -256.497)" fill="#fefefe"/>
    <path id="Trazado_230172" data-name="Trazado 230172" d="M115.386,65.952c0-1.357,0-2.663,0-3.969-.006-1.28-.554-1.829-1.839-1.872a11.371,11.371,0,0,1-8.233-3.77c-1.143-1.227-1.721-1.25-3.012-.154a18.148,18.148,0,0,1-11.367,4.356c-1.529.059-1.98.5-1.983,2.021,0,1.109,0,2.218,0,3.41a1.42,1.42,0,0,1-.557-.763,13.721,13.721,0,0,1,4.462-17.323c7.5-5.536,18.624-3.177,22.89,4.9a13.2,13.2,0,0,1,.143,12.52c-.106.217-.16.486-.5.645" transform="translate(-68.904 -35.557)" fill="#feca2e"/>
    <path id="Trazado_230173" data-name="Trazado 230173" d="M86.664,228.669c-1.27.223-2.562.131-3.838.275-.2-.1-.259-.308-.341-.49a1.327,1.327,0,0,0-2.473,0c-.082.182-.14.387-.34.49-1.279-.119-2.571-.065-3.843-.275a1.653,1.653,0,0,0-1.709-1.727,60.551,60.551,0,0,1-13.171-3.12,3.771,3.771,0,0,1-.388-.2,24.96,24.96,0,0,1,10.889-5.066,25.357,25.357,0,0,1,4.627-.472,1.581,1.581,0,0,0,1.753-1.793c.008-.723,0-1.445,0-2.223a13.436,13.436,0,0,0,6.837-.009c0,.727,0,1.408,0,2.09.005,1.394.526,1.915,1.921,1.943a24.931,24.931,0,0,1,14.9,5.176c.139.105.266.226.456.388A53.09,53.09,0,0,1,95.31,225.7a58.64,58.64,0,0,1-7.02,1.255c-1.058.124-1.505.6-1.627,1.718" transform="translate(-47.985 -169.611)" fill="#f2c8a5"/>
    <path id="Trazado_230174" data-name="Trazado 230174" d="M131.691,121.069a10.37,10.37,0,0,1-1.589,6.419,10.107,10.107,0,0,1-18.628-5.336c-.011-1.088.013-2.176-.011-3.263-.009-.4.131-.52.525-.557a20.784,20.784,0,0,0,10.641-4.1c.332-.246.521-.259.837.028a14.044,14.044,0,0,0,7.744,3.617c.413.055.5.237.489.608-.022.75-.007,1.5-.007,2.586" transform="translate(-88.316 -90.363)" fill="#f2c8a5"/>
    <path id="Trazado_230175" data-name="Trazado 230175" d="M40.72,84.291a2.207,2.207,0,0,1-2.765-1.1c-.748-1.4-1.068-1.529-2.584-1.082a2.382,2.382,0,0,1-2.985-2.979c.451-1.52.326-1.808-1.087-2.573a2.374,2.374,0,0,1,.034-4.209c1.345-.7,1.5-1.09,1.052-2.527a2.406,2.406,0,0,1,2.076-3.151c.414-.034.719-.073.6.6a5.45,5.45,0,0,0,3.47,6.152c.289.12.472.172.413.577A16.652,16.652,0,0,0,40.72,84.291" transform="translate(-23.802 -52.816)" fill="#a7e446"/>
    <path id="Trazado_230176" data-name="Trazado 230176" d="M68.705,27.264a2.255,2.255,0,0,1,.657-1.606c.846-.949.86-1.589.023-2.5a2.292,2.292,0,0,1-.5-2.577,2.244,2.244,0,0,1,2.168-1.466c1.193-.049,1.684-.541,1.751-1.714a2.364,2.364,0,0,1,1.5-2.246,2.321,2.321,0,0,1,2.632.565,1.527,1.527,0,0,0,2.335.018,2.349,2.349,0,0,1,2.63-.6,2.223,2.223,0,0,1,1.5,2.227c0,.393.384.836.086,1.125-.244.235-.724.218-1.095.331A17.794,17.794,0,0,0,70.679,29.1c-.232.534-.459.506-.857.257a2.436,2.436,0,0,1-1.117-2.091" transform="translate(-54.426 -11.852)" fill="#fc4b52"/>
    <path id="Trazado_230177" data-name="Trazado 230177" d="M224.384,168.656c0,.516.026,1.034,0,1.548a1.86,1.86,0,1,1-3.715-.082c-.016-.981-.018-1.962,0-2.942a1.808,1.808,0,0,1,1.81-1.907,1.851,1.851,0,0,1,1.9,1.834c.034.514.006,1.032.006,1.548" transform="translate(-174.833 -130.954)" fill="#dff7f9"/>
    <path id="Trazado_230178" data-name="Trazado 230178" d="M85.223,168.687c0,.568.029,1.137-.008,1.7a1.832,1.832,0,0,1-1.638,1.687,1.741,1.741,0,0,1-1.937-1.309,11.622,11.622,0,0,1-.012-4.149,1.721,1.721,0,0,1,1.983-1.336,1.787,1.787,0,0,1,1.608,1.7c.033.566.006,1.135,0,1.7" transform="translate(-64.534 -130.953)" fill="#dff7f9"/>
    <path id="Trazado_230179" data-name="Trazado 230179" d="M152.6,279.8c.218-1.066.713-1.554,1.577-1.554s1.357.486,1.577,1.554c-.246,1.025-.811,1.562-1.615,1.538-.781-.024-1.3-.544-1.539-1.538" transform="translate(-120.91 -220.471)" fill="#010101"/>
    <path id="Trazado_230180" data-name="Trazado 230180" d="M147.126,163.785a4.17,4.17,0,0,1-2.925-1.232,1.533,1.533,0,0,1,1.99-2.327,1.328,1.328,0,0,0,1.927-.02,1.533,1.533,0,0,1,2,2.314,4.156,4.156,0,0,1-2.987,1.265" transform="translate(-113.878 -126.695)"/>
  </g>
</svg>
