<svg id="Grupo_147321" data-name="Grupo 147321" xmlns="http://www.w3.org/2000/svg" xmlns:xlink="http://www.w3.org/1999/xlink" width="63.618" height="64.015" viewBox="0 0 63.618 64.015">
  <defs>
    <clipPath id="clip-path">
      <rect id="Rectángulo_89268" data-name="Rectángulo 89268" width="63.618" height="64.015" fill="none"/>
    </clipPath>
  </defs>
  <g id="Grupo_147321-2" data-name="Grupo 147321" clip-path="url(#clip-path)">
    <path id="Trazado_230081" data-name="Trazado 230081" d="M251.787,382.838c-.163,0-.338-.034-.459.124h18.14c.009-.029.018-.059.027-.088l.007-.023-17.714-.013" transform="translate(-209.386 -318.948)" fill="#111"/>
    <path id="Trazado_230082" data-name="Trazado 230082" d="M69.933,382.852l-11.606.022a.1.1,0,0,0,.055.1H70.268a.373.373,0,0,0-.335-.124" transform="translate(-48.593 -318.961)" fill="#111"/>
    <path id="Trazado_230083" data-name="Trazado 230083" d="M20.975,382.839l-3.039.02c0,.008,0,.015.005.022a.2.2,0,0,0,.036.085h3c0-.042,0-.084,0-.126" transform="translate(-14.943 -318.951)" fill="#151515"/>
    <path id="Trazado_230084" data-name="Trazado 230084" d="M48.825,83.689a1.019,1.019,0,0,0,.778.3c1.125-.016,2.251.025,3.375-.013a8.116,8.116,0,0,1,5.16,1.319c.036.026.108,0,.163,0a11.381,11.381,0,0,0,2.568-2.733A12.337,12.337,0,0,0,62.114,79.8c.045-.148.087-.279-.065-.387a4.658,4.658,0,0,1-1.969.1.58.58,0,0,1-.514-.554.608.608,0,0,1,.43-.683,3.311,3.311,0,0,1,1.9.011.585.585,0,0,1,.418.626,3.14,3.14,0,0,0,1.133-.114c.2-.689.744-.842,1.364-.88,1.231-1.582,1.231-2.883,0-4.609-.249-.014-.5-.041-.746-.041q-4.876,0-9.752.005a11.518,11.518,0,0,1-3.222-.3,7.681,7.681,0,0,1-4.111-2.917,7.927,7.927,0,0,0-.735,2.082c-.208.945-.351,1.06-1.339,1.14a2.344,2.344,0,0,0-.06,4.665c1.128.126,1.189.192,1.445,1.329a8.6,8.6,0,0,0,2.541,4.415m9.834-8.317a.838.838,0,0,1,.823-.856.82.82,0,0,1,.992.732,10.813,10.813,0,0,1,.01,2.115.837.837,0,0,1-.966.777.864.864,0,0,1-.861-.9c-.014-.312,0-.624,0-.936s-.016-.625,0-.936m-.348,3.863a.828.828,0,0,1,1.207.231,3.035,3.035,0,0,1,.657,1.661c-.008,1.047-.331,1.5-.969,1.538a.884.884,0,0,1-.969-1.1,1.318,1.318,0,0,0-.252-1.045.884.884,0,0,1,.325-1.283m-5.22.19a.919.919,0,0,1,1.049.833c.063.4.2.7.63.7.466.008.608-.307.67-.731a.9.9,0,0,1,1.007-.809.954.954,0,0,1,.846,1.047,2.507,2.507,0,0,1-5.006.037.957.957,0,0,1,.8-1.08M51.4,79.249a.9.9,0,0,1,.3,1.217,2.242,2.242,0,0,0-.279,1.192.818.818,0,0,1-.77,1.005c-.573.068-.91-.183-1.057-.806a4.308,4.308,0,0,1-.063-.589,2.784,2.784,0,0,1,.65-1.8.882.882,0,0,1,1.222-.217M49.161,75.4a.863.863,0,0,1,.854-.888.882.882,0,0,1,.994.811,14.536,14.536,0,0,1,0,1.983.923.923,0,0,1-.978.846.938.938,0,0,1-.872-.953c-.015-.309,0-.62,0-.931,0-.289-.014-.58,0-.868M47.42,78.8c.035-.382.29-.52.647-.516.228,0,.456,0,.684,0s.456,0,.684,0a.537.537,0,0,1,.605.559.579.579,0,0,1-.52.664,7.483,7.483,0,0,1-1.551,0,.612.612,0,0,1-.55-.71" transform="translate(-35.623 -58.368)" fill="#fecdbe"/>
    <path id="Trazado_230085" data-name="Trazado 230085" d="M101.459,77.634c-.092-.017-.184-.037-.276-.051a.772.772,0,0,0,.276.051" transform="translate(-84.298 -64.636)" fill="#bebebe"/>
    <path id="Trazado_230086" data-name="Trazado 230086" d="M76.366,22.7c3.227-.008,6.454-.032,9.681-.008.61,0,.766-.173.752-.767-.04-1.7-.009-3.409-.015-5.113a5.827,5.827,0,0,0-2.507-4.954.74.74,0,0,1-.118-.143c-2.519,0-5.038-.016-7.557-.006a4.672,4.672,0,0,0-1.638.358,5.554,5.554,0,0,0-3.513,5.853,5.483,5.483,0,0,0,4.915,4.78" transform="translate(-59.48 -9.748)" fill="#bebebe"/>
    <path id="Trazado_230087" data-name="Trazado 230087" d="M200.885,81.493c1.035.123,1.065.2,1.328,1.217a8.415,8.415,0,0,0,6.444,6.428,1.875,1.875,0,0,0,1.763-.249,4.2,4.2,0,0,1,1.373-.578,12.925,12.925,0,0,1,2.786-.293A12.857,12.857,0,0,0,216.788,85a12.015,12.015,0,0,0,.668-1.851c-.454,0-.908-.005-1.362,0-.4,0-.712-.151-.743-.573-.033-.444.32-.618.68-.65a7.2,7.2,0,0,1,1.356.027.484.484,0,0,1,.457.437,2.187,2.187,0,0,0,.977-.118,1.086,1.086,0,0,1,.9-.775,2.555,2.555,0,0,0,1.211-2.541,5.294,5.294,0,0,0-.844-1.914,1.222,1.222,0,0,1-1.258-.763,1.377,1.377,0,0,1-1.533-1.426c-.009-.11-.118-.212-.18-.317h0a7.475,7.475,0,0,1-5.96,2.481c-3.355-.045-6.712-.02-10.067-.007a2.213,2.213,0,0,0-2.272,2.106,2.25,2.25,0,0,0,2.07,2.381m13.253-1.879q0-1.965,1.924-1.455c.648.171.974,1.074.457,1.476a1.483,1.483,0,0,0-.533,1.269.839.839,0,0,1-.929.816.866.866,0,0,1-.892-.8,2.726,2.726,0,0,1-.026-.373c0-.208,0-.416,0-.624q0-.156,0-.312m-.168,3.371A.816.816,0,0,1,215,83.12a2.5,2.5,0,0,1,.712,1.979,1.513,1.513,0,0,1-.175.9.88.88,0,0,1-.867.482.807.807,0,0,1-.807-.733,4.962,4.962,0,0,0-.381-1.793c-.177-.43.134-.774.49-.966m-5.229.207a.9.9,0,0,1,1.024.786c.077.4.186.763.653.762s.6-.332.665-.752a.913.913,0,0,1,1.011-.8.976.976,0,0,1,.844,1,2.556,2.556,0,0,1-2.508,2.446,2.509,2.509,0,0,1-2.5-2.431.9.9,0,0,1,.814-1.006m-1.43.991a1.7,1.7,0,0,0-.256,1.234.866.866,0,0,1-.8,1.057.907.907,0,0,1-1.031-.7c-.065-.217-.1-.443-.147-.663a3.365,3.365,0,0,1,.77-1.928.829.829,0,0,1,1.123-.169.813.813,0,0,1,.345,1.174m-3.084-5.336c.144-.579.639-.787,1.656-.712a.909.909,0,0,1,.932.893,9.13,9.13,0,0,1,.005.932c0,.29.019.582,0,.87a.948.948,0,0,1-.932.905.906.906,0,0,1-.919-.906,1.15,1.15,0,0,0-.531-1.185.71.71,0,0,1-.207-.8m-.748,3.159a2.884,2.884,0,0,1,1.588-.037.577.577,0,0,1,.5.677c-.051.381-.31.506-.663.5-.207,0-.414,0-.621,0s-.414,0-.621,0a.533.533,0,0,1-.58-.452.562.562,0,0,1,.4-.684" transform="translate(-165.634 -62.094)" fill="#fecdbe"/>
    <path id="Trazado_230088" data-name="Trazado 230088" d="M29.612,232.48h0a6.534,6.534,0,0,1,.762-1.7c.007-.31-.129-.439-.453-.432a2.079,2.079,0,0,1-1.043-.094c-.236-.121-.424-.283-.391-.575a.549.549,0,0,1,.515-.541,4.408,4.408,0,0,1,1.932.132c.146-1.088-.108-2.185.137-3.256h0a6.606,6.606,0,0,1,.137-.985c.139-.482-.009-.583-.49-.578-2.669.023-5.338-.009-8.006.017a7.455,7.455,0,0,1-6.391-3.036c-.015-.02-.065-.014-.119-.025a5.7,5.7,0,0,0-.621,1.681c-.212,1.043-.344,1.386-1.525,1.4a1.2,1.2,0,0,0-.362.087,2.153,2.153,0,0,0,.536,4.193c.942.086,1.078.195,1.284,1.125a8.489,8.489,0,0,0,1.225,2.91c2.155,3.231,6.707,4.573,9.984,2.942a13.741,13.741,0,0,0,2.887-3.262m-11.255-2.255a2.644,2.644,0,0,1-1.754.013.547.547,0,0,1-.386-.631c.038-.334.288-.442.56-.48a5.311,5.311,0,0,1,.742-.007v-.007c.207,0,.413,0,.619,0a.531.531,0,0,1,.569.461.54.54,0,0,1-.351.651m1.638-1.934a.84.84,0,0,1-.922.751.819.819,0,0,1-.882-.792,15.91,15.91,0,0,1,0-1.928.828.828,0,0,1,.866-.813A.853.853,0,0,1,20,226.3a7.364,7.364,0,0,1,.008.994h.042a9.078,9.078,0,0,1-.057.993m6.459,2.916a2.884,2.884,0,0,1-5.748.018c-.035-.676.23-1.071.772-1.149.58-.084.969.244,1.094.92q.181.985.991.989c.559,0,.905-.347,1.025-1.035a.916.916,0,0,1,1.059-.877.964.964,0,0,1,.806,1.135m.68-2.951a10.517,10.517,0,0,1-.005-1.93.871.871,0,0,1,.935-.823.915.915,0,0,1,.911.918c.019.29,0,.582,0,.873s.018.584,0,.873a.866.866,0,0,1-.88.875.844.844,0,0,1-.959-.786" transform="translate(-10.177 -184.455)" fill="#fecdbe"/>
    <path id="Trazado_230089" data-name="Trazado 230089" d="M268.045,225.332a4.3,4.3,0,0,0-.808-1.588c-.228-.01-.457-.028-.685-.028q-5.061,0-10.123,0a8.456,8.456,0,0,1-1-.047,6.974,6.974,0,0,1-4.582-2.407.981.981,0,0,0-1.244-.183c-.4.2-.124.61.032.924a7.94,7.94,0,0,1,.843,3.292c.045,1.266.069,2.532.1,3.8.479,0,.958-.007,1.437,0,.341.005.575.18.561.529a.547.547,0,0,1-.574.6c-.312,0-.625.007-.937.011h0a4,4,0,0,1,.756,3.579c-.067.233.026.334.172.47a8.553,8.553,0,0,0,8.729,1.3h0c.486-.587,1.151-.971,1.662-1.548a9.282,9.282,0,0,0,2.093-3.81h0c-.474,0-.949-.008-1.423,0-.408.005-.7-.132-.7-.586.005-.418.283-.577.664-.549a4.311,4.311,0,0,1,1.705.132,4.4,4.4,0,0,0,1.23-.13,1.1,1.1,0,0,1,.781-.775,2.54,2.54,0,0,0,1.3-2.984m-14.3,2.25a.86.86,0,0,1-.837.911.871.871,0,0,1-1-.805c-.049-.509.006-1-.563-1.312-.218-.118-.257-.457-.187-.744.143-.588.612-.814,1.58-.752.62.04.961.33,1.005.892.025.31,0,.624,0,.936h0c0,.291.011.583,0,.874m3.756,5.932a2.961,2.961,0,0,1-2.975-2.771.979.979,0,0,1,.845-1.116.941.941,0,0,1,1.011.879c.152.77.493,1.122,1.1,1.128.623.005.966-.354,1.116-1.168a.947.947,0,0,1,.986-.842.981.981,0,0,1,.878,1.092,2.969,2.969,0,0,1-2.955,2.8m5.957-6.965c-.4.193-.374.487-.362.812a1.049,1.049,0,0,1-.418.98.919.919,0,0,1-1.447-.664,9.308,9.308,0,0,1-.006-.994h-.007v-.311c0-1.309.555-1.751,1.84-1.47a.933.933,0,0,1,.763.73.769.769,0,0,1-.362.916" transform="translate(-207.78 -184.065)" fill="#fecdbe"/>
    <path id="Trazado_230090" data-name="Trazado 230090" d="M34.639,170.916c.013.163.039.325.059.487.674-.056.983.34,1.244.9a5.042,5.042,0,0,0,4.36,3.116c2.933,0,5.866-.027,8.8,0,.616.006.766-.186.748-.772-.042-1.369-.01-2.741-.014-4.111a6.443,6.443,0,0,0-2.651-5.475.553.553,0,0,1-.1-.154h0c-2.782,0-5.565-.048-8.346.012a3.17,3.17,0,0,0-2.812,1.881,1.927,1.927,0,0,1-1.227,1.118,9.774,9.774,0,0,0-.058,3" transform="translate(-28.786 -137.371)" fill="#ab5e2e"/>
    <path id="Trazado_230091" data-name="Trazado 230091" d="M222.533,22.073a5.594,5.594,0,0,0-3.374-5.275,1.381,1.381,0,0,1-1.159.477c-1.228-.01-2.458-.026-3.685.021a6.8,6.8,0,0,0-6.286,5.085,19.251,19.251,0,0,0-.24,4.03c-.024.468.082.634.6.631,3.581-.025,7.163-.013,10.745-.014a1.852,1.852,0,0,0,.8-.1,6.058,6.058,0,0,0,2.6-4.855" transform="translate(-173.11 -13.995)" fill="#bebebe"/>
    <path id="Trazado_230092" data-name="Trazado 230092" d="M225.051,263.585a2.276,2.276,0,0,1,.241-.023.257.257,0,0,0-.241.023" transform="translate(-187.494 -219.561)" fill="#fecdbe"/>
    <path id="Trazado_230093" data-name="Trazado 230093" d="M147.008,266.574h0a1.332,1.332,0,0,1-1.507-1.264c-1.052-.085-1.049-.086-1.326-1.039-.053-.183-.013-.436-.3-.471-.888.279-1.093.893-.6,1.793.477.873.209,1.453-.739,1.6a1.256,1.256,0,0,1-1.077,0h0a2.4,2.4,0,0,1-1.014-.265c-.126-.047-.228-.143-.393-.023a2.541,2.541,0,0,1-2.266.274,2.781,2.781,0,0,0-1.782-.022c-1.3.442-2.419-.234-3.454-.981a14.457,14.457,0,0,1-1.659-1.535c-.088.327-.159.565-.216.806-.207.877-.35,1-1.252,1.083a1.946,1.946,0,0,0,.074,3.885,1.062,1.062,0,0,1,1.154.9,3.5,3.5,0,0,1,2.161-.251c.272,0,.426.229.436.514.011.312-.142.564-.443.572a4.846,4.846,0,0,1-1.962-.107h0a7.5,7.5,0,0,0,8.921,5.281,18.157,18.157,0,0,0,2.52-1.981,10.1,10.1,0,0,0,1.68-2.737,1.362,1.362,0,0,0,.04-.427h0c-.1,0-.208-.009-.312,0a.564.564,0,0,1-.664-.635c.006-.386.3-.489.652-.507a12.226,12.226,0,0,0,2.092-.228l.494-.369a3.024,3.024,0,0,0,.747-3.866m-12.137,3.36a.866.866,0,0,1-.872.872.836.836,0,0,1-.962-.768,8.475,8.475,0,0,1,0-1.856.837.837,0,0,1,.953-.779.857.857,0,0,1,.883.857c.027.287,0,.579.005.868,0,.269.02.539,0,.806m5.987,2.977a2.76,2.76,0,0,1-5.478-.055c-.067-.676.231-1.133.787-1.208.584-.079.965.239,1.077.932.085.528.363.849.9.837a.853.853,0,0,0,.851-.831c.117-.7.487-1.015,1.068-.94s.884.57.79,1.265m2.346-2.87a.832.832,0,0,1-.964.764.862.862,0,0,1-.867-.876c-.022-.288,0-.579,0-.868,0-.269-.018-.539,0-.806a.849.849,0,0,1,.823-.849.828.828,0,0,1,1,.719,8.206,8.206,0,0,1,.01,1.915" transform="translate(-106.316 -219.777)" fill="#fecdbe"/>
    <path id="Trazado_230094" data-name="Trazado 230094" d="M267.445,176.468c.561,0,.723-.158.688-.7a20.321,20.321,0,0,0-.245-4.143,8.018,8.018,0,0,0-3.077-4.449c-.195-.145-.459-.214-.567-.466a37.171,37.171,0,0,0-5.653-.012,4.186,4.186,0,0,0-3.41,2.11,4.064,4.064,0,0,1-1.692,1.795c.076.445-.211.956.243,1.332a1.128,1.128,0,0,1,.887.919,5.048,5.048,0,0,0,4.215,3.618c2.87-.005,5.741-.026,8.611,0" transform="translate(-211.169 -138.793)" fill="#d67e4a"/>
    <path id="Trazado_230095" data-name="Trazado 230095" d="M227.282,251.96l-.089-.014a.852.852,0,0,0,.089.014" transform="translate(-189.279 -209.901)" fill="#ab5e2e"/>
    <path id="Trazado_230096" data-name="Trazado 230096" d="M136.445,217.007c.145-.322.242-.542.341-.761.682-1.51,1.316-1.58,2.326-.281a7.981,7.981,0,0,0,2.541,2.319,5.562,5.562,0,0,1-.033-.753.833.833,0,0,1,.589-.74,1,1,0,0,1,1.084.283,5.185,5.185,0,0,0,1.8,1.327.967.967,0,0,0,.012-.234c-.146-.552-.112-1.06.462-1.341.545-.267.937.036,1.315.415a4.578,4.578,0,0,0,1.5,1.087,7.678,7.678,0,0,1,.13-.966,3.048,3.048,0,0,1,3.018-2.345c.335-.052.271-.312.274-.532a7.784,7.784,0,0,0-3.219-6.528,1.15,1.15,0,0,1-.157-.189,9.167,9.167,0,0,0-2.487-.126,6.721,6.721,0,0,0-4.2,1.348,2.46,2.46,0,0,1-.959.419,5.587,5.587,0,0,0-2.519,1.313c-1.891,1.682-2.02,3.871-1.813,6.285" transform="translate(-113.615 -172.971)" fill="#ab5e2e"/>
    <path id="Trazado_230097" data-name="Trazado 230097" d="M28.862,340.144c.507.04,1.067-.238,1.521.2.048-.831.32-1.1,1.152-1.1q4.822-.015,9.643-.023c0-1.179-.025-2.358.012-3.536a3.927,3.927,0,0,0-1.132-3.032c-.27-.007-.54-.033-.808-.016s-.579-.122-.8.189a5.084,5.084,0,0,1-2.618,1.8,1.98,1.98,0,0,1-1.715.121h0a4.069,4.069,0,0,1-2.49-1.166,2.678,2.678,0,0,0-2.673-.947c-.27.014-.541,0-.812,0a2.634,2.634,0,0,0-2.616,2.63c-.02.935-.006,1.871-.006,2.806,0,1.159,0,1.159,1.158,1.172.838.009,1.109.266,1.161,1.1.277-.373.684-.227,1.021-.2" transform="translate(-21.258 -277.107)" fill="#dff7f9"/>
    <path id="Trazado_230098" data-name="Trazado 230098" d="M258.583,334.465a2.627,2.627,0,0,0-1.118-1.845,1.366,1.366,0,0,0-1.462.6,4.693,4.693,0,0,1-7.13.41,2.921,2.921,0,0,0-2.729-1.034c-.186.018-.375,0-.562.009a2.691,2.691,0,0,0-2.512,2.69.525.525,0,0,0,.331.576,3.182,3.182,0,0,1,1.918,2.967c.007.311.117.377.4.376q6.434-.02,12.868-.024a.83.83,0,0,0,.11-.286,28.031,28.031,0,0,0-.116-4.442" transform="translate(-202.507 -277.075)" fill="#fc4b52"/>
    <path id="Trazado_230099" data-name="Trazado 230099" d="M111.6,16.824c.007,1.7-.024,3.41.015,5.113.014.593-.142.771-.753.767-3.227-.023-6.454,0-9.68.008.092.014.184.035.276.051a1.546,1.546,0,0,0,.273.03c4.019,0,8.038-.006,12.057.009.429,0,.461-.183.459-.523-.013-1.892.012-3.784-.013-5.675a4.9,4.9,0,0,0-5.259-4.875.742.742,0,0,0,.118.143,5.826,5.826,0,0,1,2.507,4.953" transform="translate(-84.298 -9.765)" fill="#ababab"/>
    <path id="Trazado_230100" data-name="Trazado 230100" d="M75.892,165.145a6.443,6.443,0,0,1,2.651,5.475c0,1.371-.028,2.742.014,4.111.018.586-.132.778-.748.772-2.932-.028-5.865-.006-8.8,0a.859.859,0,0,0,.544.094q4.719,0,9.439,0a1.264,1.264,0,0,0,.249-.008,11.151,11.151,0,0,0,1.9-2.353c-.029-1.184.052-2.368-.066-3.552a5.139,5.139,0,0,0-5.284-4.69.547.547,0,0,0,.1.154" transform="translate(-57.494 -137.456)" fill="#9d5528"/>
    <path id="Trazado_230101" data-name="Trazado 230101" d="M291.034,167.27c.109.252.372.321.567.466a8.018,8.018,0,0,1,3.077,4.449,20.33,20.33,0,0,1,.245,4.142c.034.545-.128.707-.688.7-2.87-.024-5.741,0-8.611,0a1.27,1.27,0,0,0,.73.1q4.253.006,8.507,0c.771,0,1.543-.007,2.314,0,.229,0,.419-.02.409-.322a21.9,21.9,0,0,0-.177-4.232A6.841,6.841,0,0,0,291.034,167.27Z" transform="translate(-237.959 -139.355)" fill="#c76d36"/>
    <path id="Trazado_230102" data-name="Trazado 230102" d="M344.495,275.507c-.027-.2.1-.583-.208-.546s-.791-.022-.919.472a11.8,11.8,0,0,1-1.617,3.421,5.377,5.377,0,0,1-1.187,3.811c-.043.053-.153.053-.231.078a4.638,4.638,0,0,1,1.517.528.7.7,0,0,0,.994-.089,5.593,5.593,0,0,0,1.965-5.014c-.072-.89-.2-1.776-.314-2.662" transform="translate(-283.537 -229.073)" fill="#ab5e2e"/>
    <path id="Trazado_230103" data-name="Trazado 230103" d="M275.986,12.328q-.023.373-.046.746a5.593,5.593,0,0,1,3.373,5.274,6.058,6.058,0,0,1-2.6,4.855,4.941,4.941,0,0,0,4.185-3.542,1.128,1.128,0,0,1,1.192-.941,5.9,5.9,0,0,0-.1-1.555,5.028,5.028,0,0,1-1.937-1.931,2.732,2.732,0,0,0-1.007-.916,1.082,1.082,0,0,1-.576-1.356l-.091-.023a7.788,7.788,0,0,0-1.959-.331.367.367,0,0,1-.291-.13c-.046-.049-.087-.1-.138-.15" transform="translate(-229.891 -10.271)" fill="#ababab"/>
    <path id="Trazado_230104" data-name="Trazado 230104" d="M208.758,208.694a7.783,7.783,0,0,1,3.219,6.528c0,.22.061.48-.274.532l.09.014a3.615,3.615,0,0,1,2.808,1.943,13.2,13.2,0,0,0-.124-3.757,7.128,7.128,0,0,0-5.877-5.449,1.151,1.151,0,0,0,.157.189" transform="translate(-173.79 -173.71)" fill="#9d5528"/>
    <path id="Trazado_230105" data-name="Trazado 230105" d="M210.309,178.481a7.713,7.713,0,0,1,2.564.915c.231.132.345.113.454-.149a8.152,8.152,0,0,1,2.839-3.542c-.188-.326-.058-.684-.1-1.024h0c-.664,0-1.329-.038-1.991,0a4.738,4.738,0,0,0-4.1,3.24c-.1.333-.091.492.334.563" transform="translate(-174.89 -145.514)" fill="#feca2e"/>
    <path id="Trazado_230106" data-name="Trazado 230106" d="M333.2,335.283a2.63,2.63,0,0,0-2.5-2.546c-.456-.025-.914.005-1.372.01a2.626,2.626,0,0,1,1.118,1.845,28.014,28.014,0,0,1,.116,4.442.826.826,0,0,1-.11.286c.769.006,1.539,0,2.308.026.348.013.468-.085.462-.448-.022-1.2.01-2.41-.018-3.615" transform="translate(-274.368 -277.201)" fill="#c93c41"/>
    <path id="Trazado_230107" data-name="Trazado 230107" d="M113.784,335.788c-.037,1.178-.011,2.357-.012,3.536.295-.116.853.373.874-.366a3.273,3.273,0,0,1,1.488-2.718.51.51,0,0,0,.267-.378,2.752,2.752,0,0,0-2.569-3.119c-.392-.019-.787.008-1.18.013a3.927,3.927,0,0,1,1.132,3.032" transform="translate(-93.853 -277.209)" fill="#b2c5c7"/>
    <path id="Trazado_230108" data-name="Trazado 230108" d="M149.7,180.93c1.585-.456,1.954-1.247,1.261-2.728a4.6,4.6,0,0,0-1.683-1.967,3.323,3.323,0,0,0-1.58-.636,8.406,8.406,0,0,1,.733,2.16,14.774,14.774,0,0,1,.139,2.3c-.007,1.2,0,1.2,1.13.87" transform="translate(-123.05 -146.294)" fill="#869495"/>
    <path id="Trazado_230109" data-name="Trazado 230109" d="M286.424,321.474a11.093,11.093,0,0,1-2.963.412,12.623,12.623,0,0,1-2.883-.372,2.937,2.937,0,0,0,2.822,2.423,3.029,3.029,0,0,0,3.024-2.464" transform="translate(-233.755 -267.826)" fill="#fda68e"/>
    <path id="Trazado_230110" data-name="Trazado 230110" d="M140.894,362.012a.4.4,0,0,0-.434-.259c-1.1.007-2.2-.014-3.3.015a1.376,1.376,0,0,0-1.325,1.316c-.019.291.019.452.387.448,1.867-.018,3.735-.008,5.775-.008a4.247,4.247,0,0,1-1.1-1.511" transform="translate(-113.163 -301.382)" fill="#a7e446"/>
    <path id="Trazado_230111" data-name="Trazado 230111" d="M64.209,320.648c-.369-.091-.306.119-.232.347a2.915,2.915,0,0,0,2.827,1.871,2.762,2.762,0,0,0,2.587-2.2c-.036-.015-.077-.049-.109-.041a10.726,10.726,0,0,1-5.074.027" transform="translate(-53.253 -267.115)" fill="#fda68e"/>
    <path id="Trazado_230112" data-name="Trazado 230112" d="M208.95,132.679a10.151,10.151,0,0,1-3.737-5.3,4.2,4.2,0,0,0-.133-.414c-.094-.219-.316-.181-.488-.188s-.124.175-.142.282a5.078,5.078,0,0,0,4.134,5.756c.116-.06.294.041.366-.137" transform="translate(-170.279 -105.621)" fill="#ababab"/>
    <path id="Trazado_230113" data-name="Trazado 230113" d="M175.625,355.45a2.549,2.549,0,0,0,2.888,2.072,2.319,2.319,0,0,0,2.053-2.058,9.813,9.813,0,0,1-4.941-.014" transform="translate(-146.317 -296.132)" fill="#fda68e"/>
    <path id="Trazado_230114" data-name="Trazado 230114" d="M246.365,310.8a5.249,5.249,0,0,1-.989-.648c-.394-.354-.723-.461-1.164-.067a2.3,2.3,0,0,1-1.024.44.43.43,0,0,0-.371.283c-.151.453-.316.9-.476,1.35-.035.1-.073.2.013.289a.242.242,0,0,0,.338.025,5.964,5.964,0,0,1,3.62-.689c.288.01.447-.067.375-.39a.51.51,0,0,0-.321-.593" transform="translate(-201.865 -258.133)" fill="#c76c36"/>
    <path id="Trazado_230115" data-name="Trazado 230115" d="M317.052,126.78a.489.489,0,0,0-.572.43,8.964,8.964,0,0,1-1.213,2.713c-.365.546-.779,1.059-1.176,1.593,1.48.274,1.789.133,2.5-1.127a5.34,5.34,0,0,0,.663-3.116c-.014-.174.121-.463-.205-.493" transform="translate(-261.675 -105.62)" fill="#9b9b9b"/>
    <path id="Trazado_230116" data-name="Trazado 230116" d="M329.546,302.113a5.377,5.377,0,0,0,1.187-3.811,11.04,11.04,0,0,1-3.344,2.926c-.339.183-.291.488-.259.76.037.316.327.17.5.178.559.024,1.12.019,1.68.026h0c.079-.025.188-.025.231-.078" transform="translate(-272.52 -248.521)" fill="#c76c36"/>
    <path id="Trazado_230117" data-name="Trazado 230117" d="M321.285,269.943a.667.667,0,0,1-.251,1h0a9.281,9.281,0,0,1-2.093,3.81c-.511.577-1.176.962-1.662,1.548a8.246,8.246,0,0,0,5.235-6.493,4.4,4.4,0,0,1-1.229.13" transform="translate(-264.331 -224.786)" fill="#fdaf9d"/>
    <path id="Trazado_230118" data-name="Trazado 230118" d="M204.64,313.38h0a1.353,1.353,0,0,1-.04.428,10.1,10.1,0,0,1-1.68,2.737,18.167,18.167,0,0,1-2.52,1.981,7.327,7.327,0,0,0,5.631-5.275,3.656,3.656,0,0,1-1.391.13" transform="translate(-166.957 -260.975)" fill="#fdaf9d"/>
    <path id="Trazado_230119" data-name="Trazado 230119" d="M26.516,186.527h0c-.02-.162-.046-.324-.059-.487a9.773,9.773,0,0,1,.058-3,2.6,2.6,0,0,0-1.755,2.27,19.737,19.737,0,0,0,.174,3.105c.606-.661.8-1.531,1.582-1.89" transform="translate(-20.604 -152.495)" fill="#9d5428"/>
    <path id="Trazado_230120" data-name="Trazado 230120" d="M139.9,122.54c.006.215-.179.33-.26.5.152.107.11.238.065.386a12.336,12.336,0,0,1-1.244,2.766,11.385,11.385,0,0,1-2.568,2.733,8.486,8.486,0,0,0,5.14-6.5,3.139,3.139,0,0,1-1.132.114" transform="translate(-113.216 -101.995)" fill="#fdaf9d"/>
    <path id="Trazado_230121" data-name="Trazado 230121" d="M296.552,121.013a.692.692,0,0,1-.387.762,12.035,12.035,0,0,1-.668,1.851,12.856,12.856,0,0,1-2.21,3.019.7.7,0,0,0,.69-.16,8.3,8.3,0,0,0,3.553-5.589h0a2.185,2.185,0,0,1-.977.118" transform="translate(-244.343 -100.72)" fill="#fdaf9d"/>
    <path id="Trazado_230122" data-name="Trazado 230122" d="M50.743,53.965c.257.038.263-.2.316-.376a11.459,11.459,0,0,1,1.235-2.78c.342-.555-.06-1.079-.106-1.616-.015-.178-.239-.086-.373-.051a1.706,1.706,0,0,0-1.232,1.622c-.031.5-.006,1-.006,1.5H50.57c0,.416-.011.832.005,1.247.006.164-.11.418.168.459" transform="translate(-42.12 -40.895)" fill="#aaa"/>
    <path id="Trazado_230123" data-name="Trazado 230123" d="M353.82,237.771h0a4.3,4.3,0,0,1,.808,1.588,2.54,2.54,0,0,1-1.3,2.984,2.174,2.174,0,0,0,.8-.077,2.282,2.282,0,0,0,1.807-2.358,2.254,2.254,0,0,0-2.115-2.137" transform="translate(-294.364 -198.092)" fill="#fdaf9d"/>
    <path id="Trazado_230124" data-name="Trazado 230124" d="M174.858,94.147a2.313,2.313,0,0,0,0-4.609c1.233,1.725,1.233,3.027,0,4.609" transform="translate(-145.676 -74.596)" fill="#fdaf9d"/>
    <path id="Trazado_230125" data-name="Trazado 230125" d="M324.088,94.006a2.276,2.276,0,0,0,2.442-2.187,2.206,2.206,0,0,0-2.075-2.269,5.294,5.294,0,0,1,.844,1.914,2.555,2.555,0,0,1-1.211,2.541" transform="translate(-270.004 -74.606)" fill="#fdaf9d"/>
    <path id="Trazado_230126" data-name="Trazado 230126" d="M212.328,361.793h0c-.52-.009-1.039-.021-1.559-.027-.163,0-.352-.032-.427.17a7.472,7.472,0,0,1-1.019,1.577H212.7a3.48,3.48,0,0,0-.373-1.72" transform="translate(-174.391 -301.392)" fill="#a7e446"/>
    <path id="Trazado_230127" data-name="Trazado 230127" d="M229.007,361.833c-.559-.007-1.119.01-1.678.017a3.477,3.477,0,0,1,.373,1.72c.622.007,1.244.017,1.866.02.813,0,1-.306.592-1.03a1.292,1.292,0,0,0-1.153-.727" transform="translate(-189.392 -301.449)" fill="#85b638"/>
    <path id="Trazado_230128" data-name="Trazado 230128" d="M240.108,280.425h0a3.024,3.024,0,0,1-.747,3.866c.166,0,.333,0,.5-.015a1.975,1.975,0,0,0,1.87-1.836,1.863,1.863,0,0,0-1.621-2.016" transform="translate(-199.416 -233.627)" fill="#fdaf9d"/>
    <path id="Trazado_230129" data-name="Trazado 230129" d="M112.149,252.271a4.41,4.41,0,0,0-1.932-.132.549.549,0,0,0-.515.541c-.033.292.154.454.391.575a2.081,2.081,0,0,0,1.044.094c.324-.007.46.123.453.432.264-.314.719-.475.71-1-.02-1.254-.01-2.508-.013-3.762h0c-.245,1.071.009,2.168-.137,3.256" transform="translate(-91.391 -207.459)" fill="#fecdbe"/>
    <path id="Trazado_230130" data-name="Trazado 230130" d="M241.642,190.6a4.9,4.9,0,0,0-1.709,1.773,6.747,6.747,0,0,0-.656,1.407.413.413,0,0,0,.215.527c.279.155.27-.16.356-.281.323-.458.619-.933.936-1.395a1.258,1.258,0,0,1,1.1-.7c-.455-.376-.167-.887-.243-1.332" transform="translate(-199.323 -158.797)" fill="#c56c35"/>
    <path id="Trazado_230131" data-name="Trazado 230131" d="M220.611,306.034c-.354.018-.646.121-.652.507a.564.564,0,0,0,.664.635c.1-.007.208,0,.312,0a3.66,3.66,0,0,0,1.391-.13l.377-1.242a12.229,12.229,0,0,1-2.092.228" transform="translate(-183.252 -254.773)" fill="#fecdbe"/>
    <path id="Trazado_230132" data-name="Trazado 230132" d="M308.665,69.578A1.377,1.377,0,0,0,310.2,71a7.264,7.264,0,0,0-.967-2.8l-.746,1.056h0c.062.105.171.207.18.317" transform="translate(-257.005 -56.823)" fill="#fcae9d"/>
    <path id="Trazado_230133" data-name="Trazado 230133" d="M147.944,308.2c.3-.008.454-.259.443-.572-.01-.285-.165-.513-.436-.514a3.5,3.5,0,0,0-2.162.251,1.653,1.653,0,0,0,.193.727,4.845,4.845,0,0,0,1.962.107" transform="translate(-121.46 -255.823)" fill="#fecdbe"/>
    <path id="Trazado_230134" data-name="Trazado 230134" d="M312.27,42.873a4.567,4.567,0,0,1,1.506,1.731l.149-.135a4.389,4.389,0,0,0-1.758-3.152,5.892,5.892,0,0,1,.1,1.555" transform="translate(-260.072 -34.423)" fill="#999"/>
    <path id="Trazado_230135" data-name="Trazado 230135" d="M258.161,270.314c.014-.348-.221-.523-.561-.529-.479-.008-.958,0-1.437,0-.2.534.074.868.487,1.142h0c.312,0,.625-.009.937-.01a.547.547,0,0,0,.574-.6" transform="translate(-213.359 -224.76)" fill="#fecdbe"/>
    <path id="Trazado_230136" data-name="Trazado 230136" d="M62.885,45.116a1.748,1.748,0,0,1,.175-1.083,4.252,4.252,0,0,0-.971-5.378,1.247,1.247,0,0,1-.464-1.029c.013-.977,0-1.955.006-2.933a8.853,8.853,0,0,0-4.95-7.934c-.29-.147-.428-.3-.212-.621a7.658,7.658,0,0,0,1.068-5.5,1.42,1.42,0,0,1,.226-1.005,4.259,4.259,0,0,0-.9-5.91,1.332,1.332,0,0,1-.508-.888c-.148-1.092-.306-2.184-.5-3.269a6.614,6.614,0,0,0-2.969-4.642,2.545,2.545,0,0,1-.744-.743,6.256,6.256,0,0,0-2.012-1.929,1.091,1.091,0,0,0-1.618.351c-.01.023-.019.046-.028.069l.091.023a1.081,1.081,0,0,0,.576,1.356,2.731,2.731,0,0,1,1.007.916,5.03,5.03,0,0,0,1.937,1.931,4.389,4.389,0,0,1,1.758,3.152c.083.106.152.231.085.334l.012.011c.012.009,0,.063-.033.016a.228.228,0,0,1-.034.032c-.051.036-.155-.14-.179-.257A4.568,4.568,0,0,0,52.2,8.45a1.128,1.128,0,0,0-1.192.941,4.941,4.941,0,0,1-4.185,3.542,1.844,1.844,0,0,1-.8.1c-3.582,0-7.163-.011-10.745.014-.517,0-.623-.163-.6-.631a19.239,19.239,0,0,1,.24-4.03A6.8,6.8,0,0,1,41.2,3.3c1.227-.047,2.457-.031,3.685-.021a1.383,1.383,0,0,0,1.16-.477l.046-.746c.051.047.092.1.138.15q0-.06-.008-.12a.9.9,0,0,0-.906-.8,38.051,38.051,0,0,0-4.936.028,8.864,8.864,0,0,0-7.746,8.733c0,1.02.011,2.04-.006,3.059-.006.371.125.965-.388.962-.409,0-.25-.579-.253-.9-.017-2.227.015-4.453-.015-6.68A6.8,6.8,0,0,0,25.451.009q-4.221-.021-8.442,0A6,6,0,0,0,14.52.5a7.554,7.554,0,0,0-4.375,5.066.748.748,0,0,1-.616.613,4,4,0,0,0-3.166,4.212c.011,1.04,0,2.081,0,3.121a1.464,1.464,0,0,1-.308.987,4.39,4.39,0,0,0,2.194,6.959.8.8,0,0,1,.586.581,9.906,9.906,0,0,0,1.427,2.969c.214.3.2.472-.237.491a5.466,5.466,0,0,0-4.515,2.611,2.51,2.51,0,0,1-.885.762,4.681,4.681,0,0,0-2.521,4.23c-.007,1.5.193,2.985.327,4.474.037.413.007.739-.383.96a3.076,3.076,0,0,0-.456.328,4.048,4.048,0,0,0-1.56,3.751,3.934,3.934,0,0,0,2.58,3.406,1.713,1.713,0,0,1,1.125,1.2,9.652,9.652,0,0,0,3.1,4.446A14.95,14.95,0,0,0,8.17,52.6a.535.535,0,0,1,.281.579c-.063.3-.32.284-.547.291-.354.011-.709,0-1.063.008a4.688,4.688,0,0,0-4.57,4.091c-.12,1.825-.048,3.661-.019,5.492.009.575.2.775.746.867a.191.191,0,0,1-.005-.022l3.039-.02a.805.805,0,0,0,.549-.651c-.052-.835-.323-1.091-1.161-1.1-1.158-.013-1.158-.013-1.158-1.172,0-.935-.014-1.871.006-2.806a2.634,2.634,0,0,1,2.616-2.63c.27-.009.542.009.812,0a2.678,2.678,0,0,1,2.673.947,4.067,4.067,0,0,0,2.49,1.166h0l1.717-.12a5.082,5.082,0,0,0,2.618-1.8c.217-.311.525-.171.8-.189s.539.009.808.016c.393-.006.788-.032,1.18-.014a2.752,2.752,0,0,1,2.569,3.119.51.51,0,0,1-.267.379,3.273,3.273,0,0,0-1.488,2.717c-.021.74-.579.25-.874.367q-4.821.011-9.643.023c-.832,0-1.1.268-1.152,1.1a.811.811,0,0,0,.61.675L21.34,63.89a.373.373,0,0,1,.335.124H41.942c.121-.158.3-.124.459-.124l17.714.014-.007.023c.558-.087.748-.352.761-1.073.026-1.477-.007-2.954.015-4.431a4.393,4.393,0,0,0-.333-1.95c-.207-.446-.046-.7.293-1.009a7.4,7.4,0,0,0,2.476-6.382c-.1-1.325-.283-2.645-.437-3.966M59.449,33.225a21.9,21.9,0,0,1,.177,4.232c.01.3-.179.323-.409.322-.771,0-1.543,0-2.314,0q-4.253,0-8.507,0a1.27,1.27,0,0,1-.73-.1,5.049,5.049,0,0,1-4.215-3.618,1.128,1.128,0,0,0-.887-.919,1.257,1.257,0,0,0-1.1.7c-.316.462-.613.937-.936,1.395-.086.121-.077.436-.356.281a.412.412,0,0,1-.215-.527,6.737,6.737,0,0,1,.656-1.407,4.9,4.9,0,0,1,1.709-1.773,4.064,4.064,0,0,0,1.692-1.795,4.187,4.187,0,0,1,3.41-2.11,37.173,37.173,0,0,1,5.654.012,6.842,6.842,0,0,1,6.374,5.31m-15,20.43a5.964,5.964,0,0,0-3.62.689.242.242,0,0,1-.338-.025c-.086-.092-.048-.19-.013-.289.16-.45.325-.9.476-1.351a.43.43,0,0,1,.371-.283,2.3,2.3,0,0,0,1.024-.44c.441-.394.771-.287,1.164.067a5.261,5.261,0,0,0,.989.648.51.51,0,0,1,.321.593c.072.323-.087.4-.375.39m-2.133-4.842a1.975,1.975,0,0,1-1.869,1.836c-.166.011-.333.01-.5.015l-.494.369-.377,1.242a7.327,7.327,0,0,1-5.631,5.275,7.5,7.5,0,0,1-8.921-5.281,1.653,1.653,0,0,1-.193-.727,1.062,1.062,0,0,0-1.154-.9,1.946,1.946,0,0,1-.074-3.885c.9-.081,1.045-.207,1.252-1.083.057-.241.128-.479.216-.806A14.46,14.46,0,0,0,26.229,46.4c1.035.747,2.156,1.423,3.454.981a2.782,2.782,0,0,1,1.782.022,2.541,2.541,0,0,0,2.267-.274c.165-.12.266-.023.393.024a2.4,2.4,0,0,0,1.014.265h0l1.078,0c.948-.144,1.216-.724.739-1.6-.492-.9-.287-1.514.6-1.793h0A.257.257,0,0,1,37.8,44c.809-.038,1.23.433,1.387,1.533A1.332,1.332,0,0,0,40.692,46.8a1.863,1.863,0,0,1,1.621,2.016m-3.376,7.62a18.468,18.468,0,0,0-.258,1.9c.006.215-.2.158-.335.16-.581.005-1.161,0-1.93,0a11.78,11.78,0,0,0,2.524-2.066M25.381,31.464a8.39,8.39,0,0,0-.733-2.16,3.321,3.321,0,0,1,1.58.636,4.6,4.6,0,0,1,1.683,1.967c.693,1.482.324,2.272-1.261,2.728-1.132.326-1.137.326-1.13-.87a14.754,14.754,0,0,0-.139-2.3m1.782,4.973a2.465,2.465,0,0,0,.959-.419,6.721,6.721,0,0,1,4.2-1.348,9.174,9.174,0,0,1,2.487.126,7.128,7.128,0,0,1,5.877,5.449A13.193,13.193,0,0,1,40.812,44,3.614,3.614,0,0,0,38,42.059a.811.811,0,0,1-.089-.015A3.048,3.048,0,0,0,34.9,44.389a7.667,7.667,0,0,0-.131.966,4.58,4.58,0,0,1-1.5-1.087c-.379-.379-.77-.682-1.315-.415-.574.281-.608.789-.462,1.341a.967.967,0,0,1-.012.234,5.182,5.182,0,0,1-1.8-1.327,1,1,0,0,0-1.084-.283.833.833,0,0,0-.589.74,5.561,5.561,0,0,0,.033.753A7.979,7.979,0,0,1,25.5,42.993c-1.01-1.3-1.644-1.228-2.326.281-.1.219-.2.439-.341.761-.207-2.414-.077-4.6,1.813-6.285a5.586,5.586,0,0,1,2.519-1.313m12.02-7.273c.662-.036,1.327,0,1.991,0h1.036c-.052.593-.506.8-.933,1.025a8.151,8.151,0,0,0-2.839,3.541c-.108.262-.222.281-.454.15a7.713,7.713,0,0,0-2.564-.916c-.425-.07-.435-.23-.334-.562a4.737,4.737,0,0,1,4.1-3.24m-5.011-7.725c.017-.107-.043-.29.141-.282s.394-.032.489.188a4.217,4.217,0,0,1,.133.414,10.151,10.151,0,0,0,3.737,5.3c.087.015.2.1.162.144-.165.2-.352.114-.528-.007a5.078,5.078,0,0,1-4.134-5.756m21.411.214a5.341,5.341,0,0,1-.663,3.116c-.714,1.261-1.023,1.4-2.5,1.127.4-.534.811-1.047,1.176-1.593A8.973,8.973,0,0,0,54.8,21.59a.488.488,0,0,1,.572-.43c.327.03.192.319.206.493m-20.129-6.74c3.356-.013,6.712-.038,10.067.007a7.475,7.475,0,0,0,5.96-2.481l.746-1.056a7.264,7.264,0,0,1,.967,2.8,1.221,1.221,0,0,0,1.258.763,2.206,2.206,0,0,1,2.075,2.269A2.276,2.276,0,0,1,54.084,19.4a1.085,1.085,0,0,0-.9.775,8.3,8.3,0,0,1-3.553,5.589.7.7,0,0,1-.69.161,12.914,12.914,0,0,0-2.786.293,4.191,4.191,0,0,0-1.373.578,1.875,1.875,0,0,1-1.762.249,8.415,8.415,0,0,1-6.444-6.428c-.263-1.02-.293-1.094-1.328-1.217a2.25,2.25,0,0,1-2.07-2.381,2.213,2.213,0,0,1,2.272-2.106m-3.089,5.046c.171.107.065.349.031.524a7.653,7.653,0,0,0-.028,2.976,7.07,7.07,0,0,0,3.548,4.914,6.7,6.7,0,0,0-2.787,4.173c-.053.258-.222.253-.416.246a8.806,8.806,0,0,0-2.237.181c-.21.047-.3.026-.348-.193a6.735,6.735,0,0,0-4.6-5.262A10.051,10.051,0,0,0,29.063,22.9c.329-.943.68-1.685,1.77-1.9a2.546,2.546,0,0,0,1.112-.781c.119-.113.2-.4.419-.266M15.484,2.314a4.672,4.672,0,0,1,1.638-.358c2.519-.011,5.038,0,7.557.006a4.9,4.9,0,0,1,5.259,4.875c.025,1.892,0,3.784.013,5.675,0,.341-.029.525-.459.524-4.019-.015-8.038-.006-12.057-.009a1.515,1.515,0,0,1-.273-.03.776.776,0,0,1-.276-.051,5.483,5.483,0,0,1-4.915-4.78,5.554,5.554,0,0,1,3.513-5.853m-7.033,9.05h.007c0-.5-.025-1,.006-1.5A1.706,1.706,0,0,1,9.695,8.246c.134-.035.358-.127.373.051.046.538.448,1.062.106,1.616a11.456,11.456,0,0,0-1.235,2.78c-.053.179-.059.414-.316.376-.277-.041-.161-.3-.168-.459-.016-.415-.005-.831-.005-1.247m.765,8.214a2.344,2.344,0,0,1,.06-4.665c.987-.08,1.131-.2,1.339-1.14a7.934,7.934,0,0,1,.735-2.082,7.68,7.68,0,0,0,4.111,2.917,11.517,11.517,0,0,0,3.222.3q4.876,0,9.752-.005c.249,0,.5.027.746.041h0a2.313,2.313,0,0,1,0,4.609c-.62.038-1.165.191-1.364.88h0a8.486,8.486,0,0,1-5.14,6.5c-.055,0-.126.025-.163,0a8.116,8.116,0,0,0-5.16-1.319c-1.124.038-2.25,0-3.375.013a1.02,1.02,0,0,1-.778-.3,8.6,8.6,0,0,1-2.541-4.415c-.257-1.137-.317-1.2-1.445-1.329M4.156,32.816a2.6,2.6,0,0,1,1.755-2.27,1.926,1.926,0,0,0,1.227-1.118,3.17,3.17,0,0,1,2.812-1.88c2.781-.06,5.564-.014,8.346-.012h0a5.14,5.14,0,0,1,5.284,4.69c.118,1.185.036,2.369.066,3.552a11.144,11.144,0,0,1-1.9,2.353,1.253,1.253,0,0,1-.249.008q-4.719,0-9.439,0a.859.859,0,0,1-.544-.094,5.042,5.042,0,0,1-4.36-3.116c-.261-.559-.57-.955-1.244-.9-.784.359-.976,1.228-1.582,1.89a19.757,19.757,0,0,1-.174-3.105m9.4,22.934a2.916,2.916,0,0,1-2.827-1.871c-.074-.228-.137-.438.232-.347a10.726,10.726,0,0,0,5.074-.027c.032-.007.072.026.109.041a2.762,2.762,0,0,1-2.587,2.2m4.264-5.082a3.918,3.918,0,0,1-1.267.618c-3.277,1.631-7.83.289-9.984-2.942a8.485,8.485,0,0,1-1.225-2.91C5.133,44.5,5,44.4,4.055,44.31a2.153,2.153,0,0,1-.536-4.193,1.2,1.2,0,0,1,.362-.087c1.181-.015,1.313-.358,1.525-1.4a5.707,5.707,0,0,1,.621-1.681c.054.01.1,0,.118.025a7.455,7.455,0,0,0,6.391,3.036c2.669-.025,5.338.007,8.006-.017.481,0,.629.1.49.578a6.648,6.648,0,0,0-.137.985c0,1.254-.007,2.508.013,3.762.009.529-.446.69-.71,1a6.531,6.531,0,0,0-.763,1.7c.3,1.394-.638,2.036-1.62,2.644m1.8,2.984a5.929,5.929,0,0,1-.81-.009c-.235-.034-.649.19-.673-.149s-.152-.829.379-1.071a5.4,5.4,0,0,0,1.467-1.043c.246-.236.376-.186.589.037a3.483,3.483,0,0,0,1.706.977c.2.049.336.108.4.327A10.029,10.029,0,0,0,27.015,58.5c-.744,0-1.488-.016-2.232.007-.326.01-.354-.137-.375-.4a4.542,4.542,0,0,0-4.79-4.447m3.44,8.5c-.368,0-.405-.157-.387-.448A1.376,1.376,0,0,1,24,60.385c1.1-.029,2.2-.008,3.3-.015a.4.4,0,0,1,.434.259,4.25,4.25,0,0,0,1.1,1.511c-2.04,0-3.908-.01-5.775.009m9.138-.76a2.549,2.549,0,0,1-2.888-2.072,9.815,9.815,0,0,0,4.941.014A2.319,2.319,0,0,1,32.2,61.389m7.98.751c-.622,0-1.244-.013-1.866-.02H34.932a7.466,7.466,0,0,0,1.019-1.577c.075-.2.264-.172.427-.17.52.006,1.04.017,1.559.027.56-.007,1.119-.023,1.678-.017a1.292,1.292,0,0,1,1.153.727c.4.723.221,1.033-.592,1.03m18.214,0c-.768-.029-1.538-.02-2.308-.026q-6.434.01-12.868.024c-.285,0-.4-.065-.4-.376A3.183,3.183,0,0,0,40.895,58.8a.525.525,0,0,1-.331-.576,2.69,2.69,0,0,1,2.512-2.69c.187-.013.376.009.562-.009a2.921,2.921,0,0,1,2.728,1.034,4.693,4.693,0,0,0,7.13-.41,1.366,1.366,0,0,1,1.462-.6c.457-.005.916-.035,1.371-.01a2.629,2.629,0,0,1,2.505,2.546c.028,1.2,0,2.41.018,3.614.007.362-.114.461-.462.448M46.823,53.688a12.624,12.624,0,0,0,2.884.372,11.088,11.088,0,0,0,2.963-.412,3.029,3.029,0,0,1-3.024,2.463,2.937,2.937,0,0,1-2.822-2.423m12.483.421a.7.7,0,0,1-.994.089,4.64,4.64,0,0,0-1.517-.529c-.56-.006-1.121,0-1.68-.026-.178-.008-.468.138-.5-.178-.032-.272-.08-.577.259-.76a11.039,11.039,0,0,0,3.344-2.926,11.8,11.8,0,0,0,1.617-3.421c.128-.494.6-.433.919-.472s.181.347.208.546c.119.886.242,1.772.314,2.662a5.593,5.593,0,0,1-1.965,5.014m.459-9.936a2.175,2.175,0,0,1-.8.077,1.1,1.1,0,0,0-.781.775,8.246,8.246,0,0,1-5.235,6.493h0a8.553,8.553,0,0,1-8.729-1.305c-.146-.135-.239-.237-.172-.47a4,4,0,0,0-.756-3.579h0c-.414-.274-.685-.608-.487-1.142-.033-1.266-.057-2.532-.1-3.8a7.939,7.939,0,0,0-.843-3.292c-.156-.313-.431-.725-.032-.924a.981.981,0,0,1,1.244.183A6.974,6.974,0,0,0,47.652,39.6a8.457,8.457,0,0,0,1,.047q5.061.005,10.123,0c.228,0,.457.018.685.028h0a2.254,2.254,0,0,1,2.115,2.137,2.282,2.282,0,0,1-1.806,2.358" transform="translate(0 0)"/>
    <path id="Trazado_230137" data-name="Trazado 230137" d="M102.048,287.781h0a13.739,13.739,0,0,1-2.887,3.262,3.921,3.921,0,0,0,1.267-.618c.982-.608,1.92-1.25,1.62-2.644" transform="translate(-82.613 -239.756)" fill="#fcaf9d"/>
    <path id="Trazado_230138" data-name="Trazado 230138" d="M225.353,264.146c.276.953.274.954,1.326,1.039-.157-1.1-.578-1.57-1.387-1.533a2.323,2.323,0,0,0-.241.023h0c.29.035.25.288.3.471" transform="translate(-187.493 -219.652)" fill="#fcaf9d"/>
    <path id="Trazado_230139" data-name="Trazado 230139" d="M246.81,175.8c.427-.228.881-.432.933-1.025h-1.036c.044.341-.085.7.1,1.024" transform="translate(-205.534 -145.607)" fill="#fba48d"/>
    <path id="Trazado_230140" data-name="Trazado 230140" d="M78.779,344.664l-1.717.12h0a1.98,1.98,0,0,0,1.715-.121" transform="translate(-64.202 -287.146)" fill="#c6aab4"/>
    <path id="Trazado_230141" data-name="Trazado 230141" d="M211.642,284.117l-1.078,0h0a1.256,1.256,0,0,0,1.077,0" transform="translate(-175.425 -236.703)" fill="#010101"/>
    <path id="Trazado_230142" data-name="Trazado 230142" d="M230.06,162.284c.036-.044-.074-.128-.162-.144-.072.178-.249.077-.366.137.176.12.363.209.528.007" transform="translate(-191.228 -135.082)" fill="#464646"/>
    <path id="Trazado_230143" data-name="Trazado 230143" d="M321.811,60.338h0c.024.117.128.294.179.257a.241.241,0,0,0,.035-.032.186.186,0,0,0,.021-.027c.067-.1,0-.228-.085-.334h0Z" transform="translate(-268.107 -50.156)" fill="#4e4e4e"/>
    <path id="Trazado_230144" data-name="Trazado 230144" d="M102.378,129.568a2.527,2.527,0,0,0,2.489-2.387.954.954,0,0,0-.846-1.047.9.9,0,0,0-1.007.809c-.062.425-.2.739-.67.731-.43-.007-.567-.3-.63-.7a.918.918,0,0,0-1.049-.833.956.956,0,0,0-.8,1.079,2.513,2.513,0,0,0,2.517,2.351" transform="translate(-83.196 -105.08)" fill="#fecdbe"/>
    <path id="Trazado_230145" data-name="Trazado 230145" d="M133.493,126.521a.883.883,0,0,0,.969,1.1c.638-.038.961-.491.969-1.538a3.035,3.035,0,0,0-.657-1.662.829.829,0,0,0-1.207-.231.884.884,0,0,0-.325,1.283,1.318,1.318,0,0,1,.252,1.045" transform="translate(-110.878 -103.325)" fill="#fecdbe"/>
    <path id="Trazado_230146" data-name="Trazado 230146" d="M83.955,124.537a2.784,2.784,0,0,0-.65,1.8,4.289,4.289,0,0,0,.063.59c.148.622.484.873,1.057.805a.818.818,0,0,0,.77-1,2.24,2.24,0,0,1,.279-1.192.9.9,0,0,0-.3-1.217.882.882,0,0,0-1.222.217" transform="translate(-69.403 -103.438)" fill="#fecdbe"/>
    <path id="Trazado_230147" data-name="Trazado 230147" d="M81.071,99.4a.938.938,0,0,0,.872.953.923.923,0,0,0,.979-.846,14.511,14.511,0,0,0,0-1.983.882.882,0,0,0-.994-.81.863.863,0,0,0-.854.888c-.018.288,0,.579,0,.868,0,.31-.013.621,0,.931" transform="translate(-67.536 -80.574)" fill="#fecdbe"/>
    <path id="Trazado_230148" data-name="Trazado 230148" d="M137.986,99.463a.865.865,0,0,0,.861.9.838.838,0,0,0,.966-.777,10.813,10.813,0,0,0-.01-2.115.82.82,0,0,0-.991-.732.838.838,0,0,0-.823.856c-.02.311,0,.624,0,.936s-.012.625,0,.936" transform="translate(-114.953 -80.586)" fill="#fecdbe"/>
    <path id="Trazado_230149" data-name="Trazado 230149" d="M146.2,119.267a.585.585,0,0,0-.418-.626,3.311,3.311,0,0,0-1.9-.011.608.608,0,0,0-.43.683.58.58,0,0,0,.514.554,4.656,4.656,0,0,0,1.97-.1c.081-.169.267-.285.26-.5" transform="translate(-119.512 -98.722)" fill="#fecdbe"/>
    <path id="Trazado_230150" data-name="Trazado 230150" d="M71.22,120.581a7.483,7.483,0,0,0,1.551,0,.579.579,0,0,0,.52-.664.537.537,0,0,0-.605-.559c-.228,0-.456,0-.684,0s-.456,0-.684,0c-.358,0-.612.134-.647.516a.612.612,0,0,0,.55.71" transform="translate(-58.873 -99.437)" fill="#fecdbe"/>
    <path id="Trazado_230151" data-name="Trazado 230151" d="M255.94,129.788a2.556,2.556,0,0,0,2.508-2.445.976.976,0,0,0-.844-1,.912.912,0,0,0-1.011.8c-.064.42-.209.751-.665.752s-.577-.358-.653-.762a.926.926,0,0,0-1.838.22,2.509,2.509,0,0,0,2.5,2.431" transform="translate(-211.142 -105.253)" fill="#fecdbe"/>
    <path id="Trazado_230152" data-name="Trazado 230152" d="M231.3,97.562a1.15,1.15,0,0,1,.531,1.185.906.906,0,0,0,.919.906.948.948,0,0,0,.932-.906c.023-.288,0-.58,0-.87a9.13,9.13,0,0,0-.005-.932.909.909,0,0,0-.932-.893c-1.017-.075-1.513.133-1.656.712a.71.71,0,0,0,.207.8" transform="translate(-192.496 -80.011)" fill="#fecdbe"/>
    <path id="Trazado_230153" data-name="Trazado 230153" d="M290.647,98.135a2.7,2.7,0,0,0,.026.373.866.866,0,0,0,.892.8.839.839,0,0,0,.929-.817,1.483,1.483,0,0,1,.532-1.269c.517-.4.191-1.305-.457-1.476q-1.923-.508-1.923,1.455,0,.156,0,.312c0,.208,0,.416,0,.624" transform="translate(-242.142 -79.679)" fill="#fecdbe"/>
    <path id="Trazado_230154" data-name="Trazado 230154" d="M237.1,124.761a3.365,3.365,0,0,0-.77,1.928c.048.22.082.446.147.663a.907.907,0,0,0,1.031.7.866.866,0,0,0,.8-1.057,1.7,1.7,0,0,1,.256-1.234.813.813,0,0,0-.345-1.174.829.829,0,0,0-1.123.17" transform="translate(-196.893 -103.676)" fill="#fecdbe"/>
    <path id="Trazado_230155" data-name="Trazado 230155" d="M286.836,127.336a.807.807,0,0,0,.807.733.88.88,0,0,0,.867-.482,1.513,1.513,0,0,0,.175-.9,2.5,2.5,0,0,0-.712-1.979.816.816,0,0,0-1.027-.135c-.356.192-.667.536-.49.966a4.961,4.961,0,0,1,.381,1.793" transform="translate(-238.609 -103.687)" fill="#fecdbe"/>
    <path id="Trazado_230156" data-name="Trazado 230156" d="M300.4,119.179a.484.484,0,0,0-.457-.437,7.2,7.2,0,0,0-1.356-.027c-.36.032-.713.206-.68.65.031.422.342.576.743.573.454,0,.908,0,1.362,0a.692.692,0,0,0,.387-.762" transform="translate(-248.191 -98.886)" fill="#fecdbe"/>
    <path id="Trazado_230157" data-name="Trazado 230157" d="M224.91,119.812c.207,0,.414,0,.621,0s.414,0,.621,0c.354.007.612-.118.663-.5a.577.577,0,0,0-.5-.677,2.883,2.883,0,0,0-1.588.037.562.562,0,0,0-.4.684.533.533,0,0,0,.58.452" transform="translate(-186.881 -98.763)" fill="#fecdbe"/>
    <path id="Trazado_230158" data-name="Trazado 230158" d="M68.018,273.3a.916.916,0,0,0-1.059.877c-.12.689-.467,1.039-1.025,1.035q-.811-.005-.991-.989c-.124-.676-.514-1-1.094-.92-.542.078-.808.473-.772,1.149a2.884,2.884,0,0,0,5.748-.018.964.964,0,0,0-.807-1.135" transform="translate(-52.548 -227.681)" fill="#fecdbe"/>
    <path id="Trazado_230159" data-name="Trazado 230159" d="M103.213,248.632c.022-.289,0-.582,0-.873s.016-.583,0-.873a.916.916,0,0,0-.911-.918.87.87,0,0,0-.935.823,10.516,10.516,0,0,0,.005,1.93.844.844,0,0,0,.959.786.867.867,0,0,0,.88-.875" transform="translate(-84.418 -204.921)" fill="#fecdbe"/>
    <path id="Trazado_230160" data-name="Trazado 230160" d="M49.678,246.8A.853.853,0,0,0,48.73,246a.828.828,0,0,0-.866.813,15.843,15.843,0,0,0,0,1.928.819.819,0,0,0,.881.792.84.84,0,0,0,.922-.751,9.079,9.079,0,0,0,.057-.993h-.041a7.337,7.337,0,0,0-.008-.994" transform="translate(-39.854 -204.949)" fill="#fecdbe"/>
    <path id="Trazado_230161" data-name="Trazado 230161" d="M38.092,267.586c-.206,0-.413,0-.619,0v.007a5.342,5.342,0,0,0-.742.007c-.272.039-.522.147-.56.48a.547.547,0,0,0,.386.631,2.644,2.644,0,0,0,1.754-.013.54.54,0,0,0,.351-.651.531.531,0,0,0-.569-.461" transform="translate(-30.13 -222.928)" fill="#fecdbe"/>
    <path id="Trazado_230162" data-name="Trazado 230162" d="M285.18,273a.947.947,0,0,0-.986.842c-.15.814-.493,1.173-1.116,1.168-.6-.005-.944-.357-1.1-1.128a.941.941,0,0,0-1.011-.879.979.979,0,0,0-.845,1.116,2.971,2.971,0,0,0,5.931-.027A.981.981,0,0,0,285.18,273" transform="translate(-233.377 -227.437)" fill="#fecdbe"/>
    <path id="Trazado_230163" data-name="Trazado 230163" d="M322.065,244.311c-1.284-.282-1.84.161-1.84,1.47v.311h.008a9.357,9.357,0,0,0,.006.994.919.919,0,0,0,1.447.664,1.049,1.049,0,0,0,.418-.98c-.012-.325-.042-.619.362-.812a.769.769,0,0,0,.362-.916.934.934,0,0,0-.763-.73" transform="translate(-266.782 -203.472)" fill="#fecdbe"/>
    <path id="Trazado_230164" data-name="Trazado 230164" d="M262.371,246.358c0-.312.02-.626,0-.936-.044-.562-.385-.852-1.005-.892-.968-.062-1.437.164-1.58.752-.07.287-.031.626.187.744.569.308.514.8.563,1.312a.871.871,0,0,0,1,.805.86.86,0,0,0,.837-.911c.014-.291,0-.583,0-.874h0" transform="translate(-216.403 -203.714)" fill="#fecdbe"/>
    <path id="Trazado_230165" data-name="Trazado 230165" d="M329.454,269.833a4.311,4.311,0,0,0-1.705-.132c-.381-.028-.658.13-.664.549-.006.454.288.591.7.586.474-.006.949,0,1.423,0a.667.667,0,0,0,.251-1" transform="translate(-272.5 -224.676)" fill="#fecdbe"/>
    <path id="Trazado_230166" data-name="Trazado 230166" d="M178.8,310.766c-.581-.075-.951.24-1.068.94a.853.853,0,0,1-.851.83c-.541.013-.82-.309-.9-.837-.111-.693-.493-1.011-1.077-.932-.556.075-.854.532-.787,1.208a2.76,2.76,0,0,0,5.478.055c.094-.695-.215-1.191-.79-1.265" transform="translate(-145.053 -258.896)" fill="#fecdbe"/>
    <path id="Trazado_230167" data-name="Trazado 230167" d="M210.842,285.379a.848.848,0,0,0-.823.849c-.023.267,0,.537,0,.806,0,.29-.019.58,0,.868a.862.862,0,0,0,.867.876.832.832,0,0,0,.964-.764,8.208,8.208,0,0,0-.01-1.915.828.828,0,0,0-1-.719" transform="translate(-174.96 -237.749)" fill="#fecdbe"/>
    <path id="Trazado_230168" data-name="Trazado 230168" d="M161.691,286.239a.857.857,0,0,0-.883-.857.837.837,0,0,0-.953.779,8.476,8.476,0,0,0,0,1.856.836.836,0,0,0,.962.768.866.866,0,0,0,.872-.872c.024-.267,0-.537,0-.806,0-.29.021-.581-.005-.868" transform="translate(-133.137 -237.756)" fill="#fecdbe"/>
  </g>
</svg>
