<svg xmlns="http://www.w3.org/2000/svg" xmlns:xlink="http://www.w3.org/1999/xlink" width="314" height="282" viewBox="0 0 314 282">
  <defs>
    <clipPath id="clip-path">
      <rect id="Rectángulo_89229" data-name="Rectángulo 89229" width="89.149" height="92.544" fill="none"/>
    </clipPath>
  </defs>
  <g id="Grupo_148269" data-name="Grupo 148269" transform="translate(1598.271 11776)">
    <rect id="Image_Place_Holder" data-name="Image Place Holder" width="314" height="282" transform="translate(-1598.271 -11776)" fill="#d9eaea"/>
    <g id="Grupo_148268" data-name="Grupo 148268" transform="translate(-1418.799 -11681)">
      <g id="Grupo_147257" data-name="Grupo 147257" clip-path="url(#clip-path)">
        <path id="Trazado_229798" data-name="Trazado 229798" d="M32.62,240.108a1.554,1.554,0,0,0,1.331-1.826c-.045-1.142-.018-2.287,0-3.43,0-.212-.135-.682.36-.453a7.713,7.713,0,0,0,3.364.463c.243,0,.633-.11.588.32-.042.4.291.89-.293,1.192a3.577,3.577,0,0,0-1.78,4.735,2.431,2.431,0,0,0,2.372,1.636c2.286.037,4.575.053,6.86-.005a2.5,2.5,0,0,0,2.53-2.538,9.406,9.406,0,0,0-.007-1.443,2.45,2.45,0,0,0-1.728-2.3c-.375-.125-.572-.255-.592-.725-.029-.7.171-.9.889-.893,4.453.036,8.907.013,13.361.029.321,0,.86-.262.864.428,0,.483.155.964-.586,1.187a2.32,2.32,0,0,0-1.694,2.392c-.007.421-.012.843,0,1.264A2.453,2.453,0,0,0,60.9,242.73c2.345.07,4.694.025,7.041.012a3.26,3.26,0,0,0,1.732-.694,1.5,1.5,0,0,1,.289,1.188c.007,7.089.023,14.177-.013,21.266-.006,1.122-.025,2.32-1.178,3.034-3.4.01-6.8.026-10.2.028q-10.747.007-21.495,0c-2.224,0-3.132-.9-3.133-3.108q0-9.483,0-18.967c0-1.2-.211-1.475-1.323-1.811q0-1.786,0-3.572" transform="translate(-24.738 -177.733)" fill="#feca2e"/>
        <path id="Trazado_229799" data-name="Trazado 229799" d="M239.531,113.911c-1.15.343-1.3.572-1.3,2q0,18.644,0,37.287c0,.331.011.663-.011.993a3.03,3.03,0,0,1-3.267,3.092c-.27,0-.539-.025-.809-.038a.827.827,0,0,1,.123-.692,6.312,6.312,0,0,0,.678-3.4q-.017-26.1-.007-52.2a5.206,5.206,0,0,0-.347-2.3,1.388,1.388,0,0,0-1.4-.926c-.33.013-.662,0-.993,0q-15.218,0-30.436-.007c-.554,0-1.156.149-1.634-.306a1.605,1.605,0,0,1,1.047-.157q16.786,0,33.573.013c2.257,0,3.447,1.165,3.474,3.447q.047,3.88,0,7.762a1.548,1.548,0,0,0,1.354,1.8q-.02,1.819-.039,3.639" transform="translate(-151.784 -73.748)" fill="#85b638"/>
        <path id="Trazado_229800" data-name="Trazado 229800" d="M192.809,97.938q8.8.011,17.606.02,7.54.005,15.08,0c1.557,0,2.291.693,2.41,2.29.025.329.007.662.007.993q0,26.549.019,53.1a5.672,5.672,0,0,1-1.1,3.439c-1.836.014-3.672.038-5.508.04-6.355.005-12.71-.01-19.065.016-.829,0-1.165-.013-.99-1.078a26.843,26.843,0,0,0,.084-4.237c.005-1.446,0-2.891,0-4.337a4.781,4.781,0,0,0-1.222-3.31,1.978,1.978,0,0,1-.489-1.472q.013-19.924,0-39.848a5.015,5.015,0,0,0-.1-1.254,1.32,1.32,0,0,0-2.551.116,6.043,6.043,0,0,0-.052,1.08q0,19.2-.012,38.4c0,.356.238.916-.214,1.036a3.7,3.7,0,0,1-1.694-.025c-.315-.071-.149-.534-.149-.816q-.013-11.52-.007-23.041c0-3.374-.861-4.661-4.016-5.921-.345-.137-.361-.339-.361-.618,0-3.946-.014-7.891.017-11.837a2.828,2.828,0,0,1,2.31-2.736" transform="translate(-144.47 -74.281)" fill="#a7e446"/>
        <path id="Trazado_229801" data-name="Trazado 229801" d="M86.3,35.47a1.258,1.258,0,0,0,1.486,1.055,1.56,1.56,0,0,0,1.363-1.8c-.023-2.649.023-5.3-.016-7.947A5.749,5.749,0,0,0,83.066,20.8c-2.318-.01-4.636-.024-6.953.013-.6.01-.758-.167-.748-.753.035-1.986.021-3.973.007-5.96a.9.9,0,0,1,.479-.941,3.534,3.534,0,0,0,1.822-3.3c-.01-.722.024-1.446-.011-2.167A7.661,7.661,0,0,0,72.972.681a18.211,18.211,0,0,0-2-.681H61.391c-.064.187-.234.143-.372.172a7.68,7.68,0,0,0-4.949,3.34c-1.559,2.333-1.562,4.936-1.144,7.562a2.892,2.892,0,0,0,1.62,2.067.848.848,0,0,1,.508.914c-.016,1.987-.033,3.974.008,5.96.013.616-.121.815-.776.8-2.287-.044-4.575-.023-6.863-.016a5.762,5.762,0,0,0-6.119,6.09c-.008,3.7-.015,7.406.012,11.108,0,.557-.135.71-.7.7-2.107-.034-4.214-.014-6.321-.014-1.695,0-1.694,0-1.7-1.652,0-.241,0-.482-.008-.722a6.132,6.132,0,0,0-5.564-5.964,6.067,6.067,0,0,0-6.591,5.005,11.9,11.9,0,0,0-.087,2.61c.026.608-.175.741-.753.736-3.221-.027-6.442-.019-9.663-.012A5.192,5.192,0,0,0,6.5,44.065c-.031,5.509-.012,11.018-.006,16.527,0,1.118.268,1.439,1.386,1.782.933.068,1.459-.4,1.518-1.423.062-1.082.011-2.167.024-3.25.005-.434.132-.727.64-.577a8.816,8.816,0,0,0,2.413.272c.264,0,.568.009.66.348a.614.614,0,0,1-.377.739c-1.52.781-1.789,2.1-1.715,3.658.093,1.929,1.047,3.068,2.975,3.157,2.164.1,4.334.079,6.5,0a2.943,2.943,0,0,0,2.357-1.149c.994-1.326,1.019-4.835-1.1-5.609-.317-.116-.6-.343-.52-.747.089-.444.483-.376.8-.406.209-.02.421-.007.632-.007H34.243a7.46,7.46,0,0,1,.812.015c.264.029.564.024.656.361.1.364-.119.579-.4.715a3.233,3.233,0,0,0-1.851,3.4c.073,2.34,1.071,3.421,3.43,3.457,1.866.029,3.732,0,5.6.008a3.951,3.951,0,0,0,2.522-.825,4.226,4.226,0,0,0-.076-5.482,4.77,4.77,0,0,0-1.016-.573.61.61,0,0,1-.321-.682c.054-.349.323-.394.6-.406s.539.011.807.009a4.013,4.013,0,0,0,1.516-.145c.665-.2.891.071.854.7-.011.18,0,.361,0,.541q0,13.937,0,27.874a10.164,10.164,0,0,1-.027,1.082,2.214,2.214,0,0,1-2.1,2.1,7.591,7.591,0,0,1-1.26.027c-10.328-.022-20.656,0-30.984-.008-2.9,0-3.556-.655-3.557-3.566q0-8.808,0-17.616A6.593,6.593,0,0,0,9.388,67.1a1.286,1.286,0,0,0-1.509-1.153c-1.1.3-1.437.645-1.361,1.77.059.872-.27,1-1.041.993A5.047,5.047,0,0,0,.085,73.517c-.125,2.915-.1,5.842,0,8.758a4.984,4.984,0,0,0,3.851,4.577,6.828,6.828,0,0,0,1.973.159c.407-.013.546.1.608.539.486,3.379,2.38,4.992,5.8,4.992H44.485c3.566,0,5.382-1.55,5.883-5.073.063-.441.275-.441.6-.457.369-.019.558.078.546.495a10.09,10.09,0,0,0,.049,1.622,3.694,3.694,0,0,0,7.357-.225,10.035,10.035,0,0,0,.011-1.714c-.074-.734.151-.967.922-.959,3.824.041,7.648.016,11.472.022.687,0,1.595-.221,2,.126.487.415.1,1.355.164,2.064.013.15,0,.3.008.451a3.694,3.694,0,0,0,5.314,3.12,3.6,3.6,0,0,0,2.1-3.41c.015-.749-.254-1.749.124-2.182.441-.505,1.467-.151,2.238-.168,3.553-.078,5.863-2.52,5.865-6.259q.009-18.925,0-37.851c0-1.388-.158-1.605-1.393-1.981a1.171,1.171,0,0,0-1.452,1.031,6.843,6.843,0,0,0-.065,1.441q0,18.108,0,36.217a8.115,8.115,0,0,1-.236,2.327,2.71,2.71,0,0,1-2.572,2.031,6.95,6.95,0,0,1-1.082.017c-.271-.024-.542-.008-.813-.008q-11.653,0-23.306,0c-1.117,0-1.1-.014-1.081-1.1.041-2.77.016-5.541.013-8.311a4.389,4.389,0,0,0-.779-2.649,5.026,5.026,0,0,1-.855-3.23q.028-19.062.011-38.123a5.131,5.131,0,0,0-.229-1.872,1.557,1.557,0,0,0-1.624-1.038,1.453,1.453,0,0,0-1.378,1.32,8.564,8.564,0,0,0-.052,1.443q0,18.474,0,36.949c0,.361,0,.722-.013,1.084-.018.492-.279.686-.751.692-.5.007-.806-.177-.82-.72-.009-.331-.011-.662-.011-.993,0-7.528.013-15.056-.008-22.585a5.207,5.207,0,0,0-3.419-5.236,1.317,1.317,0,0,1-.919-1.441c.019-3.523,0-7.046.015-10.57a2.771,2.771,0,0,1,2.08-2.923,3.343,3.343,0,0,1,1.422-.159q16.02,0,32.039,0c.3,0,.6,0,.9.017,2.334.128,3.216.977,3.433,3.312.034.36.03.721.031,1.082q0,3.114,0,6.228a4.7,4.7,0,0,0,.07,1.079M31.378,38.689c-.991,0-1.981,0-2.972,0-.9,0-1.8-.023-2.7.009-.474.017-.715-.068-.669-.619.052-.626-.007-1.261.025-1.89a3.409,3.409,0,0,1,6.7-.6,13.718,13.718,0,0,1,.135,2.69c.021.408-.225.414-.517.412M72.027,20.811c-1.957-.028-3.914-.011-5.871-.011-1.9,0-3.794-.016-5.691.011-.507.007-.738-.055-.725-.663.044-2.047.02-4.095.014-6.142,0-.339.011-.6.387-.8a3.747,3.747,0,0,0,1.923-3.614c0-2.3.015-2.3,2.3-2.3,1.686,0,3.372.015,5.058-.007.682-.009,1.013.239.978.95-.029.571,0,1.144,0,1.716a3.484,3.484,0,0,0,1.814,3.209.839.839,0,0,1,.461.864c-.012,2.047-.023,4.1.007,6.142.007.517-.146.654-.652.647" transform="translate(0)"/>
        <path id="Trazado_229802" data-name="Trazado 229802" d="M94.019,184.35c-2.258,0-4.516-.022-6.774.015-.607.01-.741-.182-.737-.758q.037-5.735,0-11.471c0-.6.111-.821.774-.816q6.774.047,13.548,0c.64,0,.8.185.8.807q-.04,5.735,0,11.471c0,.569-.122.777-.743.766-2.287-.04-4.576-.016-6.864-.016" transform="translate(-65.612 -129.938)" fill="#fc4b52"/>
        <path id="Trazado_229803" data-name="Trazado 229803" d="M182.307,267.428a5.536,5.536,0,0,0,.911-3.314c-.019-7.392-.009-14.783-.009-22.175a4.262,4.262,0,0,0-.2-5.192,7.639,7.639,0,0,1,.023-1.978,6.068,6.068,0,0,0,2.79-.575,2.049,2.049,0,0,1,.12,1.106c.006,9.562-.049,19.124.039,28.685.026,2.78-1.362,3.746-3.673,3.443" transform="translate(-138.271 -177.626)" fill="#cba124"/>
        <path id="Trazado_229804" data-name="Trazado 229804" d="M42.374,177.97c0,1.924-.016,3.848.011,5.772.007.505-.135.713-.653.656-.327-.035-.661,0-.991-.007a2.468,2.468,0,0,1-2.688-2.529q-.084-3.966,0-7.936a2.49,2.49,0,0,1,2.765-2.548c1.558-.018,1.558-.018,1.558,1.542v5.051" transform="translate(-28.829 -129.98)" fill="#fc4b52"/>
        <path id="Trazado_229805" data-name="Trazado 229805" d="M246.561,11.207c1.2,0,2.409-.015,3.614,0a5.113,5.113,0,0,1,5.114,5.114c.012.693,0,1.385,0,2.078a.9.9,0,0,1-.893,1.035c-.643.016-.963-.4-.956-1.058.007-.632.014-1.265,0-1.9a3.287,3.287,0,0,0-3.35-3.405q-3.522-.071-7.046,0a3.222,3.222,0,0,0-3.353,3.457c-.009.662.014,1.326-.029,1.986a.9.9,0,0,1-.919.932.911.911,0,0,1-.956-.989,15.242,15.242,0,0,1,.119-3.151,5.12,5.12,0,0,1,4.77-4.09c1.294-.042,2.59-.007,3.885-.007Z" transform="translate(-180.333 -8.494)" fill="#7d8a95"/>
        <path id="Trazado_229806" data-name="Trazado 229806" d="M208.572,301.986c0-1.925.015-3.85-.01-5.774-.007-.5.129-.66.65-.67,2.128-.042,3.136.9,3.139,3.007q.005,3.518,0,7.037a2.7,2.7,0,0,1-3.344,2.882c-.526-.073-.431-.4-.432-.708q-.007-2.887,0-5.774" transform="translate(-158.184 -224.153)" fill="#fc4b52"/>
        <path id="Trazado_229807" data-name="Trazado 229807" d="M15.034,301.981c0,1.927-.02,3.854.012,5.78.009.554-.153.712-.709.715-2.05.012-3.044-.892-3.061-2.914q-.029-3.522,0-7.045c.015-2.034,1-2.959,3.011-2.97.578,0,.774.137.762.743-.039,1.9-.014,3.793-.014,5.69" transform="translate(-8.541 -224.159)" fill="#fc4b52"/>
        <path id="Trazado_229808" data-name="Trazado 229808" d="M179.464,184.28c-.309-.145-.156-.423-.157-.633-.011-3.855.007-7.711-.023-11.566-.005-.643.18-.863.809-.784.386.049.783-.007,1.173.019a2.416,2.416,0,0,1,2.358,2.387q.054,4.111,0,8.222a2.389,2.389,0,0,1-2.353,2.384c-.419.024-.842-.011-1.262-.02-.023-.087-.069-.182-.03-.264.916-1.906.621-3.946.652-5.948q.03-1.895,0-3.79a3.833,3.833,0,0,0-.652-2.3,1.6,1.6,0,0,0-.233,1.167c-.008,3.249,0,6.5-.009,9.745,0,.471.1.973-.27,1.377" transform="translate(-135.968 -129.909)" fill="#c93c41"/>
        <path id="Trazado_229809" data-name="Trazado 229809" d="M69.172,180.023c0,2.587-.039,5.175.022,7.761.02.835-.424.753-.939.73-.5-.021-1.055.212-1.048-.727q.063-7.852,0-15.7c-.007-.926.537-.718,1.043-.735s.961-.1.942.732c-.059,2.646-.022,5.294-.022,7.942" transform="translate(-50.974 -129.952)" fill="#e7a32d"/>
        <path id="Trazado_229810" data-name="Trazado 229810" d="M162.064,179.891c0,2.621-.041,5.242.022,7.861.023.945-.547.695-1.04.726-.547.035-.937.049-.931-.757q.061-7.816,0-15.633c-.009-.985.568-.729,1.1-.787.646-.069.882.1.869.817-.048,2.59-.019,5.181-.019,7.771" transform="translate(-121.439 -129.914)" fill="#e6a32c"/>
        <path id="Trazado_229811" data-name="Trazado 229811" d="M179.99,184.991c0-3.975,0-7.951.01-11.926,0-.293-.189-.736.285-.833s.623.356.737.657a5.534,5.534,0,0,1,.42,2.013c-.018,2.2-.034,4.4,0,6.595a5.775,5.775,0,0,1-.91,3.5l-.546-.01" transform="translate(-136.493 -130.621)" fill="#fc4b52"/>
        <path id="Trazado_229812" data-name="Trazado 229812" d="M61.083,253.65c.9,0,1.8,0,2.7,0,.342,0,.648-.039.633.486-.013.431-.15.572-.576.568q-2.7-.025-5.393,0c-.423,0-.57-.128-.584-.562-.017-.507.261-.5.617-.495.869.011,1.737,0,2.606,0" transform="translate(-43.883 -192.378)" fill="#f1e135"/>
        <path id="Trazado_229813" data-name="Trazado 229813" d="M154.042,253.638c.9,0,1.8.007,2.7,0,.337,0,.568.02.555.468-.012.4-.093.595-.55.589-1.829-.021-3.659-.018-5.489,0-.41,0-.5-.173-.5-.539s.1-.531.5-.52c.929.025,1.859.008,2.789.008" transform="translate(-114.339 -192.366)" fill="#f1e235"/>
        <path id="Trazado_229814" data-name="Trazado 229814" d="M226.2,358.449c0,.329.02.658,0,.985a.877.877,0,0,1-.837.89.9.9,0,0,1-1.075-.726,5.479,5.479,0,0,1-.03-2.313c.154-.744.9-.261,1.378-.367.4-.09.615.108.588.546-.02.328,0,.657,0,.986H226.2" transform="translate(-170.006 -270.662)" fill="#7c8993"/>
        <path id="Trazado_229815" data-name="Trazado 229815" d="M317.429,358.443a8.285,8.285,0,0,1-.009,1.079.921.921,0,0,1-.959.885.907.907,0,0,1-1-.925c-.042-.628.011-1.261-.023-1.89-.025-.478.16-.6.623-.616,1.384-.036,1.383-.057,1.372,1.466" transform="translate(-239.24 -270.743)" fill="#7d8a95"/>
        <path id="Trazado_229816" data-name="Trazado 229816" d="M180.746,236.394a2.273,2.273,0,0,1-.023,1.978c-.208-.113-.409-.307-.626-.326-.882-.075-.843-.687-.768-1.285.1-.755.709-.247,1.063-.384a.912.912,0,0,1,.353.016" transform="translate(-135.986 -179.249)" fill="#c5a098"/>
        <path id="Trazado_229817" data-name="Trazado 229817" d="M72.309,283.507q5.464,0,10.928,0a3.259,3.259,0,0,1,3.53,3.547q.012,4.7,0,9.393a3.283,3.283,0,0,1-3.563,3.527q-10.928.006-21.857,0a3.251,3.251,0,0,1-3.566-3.515q-.029-4.742,0-9.484a3.216,3.216,0,0,1,3.508-3.468c3.673-.007,7.346,0,11.019,0" transform="translate(-43.813 -215.025)"/>
        <path id="Trazado_229818" data-name="Trazado 229818" d="M254.023,137.275q0,11.519,0,23.037a6.887,6.887,0,0,1-.029.992,1.212,1.212,0,0,1-1.126,1.11,1.261,1.261,0,0,1-1.433-.839,2.905,2.905,0,0,1-.122-1.159q0-23.127,0-46.255a2.972,2.972,0,0,1,.117-1.16,1.258,1.258,0,0,1,1.425-.85,1.2,1.2,0,0,1,1.136,1.1,6.488,6.488,0,0,1,.03.992q0,11.519,0,23.037" transform="translate(-190.606 -85.052)"/>
        <path id="Trazado_229819" data-name="Trazado 229819" d="M288.292,137.336q0,11.519,0,23.037a5.289,5.289,0,0,1-.021.9,1.343,1.343,0,0,1-2.646.1,3.631,3.631,0,0,1-.042-.9q0-23.173,0-46.346a3.977,3.977,0,0,1,.022-.811,1.277,1.277,0,0,1,1.378-1.159,1.262,1.262,0,0,1,1.3,1.24,6.549,6.549,0,0,1,.012.812q0,11.564,0,23.128" transform="translate(-216.593 -85.064)"/>
        <path id="Trazado_229820" data-name="Trazado 229820" d="M319.907,137.288q0-11.564,0-23.128a5.286,5.286,0,0,1,.024-.9,1.235,1.235,0,0,1,1.133-1.108,1.272,1.272,0,0,1,1.436.837,2.782,2.782,0,0,1,.115,1.158q0,23.128,0,46.255a3.8,3.8,0,0,1-.088,1.071,1.332,1.332,0,0,1-2.6-.244,7.49,7.49,0,0,1-.017-.9q0-11.519,0-23.037" transform="translate(-242.63 -85.05)"/>
        <path id="Trazado_229821" data-name="Trazado 229821" d="M80.767,294.683c3.553,0,7.106.023,10.658-.017.868-.01,1.155.26,1.142,1.136-.045,2.95-.04,5.9,0,8.852.01.833-.28,1.094-1.1,1.091q-10.7-.036-21.407,0c-.843,0-1.1-.29-1.093-1.1q.046-4.471,0-8.942c-.008-.785.268-1.044,1.056-1.037,3.583.034,7.166.015,10.748.015" transform="translate(-52.305 -223.49)" fill="#f3e1c0"/>
      </g>
    </g>
  </g>
</svg>
