<svg xmlns="http://www.w3.org/2000/svg" xmlns:xlink="http://www.w3.org/1999/xlink" width="272" height="235" viewBox="0 0 272 235">
  <defs>
    <clipPath id="clip-path">
      <rect id="Rectángulo_89067" data-name="Rectángulo 89067" width="88.953" height="88.982" fill="none"/>
    </clipPath>
  </defs>
  <g id="Grupo_148269" data-name="Grupo 148269" transform="translate(-789.8 -2088)">
    <rect id="Image_Place_Holder" data-name="Image Place Holder" width="272" height="235" transform="translate(789.8 2088)" fill="#d9eaea"/>
    <g id="Grupo_146875" data-name="Grupo 146875" transform="translate(935.835 2161)">
      <g id="Grupo_146875-2" data-name="Grupo 146875" clip-path="url(#clip-path)">
        <path id="Trazado_220021" data-name="Trazado 220021" d="M1.379,64.381c-.652-1.117-.657-1.125.433-1.782,3.947-2.383,7.77-4.983,12.059-6.764a52.328,52.328,0,0,1,7.082-2.428,1.543,1.543,0,0,0,1.31-1.114c.235-.794.641-1.537.921-2.32.175-.49.426-.572.844-.318a.623.623,0,0,0,.082.034c.6.258,1.4.361,1.747.814.395.52-.44,1.127-.423,1.815a6.67,6.67,0,0,0,1.911-.214,47.251,47.251,0,0,1,7.313-.483.711.711,0,0,0,.833-.561c.28-.843.618-1.667.984-2.636a18.712,18.712,0,0,1-21.7-14.4A18.662,18.662,0,0,1,47.79,18.719c.683-1.778,1.352-3.505,2.011-5.236,1.207-3.168,2.4-6.339,3.615-9.506A5.765,5.765,0,0,1,59.189.026a21.047,21.047,0,0,1,3.128.065,5.693,5.693,0,0,1,4.695,3.9Q71.747,16.463,76.5,28.923q2.669,7,5.339,14.005a1.163,1.163,0,0,0,.633.788c4.489,1.947,6.512,5.438,6.375,10.265-.007.268-.013.537-.019.8A14.438,14.438,0,0,1,85.384,63.8a17.209,17.209,0,0,1-13.405,6.687,21.672,21.672,0,0,1-6.372-.788c-1.138-.3-1.152-.282-1.814.72a15.218,15.218,0,0,1-13.5,7.212A20.173,20.173,0,0,1,44.6,76.5c-3.428-1.027-6.794-2.331-10.354-2.823a27.1,27.1,0,0,0-22.539,6.811c-1.664,1.461-3.05,3.186-4.572,4.781a.363.363,0,0,0-.1.392c1,.153,2.04-.01,3.065.078a4.558,4.558,0,0,0,3.635-1.256,29.743,29.743,0,0,1,15.873-7.088,34.664,34.664,0,0,1,11.306.44c3.34.641,6.665,1.368,10.059,1.7a80.436,80.436,0,0,0,11.874.346,89.351,89.351,0,0,0,15.722-2.413c1.437-.335,1.581-.239,1.912,1.157.041.174.086.348.121.523.225,1.118.11,1.3-.979,1.559a91.218,91.218,0,0,1-14.551,2.446,82.447,82.447,0,0,1-10.009.12,112.048,112.048,0,0,1-15.311-2.19,28.642,28.642,0,0,0-18,2.138,34.511,34.511,0,0,0-4.268,2.547c.469-.038.883-.034,1.3-.034q34.2,0,68.408.006c.553,0,1.146-.151,1.641.258-.006.92.328,2.094-.115,2.687-.42.562-1.669.165-2.551.165q-42.574.014-85.148.026c-.8,0-1.107-.175-1-1a17.131,17.131,0,0,0,.039-1.877,1.188,1.188,0,0,1,1.012-.24,2.211,2.211,0,0,0,1.914-.9C5.821,81.8,8.4,78.489,11.832,76.018a31.265,31.265,0,0,1,15.541-5.89,33.354,33.354,0,0,1,12.883,1.514,76.906,76.906,0,0,0,8.867,2.5,12.05,12.05,0,0,0,12.1-5.947A11.562,11.562,0,0,0,62.6,60a6.9,6.9,0,0,0-13.608,1.725,4.184,4.184,0,0,0,3.356,3.893,2.689,2.689,0,0,0,.355.047,1.251,1.251,0,0,0,1.483-1.086c.058-.713-.428-1.18-1.311-1.259-1.507-.135-1.507-.135-1.509-1.642,0-1.684.09-1.773,1.771-1.715a4.638,4.638,0,0,1,4.44,4.611,4.585,4.585,0,0,1-4.5,4.451,6.979,6.979,0,0,1-6.176-3.339,2.7,2.7,0,0,0-1.95-1.334,49.833,49.833,0,0,0-12.009-1.026,52.722,52.722,0,0,0-19.084,4.363A54.6,54.6,0,0,0,3.579,73.639a6.5,6.5,0,0,1-.751.486c-.158.086-.347.2-.507.124A3.6,3.6,0,0,1,.713,72.3c-.273-.63.314-.957.741-1.271A55.806,55.806,0,0,1,28.082,60.36a52.242,52.242,0,0,1,15.857.4l.176.033c1.43.244,1.435.245,1.72-1.177a7.867,7.867,0,0,1,.806-2.363c.311-.55.219-.859-.436-1.024A52.83,52.83,0,0,0,38,54.871a40.679,40.679,0,0,0-4.736-.153,49.4,49.4,0,0,0-18.415,4.06A94.445,94.445,0,0,0,3.8,65.029c-.153.092-.3.2-.452.29-1.232.753-1.685.537-1.965-.937" transform="translate(0 0)"/>
        <path id="Trazado_220022" data-name="Trazado 220022" d="M1.46,237.476c.833,1.337.83,1.331,2.228.479,3.941-2.4,7.785-4.967,12.1-6.706A48.41,48.41,0,0,1,46.808,229.2c.2.052.393.13.65.216a10.683,10.683,0,0,0-1.489,4.656c-.043.636-.5.286-.734.242a54.059,54.059,0,0,0-6.644-.881,55.014,55.014,0,0,0-24.423,3.873,57.645,57.645,0,0,0-12.952,7.331c-.4.3-.476.512-.147.905.457.547.779,1.464,1.324,1.612.575.156,1.168-.676,1.744-1.087a52.453,52.453,0,0,1,22.782-9.3,50.735,50.735,0,0,1,18.761.554,1.6,1.6,0,0,1,1.205.882c1.453,2.664,4.7,4.209,7.291,3.536a4.287,4.287,0,0,0-.964-8.447c-1.519-.045-1.519-.045-1.519,1.445a1.589,1.589,0,0,1,0,.268c-.153.886.125,1.253,1.106,1.174,1.136-.091,1.83.595,1.753,1.52s-.877,1.442-1.979,1.3a4.42,4.42,0,0,1-3.7-5.221,7.176,7.176,0,0,1,14.287.942A12.329,12.329,0,0,1,50.2,247.6c-2.385-.1-4.574-1.052-6.835-1.686a64.038,64.038,0,0,0-8.9-2.286,30.473,30.473,0,0,0-22.4,5.656A44.382,44.382,0,0,0,5.2,255.932a13.466,13.466,0,0,0-1.369,1.534,3.386,3.386,0,0,1-3.7,1.623q-.013-9.8-.033-19.605a1.243,1.243,0,0,1,.433-.931,3.4,3.4,0,0,0,.921-1.077" transform="translate(-0.081 -173.095)" fill="#69d5f3"/>
        <path id="Trazado_220023" data-name="Trazado 220023" d="M108.241,260.1H36.276a18.881,18.881,0,0,1,3.642-2.412,28.17,28.17,0,0,1,17.488-3.04c3.782.5,7.479,1.482,11.27,1.95a79.631,79.631,0,0,0,17.946.2,115.773,115.773,0,0,0,12.57-2.263c.642-.138.788-.362.637-1-.473-2.006-.452-2.027-2.414-1.556a79.74,79.74,0,0,1-21.092,2.36,90.124,90.124,0,0,1-15.495-2.028c-8.51-1.754-16.6-.771-24.079,3.9a27.3,27.3,0,0,0-4.455,3.437,1.551,1.551,0,0,1-1.19.463c-1.78-.027-3.561-.011-5.6-.011,1.681-1.8,3.135-3.528,4.757-5.075a27.455,27.455,0,0,1,20.117-7.808,32.314,32.314,0,0,1,8.928,1.682c2.589.792,5.147,1.714,7.8,2.261a14.983,14.983,0,0,0,16.157-7.264.89.89,0,0,1,1.259-.483,18.827,18.827,0,0,0,12.046,0c6.589-2.4,10.46-7.127,11.54-14.091a3.353,3.353,0,0,1,.122-.423l.006,15.448a1.732,1.732,0,0,1-1.284.237,35.653,35.653,0,0,0-11.521,1.736,37.044,37.044,0,0,0-5.128,2.085c-.943.467-.954.548-.434,1.586.486.97.571,1.016,1.477.558a33.465,33.465,0,0,1,10.8-3.323,32,32,0,0,1,5.257-.264,1.161,1.161,0,0,1,.837.238q0,6.453,0,12.906" transform="translate(-19.403 -174.108)" fill="#69d5f3"/>
        <path id="Trazado_220024" data-name="Trazado 220024" d="M310.292,296.26a34.166,34.166,0,0,0-15.628,3.017c-.3.137-.585.295-.891.407-.506.186-1.108.887-1.46.529a7.287,7.287,0,0,1-1.149-2.191c-.118-.264.2-.32.366-.41a36.614,36.614,0,0,1,13.317-4.035,47.413,47.413,0,0,1,5.445-.172v2.853" transform="translate(-221.453 -223.173)"/>
        <path id="Trazado_220025" data-name="Trazado 220025" d="M44.768,34.87c-.146-.132-.282-.246-.408-.372-2.426-2.424-4.845-4.855-7.282-7.269-.311-.308-.4-.5-.028-.829.56-.488,1.042-1.385,1.622-1.442.6-.059,1.081.891,1.6,1.407,2.015,1.992,4,4.013,6.025,6,.4.395.495.64.017,1.028-.437.356-.807.794-1.21,1.192-.1.1-.221.188-.341.29" transform="translate(-27.996 -18.982)"/>
        <path id="Trazado_220026" data-name="Trazado 220026" d="M44.832,185.181l.329.275c1.86,1.573,1.86,1.573.148,3.285-2,2-4.015,4-6,6.017-.368.374-.615.56-1.029.054-.45-.55-1.366-1.033-1.369-1.549s.867-1.041,1.37-1.546q3-3.012,6.008-6.012c.168-.168.342-.328.545-.523" transform="translate(-28.074 -140.857)"/>
        <path id="Trazado_220027" data-name="Trazado 220027" d="M5.818,119.778c1.7,0,3.4.02,5.1-.011.505-.009.637.133.643.638.025,2.239.043,2.239-2.164,2.239-2.865,0-5.729-.017-8.594.014-.583.006-.737-.145-.734-.731.014-2.149-.01-2.149,2.166-2.149H5.818" transform="translate(-0.055 -91.1)"/>
        <path id="Trazado_220028" data-name="Trazado 220028" d="M134.654,4.426c0,1.223-.018,2.447.01,3.67.01.43-.12.535-.547.551-2.329.088-2.328.1-2.328-2.252,0-1.91.018-3.819-.012-5.728-.008-.505.134-.636.639-.642,2.239-.025,2.238-.043,2.238,2.164V4.426" transform="translate(-100.236 -0.015)"/>
        <path id="Trazado_220029" data-name="Trazado 220029" d="M37.16,79.965c-.317.757-.618,1.53-.967,2.28-.12.258-.355.08-.542,0-1.448-.6-2.893-1.216-4.35-1.8-.357-.142-.423-.268-.294-.648.771-2.263.759-2.267,2.928-1.37.93.385,1.862.764,2.787,1.161.172.074.436.072.44.371" transform="translate(-23.538 -59.236)" fill="#010101"/>
        <path id="Trazado_220030" data-name="Trazado 220030" d="M37.569,157.546c.057.293-.214.3-.385.37-1.446.608-2.9,1.192-4.341,1.816-.416.181-.548.042-.717-.322-.976-2.1-.985-2.092,1.107-2.962.847-.352,1.719-.655,2.534-1.07.666-.339.927-.135,1.125.507.173.563.442,1.1.676,1.662" transform="translate(-23.954 -118.065)" fill="#010101"/>
        <path id="Trazado_220031" data-name="Trazado 220031" d="M172.335,20.121c-.035.081-.1.215-.152.352-.562,1.369-1.135,2.733-1.68,4.109-.167.422-.324.575-.818.381-2.122-.837-2.13-.818-1.264-2.908.363-.875.763-1.736,1.078-2.628.2-.578.471-.64.977-.375.47.246.984.4,1.47.622.168.075.441.08.389.447" transform="translate(-127.697 -14.377)" fill="#010101"/>
        <path id="Trazado_220032" data-name="Trazado 220032" d="M93.918,24.268c-.034.423-.452.43-.714.5-.653.18-1.177.8-1.936.579-.07-.021-.09-.209-.136-.318-.587-1.423-1.159-2.854-1.773-4.265-.171-.394-.109-.543.28-.725,2.127-1,2.12-1.008,3.012,1.161.349.849.7,1.7,1.057,2.543.068.164.132.329.21.523" transform="translate(-67.903 -14.752)" fill="#010101"/>
        <path id="Trazado_220033" data-name="Trazado 220033" d="M71.974,75.73a15.746,15.746,0,0,1,28.751-8.882,1.64,1.64,0,0,1,.243,1.712q-4.13,10.7-8.18,21.422a1.413,1.413,0,0,1-1.082,1A15.769,15.769,0,0,1,71.974,75.73" transform="translate(-54.747 -45.624)" fill="#fbd670"/>
        <path id="Trazado_220034" data-name="Trazado 220034" d="M190.373,41.831c1.18-3.11,2.293-6.054,3.414-8.995q3.464-9.094,6.934-18.186c.8-2.106,1.486-2.58,3.73-2.58,3.789,0,3.9.08,5.246,3.619q4.223,11.1,8.455,22.193c.094.246.186.492.346.916-.406-.223-.666-.375-.935-.511a3.658,3.658,0,0,0-5.375,3.21c-.04,2.327,0,4.654-.019,6.981,0,.263.186.692-.226.75-.328.046-.316-.384-.4-.617-.628-1.83-1.227-3.669-1.852-5.5a3.1,3.1,0,0,0-6.113,1.006c-.005,3.073-.01,6.146,0,9.219A1.513,1.513,0,0,1,202.517,55c-.956.3-1.793-.455-1.8-1.625-.01-3.133,0-6.265,0-9.4,0-1.85.008-3.7,0-5.549a3.261,3.261,0,0,0-6.111-1.736c-.676,1.088-1.321,2.2-1.985,3.291a4.325,4.325,0,0,1-2.244,1.854" transform="translate(-144.807 -9.181)" fill="#b3dc7e"/>
        <path id="Trazado_220035" data-name="Trazado 220035" d="M175.072,128.4c0,2.358-.007,4.715,0,7.073a4.3,4.3,0,1,0,8.592.028c.011-2.984,0-5.968.01-8.953,0-.269-.175-.714.212-.766.365-.049.347.428.435.685.629,1.831,1.22,3.674,1.847,5.5a3.1,3.1,0,0,0,6.092-.982c.01-2.3,0-4.6,0-6.894,0-1.244.5-1.445,1.638-.933a8.035,8.035,0,0,1,4.911,5.747,32.61,32.61,0,0,0,1.721,4.6c.224.553.287.767-.475.83a10.018,10.018,0,0,0-9.227,9.97,6.741,6.741,0,0,0,1.183,3.873c.292.43.272.614-.223.836a13.786,13.786,0,0,1-3.513.991c-.533.084-.771-.08-.974-.6a9.95,9.95,0,0,0-9.913-6.5,9.491,9.491,0,0,0-5.385,1.939,1.049,1.049,0,0,1-1.054.193,50.1,50.1,0,0,0-10.076-1.946c-.456-.042-.545-.138-.373-.586q2.865-7.464,5.689-14.944a.677.677,0,0,1,.64-.486,7.435,7.435,0,0,0,5.818-4.109c.468-.864,1-1.692,1.514-2.532.136-.224.264-.512.607-.4.327.1.3.4.3.672q0,3.85,0,7.7" transform="translate(-122.027 -91.282)" fill="#ce9d76"/>
        <path id="Trazado_220036" data-name="Trazado 220036" d="M278.984,213.138a17.325,17.325,0,0,1-5.16-.792c-.407-.109-.616-.224-.477-.714a12.223,12.223,0,0,0,.469-3.711c-.013-.439.151-.55.55-.589a13.422,13.422,0,0,0,5.872-1.977c.347-.217.607-.068.916.051a5.982,5.982,0,0,0,3.838.407,4.289,4.289,0,0,0-.95-8.426c-1.617-.069-1.617-.069-1.617,1.523a3.058,3.058,0,0,1,0,.536c-.126.691.177.913.827.806a2.525,2.525,0,0,1,.536,0,1.434,1.434,0,0,1,1.5,1.44,1.455,1.455,0,0,1-1.614,1.418,4.373,4.373,0,0,1-4.078-5.06,7.166,7.166,0,0,1,14.29.845,14.361,14.361,0,0,1-14.9,14.246" transform="translate(-207.888 -145.778)" fill="#69d5f3"/>
      </g>
    </g>
  </g>
</svg>
