<svg id="Grupo_146871" data-name="Grupo 146871" xmlns="http://www.w3.org/2000/svg" xmlns:xlink="http://www.w3.org/1999/xlink" width="201" height="140.495" viewBox="0 0 201 140.495">
  <defs>
    <clipPath id="clip-path">
      <rect id="Rectángulo_89065" data-name="Rectángulo 89065" width="201" height="140.495" fill="none"/>
    </clipPath>
  </defs>
  <g id="Grupo_146871-2" data-name="Grupo 146871" clip-path="url(#clip-path)">
    <path id="Trazado_219907" data-name="Trazado 219907" d="M98.887,3.3a10.652,10.652,0,0,0,2.9.7A25.02,25.02,0,0,1,120.737,25.94a21.188,21.188,0,0,1,.148,3.414c-.064.912.218,1.278,1.149,1.155a8.531,8.531,0,0,1,1.342.025.259.259,0,0,1-.125.365c-1.945.512-1.912.512-1.954,2.645a70.054,70.054,0,0,1-.148,7.778.682.682,0,0,1-.3.312,2.707,2.707,0,0,1-1.551.222q-27.182.008-54.365,0c-.285,0-.572.011-.856-.017-1.04-.105-1.166-.318-.555-1.181a4.2,4.2,0,0,0,.705-2.542,55.738,55.738,0,0,1,.338-8.307A25.471,25.471,0,0,1,85.91,8.6a75.587,75.587,0,0,1,9.045-.272c.693-.019,1.39.037,2.08-.035a2.276,2.276,0,0,0,1.807-3.585c-.249-.432-.785-.785-.445-1.408Z" transform="translate(-42.478 -2.222)" fill="#fc4b52"/>
    <path id="Trazado_219908" data-name="Trazado 219908" d="M78.948,3.3a1.131,1.131,0,0,0,.464.826,2.592,2.592,0,0,1,.49,3.146A2.455,2.455,0,0,1,77.307,8.7c-2.449-.009-4.9-.046-7.347,0a24.544,24.544,0,0,0-16.616,6.571,25,25,0,0,0-7.556,12.952,38.01,38.01,0,0,0-.629,9.834,3.861,3.861,0,0,1-1.427,3.458h1.522q27.368,0,54.736.007c.489,0,.979.015,1.469.024q.111.056.094.139c-.012.059-.028.089-.048.089l-.042.041a1.994,1.994,0,0,1-1.391.331c-1.828,0-3.656.04-5.485-.019-.855.073-1.71.034-2.566.034q-19.434,0-38.867,0c-1.67,0-3.34.019-5.01-.031-2.3.035-4.605.045-6.908-.006-1.823.059-3.646.024-5.469.018a1.778,1.778,0,0,1-1.368-.374c-.009-5.219-.391-10.469.056-15.648.748-8.669,5.11-15.3,12.709-19.668A22.129,22.129,0,0,1,56.125,3.5c.1-.009.19-.13.284-.2Z" transform="translate(-23.029 -2.222)" fill="#fe8b94"/>
    <path id="Trazado_219909" data-name="Trazado 219909" d="M76.519,120.8c4.562-.012,9.124-.034,13.686-.034q16.438,0,32.875.019a2.629,2.629,0,0,1,.364,1.866c.012,3.7.025,7.39-.008,11.085a2.651,2.651,0,0,0,.849,2.278c-1.179.085-1.309.825-1.238,1.815a17.445,17.445,0,0,1-.409,4.193c-.071.417-.254.92.42,1.059-.879,1.641-1.114,3.513-1.856,5.2-2.845,6.734-7.862,11.154-14.619,13.725a24.1,24.1,0,0,1-4.769,1.345,1.843,1.843,0,0,1-1.518-.137c-.148-.268.041-.455.155-.664.887-1.631.412-2.754-1.381-3.187a39.336,39.336,0,0,1-5.4-1.532c-8.506-3.385-13.67-9.588-15.653-18.483a22.957,22.957,0,0,1-.614-5.575c.044-1.793.063-3.589,0-5.38-.1-2.551.537-5.2-.878-7.6" transform="translate(-51.466 -81.229)" fill="#feead1"/>
    <path id="Trazado_219910" data-name="Trazado 219910" d="M115.145,318.087l-39.477,0a1.7,1.7,0,0,1-.383-1.257c.02-8.979-.108-17.959.063-26.937a.89.89,0,0,1,.4-.739c.61.235.466.788.483,1.241.04,1.015.017,2.033.012,3.049,0,.61.243.813.834.6.8-.288,1.615-.556,2.427-.82,1.247-.405,1.095-1.582,1.433-2.491.537-.357.833.116,1.135.38a20.4,20.4,0,0,0,11.741,5.235,18.562,18.562,0,0,0,9.074-1.426,19.577,19.577,0,0,0,9.928-9.194,1.736,1.736,0,0,1,.668-.851,1.683,1.683,0,0,1,1.868.869,5.731,5.731,0,0,1,.154,1.82c0,9.623.023,19.246-.054,28.87a2.357,2.357,0,0,1-.308,1.643" transform="translate(-50.618 -191.591)" fill="#cae2f9"/>
    <path id="Trazado_219911" data-name="Trazado 219911" d="M61.567,120.867a4,4,0,0,1,1.25,3.4c-.083,3.386-.12,6.779-.008,10.164.236,7.131,2.694,13.372,7.993,18.263a25.679,25.679,0,0,0,13.227,6.361c1.02.18,1.956.544,2.233,1.606a2.19,2.19,0,0,1-.93,2.566c-.247.551-.765.526-1.245.59a29.184,29.184,0,0,1-12.739-1.5c-1.491-.75-3.06-1.331-4.5-2.2A24.669,24.669,0,0,1,56.078,147.37a27.312,27.312,0,0,0-1.378-4.23c.477-.046.293-.354.265-.626a61.5,61.5,0,0,1-.517-6.292c-.265-4.936-.138-9.874-.057-14.811a.945.945,0,0,1,.246-.546l6.93,0" transform="translate(-36.514 -81.293)" fill="#fef2e3"/>
    <path id="Trazado_219912" data-name="Trazado 219912" d="M168.017,217.878a24.654,24.654,0,0,0,13.923-12.667c.121-.256.2-.53.3-.8,2.137,1.44,4.442.59,6.681.459,2.063-.12,4.12-.361,6.179-.546a6.285,6.285,0,0,1,3.536.753,4.246,4.246,0,0,0,3.658.56c0,2.815.023,5.63.011,8.445a6.515,6.515,0,0,1-7.849,6.519,2.441,2.441,0,0,1-1.879.3c-5.751-.554-11.511-.949-17.282-1.228-1.952-.095-3.9-.169-5.853-.2a2.485,2.485,0,0,1-1.417-.279.957.957,0,0,1-.011-1.316" transform="translate(-112.835 -137.414)" fill="#a7e446"/>
    <path id="Trazado_219913" data-name="Trazado 219913" d="M168.073,249.41c6.228,0,12.433.433,18.634.964,2.59.222,5.186.38,7.779.567q0,8.918,0,17.835c-.507.2-.842-.147-1.186-.4a18.038,18.038,0,0,0-3.805-2.069c-2.471-.451-4.653-1.725-7.029-2.449-1.224-.448-2.469-.832-3.706-1.242a2.688,2.688,0,0,1-1.432-.87l-1.637-.61a4.553,4.553,0,0,1-2.425-1.315,15.875,15.875,0,0,1-5.262-8.33c.008-.693-.505-1.4.071-2.077" transform="translate(-112.861 -167.752)" fill="#9f7765"/>
    <path id="Trazado_219914" data-name="Trazado 219914" d="M233.063,300.215a20.722,20.722,0,0,1,4.885,2.733,16.323,16.323,0,0,1,4.536,8.07,15.742,15.742,0,0,1,.39,3.134c-.025,3.794-.005,7.588-.011,11.383,0,2.122-.773,2.9-2.844,2.9-2.407,0-4.813-.014-7.221-.022a1.883,1.883,0,0,1-.366-1.38q-.019-12.7.011-25.39c0-.528-.122-1.188.62-1.429" transform="translate(-156.325 -201.923)" fill="#cae2f9"/>
    <path id="Trazado_219915" data-name="Trazado 219915" d="M19.882,328.18c-2.6,0-5.209.009-7.814,0-1.537-.007-2.226-.7-2.23-2.241-.01-4.558-.11-9.12.035-13.673a12.478,12.478,0,0,1,3.167-7.74c.468-.551.974-1.071,1.462-1.606a5.134,5.134,0,0,0,.283-.476,11.7,11.7,0,0,1,3.721-2.392c.5-.208,1.1-.48,1.4.333a7.276,7.276,0,0,1,.116,1.83q.006,6.736,0,13.472a35.744,35.744,0,0,0,.221,5.376c.02,1.832.042,3.665.022,5.5a2.276,2.276,0,0,1-.387,1.623" transform="translate(-6.589 -201.666)" fill="#edf6fe"/>
    <path id="Trazado_219916" data-name="Trazado 219916" d="M8.134,226.362l-.22.208c0-5.546-.028-11.092.012-16.638.007-.961-.259-1.234-1.231-1.242A6.375,6.375,0,0,1,.3,202.85a50.417,50.417,0,0,1,.03-11.32c.336-3.052,3.737-5.431,6.812-5.192,3.678.285,7.339.825,11.038.828a1.465,1.465,0,0,1,.827,1.051,32.224,32.224,0,0,0,.878,3.12,1.744,1.744,0,0,1-1.875,1.065c-1.063,0-2.1-.276-3.169-.244a6.039,6.039,0,0,0-6.094,6.065c-.044,1.754,0,3.509-.011,5.263a24.53,24.53,0,0,1-.292,5.351c.192,5.42.057,10.839.077,16.258a2.279,2.279,0,0,1-.392,1.267" transform="translate(0 -125.318)" fill="#d9febe"/>
    <path id="Trazado_219917" data-name="Trazado 219917" d="M209.444,295.284c-.425.4-.233.925-.234,1.39q-.029,13.4-.031,26.81l-11.722-.017a59.442,59.442,0,0,1-.126-6.33c-.021-.606.313-.556.7-.345.287.155.537.372.826.524a2.179,2.179,0,0,0,3.3-1.658,8.522,8.522,0,0,0,.05-1.344q0-9.36,0-18.721a13.059,13.059,0,0,0-.131-1.95c-.04-.265-.244-.65.256-.759,1.479.09,2.635,1.065,4,1.462,1.036.3,2.065.625,3.1.938" transform="translate(-132.706 -196.993)" fill="#c69983"/>
    <path id="Trazado_219918" data-name="Trazado 219918" d="M40.6,328.061q0-3.553,0-7.105c.546-.062.753.419,1.085.689a2.266,2.266,0,0,0,3.779-1.15,6.18,6.18,0,0,0,.179-1.821c0-3.877.021-7.755-.006-11.632a6.039,6.039,0,0,1,3.874-6.083c.96-.412,1.869-.927,2.843-1.3q0,14.2,0,28.392l-11.756.013" transform="translate(-27.308 -201.547)" fill="#c69982"/>
    <path id="Trazado_219919" data-name="Trazado 219919" d="M202.068,288.978c.506,2.845.205,5.715.239,8.572.053,4.4-.02,8.8.034,13.207.017,1.368-.194,2.543-1.527,3.174-1.405.665-2.493.007-3.633-1.2v6.832a.564.564,0,0,1-.223.022q-.015-15.4-.031-30.8c0-.57-.021-1.14-.032-1.71,1.7.711,3.52,1.073,5.173,1.9" transform="translate(-132.431 -193.087)" fill="#dfb6a2"/>
    <path id="Trazado_219920" data-name="Trazado 219920" d="M232.051,193.679a2.123,2.123,0,0,1-2.936.175,7.577,7.577,0,0,0-5.358-1.02c-2.066.359-4.185.414-6.284.571a19.022,19.022,0,0,0-2.174.2,2.872,2.872,0,0,1-3.3-1.154,24.911,24.911,0,0,0,1.261-4.005,1.521,1.521,0,0,1,.923-1.14c3.575.012,7.1-.615,10.669-.778,4.481-.2,7.329,2.566,7.2,7.147" transform="translate(-142.588 -125.454)" fill="#d9febe"/>
    <path id="Trazado_219921" data-name="Trazado 219921" d="M41.405,120.823q.006,7.15.012,14.3a1.658,1.658,0,0,1-.2,1.058c-4.525-.8-6.593-3.131-6.6-7.447q0-3.112,0-6.224c0-.569.022-1.137.034-1.706l6.752.02" transform="translate(-23.283 -81.252)" fill="#6e6f80"/>
    <path id="Trazado_219922" data-name="Trazado 219922" d="M219.88,136.058c-.908.168-1.246-.116-1.234-1.124.058-4.7.027-9.4.028-14.1l6.819.036q-.01,3.969-.021,7.937-.024,5.789-5.592,7.256" transform="translate(-147.06 -81.269)" fill="#585966"/>
    <path id="Trazado_219923" data-name="Trazado 219923" d="M239.595,101.744q-.02-.115-.046-.228l.028-.027c.551-.47,1.224-.334,1.86-.37,1.386-.079,1.885-.552,1.924-1.953.047-1.7,0-3.4.018-5.1a2.947,2.947,0,0,1,.233-1.54c.64-.252.66.289.665.618.017,1.031.634,1.16,1.463,1.146,1.545-.027,3.092.031,4.636-.018a6.131,6.131,0,0,1,4.09,1.324,3.426,3.426,0,0,0,1.994.76,5.337,5.337,0,0,1-5.618,5.337c-3.749.034-7.5.036-11.247.052" transform="translate(-161.12 -62.189)" fill="#fc4b52"/>
    <path id="Trazado_219924" data-name="Trazado 219924" d="M261.532,92.249c-.57.531-1.033.534-1.657-.052a5.834,5.834,0,0,0-4.427-1.692c-1.668.081-3.345-.038-5.013.038-1.023.047-1.572-.179-1.388-1.323a.937.937,0,0,0-.214-.913,13.121,13.121,0,0,0-1.721-1.728c-.006-.062-.013-.123-.022-.184,3.056-.008,6.113-.078,9.166-.008,3.315.076,5.786,3,5.275,5.862" transform="translate(-166.192 -58.083)" fill="#fe8c94"/>
    <path id="Trazado_219925" data-name="Trazado 219925" d="M113.825,66.682c-3.057,0-6.114.009-9.171,0-1.592-.006-2.111-.585-2.011-2.179.3-4.719,4.809-9.245,9.588-9.857a11.456,11.456,0,0,1,12.873,9.633c.261,1.659-.3,2.4-1.986,2.4-3.1.012-6.2,0-9.294,0" transform="translate(-69.03 -36.685)" fill="#42434d"/>
    <path id="Trazado_219926" data-name="Trazado 219926" d="M242.029,86.965c1.054.1,1.489.812,1.721,1.729,0,2.305,0,4.611-.014,6.916-.007,1.5-.631,2.142-2.106,2.163-.688.009-1.375,0-2.063,0,0-3.082.053-6.165-.031-9.244-.033-1.2.243-1.769,1.523-1.546a5.073,5.073,0,0,0,.971-.013" transform="translate(-161.108 -58.47)" fill="#e74857"/>
    <path id="Trazado_219927" data-name="Trazado 219927" d="M124.936,246.956q.114,1.108.229,2.217c-.126,1.279-1.04,1.759-2.113,2.053a29.086,29.086,0,0,1-5.9.952,34.376,34.376,0,0,1-10.8-.885,3.626,3.626,0,0,1-2.62-1.984,5.591,5.591,0,0,1,.23-2.423,1.213,1.213,0,0,1,.389-.908,56.478,56.478,0,0,0,6.138,1.381,20.894,20.894,0,0,0,8.053-.132,22.6,22.6,0,0,0,6.366-1.467q.015.6.03,1.194" transform="translate(-69.724 -165.298)" fill="#fed8ac"/>
    <path id="Trazado_219928" data-name="Trazado 219928" d="M113.906,147c0,.693.047,1.391-.012,2.08a2.1,2.1,0,0,1-2.012,1.948A2.062,2.062,0,0,1,109.7,149.3a15.5,15.5,0,0,1,0-4.631,1.984,1.984,0,0,1,2.2-1.682,2.029,2.029,0,0,1,1.992,1.938c.055.689.01,1.387.009,2.08" transform="translate(-73.667 -96.167)" fill="#585966"/>
    <path id="Trazado_219929" data-name="Trazado 219929" d="M155.372,147c0,.693.045,1.389-.012,2.077a2.109,2.109,0,0,1-4.208-.024c-.061-1.383-.065-2.773,0-4.155a1.985,1.985,0,0,1,2.11-1.926,2.029,2.029,0,0,1,2.1,1.949c.052.689.01,1.385.008,2.078" transform="translate(-101.633 -96.161)" fill="#585966"/>
    <path id="Trazado_219930" data-name="Trazado 219930" d="M88.976,256.2c1.311,2.179,3.659,2.055,5.691,2.375a35.155,35.155,0,0,0,12.789-.505,3.653,3.653,0,0,0,2.782-1.885,16.4,16.4,0,0,0,4.528,7.423c.889.794,1.917,1.372,2.858,2.082a19.631,19.631,0,0,1-17.8,11.793,20.03,20.03,0,0,1-13.932-5.573c-.208-.192-.436-.363-.655-.544a13.32,13.32,0,0,1-3.767-5.667c.074-.364.378-.505.654-.671a14.326,14.326,0,0,0,6.082-7.357c.2-.511.225-1.132.768-1.47" transform="translate(-54.797 -172.308)" fill="#feead1"/>
    <path id="Trazado_219931" data-name="Trazado 219931" d="M51.856,290.8a3.789,3.789,0,0,1-1.965,1.293c-2.546.872-4.447,2.592-4.413,6,.042,4.2.031,8.4,0,12.6-.017,2.363-1.969,3.748-3.912,2.838-.655-.307-.993-.941-1.464-1.437-.468-5.89-.094-11.79-.21-17.685-.022-1.139-.015-2.279-.022-3.418.137-.722.821-.625,1.286-.833s.955-.374,1.425-.581c2.726-.938,5.482-1.783,8.182-2.8.48-.18,1.047-.594,1.545.039.161,1.165.467,2.338-.232,3.444l-.22.53" transform="translate(-26.809 -192.688)" fill="#dfb6a2"/>
    <path id="Trazado_219932" data-name="Trazado 219932" d="M76.98,289.277l.042-3.613c.377-.5.8-.851,1.475-.527a45.9,45.9,0,0,0,3.658,5.619c.007,2.272-.138,2.495-2.34,3.2-.884.282-1.985,1.105-2.6.675s-.159-1.739-.2-2.661c-.039-.9-.024-1.794-.033-2.69" transform="translate(-51.713 -191.698)" fill="#edf6fe"/>
    <path id="Trazado_219933" data-name="Trazado 219933" d="M51.379,216.3q-.04.506-.081,1.011a2.045,2.045,0,0,1-1.265.36c-4.02-.087-8.017.352-12.026.524-2.144.092-4.283.322-6.427.444-1.614.042-3.214.25-4.819.4a2.276,2.276,0,0,1-1.853-.27c.484-2.4.138-4.819.23-7.227a28.635,28.635,0,0,1,.12-4.149c.723-3.838,4.248-5.989,8.205-5.17,1.136.235,2.26.355,3.181-.591a24.109,24.109,0,0,0,13.465,13.975,3.291,3.291,0,0,1,1.27.69" transform="translate(-16.753 -135.622)" fill="#a7e446"/>
    <path id="Trazado_219934" data-name="Trazado 219934" d="M24.867,253c2.223.025,4.4-.55,6.632-.469a2.25,2.25,0,0,1,1.8,2.425c.038,3.42.027,6.841.006,10.261A1.914,1.914,0,0,1,32.45,267c-.77.667-1.865.581-2.676,1.152a16.415,16.415,0,0,0-4.926,2.737q.01-8.944.02-17.888" transform="translate(-16.712 -169.847)" fill="#c69a83"/>
    <path id="Trazado_219935" data-name="Trazado 219935" d="M46.115,264.919a4.159,4.159,0,0,0,.5-2.219c-.03-3.091-.071-6.185.016-9.274a3.121,3.121,0,0,0-1.47-2.976c6.13-.478,12.261-.962,18.414-1.02.448,0,.9.019,1.345.028q-.184,1.1-.367,2.2a14.981,14.981,0,0,1-7.4,9.547l-1.474.527c-3.183,1.087-6.316,2.323-9.572,3.189" transform="translate(-30.378 -167.765)" fill="#9f7765"/>
    <path id="Trazado_219936" data-name="Trazado 219936" d="M132.7,194.53c0,3.459-1.851,6.263-4.133,6.263s-4.133-2.8-4.133-6.263,1.85-6.263,4.133-6.263,4.133,2.8,4.133,6.263" transform="translate(-83.696 -126.628)" fill="#fed8ac"/>
    <path id="Trazado_219937" data-name="Trazado 219937" d="M245.187,146.206c-1.94-1.93-3.923-3.818-5.808-5.8a7.512,7.512,0,0,1-.47-10.14c2.438-2.958,2.505-6.194.383-9.4a14.71,14.71,0,0,1,.648-17.181,7.562,7.562,0,0,0,1.237-7.659A14.567,14.567,0,0,1,243.531,81.3a12.024,12.024,0,0,1,2.684-2.495c2.8-1.905,3.68-4.478,2.921-7.757a14.436,14.436,0,0,1,12.25-17.907,10.521,10.521,0,0,0,6.793-3.427c1.6-1.817,3.3-3.595,5.692-4.432h3.185c1.572.71,3.169,1.385,4.117,2.963a2.361,2.361,0,0,1-.75,3.047c-1.735,1.438-3.25,3.1-4.864,4.656a8.656,8.656,0,0,1-5.1,2.428,14.973,14.973,0,0,0-7.7,2.88c-4.778,3.78-6.591,8.739-5.291,14.676.766,3.5-.137,6.14-3.012,8.243a14.111,14.111,0,0,0-5.926,10.564,14.535,14.535,0,0,0,1.01,6.251,7.74,7.74,0,0,1-1.236,7.826,14.632,14.632,0,0,0-.569,17.115,7.769,7.769,0,0,1-.5,9.581,6.7,6.7,0,0,0-.971,7.582,7.1,7.1,0,0,1,.521,1.241,2.188,2.188,0,0,1-1.591,1.871" transform="translate(-159.293 -30.457)" fill="#6e6f80"/>
    <path id="Trazado_219938" data-name="Trazado 219938" d="M488.785,297.838a3.593,3.593,0,0,1-1.412-1.983,3.98,3.98,0,0,1-.157-1.574c.02-18.831-.088-37.661-.05-56.491,0-.49-.014-.981.034-1.469a2.376,2.376,0,0,1,2.313-2.385,2.416,2.416,0,0,1,2.513,2.2,23.472,23.472,0,0,1,.063,4.037q.085,13.231,0,26.462c.058,2.258.016,4.517.019,6.776a2.134,2.134,0,0,1-.356,1.379q.009.853.018,1.705a21.677,21.677,0,0,1,.352,4.741c-.013,4.037,0,8.073,0,12.11a3.832,3.832,0,0,1-.362,2.019,2.8,2.8,0,0,1-1.506,2.476Z" transform="translate(-327.66 -157.343)" fill="#42434d"/>
    <path id="Trazado_219939" data-name="Trazado 219939" d="M339.993,119.427q-.021-1.717-.041-3.434c-.021-1.61-.837-2.558-2.17-2.525-1.364.034-2,.817-2,2.5q.008,28.839.01,57.678c0,.47.18.985-.194,1.412l-.033.055-.062-.016a2.142,2.142,0,0,1-.213-.378,6.793,6.793,0,0,1-.106-1.826c0-7.141-.039-14.283.027-21.423a2.965,2.965,0,0,0-1.747-3.029,22.518,22.518,0,0,0-3.256-1.386c-3.216-1.042-6.385-2.222-9.59-3.292a11.618,11.618,0,0,1-3.317-1.532,16.142,16.142,0,0,1-2.057-1.356,14.336,14.336,0,0,1-5.057-8.4,6.086,6.086,0,0,1-.057-3,1.878,1.878,0,0,1,.955-.725c8.354-4.228,13.353-10.924,14.708-20.238a30.752,30.752,0,0,0,.357-4.516c-.014-4.457-.034-8.915.009-13.372a3.4,3.4,0,0,0-2.315-3.7,16.293,16.293,0,0,1-7.932-7.022c-1.177-1.956-2.087-2.188-3.976-.911a55.1,55.1,0,0,1-23.365,8.907,68.433,68.433,0,0,1-10.375.377,14.206,14.206,0,0,1-1.587-.088c-1.652-.176-2.451.52-2.458,2.214-.022,5.108.023,10.217-.021,15.324a22.848,22.848,0,0,0,1.246,7.579,26.117,26.117,0,0,0,13.392,15.375c.5.254,1.1.37,1.391.937a10.594,10.594,0,0,1-.324,3.371,14.585,14.585,0,0,1-4.873,7.831,13.02,13.02,0,0,1-2.23,1.436c-1.023.463-2,1.035-3.062,1.4-3.933,1.34-7.891,2.61-11.771,4.1a11.461,11.461,0,0,0-3.5,2.2c-.318.284-.585.718-1.13.561a7.3,7.3,0,0,1,.52-9.441,7.111,7.111,0,0,0,.566-8.372,15.063,15.063,0,0,1,.46-18.231,7.056,7.056,0,0,0,1.055-7.128,14.6,14.6,0,0,1,.857-12.834,16.734,16.734,0,0,1,4.748-5.028,6.252,6.252,0,0,0,2.4-6.583,14.79,14.79,0,0,1,.663-10.03,13.819,13.819,0,0,1,10.9-8.445c3.02-.479,5.616-1.406,7.665-3.767a18.381,18.381,0,0,1,3.464-3.268,3.125,3.125,0,0,0,1.2-3.068c.494.414.963.865,1.488,1.236a6.689,6.689,0,0,0,7.164.589c4.861-2.307,9.106-.2,10.241,5.084a9.847,9.847,0,0,0,9.309,7.813,27.651,27.651,0,0,1,3.048.218A6.429,6.429,0,0,1,334.355,77c-.8,3.455.252,6.011,3.107,8.069a14.3,14.3,0,0,1,5.319,15.563c-.216.787-.435,1.574-.687,2.349a6.409,6.409,0,0,0,1.1,6.236,15.407,15.407,0,0,1,3.349,10.858c-.092.08-.184.2-.3.185-2.082-.283-4.231-.06-6.247-.833" transform="translate(-175.889 -36.545)" fill="#585966"/>
    <path id="Trazado_219940" data-name="Trazado 219940" d="M501.2,307.33q0-4.068,0-8.137c.215-.513.7-.489,1.133-.572,8.1-1.544,13.611-6.255,16.824-13.784.16-.375.291-.764.466-1.132a2.054,2.054,0,0,1,2.88-1.2c1.183.8,2.348,1.619,3.553,2.38a35.99,35.99,0,0,0,8.611,4.017,4.336,4.336,0,0,1,3.422,3.99c.147,2.051-.99,3.418-2.781,4.353a28.444,28.444,0,0,1-9.833,2.687c-7.491.934-14.917,2.087-21.623,5.9q-1.325.753-2.654,1.5" transform="translate(-337.107 -189.887)" fill="#e0f6be"/>
    <path id="Trazado_219941" data-name="Trazado 219941" d="M522.513,262.885c-1.53-.159-2.343.522-2.892,1.991a22.368,22.368,0,0,1-10.557,12.2,20.375,20.375,0,0,1-6.916,2.269c-.317.044-.626.148-.938.225q0-13.212.006-26.425a41.029,41.029,0,0,1,6.552.647c5.911,1.408,10.26,5.361,14.746,9.089" transform="translate(-337.112 -170.267)" fill="#f2fbe3"/>
    <path id="Trazado_219942" data-name="Trazado 219942" d="M501.217,382.79q.007-9.435.013-18.87a8.194,8.194,0,0,1,.912,3.739c.055,4.39.036,8.781.051,13.172a2.04,2.04,0,0,1-.977,1.959" transform="translate(-337.116 -244.771)" fill="#80a9fe"/>
    <path id="Trazado_219943" data-name="Trazado 219943" d="M258.307,333.546a17.1,17.1,0,0,1,7.167-4.032c3.1-.966,6.1-2.241,9.239-3.074.652,2.088,2.158,3.659,3.283,5.461.284.455.783.882.4,1.527a31.151,31.151,0,0,1-5.487,2,16.3,16.3,0,0,0-5.632,3.094,13.352,13.352,0,0,0-4.7,9.734c-.1,2.279.02,4.566-.038,6.849-.032,1.277-.34,2.444-1.791,2.863-1.633-.053-3.269.109-4.9-.091a2.061,2.061,0,0,1-1.716-2.31c.018-4.251-.048-8.5.028-12.753a14.013,14.013,0,0,1,2.653-7.5l1.486-1.765" transform="translate(-170.927 -219.562)" fill="#85b638"/>
    <path id="Trazado_219944" data-name="Trazado 219944" d="M394.984,410.819l-.047.236-40.262-.019c-1.591,0-3.182-.009-4.772-.014a.27.27,0,0,1,.117-.381,1.378,1.378,0,0,1,.659-.182c6.4-.129,12.8-.022,19.195-.059,3.255-.019,2.864.275,2.917-2.874a3.743,3.743,0,0,1,.345-2.373c.676.024.578.585.632.984a15.724,15.724,0,0,1,.041,2.075c.006,2.18,0,2.183,2.126,2.184q6.16,0,12.32,0c1.708,0,3.415-.008,5.123,0a2.131,2.131,0,0,1,1.608.416" transform="translate(-235.319 -272.505)" fill="#ccd7ee"/>
    <path id="Trazado_219945" data-name="Trazado 219945" d="M289.055,421.547c0,.075,0,.149,0,.223q-14.309.012-28.618.021c-.356,0-.743.092-1.036-.224l5.155-.035a2.64,2.64,0,0,1,1.39-.385c6.293.008,12.585-.05,18.878.028,1-.048,2-.034,3.006-.012a1.547,1.547,0,0,1,1.224.384" transform="translate(-174.473 -283.253)" fill="#d7e1f3"/>
    <path id="Trazado_219946" data-name="Trazado 219946" d="M312.56,136.407A57.47,57.47,0,0,0,328.207,135a53.235,53.235,0,0,0,17.921-7.89c1.943-1.346,3.376-.918,4.388.947a15.953,15.953,0,0,0,8.438,7.306,2.435,2.435,0,0,1,1.784,2.372c-.04,6.335.538,12.712-.26,19-1.259,9.921-6.678,16.985-15.811,21.125a1.992,1.992,0,0,1-1.038.809,26.153,26.153,0,0,1-17.249.413,1.271,1.271,0,0,1-.884-.593c.166-.525.638-.427,1.016-.473a3.851,3.851,0,0,0,3.391-2.929,3.354,3.354,0,0,0-1.348-3.893,45.418,45.418,0,0,1-5.287-4.348,26.444,26.444,0,0,1-7.405-16.288c-.278-3.108-.19-6.207-.175-9.308.01-2.082-.689-3.565-2.673-4.34-.223-.087-.462-.189-.453-.5" transform="translate(-210.227 -84.966)" fill="#dfb6a2"/>
    <path id="Trazado_219947" data-name="Trazado 219947" d="M427.564,357.87c-6.748-.009-13.5-.042-20.243,0-1.063.006-1.392-.257-1.379-1.353a12.788,12.788,0,0,0-.178-4.341c-.287-.2-.325-.539-.426-.837a3.6,3.6,0,0,0-3.009-2.583c-1.214-.3-2.474.035-3.686-.267-.717-.561-.1-1.032.157-1.451,1.2-1.947,2.565-3.79,3.86-5.677q4.335-6.317,8.7-12.612a5.128,5.128,0,0,0,1.014-2.316c3,.753,5.842,1.977,8.778,2.919a19.76,19.76,0,0,1,5.757,2.6,1.348,1.348,0,0,1,.709,1.175q-.042,12.371-.057,24.741" transform="translate(-267.9 -219.556)" fill="#a7e446"/>
    <path id="Trazado_219948" data-name="Trazado 219948" d="M303.382,156.738c2.683.821,3.549,2.467,3.464,4.974a66.93,66.93,0,0,0,.21,9.9,25.924,25.924,0,0,0,5.37,13.165,27.147,27.147,0,0,0,6.741,6.128,3.92,3.92,0,0,1,2.072,3.77,4.521,4.521,0,0,1-2.718,3.781,6.027,6.027,0,0,1-2.166.225c-.491.306-.851.047-1.2-.278a27.358,27.358,0,0,1-11.528-9.382,24.873,24.873,0,0,1-4.659-13.83c-.088-5.4-.051-10.8-.041-16.2a2.2,2.2,0,0,1,2.747-2.406c.566.069,1.137.1,1.705.155" transform="translate(-201.048 -105.297)" fill="#f1d0c1"/>
    <path id="Trazado_219949" data-name="Trazado 219949" d="M332.625,301.547a15.371,15.371,0,0,0,4.733-7.569c.177-.368.448-.338.682-.1,1.623,1.621,3.806,1.762,5.857,2.139a25.912,25.912,0,0,0,11.242-.683,10.019,10.019,0,0,0,3.2-1.813,14.92,14.92,0,0,0,4.9,8.056,8.752,8.752,0,0,1-2.934,3.186,19.335,19.335,0,0,1-22.69,1.5,32.676,32.676,0,0,1-4.216-3.4,1.919,1.919,0,0,1-.776-1.311" transform="translate(-223.722 -197.418)" fill="#dfb6a2"/>
    <path id="Trazado_219950" data-name="Trazado 219950" d="M343.071,322.506a24.624,24.624,0,0,0,6.2,2.48c6.56,1.354,12.291-.367,17.294-4.723.766-.667,1.454-1.423,2.178-2.138l1.982,1.247a.5.5,0,0,1-.123.554c-3.255,4.279-6.142,8.818-9.229,13.216-2.082,2.966-4.1,5.977-6.192,8.936a2.024,2.024,0,0,1-.736.8,3.609,3.609,0,0,1-1.887.037c-1.1-.6-1.573-1.743-2.236-2.694-3.036-4.35-6.018-8.736-9.045-13.093-.244-.352-.62-.684-.413-1.2a1.981,1.981,0,0,1,.735-.381,1.889,1.889,0,0,0,1.349-2.128c-.03-.309-.142-.636.123-.907" transform="translate(-229.223 -213.97)" fill="#a7e446"/>
    <path id="Trazado_219951" data-name="Trazado 219951" d="M324.831,328.581q5.61,8.172,11.22,16.345c.069.1.128.208.191.312-.639.613-1.444.374-2.185.4a13.05,13.05,0,0,1-2.531-.07,2.307,2.307,0,0,1-1.374-1.13c-2.988-4.456-6.112-8.819-9.088-13.283a1.416,1.416,0,0,1-.384-.873,53.463,53.463,0,0,0-3.16-4.709,2.774,2.774,0,0,1-.6-2.132l2.99-1.462a2.949,2.949,0,0,1,1.652,1.365c.85,1.394,1.88,2.666,2.761,4.04.235.367.594.693.509,1.2" transform="translate(-213.133 -216.559)" fill="#6e6f80"/>
    <path id="Trazado_219952" data-name="Trazado 219952" d="M382.84,345.227c1.483-2.586,3.31-4.942,4.976-7.405,3.134-4.634,6.332-9.224,9.522-13.82.5-.725,1.1-1.381,1.66-2.068a13.236,13.236,0,0,0,2.975,1.472c.475.8-.009,1.382-.427,1.989q-6.5,9.444-13,18.891c-.207.3-.389.618-.583.928a6.858,6.858,0,0,1-5.129.013" transform="translate(-257.497 -216.531)" fill="#6e6f80"/>
    <path id="Trazado_219953" data-name="Trazado 219953" d="M368.063,286.927a3.6,3.6,0,0,1-2.6,1.971,26.513,26.513,0,0,1-16.389-.219,3.217,3.217,0,0,1-1.349-1c-.182-.2-.263-.548-.64-.295q.237-1.728.474-3.456l1.2.278a18.118,18.118,0,0,0,5.484,1.427,25.6,25.6,0,0,0,12.413-1.41c.418-.153.825-.337,1.237-.507a13.4,13.4,0,0,0,.178,3.208" transform="translate(-233.445 -190.828)" fill="#c69983"/>
    <path id="Trazado_219954" data-name="Trazado 219954" d="M331.051,325.937q-1.433-2.053-2.865-4.106a10.252,10.252,0,0,0-2.056-2.5l2.127-1.287c1.373,1.779,3.254,2.987,4.945,4.408.534,2.229,0,3.089-2.15,3.485" transform="translate(-219.353 -213.915)" fill="#85b638"/>
    <path id="Trazado_219955" data-name="Trazado 219955" d="M292.61,347.336c2.323,2.977,4.309,6.192,6.493,9.268,1.339,1.886,2.631,3.806,3.944,5.712-.457.473-1.056.346-1.611.365a12.35,12.35,0,0,0-2.672.181,3.869,3.869,0,0,0-2.92,3.632c-.042,1.3,0,2.61-.017,3.914-.007.523.061,1.075-.391,1.485l-20.288,0a4.5,4.5,0,0,0,1.244-3.663c.022-2.806-.382-5.649.3-8.411a14.07,14.07,0,0,1,8.977-10.2c2.265-.891,4.628-1.535,6.946-2.291" transform="translate(-185.063 -233.617)" fill="#a7e446"/>
    <path id="Trazado_219956" data-name="Trazado 219956" d="M371.043,393.869a3.72,3.72,0,0,1,3.2,3.664c0,1.509-.062,3.02.007,4.526.043.941-.3,1.164-1.193,1.16-7.205-.033-14.41-.021-21.616-.022a17.68,17.68,0,0,1,.35-3.146,4.583,4.583,0,0,1,4.866-4.07c3.669-.041,7.338-.009,11.008-.012.408,0,.816,0,1.223,0,2.034-.013,2.128-.105,2.16-2.1" transform="translate(-236.375 -264.915)" fill="#cae2f9"/>
    <path id="Trazado_219957" data-name="Trazado 219957" d="M361.41,393.3a1.537,1.537,0,0,1,.325,1.79c-.381.707-1.042.672-1.7.672-4.187,0-8.374.054-12.559-.018-3.442-.059-5.014,1.831-5.16,5.07a2.478,2.478,0,0,1-.513,1.813l-.48.012-4.209-.018c0-1.746,0-3.493.019-5.239a4.214,4.214,0,0,1,4.189-4.3c1.133-.047,2.269-.025,3.4-.034l5.125-.02,2.234.017,5.128-.013c1.391.211,2.824-.235,4.2.272" transform="translate(-226.742 -264.348)" fill="#edf6fe"/>
    <path id="Trazado_219958" data-name="Trazado 219958" d="M357.251,186.666c0,.613.03,1.227-.008,1.837a2.227,2.227,0,0,1-1.894,2.085,2.015,2.015,0,0,1-2.295-1.573,11.667,11.667,0,0,1-.009-4.847,2.054,2.054,0,0,1,2.263-1.642,2.254,2.254,0,0,1,1.939,2.18c.03.652.005,1.307,0,1.96" transform="translate(-237.288 -122.758)" fill="#585966"/>
    <path id="Trazado_219959" data-name="Trazado 219959" d="M396.021,182.528a2.193,2.193,0,0,1,2.1,2.1c.028.65,0,1.3,0,1.954s.025,1.3-.006,1.955a2.084,2.084,0,0,1-2.117,2.065,1.97,1.97,0,0,1-2.074-1.95c-.066-1.381-.062-2.77,0-4.151" transform="translate(-264.925 -122.768)" fill="#585966"/>
    <path id="Trazado_219960" data-name="Trazado 219960" d="M431.476,41.451a7.942,7.942,0,0,1,.673-4.009c.366-1.05.2-1.464-.921-1.728-7.305-1.72-12.292-6.88-13.207-14.283S418.5,7.375,426.05,2.548A13.981,13.981,0,0,1,433.2.222c5.455-.143,10.934-.51,16.369.2,7.6,1,13.635,7.841,14.03,15.538.252,4.918-.259,9.6-3.466,13.6-3.158,3.942-7.228,6.581-12.3,6.389-5.509-.21-10.439.579-14.566,4.5a9.065,9.065,0,0,1-1.8,1" transform="translate(-280.993 0)" fill="#a7e446"/>
    <path id="Trazado_219961" data-name="Trazado 219961" d="M462.418,51.648a2.524,2.524,0,0,1-2.562,2.556,2.61,2.61,0,1,1,2.562-2.556" transform="translate(-307.57 -32.949)" fill="#fdfdfe"/>
    <path id="Trazado_219962" data-name="Trazado 219962" d="M486.02,56.739a1.562,1.562,0,0,1,1.7-1.642,1.707,1.707,0,1,1-.079,3.412c-1.081-.023-1.584-.69-1.622-1.769" transform="translate(-326.895 -37.058)" fill="#fbfdfe"/>
    <path id="Trazado_219963" data-name="Trazado 219963" d="M510.628,51.864c.915-.03,1.337.407,1.385,1.085a1.141,1.141,0,0,1-1.187,1.314,1.206,1.206,0,0,1-.2-2.4" transform="translate(-342.753 -34.883)" fill="#f5fafe"/>
  </g>
</svg>
