<svg id="Grupo_146876" data-name="Grupo 146876" xmlns="http://www.w3.org/2000/svg" xmlns:xlink="http://www.w3.org/1999/xlink" width="49.949" height="80.5" viewBox="0 0 49.949 80.5">
  <defs>
    <clipPath id="clip-path">
      <rect id="Rectángulo_89068" data-name="Rectángulo 89068" width="49.949" height="80.5" fill="none"/>
    </clipPath>
  </defs>
  <g id="Grupo_146876-2" data-name="Grupo 146876" clip-path="url(#clip-path)">
    <path id="Trazado_220037" data-name="Trazado 220037" d="M9.264,6.283c-.52-.977-.435-1.4.446-2.06A21.673,21.673,0,0,1,20.053.305,5.417,5.417,0,0,0,21.846,0h.629c.087.1.2.077.315.081S23.017.1,23.1,0h.629a1.2,1.2,0,0,0,.943,0h1.887c.1.109.235.073.358.081h.384c.124-.008.257.028.358-.081h.472a15.835,15.835,0,0,0,2.878.462c4.152.747,7.956,2.2,10.978,5.285a17,17,0,0,1,4.537,9.545,36.66,36.66,0,0,1-.7,13.337,2.048,2.048,0,0,0,.153,1.347,6.11,6.11,0,0,1-5.123,8.565c-.377.027-.657.038-.831.5A15.978,15.978,0,0,1,33.452,47.1c-.063.04-.118.094-.271.218a27.949,27.949,0,0,1,3.46.849A19.57,19.57,0,0,1,49.935,66.523c.026,1.074-.006,2.149.013,3.223a1.406,1.406,0,0,1-.9,1.494c-1.014.245-1.552-.125-1.623-1.172-.066-.965,0-1.935-.026-2.9a17.337,17.337,0,0,0-4.087-11.425,3.472,3.472,0,0,0-.939-.88c-.023,7.262.006,14.414-.015,21.565.064,1.39-.285,1.5,1.507,1.479.858-.008,1.716,0,2.574,0,.887-.007.925-.056.96-.913.033-.831-.019-1.664.046-2.5.237-.578.514-1.1,1.291-.921.974.3,1.2.578,1.209,1.55q.014,1.925,0,3.851c-.009,1.115-.416,1.524-1.515,1.524q-23.458,0-46.917,0c-.987,0-1.47-.4-1.464-1.33.033-4.714-.178-9.433.1-14.142A19.489,19.489,0,0,1,15.3,47.635c.478-.1.955-.2,1.547-.322A15.572,15.572,0,0,1,10.5,40.291,2.847,2.847,0,0,0,8.161,38.33a5.985,5.985,0,0,1-4.147-8.389,1.92,1.92,0,0,0,.144-1.273A38.24,38.24,0,0,1,3.3,16.345,19,19,0,0,1,5.844,8.5a1.189,1.189,0,0,1,1.7-.6c.761.277.99.857.607,1.686-.373.806-.831,1.569-1.165,2.4a18.787,18.787,0,0,0-1.259,6.05,34.317,34.317,0,0,0,.552,7.975c.158.868.162.869,1,.527a2.725,2.725,0,0,1,.823-.253,2.335,2.335,0,0,0,2.03-1.572A23.756,23.756,0,0,0,12.39,17.8c.032-.207.073-.413.123-.617a1.466,1.466,0,0,1,2.024-1.266c1.712.386,3.424.762,5.155,1.058a33.35,33.35,0,0,0,12.869-.423c.946-.207,1.9-.4,2.84-.622,1.22-.291,1.847.106,2.083,1.358a30.359,30.359,0,0,0,1.126,4.571,29.712,29.712,0,0,0,1.625,3.573,1.127,1.127,0,0,0,.746.647,14.31,14.31,0,0,1,2.113.6c.468.19.51-.184.574-.5a32.09,32.09,0,0,0,.553-4.361,24.638,24.638,0,0,0-.732-8.333A13.643,13.643,0,0,0,33.838,3.8a30.251,30.251,0,0,0-11.5-1.118,27.287,27.287,0,0,0-6.983,1.4A16.842,16.842,0,0,0,11.093,6.4c-.8.569-1.275.517-1.829-.117" transform="translate(0 0.001)"/>
    <path id="Trazado_220038" data-name="Trazado 220038" d="M113.892,0a.711.711,0,0,1-.943,0Z" transform="translate(-89.216)" fill="#101010"/>
    <path id="Trazado_220039" data-name="Trazado 220039" d="M128.178.135l-.466,0c-.06-.024-.081-.051-.066-.082s.034-.05.052-.05h.472c.049.028.067.057.053.088s-.03.048-.045.048" transform="translate(-100.822 0.001)" fill="#606060"/>
    <path id="Trazado_220040" data-name="Trazado 220040" d="M130.165.135A.773.773,0,0,1,130.157,0h.315c-.037.192-.178.152-.307.136" transform="translate(-102.808 0.001)" fill="#828282"/>
    <path id="Trazado_220041" data-name="Trazado 220041" d="M126.732,0q0,.067.013.132A.266.266,0,0,1,126.417,0Z" transform="translate(-99.854)" fill="#3c3c3c"/>
    <path id="Trazado_220042" data-name="Trazado 220042" d="M108.56,0c-.062.153-.186.156-.321.132q-.069-.047-.043-.09t.05-.042Z" transform="translate(-85.456)" fill="#565656"/>
    <path id="Trazado_220043" data-name="Trazado 220043" d="M107.278,0c0,.044,0,.088-.007.132-.13.019-.263.046-.308-.132Z" transform="translate(-84.488)" fill="#6d6d6d"/>
    <path id="Trazado_220044" data-name="Trazado 220044" d="M29.825,15.046a1.438,1.438,0,0,0,1.857-.155,18.358,18.358,0,0,1,8.907-3.43,32.983,32.983,0,0,1,12.32.461c4.352,1.04,7.957,3.175,10.153,7.248a18.01,18.01,0,0,1,1.96,7.533,37.177,37.177,0,0,1-.618,8.671c-.072.422-.15.686-.681.371a4.545,4.545,0,0,0-2.013-.608,1.3,1.3,0,0,1-1.114-.82A24.731,24.731,0,0,1,57.832,26.1c-.177-1.191-.659-1.483-1.86-1.192a40.827,40.827,0,0,1-12.184,1.459,50.472,50.472,0,0,1-8.648-1.457c-1.238-.3-1.685-.021-1.879,1.257a24.766,24.766,0,0,1-2.787,8.2,1.18,1.18,0,0,1-.992.743,4.893,4.893,0,0,0-2.155.672c-.441.27-.552.026-.611-.328-.738-4.44-1.124-8.878.124-13.3a16.449,16.449,0,0,1,1.611-3.737c.444-.773.339-1.182-.341-1.754.754-.349,1.028-1.205,1.716-1.624" transform="translate(-20.56 -8.763)" fill="#12263f"/>
    <path id="Trazado_220045" data-name="Trazado 220045" d="M206.929,276.922a1.56,1.56,0,0,0-1.117.8,7.206,7.206,0,0,0-.06,1.638c-.008.294-.07.562-.389.577a20.838,20.838,0,0,1-4.915-.083c-.046-.009-.085-.059-.127-.091-.014-.286-.04-.572-.04-.859q0-10.2,0-20.405v-1.054c.547.577.987,1,1.38,1.463a17.119,17.119,0,0,1,4.117,11.313c.005.968-.007,1.936,0,2.9.011,1.088.351,1.421,1.462,1.466-.5.352-.27.879-.308,1.337-.028.329,0,.663,0,1" transform="translate(-158.196 -203.348)" fill="#edf2fa"/>
    <path id="Trazado_220046" data-name="Trazado 220046" d="M54.864,109.144a11.032,11.032,0,0,1-1.068-4.7c-.048-1.885-.007-3.771-.025-5.657a1.725,1.725,0,0,1,.3-.944,25.094,25.094,0,0,0,3.141-8.067c.112-.56.263-.654.812-.525a38.887,38.887,0,0,0,11.517,1.164A44.746,44.746,0,0,0,76.9,89.254c.549-.131.7-.034.812.526a24.6,24.6,0,0,0,3.108,7.994,2.159,2.159,0,0,1,.334,1.251,63.767,63.767,0,0,1-.17,6.982,9.367,9.367,0,0,1-.921,3.135,13.634,13.634,0,0,1-9.22,6.6A14.584,14.584,0,0,1,57.888,112.7a12.538,12.538,0,0,1-3.024-3.555" transform="translate(-42.473 -70.459)" fill="#f0cba6"/>
    <path id="Trazado_220047" data-name="Trazado 220047" d="M43.475,254.681c-.148-.6-.644-.78-1.142-.961a2.765,2.765,0,0,1-.016-2.308,1.182,1.182,0,0,0,1.161-1.379c-.014-2.017.011-4.035-.015-6.052a1.034,1.034,0,0,1,.6-1.077c.658-.322,1.314-.649,1.963-.989.381-.2.534-.132.608.32a22.133,22.133,0,0,0,3.509,8.246c.629.99.918,1.091,1.985.657a.413.413,0,0,1,.55.1,28.046,28.046,0,0,0,4.108,3.985.712.712,0,0,1,.219.639q-.013,5.777-.023,11.553a1.511,1.511,0,0,1-1.046.249q-5.659.007-11.317,0c-1.046,0-1.093-.069-1.093-1.119q0-5.5,0-11a2.654,2.654,0,0,0-.048-.858" transform="translate(-33.232 -190.998)" fill="#a7e446"/>
    <path id="Trazado_220048" data-name="Trazado 220048" d="M124.746,267.485q-.011-5.764-.026-11.529a.846.846,0,0,1,.322-.75,24.847,24.847,0,0,0,3.821-3.7c.263-.313.476-.464.912-.2a1.082,1.082,0,0,0,1.57-.391,22.864,22.864,0,0,0,3.64-8.09c.211-1.1.205-1.111,1.229-.6a10.03,10.03,0,0,1,1.905,1.079,1.334,1.334,0,0,1,.079.767q.007,11.313,0,22.625c0,.945-.065,1.033-1.02,1.038-3.823.016-7.646.01-11.47,0a1.4,1.4,0,0,1-.967-.25" transform="translate(-98.513 -191.069)" fill="#a7e446"/>
    <path id="Trazado_220049" data-name="Trazado 220049" d="M18.191,263.722l.016,2.308c-.972.312-1.2.608-1.2,1.629q-.006,5.6,0,11.2c0,.286-.026.572-.04.857a.735.735,0,0,1-.417.205,41,41,0,0,1-4.471.007.493.493,0,0,1-.539-.538c.036-3.426-.074-6.853.059-10.278A16.864,16.864,0,0,1,17,257.392c0,1.765-.009,3.321,0,4.875.007.942.278,1.256,1.183,1.454" transform="translate(-9.106 -203.308)" fill="#edf2fa"/>
    <path id="Trazado_220050" data-name="Trazado 220050" d="M131.965,235.358c.854.117,1.705.256,2.562.345.507.053.651.264.574.764a16.644,16.644,0,0,1-1.843,5.294c-.905,1.7-.9,1.7-2.466.615-.943-.657-1.881-1.321-2.842-1.951-.373-.245-.4-.412-.112-.768.948-1.182,1.866-2.389,2.773-3.6.348-.465.682-.88,1.353-.7" transform="translate(-100.824 -185.869)" fill="#edf2fa"/>
    <path id="Trazado_220051" data-name="Trazado 220051" d="M77.823,235.464a1.258,1.258,0,0,1,1.311.632c.918,1.271,1.884,2.508,2.86,3.736.248.312.205.445-.1.653q-2.046,1.382-4.062,2.808c-.291.206-.418.156-.588-.132a19.527,19.527,0,0,1-2.529-6.285c-.13-.686-.035-1.077.782-1.113.78-.035,1.554-.2,2.33-.3" transform="translate(-58.974 -185.974)" fill="#edf2fa"/>
    <path id="Trazado_220052" data-name="Trazado 220052" d="M58.97,184.1c.818.8,1.37,1.817,2.22,2.594a15,15,0,0,0,21.534-.779,18.8,18.8,0,0,1,1.445-1.815,13.045,13.045,0,0,1-7.006,7.263,13.657,13.657,0,0,1-18.047-6.822,4.567,4.567,0,0,1-.146-.441" transform="translate(-46.579 -145.419)" fill="#e7c09b"/>
    <path id="Trazado_220053" data-name="Trazado 220053" d="M124.788,272.763c4.165,0,8.33-.016,12.495.01.661,0,.9-.128.9-.855-.028-7.78-.019-15.56-.02-23.339.25.2.141.488.141.734,0,8.119-.007,16.238.012,24.358,0,.651-.172.837-.828.832-3.9-.03-7.805-.015-11.707-.015-1.008,0-1.009,0-1.006-1.019,0-.236.01-.471.015-.707" transform="translate(-98.555 -196.347)" fill="#85b638"/>
    <path id="Trazado_220054" data-name="Trazado 220054" d="M48.673,303.075c.219.249.125.551.126.829.006,3.69.018,7.381-.009,11.071,0,.642.162.848.827.844,4.188-.028,8.375-.012,12.563-.011.054,1.726.054,1.726-1.7,1.726-3.689,0-7.378-.006-11.068.007-.479,0-.766-.032-.763-.651.026-4.6.017-9.209.019-13.814" transform="translate(-38.431 -239.392)" fill="#85b638"/>
    <path id="Trazado_220055" data-name="Trazado 220055" d="M105,272.96c-.152-.109-.3-.2-.44-.318a32.651,32.651,0,0,1-3.072-3.02c-.256-.282-.26-.432.077-.655q1.568-1.037,3.091-2.14a.555.555,0,0,1,.759.032c1,.709,2.016,1.4,3.022,2.1.177.124.472.217.2.523a29.2,29.2,0,0,1-3.35,3.292,2.916,2.916,0,0,1-.289.181" transform="translate(-80.016 -210.654)" fill="#fc4b52"/>
    <path id="Trazado_220056" data-name="Trazado 220056" d="M195.293,142.814c0-1.778,0-3.556-.011-5.334,0-.328-.006-.552.457-.431a3.721,3.721,0,0,1,2.561,4.206,3.424,3.424,0,0,1-3.007,1.559" transform="translate(-154.249 -108.226)" fill="#e2b68d"/>
    <path id="Trazado_220057" data-name="Trazado 220057" d="M27.976,139.93a3.561,3.561,0,0,1,2.473-2.862c.444-.174.533-.024.529.4-.019,1.776-.013,3.552-.015,5.328a3.274,3.274,0,0,1-2.821-1.308c-.4-.456-.232-1.024-.165-1.558" transform="translate(-22.026 -108.211)" fill="#e2b68d"/>
    <path id="Trazado_220058" data-name="Trazado 220058" d="M11.492,313.187c.008,3.248.037,6.5.007,9.745-.007.7.186.9.88.875,1.492-.052,2.986-.016,4.48-.016.144,1.729.144,1.729-1.529,1.729-1.125,0-2.25,0-3.375,0-.294,0-.56.044-.558-.415.024-3.924.029-7.849.042-11.774a.468.468,0,0,1,.054-.146" transform="translate(-9.001 -247.379)" fill="#e1ebf8"/>
    <path id="Trazado_220059" data-name="Trazado 220059" d="M200.228,355.98c1.513,0,3.027-.033,4.538.015.674.022.859-.215.82-.848-.024-.4-.156-.834.132-1.208-.012,1.071-.045,2.142-.025,3.212.008.446-.125.578-.571.569-1.41-.027-2.823-.044-4.231.006-.6.022-.8-.154-.71-.732a9.724,9.724,0,0,0,.047-1.013" transform="translate(-158.103 -279.568)" fill="#e1ebf8"/>
    <path id="Trazado_220060" data-name="Trazado 220060" d="M112.6,235.875c-.746.969-1.426,1.844-2.1,2.727-.154.2-.259.2-.413,0-.669-.884-1.348-1.76-2.091-2.727Z" transform="translate(-85.307 -186.312)" fill="#e1b68d"/>
    <path id="Trazado_220061" data-name="Trazado 220061" d="M27.913,150.956c.058,1.5.5,2.055,2.031,2.568.316.106.636.2.955.3.024.154.055.306.071.461.036.355.289.85.031,1.03-.334.233-.781-.1-1.141-.276a3.641,3.641,0,0,1-1.947-4.081" transform="translate(-21.962 -119.237)" fill="#d9aa81"/>
    <path id="Trazado_220062" data-name="Trazado 220062" d="M194.632,158.75a6.858,6.858,0,0,0,3.007-1.559,3.666,3.666,0,0,1-2.67,3.055c-.433.121-.586.046-.5-.411.066-.359.111-.723.166-1.085" transform="translate(-153.587 -124.162)" fill="#d9aa81"/>
    <path id="Trazado_220063" data-name="Trazado 220063" d="M144.43,305.523a2.767,2.767,0,0,1-1.841-3c.037-1.064-.066-2.138.738-3a3.056,3.056,0,0,1,2.107-.673c1.1.034,2.2-.008,3.295.014a2.388,2.388,0,0,1,2.516,2.51c.017.627.024,1.257-.012,1.882a2.33,2.33,0,0,1-2.332,2.279c-1.489.031-2.98,0-4.47-.012" transform="translate(-112.625 -236.053)"/>
    <path id="Trazado_220064" data-name="Trazado 220064" d="M155.773,311.99c-.313,0-.626,0-.939,0-1.171-.017-.974.16-1.05-1.044-.047-.75.161-1.02.934-.948a18.058,18.058,0,0,0,2.346.007c.474-.018.689.075.684.627-.013,1.358.018,1.358-1.349,1.358Z" transform="translate(-121.466 -244.851)" fill="#fdcf63"/>
  </g>
</svg>
