<svg xmlns="http://www.w3.org/2000/svg" xmlns:xlink="http://www.w3.org/1999/xlink" width="190" height="104" viewBox="0 0 190 104">
  <defs>
    <clipPath id="clip-path">
      <rect id="Rect치ngulo_89058" data-name="Rect치ngulo 89058" width="59.635" height="69" fill="none"/>
    </clipPath>
  </defs>
  <g id="Grupo_146850" data-name="Grupo 146850" transform="translate(-285.049 -411)">
    <rect id="Rect치ngulo_41122" data-name="Rect치ngulo 41122" width="190" height="104" transform="translate(285.049 411)" fill="none"/>
    <g id="Grupo_117447" data-name="Grupo 117447" transform="translate(-3337.23 1038.208)" opacity="0.3">
      <path id="Trazado_158283" data-name="Trazado 158283" d="M3677.784-530.075h0a16.354,16.354,0,0,0,23.129,0l67.216-67.214a16.357,16.357,0,0,0,0-23.129,16.355,16.355,0,0,0-23.129,0L3677.784-553.2A16.353,16.353,0,0,0,3677.784-530.075Z" transform="translate(14.296)" fill="#fc4b52"/>
      <path id="Trazado_158284" data-name="Trazado 158284" d="M3652.069-530.075h0a16.354,16.354,0,0,0,23.129,0l67.216-67.214a16.358,16.358,0,0,0,0-23.129,16.355,16.355,0,0,0-23.129,0L3652.069-553.2A16.354,16.354,0,0,0,3652.069-530.075Z" transform="translate(0)" fill="#feca2e"/>
    </g>
    <g id="Grupo_146851" data-name="Grupo 146851" transform="translate(350.048 428)">
      <g id="Grupo_146851-2" data-name="Grupo 146851" clip-path="url(#clip-path)">
        <path id="Trazado_219771" data-name="Trazado 219771" d="M19.6,0h1.749A5.154,5.154,0,0,1,25.17,2.2a1.25,1.25,0,0,0,1.128.433c3.628,0,7.255-.012,10.883,0a8.32,8.32,0,0,1,4.611,1.226,1.2,1.2,0,0,1,.568,1.654,1.274,1.274,0,0,1-1.8.373,5.346,5.346,0,0,0-1.526-.618,10.442,10.442,0,0,0-2.266-.234c-3.674.012-7.348-.016-11.021.018A2.633,2.633,0,0,1,23.32,3.795,3.218,3.218,0,0,0,19.97,2.272a3.239,3.239,0,0,0-2.785,2.5A2.559,2.559,0,0,1,15.57,6.585a3.369,3.369,0,0,0-.622,5.943,3.079,3.079,0,0,1,1.488,3c-.035.469.007.943-.009,1.413-.015.446.147.684.62.651a3.633,3.633,0,0,1,.47,0c.48.029.691-.18.684-.673-.013-.987-.032-1.976.005-2.962a3.216,3.216,0,0,1,1.483-2.789,2.991,2.991,0,0,1,1.661-.45c1.411.005,2.823-.007,4.234,0a3.731,3.731,0,0,0,3.721-2.148,2.088,2.088,0,0,1,2.121-1.233c1.522.038,3.046.01,4.569.01a5.117,5.117,0,0,1,5.447,5.358c.026,1.369,0,2.738.008,4.107,0,.329-.056.708.433.771,1.342-.025,1.322.136,1.32-1.314,0-1.655-.005-3.31,0-4.965a10.882,10.882,0,0,0-.17-2.135c-.18-.927.079-1.319.969-1.6a1.155,1.155,0,0,1,1.285.84,5.092,5.092,0,0,1,.326,1.847c0,1.033.018,2.066-.007,3.1-.013.556.207.756.753.743,1.052-.025,2.106-.008,3.159-.007,2.7,0,4.329,1.483,4.411,4.175.083,2.737.071,5.479,0,8.216a3.9,3.9,0,0,1-2.455,3.839,3.814,3.814,0,0,1-2.1.264c-.756-.12-.789-.089-.8.7-.006.718,0,1.437,0,2.155,0,2.941.008,5.883-.006,8.824a2.2,2.2,0,0,0,.52,1.548,6.906,6.906,0,0,1,.866,1.36c1.766,3.407,3.466,6.847,5.205,10.268,1,1.96,2.009,3.912,2.988,5.881a7.78,7.78,0,0,0,.712,1.059,4.371,4.371,0,0,1-1.279,6.184A5.727,5.727,0,0,1,56.051,69h-1.48c-1.563-.067-2.488-1.215-3.53-2.133-1.665-1.466-3.343-2.92-4.982-4.416-.125-.114-.257-.314-.451-.213s-.118.32-.119.492c-.007,1.055,0,2.11,0,3.166-.009,1.527-.684,2.21-2.227,2.219-2.353.013-4.706,0-7.058,0H16.84a8.6,8.6,0,0,1-.94-.022,1.817,1.817,0,0,1-1.733-1.876c-.026-1.167,0-2.335-.012-3.5,0-.165.072-.391-.149-.467-.164-.056-.287.1-.4.2-.372.324-.727.665-1.122.964a1.2,1.2,0,0,1-1.546.085,1.251,1.251,0,0,1,.2-2.067c.9-.77,1.764-1.59,2.692-2.331.336-.268.508-.45-.035-.736a2.24,2.24,0,0,1-1.222-2.1c0-.4.019-.806-.018-1.272-.813.643-1.548,1.313-2.287,1.974-2.188,1.954-4.4,3.884-6.6,5.824a2.665,2.665,0,0,0-1.264,2.172,1.89,1.89,0,0,0,2.46,1.743,3.015,3.015,0,0,0,1.23-.8,11.374,11.374,0,0,1,1.063-.928c.7-.554.941-.564,1.739-.057.493.834.468,1.163-.212,1.83-.5.486-1.042.917-1.559,1.38A3.542,3.542,0,0,1,4.939,69H3.459A3.735,3.735,0,0,1,.364,66.536,4.163,4.163,0,0,1,.91,62.214a5.776,5.776,0,0,0,.628-.952C3.56,57.179,5.663,53.137,7.71,49.067a35.3,35.3,0,0,1,2.53-4.746,4.512,4.512,0,0,0,.853-2.866c-.047-3.367-.016-6.736-.018-10.1,0-.881-.012-.886-.853-.755A3.885,3.885,0,0,1,5.85,27.5a9.388,9.388,0,0,1-.158-1.74q.014-3.4,0-6.8a8.919,8.919,0,0,1,.138-1.607,3.869,3.869,0,0,1,3.7-3.235c.9-.032,1.793,0,2.689-.012A1,1,0,0,0,12.9,14a6.274,6.274,0,0,1-1.7-2.928A5.721,5.721,0,0,1,14.06,4.672,2.111,2.111,0,0,0,15.1,3.523,5.287,5.287,0,0,1,19.6,0" transform="translate(0.001)"/>
        <path id="Trazado_219772" data-name="Trazado 219772" d="M124.1,276.408c-2.846,0-5.693-.011-8.54.011-.475,0-.6-.135-.6-.6.024-2.223.015-4.446.005-6.67a.872.872,0,0,1,.353-.8,3.132,3.132,0,0,0,1.221-2.582q.023-2.358,0-4.716a3.248,3.248,0,0,0-1.17-2.545,1.98,1.98,0,0,1-.383-1.646.312.312,0,0,1,.329-.173c.157,0,.314,0,.471,0q8.3,0,16.608.01c.269,0,.745-.218.782.231.04.475.291,1.061-.2,1.449a3.541,3.541,0,0,0-1.339,3.076c.026,1.392.008,2.785.006,4.177a3.244,3.244,0,0,0,1.275,2.76.744.744,0,0,1,.3.687c-.007,2.268-.018,4.536.008,6.8.006.482-.187.539-.591.537-2.846-.013-5.693-.007-8.54-.007" transform="translate(-94.271 -210.507)" fill="#fc4b52"/>
        <path id="Trazado_219773" data-name="Trazado 219773" d="M125.191,75.984a4.959,4.959,0,0,1-4.218.087,13.638,13.638,0,0,1-6.072-4.612A6.315,6.315,0,0,1,113.64,67.5c.038-3.3.011-6.6.012-9.9,0-1.116.219-1.319,1.331-1.338a49.92,49.92,0,0,0,5.169-.083,5.19,5.19,0,0,0,4.088-2.821.788.788,0,0,1,.821-.5c1.565.057,3.133-.062,4.7.065a3.288,3.288,0,0,1,1.265,2.833c.013,3.031,0,6.061,0,9.092,0,.786-.048,1.575.008,2.357.217,3.032-1.3,5.218-3.4,7.131a13.274,13.274,0,0,1-2.445,1.648" transform="translate(-93.212 -43.357)" fill="#fea68e"/>
        <path id="Trazado_219774" data-name="Trazado 219774" d="M102.279,26.991c-.453.1-.575-.1-.568-.536.022-1.5,0-3.008.011-4.512a4.982,4.982,0,0,0-5.179-5.223c-1.564.08-3.136.032-4.7.008a1.9,1.9,0,0,0-1.917,1.194,3.588,3.588,0,0,1-3.538,2.2c-1.5.007-3-.005-4.5,0a2.867,2.867,0,0,0-2.98,2.959c-.02,1.122-.023,2.245.005,3.367.012.447-.139.565-.572.569-1.63.014-1.63.029-1.63-1.582,0-.314-.023-.63,0-.942a2.49,2.49,0,0,0-1.354-2.552,3.33,3.33,0,0,1-1.581-3.468,3.285,3.285,0,0,1,2.184-2.833,2.317,2.317,0,0,0,1.552-1.755,3.568,3.568,0,0,1,6.453-.983,2.4,2.4,0,0,0,2.285,1.209c3.853-.036,7.707-.014,11.56-.015a5,5,0,0,1,1.78.258,6.053,6.053,0,0,1,2.853,4.253,6.677,6.677,0,0,1,.17,1.664c-.01,1.923,0,3.846-.009,5.769,0,.342.086.737-.324.949" transform="translate(-60.485 -9.223)" fill="#feca2e"/>
        <path id="Trazado_219775" data-name="Trazado 219775" d="M73.5,170.8v-2.627c0-2.782.012-5.564-.011-8.345,0-.5.09-.746.64-.858,1.708-.347,3.4-.751,5.1-1.167a.513.513,0,0,1,.69.28,12.361,12.361,0,0,0,2.947,3.284.89.89,0,0,1,.407.776c-.024,1.323-.027,2.647,0,3.97a.658.658,0,0,1-.516.735,8.143,8.143,0,0,0-.994.4c-.561.278-1.047.435-1.576-.143a1.322,1.322,0,0,0-1.4-.19c-.9.281-1.785.583-2.662.918a2.051,2.051,0,0,0-1.434,1.646c-.079.753-.5,1.022-1.188,1.316" transform="translate(-60.281 -129.403)" fill="#8c9ba7"/>
        <path id="Trazado_219776" data-name="Trazado 219776" d="M44.184,96.734c0-1.348-.01-2.7,0-4.043.012-1.384.644-1.995,2.036-2,1.233,0,2.466.018,3.7-.01.427-.01.567.133.515.538a2.363,2.363,0,0,0,0,.538,1.848,1.848,0,0,1-.614,1.644,3.46,3.46,0,0,0-.741,3.982,3.574,3.574,0,0,0,3.38,2.343c.559.025,1.122.026,1.681,0,.4-.02.567.079.654.525.091.465-.064.576-.443.661-2.64.6-5.278,1.205-7.918,1.8a1.679,1.679,0,0,1-2.244-1.74c-.024-1.415-.005-2.83-.006-4.245" transform="translate(-36.236 -74.382)" fill="#a7e446"/>
        <path id="Trazado_219777" data-name="Trazado 219777" d="M211.557,168.207a12.094,12.094,0,0,0-3.784-1.473,1.289,1.289,0,0,0-1.354.4.608.608,0,0,1-.858.164c-.621-.3-1.452-.4-1.845-.873s-.109-1.335-.126-2.024a10.421,10.421,0,0,1,.039-2.614c.205-.858,1.209-1.179,1.765-1.84a16.356,16.356,0,0,0,1.553-2.021c.114-.188.184-.392.5-.313,1.406.356,2.818.689,4.228,1.031a1.058,1.058,0,0,1,.213.759c.008,2.671.012,5.343-.006,8.014,0,.284.095.656-.325.786" transform="translate(-166.921 -129.269)" fill="#8c9ba7"/>
        <path id="Trazado_219778" data-name="Trazado 219778" d="M20.833,312.463l-2.055,1.69a1.192,1.192,0,0,0-1.678.2,15.553,15.553,0,0,1-1.629,1.4,2.083,2.083,0,0,1-2.794-.335,2.054,2.054,0,0,1,.028-2.816c3.269-2.953,6.58-5.859,9.934-8.834a16.242,16.242,0,0,0,.187,2.465,2.277,2.277,0,0,0,1.788,1.485c-1.181,1.043-2.32,2.046-3.456,3.053-.686.608-.734.874-.326,1.689" transform="translate(-9.952 -249.165)" fill="#fea68e"/>
        <path id="Trazado_219779" data-name="Trazado 219779" d="M250.714,307.514c2.127-.532,1.84-2.26,1.833-3.97l3.2,2.824,6.606,5.837a2.068,2.068,0,0,1,.665,2.2,2,2,0,0,1-1.573,1.5,1.966,1.966,0,0,1-1.823-.439q-4.421-3.888-8.825-7.8c-.031-.027-.041-.078-.077-.15" transform="translate(-205.646 -248.979)" fill="#fea68e"/>
        <path id="Trazado_219780" data-name="Trazado 219780" d="M115.244,224.982c-.2-.124-.118-.322-.12-.489-.009-.628,0-1.256,0-1.884,0-1.465.2-1.7,1.627-2.049a.621.621,0,0,1,.5.115,13.491,13.491,0,0,0,13.042.532.545.545,0,0,1,.131-.025,9.629,9.629,0,0,1,2.562.913.529.529,0,0,1,.336.533,22.813,22.813,0,0,1-.043,2.334l-.033.023a1.217,1.217,0,0,1-.53.047q-8.468,0-16.937,0a1.154,1.154,0,0,1-.53-.05" transform="translate(-94.419 -180.899)" fill="#fc4b52"/>
        <path id="Trazado_219781" data-name="Trazado 219781" d="M236.916,102.734l-6.989-1.564a5.11,5.11,0,0,1-.907-.229c-.227-.1-.691.128-.628-.447.056-.509.157-.807.795-.758a7.291,7.291,0,0,0,2.272-.062,3.609,3.609,0,0,0,2.837-2.739,3.659,3.659,0,0,0-1.134-3.784,3.756,3.756,0,0,1-.351-2.324c.109-.161.281-.11.43-.11,1.185,0,2.369.014,3.554.022a1.857,1.857,0,0,1,.736,1.766c.026,1.858.009,3.716.009,5.574,0,1.007.019,2.015-.009,3.022a1.963,1.963,0,0,1-.616,1.633" transform="translate(-187.332 -74.405)" fill="#a7e446"/>
        <path id="Trazado_219782" data-name="Trazado 219782" d="M82.081,277.74c0-1.009.014-2.019-.007-3.027-.008-.383.063-.568.506-.558,1.23.027,2.462,0,3.693.014a1.173,1.173,0,0,1,1.3,1.292q.028,2.321,0,4.642a1.175,1.175,0,0,1-1.3,1.289c-1.231.019-2.462-.006-3.693.012-.377.005-.509-.114-.5-.5.023-1.053.008-2.108.008-3.162" transform="translate(-67.32 -224.872)" fill="#fea68e"/>
        <path id="Trazado_219783" data-name="Trazado 219783" d="M224.583,277.778c0,1.054-.011,2.108.006,3.162.006.349-.11.475-.46.471-1.275-.014-2.551.011-3.827-.016a1.148,1.148,0,0,1-1.208-1.245q-.032-2.354,0-4.709a1.161,1.161,0,0,1,1.258-1.262c1.253-.018,2.507.008,3.76-.014.4-.007.484.156.478.518-.019,1.031-.007,2.063-.007,3.094" transform="translate(-179.698 -224.882)" fill="#fea68e"/>
        <path id="Trazado_219784" data-name="Trazado 219784" d="M145.726,193.092a11.465,11.465,0,0,1-8.189-.532c-.334-.146-.436-.285-.213-.625a1.95,1.95,0,0,0,.22-1.107c0-1.054,0-2.109,0-3.152.2-.108.324.026.45.1a8.175,8.175,0,0,0,7.466.639.877.877,0,0,1,.2.685,24,24,0,0,0,.144,3.745.348.348,0,0,1-.078.25" transform="translate(-112.542 -153.907)" fill="#fea68e"/>
        <path id="Trazado_219785" data-name="Trazado 219785" d="M40.674,240.345c0,1.356,0,2.564,0,3.771a.506.506,0,0,1-.331.512,2.06,2.06,0,0,0-1.219,2.2,3.584,3.584,0,0,1-1.607,3.636c-1.855,1.436-3.55,3.08-5.324,4.646-.139-.245.034-.379.105-.521q2.757-5.46,5.526-10.913a8.684,8.684,0,0,1,2.847-3.336" transform="translate(-26.365 -197.141)" fill="#fc4b52"/>
        <path id="Trazado_219786" data-name="Trazado 219786" d="M177.9,76.286c.732-.573,1.474-1.133,2.2-1.72a9.287,9.287,0,0,0,3.4-5.226,3.372,3.372,0,0,0,.051-.733c0-3.7-.029-7.393.017-11.089.019-1.549-.017-3.042-1.092-4.292A2.746,2.746,0,0,1,185.111,56c.043,4.192.022,8.385,0,12.578a4.266,4.266,0,0,1-.562,2.056,12.44,12.44,0,0,1-6.649,5.653" transform="translate(-145.924 -43.659)" fill="#f7947f"/>
        <path id="Trazado_219787" data-name="Trazado 219787" d="M252.2,244.543c-.189-1.31-.015-2.622-.09-4.058a5.193,5.193,0,0,1,1.3,1.052,9.037,9.037,0,0,1,1.5,2.136q2.824,5.571,5.647,11.143a.459.459,0,0,1,.023.4l-3.784-3.393a6.345,6.345,0,0,1-.7-1.141c-1.1-2.177-2.13-4.395-3.32-6.528a1.679,1.679,0,0,0-.359-.56c-.1.317.083.687-.212.946" transform="translate(-206.792 -197.256)" fill="#c93c41"/>
        <path id="Trazado_219788" data-name="Trazado 219788" d="M220.226,41.187a1.256,1.256,0,0,0,.134-.78c0-2.04.029-4.08-.008-6.119a6.8,6.8,0,0,0-2.6-5.48,1.559,1.559,0,0,1-.211-.257,3.913,3.913,0,0,1,1.535.607,1.082,1.082,0,0,0,1.546-.217,10.054,10.054,0,0,1,1.466,1.954c.1.214.272.187.434.226-.914.333-1.047.558-.818,1.547a12.577,12.577,0,0,1,.154,2.8c.009,1.678-.02,3.356.015,5.033.012.556-.142.779-.706.7a8.487,8.487,0,0,0-.936-.024" transform="translate(-178.432 -23.42)" fill="#465a61"/>
        <path id="Trazado_219789" data-name="Trazado 219789" d="M275.284,102.832a5.833,5.833,0,0,0,.423-2.752c-.019-2.378-.026-4.757.005-7.135a3.732,3.732,0,0,0-.548-2.107c1.574-.087,2.233.525,2.236,2.1.005,2.685.009,5.37,0,8.055-.006,1.392-.892,2.149-2.114,1.841" transform="translate(-225.701 -74.502)" fill="#85b638"/>
        <path id="Trazado_219790" data-name="Trazado 219790" d="M248.309,172.991c.2-.207.114-.467.114-.7q.009-4.428,0-8.856c1.665.181,1.665.181,1.665,1.8q0,4.711,0,9.422a1.372,1.372,0,0,1-.081.749c-.563-.246-1.078-.464-1.077-1.242,0-.451-.356-.806-.622-1.166" transform="translate(-203.673 -134.054)" fill="#798b96"/>
        <path id="Trazado_219791" data-name="Trazado 219791" d="M93.108,220.223c0,2.483,0,4.881,0,7.278,0,.266-.055.386-.364.413-2.007.178-2.006.187-2.006-1.8,0-1.48.015-2.961-.009-4.441a.758.758,0,0,1,.626-.87c.556-.153,1.1-.36,1.75-.578" transform="translate(-74.422 -180.636)" fill="#fef1e1"/>
        <path id="Trazado_219792" data-name="Trazado 219792" d="M227.724,329.167c0-.985-.008-1.97.006-2.955,0-.232-.139-.58.117-.674a.987.987,0,0,1,.963.074c.736.6,1.438,1.138,1.317,2.329a38.262,38.262,0,0,0-.027,4.429c.006.38-.095.512-.48.485a8.7,8.7,0,0,0-1.406,0c-.445.042-.508-.148-.5-.534.024-1.052.008-2.1.008-3.156" transform="translate(-186.763 -266.946)" fill="#fef1e1"/>
        <path id="Trazado_219793" data-name="Trazado 219793" d="M92.837,329.345c0,1.052-.017,2.1.009,3.156.01.385-.108.511-.484.476-.617-.057-1.418.252-1.8-.13-.295-.292-.086-1.1-.088-1.681q-.007-1.914,0-3.828a2.328,2.328,0,0,1,2.107-1.726c.368.064.252.316.254.509.01,1.075.005,2.149.005,3.224" transform="translate(-74.151 -267.072)" fill="#fef1e1"/>
        <path id="Trazado_219794" data-name="Trazado 219794" d="M229.1,111.432c.085-.459-.246-1.408.14-1.518a4.487,4.487,0,0,1,2.571.04,1.675,1.675,0,0,1,1.134,1.652,1.712,1.712,0,0,1-1.615,1.729c-.6.033-1.207-.011-1.809.021-.385.02-.441-.159-.427-.478.019-.447,0-.9,0-1.446" transform="translate(-187.873 -90.018)" fill="#fea68e"/>
        <path id="Trazado_219795" data-name="Trazado 219795" d="M84.953,112.043c-.051.449.244,1.181-.106,1.509-.375.351-1.105.1-1.679.106-1.182.012-1.916-.539-2.039-1.494a1.735,1.735,0,0,1,1.654-2.015c.579-.031,1.162.013,1.742-.018.374-.02.452.137.435.468-.022.446-.006.895-.006,1.445" transform="translate(-66.531 -90.332)" fill="#fea68e"/>
        <path id="Trazado_219796" data-name="Trazado 219796" d="M230.191,236.735c.014,1.117.023,2.235.046,3.352.006.287-.1.419-.39.386a.415.415,0,0,0-.067,0c-1.914.095-1.917.095-1.913-1.8,0-1.006.018-2.013.027-3.019a.382.382,0,0,1,.439-.066,4.317,4.317,0,0,1,1.857,1.149" transform="translate(-186.906 -193.203)" fill="#fef1e1"/>
        <path id="Trazado_219797" data-name="Trazado 219797" d="M183.3,192.742c-.487-1.267-.184-2.588-.264-3.883-.016-.265,0-.532,0-.8l1.729-.852c0,1.054,0,2.01,0,2.966a2.65,2.65,0,0,0,.291,1.557c.18.271,0,.34-.191.428a8.509,8.509,0,0,1-1.561.581" transform="translate(-150.119 -153.557)" fill="#f6947f"/>
        <path id="Trazado_219798" data-name="Trazado 219798" d="M252.622,256.46v-1.446a5.644,5.644,0,0,1,1.191,1.9c1.2,2.242,2.353,4.508,3.4,6.825-.957-.834-1.909-1.672-2.872-2.5a.672.672,0,0,1-.235-.588c.011-.424-.034-.852.01-1.272a2.7,2.7,0,0,0-1.5-2.926" transform="translate(-207.211 -209.173)" fill="#fc4b52"/>
        <path id="Trazado_219799" data-name="Trazado 219799" d="M230.318,224.187a8.4,8.4,0,0,0-2.3-1.083v-2.858c.676.232,1.3.456,1.931.658a.548.548,0,0,1,.407.607q-.022,1.338-.042,2.676" transform="translate(-187.033 -180.655)" fill="#fddabc"/>
        <path id="Trazado_219800" data-name="Trazado 219800" d="M203.125,225.343c0-.646-.037-1.293,0-1.937a.783.783,0,0,0-.594-.892,13.812,13.812,0,0,1-2.255-.951c.89-.934,1.8-.5,2.713-.043.124.062.235.13.228.294a24.283,24.283,0,0,1-.087,3.53" transform="translate(-164.27 -181.281)" fill="#c93c41"/>
        <path id="Trazado_219801" data-name="Trazado 219801" d="M115.853,245.234l18,0c-.18.136-.389.075-.584.075q-8.415.005-16.831,0c-.195,0-.4.063-.582-.077" transform="translate(-95.027 -201.151)" fill="#0076c5"/>
      </g>
    </g>
  </g>
</svg>
