<svg xmlns="http://www.w3.org/2000/svg" xmlns:xlink="http://www.w3.org/1999/xlink" width="190" height="104" viewBox="0 0 190 104">
  <defs>
    <clipPath id="clip-path">
      <rect id="Rect치ngulo_89243" data-name="Rect치ngulo 89243" width="67.001" height="67.02" fill="none"/>
    </clipPath>
  </defs>
  <g id="Grupo_147289" data-name="Grupo 147289" transform="translate(-285.049 -411)">
    <rect id="Rect치ngulo_41122" data-name="Rect치ngulo 41122" width="190" height="104" transform="translate(285.049 411)" fill="none"/>
    <g id="Grupo_117447" data-name="Grupo 117447" transform="translate(-3337.23 1038.208)" opacity="0.3">
      <path id="Trazado_158283" data-name="Trazado 158283" d="M3677.784-530.075h0a16.354,16.354,0,0,0,23.129,0l67.216-67.214a16.357,16.357,0,0,0,0-23.129,16.355,16.355,0,0,0-23.129,0L3677.784-553.2A16.353,16.353,0,0,0,3677.784-530.075Z" transform="translate(14.296)" fill="#fc4b52"/>
      <path id="Trazado_158284" data-name="Trazado 158284" d="M3652.069-530.075h0a16.354,16.354,0,0,0,23.129,0l67.216-67.214a16.358,16.358,0,0,0,0-23.129,16.355,16.355,0,0,0-23.129,0L3652.069-553.2A16.354,16.354,0,0,0,3652.069-530.075Z" transform="translate(0)" fill="#feca2e"/>
    </g>
    <g id="Grupo_147290" data-name="Grupo 147290" transform="translate(346.049 429)">
      <g id="Grupo_147290-2" data-name="Grupo 147290" clip-path="url(#clip-path)">
        <path id="Trazado_229988" data-name="Trazado 229988" d="M67,11.215a.272.272,0,0,1-.066-.177,9.617,9.617,0,0,0-2.017-5.559,12.076,12.076,0,0,0-9.255-5.4,12.413,12.413,0,0,0-8.368,2.1,1.235,1.235,0,0,1-1.331.139,32.548,32.548,0,0,0-3.085-1.065A34.473,34.473,0,0,0,30.013.143,30.41,30.41,0,0,0,18.186,3.624a33.338,33.338,0,0,0-9.113,6.9A32.415,32.415,0,0,0,3.489,18.45,30.982,30.982,0,0,0,.078,31.218a36.526,36.526,0,0,0,.828,10.5,1.5,1.5,0,0,1-.067,1.018A10.274,10.274,0,0,0,.053,46.08a12.546,12.546,0,0,0,2.416,8.982c2.88,3.744,5.818,7.444,8.7,11.19a1.871,1.871,0,0,0,1.081.767h.784a1.808,1.808,0,0,0,1.038-.719c.63-.833,1.267-1.66,1.921-2.475.871-1.084.87-1.082,2.124-.413a32.356,32.356,0,0,0,7.87,2.921,35.178,35.178,0,0,0,4.819.686h.784c.081-.088.188-.061.288-.067.123.013.259-.039.366.067h2.483c.118-.115.265-.05.4-.067h.335c.107.008.223-.028.311.067h.392a.416.416,0,0,1,.307-.067,20.893,20.893,0,0,0,4.938-.679,1.6,1.6,0,0,0,1.408-1.541c-.144-1.188-.969-1.577-2.08-1.35-.149.031-.3.071-.445.1a30.29,30.29,0,0,1-11.734.323c-.188-.032-.459.007-.534-.173-.1-.239.181-.359.322-.5,1.692-1.725,3.521-3.31,5.19-5.059.09-.094.2-.17.295-.258a9.521,9.521,0,0,0,3.289-6.668c.046-.826.144-.956.971-1.092A3.363,3.363,0,0,0,40.9,46.9c.04-2.177.046-4.355,0-6.532a3.211,3.211,0,0,0-1.856-2.938c-.639-.327-1.289-.633-1.939-.939a43.737,43.737,0,0,1-7.135-3.65,7.621,7.621,0,0,0-4.324-1.671c-1.271-.013-1.76-.7-2.193-1.7-.738-1.709.014-3.054,1.861-3.176a5.011,5.011,0,0,0,3.884-2.114c1.871-2.57,3.747-5.136,5.554-7.752a4.94,4.94,0,0,0-1.109-6.915c-1.655-1.2-3.292-2.432-4.95-3.631-.9-.653-1.781-1.338-2.77-2.038A32.559,32.559,0,0,1,35.8,2.989a33.109,33.109,0,0,1,7.846,1.6c.753.254.745.267.317.905a12.56,12.56,0,0,0-2.221,6.86,12.269,12.269,0,0,0,1.187,5.635c.24.5.162.732-.362.99a8.476,8.476,0,0,0-4.555,8.744,8.345,8.345,0,0,0,6.92,7.368,4.773,4.773,0,0,1,2.608,1.39,7.11,7.11,0,0,1,1.754,3.652,40.017,40.017,0,0,1,.536,5.381,9.512,9.512,0,0,0,5.861,8.3c.6.274.606.31.139.8a34.63,34.63,0,0,1-4.509,3.959,1.441,1.441,0,0,0-.532,2.094,1.6,1.6,0,0,0,2.419.174,31.387,31.387,0,0,0,5.579-5.086,33.45,33.45,0,0,0,7.954-16.815c.148-.875.093-1.768.262-2.64v-.523c-.08-.072-.064-.169-.067-.261s-.013-.189.067-.261V34.87a1.337,1.337,0,0,1,0-.915v-1.83c-.106-.106-.054-.242-.067-.365.006-.1-.021-.207.067-.288v-.523c-.129-.7-.082-1.419-.169-2.124A29.829,29.829,0,0,0,64.9,21.4a1.716,1.716,0,0,1,.193-1.8,9.552,9.552,0,0,0,1.845-5.339c.031-.23-.07-.473.067-.693ZM12.635,50.672a3.05,3.05,0,1,1,3.032-3.03,3.04,3.04,0,0,1-3.032,3.03M54.444,15.9a3.051,3.051,0,1,1,3.04-3.024,3.042,3.042,0,0,1-3.04,3.024" transform="translate(0 0)"/>
        <path id="Trazado_229989" data-name="Trazado 229989" d="M382.888,195.326a.754.754,0,0,1,0-.915Z" transform="translate(-315.886 -160.456)" fill="#1c1c1c"/>
        <path id="Trazado_229990" data-name="Trazado 229990" d="M382.929,78.335a1.01,1.01,0,0,0-.115.014.7.7,0,0,1,.115-.668Z" transform="translate(-315.928 -64.114)" fill="#727272"/>
        <path id="Trazado_229991" data-name="Trazado 229991" d="M200.839,383.088h.388q.057.04.035.076c-.014.023-.028.035-.041.035h-.392q-.067-.043-.04-.078a.067.067,0,0,1,.05-.033" transform="translate(-165.714 -316.179)" fill="#606060"/>
        <path id="Trazado_229992" data-name="Trazado 229992" d="M383,181.873c-.17-.1-.132-.251-.115-.4.042-.052.08-.047.115.008Z" transform="translate(-315.999 -149.748)" fill="#4a4a4a"/>
        <path id="Trazado_229993" data-name="Trazado 229993" d="M199.212,383.008a.986.986,0,0,0-.01.111h-.392c.1-.16.252-.133.4-.111" transform="translate(-164.087 -316.099)" fill="#3e3e3e"/>
        <path id="Trazado_229994" data-name="Trazado 229994" d="M182.117,383c.149-.016.3-.049.4.114h-.392c-.041-.023-.055-.048-.044-.074s.024-.041.037-.041" transform="translate(-150.276 -316.097)" fill="#494949"/>
        <path id="Trazado_229995" data-name="Trazado 229995" d="M181.107,383.032a.66.66,0,0,1,.007.114h-.261c.037-.145.147-.126.254-.114" transform="translate(-149.266 -316.126)" fill="#6a6a6a"/>
        <path id="Trazado_229996" data-name="Trazado 229996" d="M383.037,203.445c-.16-.033-.124-.148-.108-.255.033-.063.068-.068.108-.006Z" transform="translate(-316.036 -167.66)" fill="#828282"/>
        <path id="Trazado_229997" data-name="Trazado 229997" d="M383.042,202.154a.974.974,0,0,1-.108.006c-.024-.114-.031-.22.108-.267Z" transform="translate(-316.041 -166.631)" fill="#676767"/>
        <path id="Trazado_229998" data-name="Trazado 229998" d="M383.037,180.454a.794.794,0,0,1-.115-.008c-.01-.106-.035-.22.115-.254Z" transform="translate(-316.036 -148.721)" fill="#737373"/>
        <path id="Trazado_229999" data-name="Trazado 229999" d="M203.3,383.133a.872.872,0,0,1,.006-.111c.108-.015.224-.051.255.111Z" transform="translate(-167.791 -316.113)" fill="gray"/>
        <path id="Trazado_230000" data-name="Trazado 230000" d="M159.422,73.5c-.743.438-1.488.874-2.229,1.314-.2.118-.46.162-.526.438-.22.119-.233-.11-.31-.2a1.138,1.138,0,0,0-1.309-.455,1.122,1.122,0,0,0-.765,1.212c0,.147.063.3-.078.422-.858.3-1.714.611-2.574.905-.19.065-.374.112-.451.323a1.363,1.363,0,0,0-1.908-1.021,31.064,31.064,0,0,1-13.019.3.919.919,0,0,1-.174-.07c-.031-.23.163-.3.275-.41,1.97-1.91,3.929-3.831,5.925-5.714a9.575,9.575,0,0,0,3.22-6.9c.016-.565.25-.807.823-.855a3.112,3.112,0,0,0,2.922-3.174q.026-3.136,0-6.272a3.118,3.118,0,0,0-1.877-2.968c-1.115-.538-2.237-1.063-3.373-1.553a35.257,35.257,0,0,1-6.185-3.332,7.831,7.831,0,0,0-4.683-1.362.576.576,0,0,1-.651-.382c-.244-.58-.563-1.128-.807-1.708A2.143,2.143,0,0,1,133.582,39a5.065,5.065,0,0,0,4.173-2.286c1.72-2.434,3.473-4.846,5.2-7.273a4.8,4.8,0,0,0-1.144-7.09q-3.493-2.577-7-5.14c-.225-.165-.447-.335-.751-.563a31.07,31.07,0,0,1,19.106,1,12.692,12.692,0,0,0-1.212,13.964,8.213,8.213,0,0,0-5.09,5.94,8.334,8.334,0,0,0,6.51,10.214,5.407,5.407,0,0,1,4.343,4.2,21.5,21.5,0,0,1,.72,5.42,9.688,9.688,0,0,0,4.522,8.483,10.7,10.7,0,0,0,2.176,1.005,30.336,30.336,0,0,1-4.205,3.958c-.308.241-.627.469-.942.7a1.374,1.374,0,0,0-.572,1.958" transform="translate(-108.519 -12.877)" fill="#66dff6"/>
        <path id="Trazado_230001" data-name="Trazado 230001" d="M52.293,52.984c-2.468-.906-5.064-1.326-7.357-2.6a10.8,10.8,0,0,1-4.4-4.521c-.694-1.328-1.342-2.681-2.028-4.013a.644.644,0,0,1,.031-.71A30.95,30.95,0,0,1,53.776,27.9a.685.685,0,0,1,.766.09c3.027,2.236,6.066,4.455,9.092,6.692a2.143,2.143,0,0,1,.508,3.154c-1.812,2.555-3.644,5.1-5.469,7.641a2.271,2.271,0,0,1-1.821.987,4.757,4.757,0,0,0-4.561,6.237,1.535,1.535,0,0,1,0,.278" transform="translate(-31.709 -22.967)" fill="#cae458"/>
        <path id="Trazado_230002" data-name="Trazado 230002" d="M254.884,122.274c3.345,10.154,2.241,19.544-3.579,28.346a.991.991,0,0,1-1.288.445,6.841,6.841,0,0,1-4.994-5.763c-.139-1.341-.179-2.693-.278-4.038-.021-.281.049-.4.346-.383a2.146,2.146,0,0,0,.84-.079,1.308,1.308,0,0,0,.9-1.358c-.062-.612-.544-1.218-1.14-1.126-1.287.2-1.6-.51-2-1.536a7.64,7.64,0,0,0-5.825-4.9,5.626,5.626,0,0,1-4.7-4.925,5.88,5.88,0,0,1,2.775-5.845c.056-.033.114-.063.172-.094,1.206-.645,1.208-.647,2.041.42q3.657,4.685,7.311,9.37a2.294,2.294,0,0,0,.887.842c.616.25,1.148.075,1.686-.611q2.941-3.752,5.868-7.514c.29-.372.584-.741.981-1.246" transform="translate(-192.385 -99.513)" fill="#cae458"/>
        <path id="Trazado_230003" data-name="Trazado 230003" d="M265.072,15.738A9.477,9.477,0,0,0,255.8,21.01a9.391,9.391,0,0,0,.854,10.619c2.447,3.3,5.047,6.5,7.557,9.753.32.416.445.278.689-.037,2.507-3.233,5.032-6.452,7.535-9.688a9.546,9.546,0,0,0,2.037-5.564,10.015,10.015,0,0,0-9.4-10.355m-.543,13.14a3.051,3.051,0,1,1,3.04-3.024,3.042,3.042,0,0,1-3.04,3.024" transform="translate(-210.085 -12.982)" fill="#d7727e"/>
        <path id="Trazado_230004" data-name="Trazado 230004" d="M24.789,214.786a9.51,9.51,0,0,0-8.584,5.67,9.409,9.409,0,0,0,1.045,10.218c2.456,3.3,5.045,6.5,7.559,9.753.288.373.417.346.69-.007,2.516-3.254,5.059-6.488,7.571-9.745a9.5,9.5,0,0,0,2.009-5.527,10.014,10.014,0,0,0-10.291-10.363m.361,13.148a3.05,3.05,0,1,1,3.032-3.03,3.039,3.039,0,0,1-3.032,3.03" transform="translate(-12.515 -177.262)" fill="#fecc69"/>
        <path id="Trazado_230005" data-name="Trazado 230005" d="M128.968,198.765c-.646.444-1.006.924-.794,1.645a1.282,1.282,0,0,0,1.324.953c.587.019,1.176.017,1.763,0,.31-.009.471.044.466.418-.019,1.611-.011,3.222-.006,4.833,0,.453-.207.648-.659.712a3.164,3.164,0,0,0-3.086,3.382,6.881,6.881,0,0,1-2.128,4.761c-1.855,1.808-3.733,3.593-5.58,5.41-.349.343-.5.247-.7-.108a5.556,5.556,0,0,1-.782-2.856c0-3.418.012-6.836,0-10.255a12.368,12.368,0,0,0-5.1-10.291c-.366-.279-.31-.463-.123-.782a5.6,5.6,0,0,1,7.4-2.1c1.325.7,2.476,1.7,3.835,2.345s2.716,1.255,4.179,1.929" transform="translate(-93.602 -159.996)" fill="#cae458"/>
        <path id="Trazado_230006" data-name="Trazado 230006" d="M32.745,134.431a8.338,8.338,0,0,0-2.634,2.937c-.192.379-.423.176-.648.1a12.4,12.4,0,0,0-8-.179,12.563,12.563,0,0,0-5.591,3.576c-1.464-2.9-.364-13.2,1.887-17.5.313.616.614,1.18.888,1.757a14.135,14.135,0,0,0,9.141,7.771c1.616.48,3.22,1,4.957,1.543" transform="translate(-12.551 -101.814)" fill="#66dff6"/>
        <path id="Trazado_230007" data-name="Trazado 230007" d="M111.444,323.395a29.849,29.849,0,0,1-6-2.579l4.159-5.335c-.038,2.832-.228,5.559,1.845,7.914" transform="translate(-87.024 -260.38)" fill="#66dff6"/>
        <path id="Trazado_230008" data-name="Trazado 230008" d="M261.212,353.755c-.218-.88.026-1.516.685-1.79a1.363,1.363,0,0,1,1.777.812q.1,1.259-.785,1.6c-.591.228-1.135.026-1.677-.623" transform="translate(-215.525 -290.404)" fill="#010101"/>
        <path id="Trazado_230009" data-name="Trazado 230009" d="M249.371,221.86c1.282,0,1.9.439,1.916,1.284.011.862-.645,1.276-1.847,1.344-1.479.084-2.01-1.058-1.618-1.877a1.4,1.4,0,0,1,1.549-.752" transform="translate(-204.435 -183.102)" fill="#000101"/>
        <path id="Trazado_230010" data-name="Trazado 230010" d="M328.559,202.331a6.141,6.141,0,0,1,0,.715,1.3,1.3,0,0,1-2.586-.031,9.327,9.327,0,0,1-.007-1.236,1.3,1.3,0,0,1,2.6-.034c.015.194,0,.39,0,.586h-.006" transform="translate(-269.016 -165.467)"/>
        <path id="Trazado_230011" data-name="Trazado 230011" d="M285.184,41.111a5.665,5.665,0,1,0,5.592,5.7,5.662,5.662,0,0,0-5.592-5.7m-.06,8.715a3.051,3.051,0,1,1,3.04-3.024,3.042,3.042,0,0,1-3.04,3.024" transform="translate(-230.679 -33.93)"/>
        <path id="Trazado_230012" data-name="Trazado 230012" d="M45.71,240.243a5.663,5.663,0,1,0,5.634,5.655,5.659,5.659,0,0,0-5.634-5.655m-.011,8.712a3.05,3.05,0,1,1,3.032-3.03,3.039,3.039,0,0,1-3.032,3.03" transform="translate(-33.063 -198.283)"/>
        <path id="Trazado_230013" data-name="Trazado 230013" d="M167.983,235.323a1.163,1.163,0,0,1-.352.816c-.377.392-.752.789-1.156,1.151a1.305,1.305,0,0,1-1.825-.017,1.275,1.275,0,0,1-.007-1.817,15.8,15.8,0,0,1,1.254-1.236,1.182,1.182,0,0,1,1.4-.137,1.25,1.25,0,0,1,.684,1.24" transform="translate(-135.576 -193.061)"/>
      </g>
    </g>
  </g>
</svg>
