<svg id="Grupo_147287" data-name="Grupo 147287" xmlns="http://www.w3.org/2000/svg" xmlns:xlink="http://www.w3.org/1999/xlink" width="73.246" height="79.5" viewBox="0 0 73.246 79.5">
  <defs>
    <clipPath id="clip-path">
      <rect id="Rectángulo_89241" data-name="Rectángulo 89241" width="73.246" height="79.5" fill="none"/>
    </clipPath>
  </defs>
  <g id="Grupo_147287-2" data-name="Grupo 147287" clip-path="url(#clip-path)">
    <path id="Trazado_229957" data-name="Trazado 229957" d="M15.453,69.361a5.406,5.406,0,1,1-7.937,5.746.985.985,0,0,0-.659-.839C5.62,73.747,4.4,73.194,3.176,72.634A5.045,5.045,0,0,1,.527,65.663q3.557-7.985,7.166-15.946a5.038,5.038,0,0,1,6.868-2.63c2.462,1.069,4.908,2.177,7.347,3.3.422.194.585.171.783-.279q1.712-3.895,3.5-7.758a.635.635,0,0,0-.17-.849,3.014,3.014,0,0,1-.216-4.262q6.754-8.609,13.523-17.205a6.746,6.746,0,0,0,.781-1.238,6.545,6.545,0,0,1,3.384-3.173c-2.1-1.935-2.468-4.41-2.312-7.036.033-.564-.1-.8-.708-.73a5.111,5.111,0,0,1-1.317-.024,1.058,1.058,0,0,1-1-1.168,1.045,1.045,0,0,1,1.062-1.105c.617-.048,1.4.167,1.808-.135.348-.254.225-1.1.394-1.657A5.409,5.409,0,0,1,45.633,0h5.445a12.3,12.3,0,0,1,1.889.788A5.139,5.139,0,0,1,55.4,4.961c.027.486.168.632.631.582a6.43,6.43,0,0,1,1.008,0c.775.039,1.207.437,1.228,1.11a1.136,1.136,0,0,1-1.224,1.2c-.9.04-1.807.034-2.711.048a1.226,1.226,0,0,1-.93.252c-.94,0-1.881.024-2.819-.012-1.99-.014-3.982-.009-5.974,0-.86,0-.921.074-.934.93,0,.31-.006.62,0,.929A4.8,4.8,0,0,0,47.7,14.887a4.523,4.523,0,0,0,4.775-2.618,3.522,3.522,0,0,1,.359-.766c.344-.453.737-.809,1.369-.516.938.46,1.115.894.778,1.855a7.944,7.944,0,0,1-1.77,2.742,6.3,6.3,0,0,1,4.031,5.226,48.569,48.569,0,0,1,.067,5.04c.006,1.822,0,1.822,1.844,1.822,1.5,0,3.012.08,4.509-.018A24.838,24.838,0,0,1,71,28.749,2.968,2.968,0,0,1,73.2,31.455c.013.155.007.311.02.465.246,2.995-1.5,4.131-3.961,4.06-3.756-.108-7.517-.018-11.275-.04-.53,0-.663.125-.7.671a8.676,8.676,0,0,0,1.007,4.6c1.85,3.717,3.687,7.448,5.321,11.262,1.576,3.677,2.429,7.611,3.638,11.42q.866,2.729,1.661,5.479a1.88,1.88,0,0,0,.611.952c.825.708,1.652,1.416,2.45,2.154a2.388,2.388,0,0,1-.86,4.188q-3.558,1.207-7.145,2.332a3.1,3.1,0,0,1-4.192-2.305Q57.13,68.073,54.5,59.451a5.027,5.027,0,0,0-2.122-3c-.788,2.682-1.564,5.32-2.336,7.959-.739,2.525-1.463,5.055-2.221,7.574a1.61,1.61,0,0,0,.124,1.316c.443.845.852,1.709,1.242,2.579a2.464,2.464,0,0,1-2.33,3.608q-4.238.024-8.476,0a2.6,2.6,0,0,1-2.615-3.466c1.638-5.837,3.242-11.684,4.966-17.5a13.943,13.943,0,0,0,.207-5.675c-.4-3.571-.749-7.149-1.223-10.71a39.534,39.534,0,0,1-.282-5.336c0-1.106,0-2.211,0-3.526-1.1,1.4-2.155,2.592-3.047,3.9a25.1,25.1,0,0,1-5.4,5.2,2.792,2.792,0,0,1-1.943.662c-.5-.033-.693.141-.891.585Q23.292,54.5,18.387,65.358c-.491,1.09-.669,1.195-1.83,1.106-.825-.491-.987-.985-.566-1.947.7-1.61,1.441-3.206,2.158-4.811.918-2.053,1.85-4.1,2.774-6.148.208-.461.19-.782-.31-1-.9-.4-1.791-.812-2.7-1.189-.247-.1-.45-.115-.583.162-1.249,2.67-2.458,5.358-3.686,8.037-.259.564-.526,1.124-.789,1.686-.451.965-1.2,1.3-1.987.936-.749-.351-.915-1.091-.474-2.068q2.186-4.842,4.421-9.661c.1-.21.106-.421-.126-.526-.945-.425-1.843-1.059-2.974-.727a3.084,3.084,0,0,0-1.894,1.924c-.924,2.077-1.873,4.142-2.8,6.218q-1.944,4.351-3.9,8.7a4.385,4.385,0,0,0-.544,1.919,2.283,2.283,0,0,0,1.2,2.113c1.09.6,2.246,1.054,3.38,1.56.481.215.652-.131.845-.438a5.6,5.6,0,0,1,3.771-2.625,4.822,4.822,0,0,1,2.889.212,1.311,1.311,0,0,1,.792.576" transform="translate(0 0.001)"/>
    <path id="Trazado_229958" data-name="Trazado 229958" d="M61.829,246.156c.07-.4.25-.494.642-.307.98.469,1.963.937,2.974,1.334.584.229.638.485.389,1.029-1.666,3.643-3.284,7.307-4.958,10.946a1.534,1.534,0,0,0,.319,2.069,15.01,15.01,0,0,1-.871,2.106,1.589,1.589,0,0,0-.233.791,5.6,5.6,0,0,0-3.731-.606.706.706,0,0,1,.1-.591c2.094-4.64,4.165-9.29,6.269-13.925.171-.377.321-.762.492-1.139.367-.808.325-.9-.5-1.261-.3-.134-.66-.164-.89-.446" transform="translate(-44.638 -194.763)" fill="#85b638"/>
    <path id="Trazado_229959" data-name="Trazado 229959" d="M232.884,37.921a37.62,37.62,0,0,1,3.879,0A15.216,15.216,0,0,1,236.628,41a1.358,1.358,0,0,0-1.419,1.04,4.618,4.618,0,0,1-5.018,3.057,6.147,6.147,0,0,0,2.488-5.679,2.117,2.117,0,0,1,.2-1.5" transform="translate(-182.428 -30.011)" fill="#fecdbe"/>
    <path id="Trazado_229960" data-name="Trazado 229960" d="M26.051,238.574c.026,0,.052,0,.078,0a2.911,2.911,0,0,1,1.63.664c.634.579-.16,1.063-.352,1.531-.881,2.145-1.854,4.253-2.811,6.367-1.33,2.937-2.675,5.867-4.014,8.8a5.492,5.492,0,0,0-3.771,2.963c-.168.343-.335.361-.659.209-1.122-.526-2.272-.993-3.386-1.535a2.669,2.669,0,0,1-1.327-3.6q3.621-8.127,7.294-16.231a2.4,2.4,0,0,1,1.832-1.511c1.194-.243,2.086.543,3.1.917a.3.3,0,0,1,.184.488q-2.158,4.751-4.317,9.5c-.5,1.106-.425,1.746.271,2.091.732.363,1.341,0,1.849-1.1q2.2-4.777,4.4-9.554" transform="translate(-8.859 -187.181)" fill="#a7e446"/>
    <path id="Trazado_229961" data-name="Trazado 229961" d="M193.269,226.281h-3.64c.571-1.97,1.127-3.9,1.688-5.823.685-2.351,1.342-4.71,2.071-7.048a14.534,14.534,0,0,0,.155-6.067c-.431-3.875-.858-7.751-1.307-11.624-.045-.389.039-.487.423-.484,3.21.022,6.42.026,9.63.035a1.374,1.374,0,0,1-.085.98c-2.819,9.717-5.683,19.42-8.493,29.139a1.747,1.747,0,0,1-.442.892" transform="translate(-150.282 -154.725)" fill="#b2c5c7"/>
    <path id="Trazado_229962" data-name="Trazado 229962" d="M211.819,87.608c-2.079-1.832-3.872-1.889-6.151-.195a4.649,4.649,0,0,1-.67.189,2.753,2.753,0,0,0-2.15,4.024c.793,1.741,1.57,3.489,2.347,5.237a7.5,7.5,0,0,0,5.239,4.66l1.56.8a3.543,3.543,0,0,1,.186,2.266c-.048.465-.436.422-.776.422q-3.142,0-6.285,0c-.983,0-1.968-.043-2.947.015-.661.039-.683-.283-.681-.786.013-4.62,0-9.241.013-13.861a15.728,15.728,0,0,1,.057-2.545,3.893,3.893,0,0,1,3.552-3.388c1.669-.071,3.345-.009,5.017-.006a3.727,3.727,0,0,1,1.8,2.386c.083.267.158.553-.107.781" transform="translate(-159.673 -66.897)" fill="#fc4b52"/>
    <path id="Trazado_229963" data-name="Trazado 229963" d="M267.39,246.17c-.954.32-1.922.6-2.857.972-.569.223-.724.027-.877-.491-1.145-3.878-2.379-7.732-3.46-11.628a8.733,8.733,0,0,0-3.314-5.063.893.893,0,0,1-.343-1.168c.74-2.413,1.448-4.836,2.167-7.255.369.038.386.379.512.612a69.323,69.323,0,0,1,5.685,14.658c.727,2.644,1.6,5.247,2.365,7.88.139.476.458.959.121,1.483" transform="translate(-203.244 -175.569)" fill="#b2c5c7"/>
    <path id="Trazado_229964" data-name="Trazado 229964" d="M207.174,226.415c.624-2.2,1.239-4.4,1.874-6.6q2.411-8.332,4.84-16.658c.756-2.589,1.536-5.172,2.305-7.757h2.562c-.457,1.592-.9,3.147-1.35,4.7q-3.722,12.764-7.433,25.531c-.18.622-.42.907-1.094.825a16.4,16.4,0,0,0-1.7-.042" transform="translate(-164.186 -154.859)" fill="#869495"/>
    <path id="Trazado_229965" data-name="Trazado 229965" d="M275.98,233.329a26.929,26.929,0,0,0-1.159-4.235c-1.063-3.632-2.217-7.237-3.3-10.863a60.638,60.638,0,0,0-3.312-7.662c-.288-.632-.606-1.25-.911-1.874l.936-3.362c.911,1.91,1.674,3.709,2.6,5.419,3.121,5.758,4.616,12.086,6.543,18.264.315,1.01.6,2.03.933,3.035.123.374.053.555-.333.662-.671.187-1.333.408-2,.615" transform="translate(-211.834 -162.728)" fill="#869495"/>
    <path id="Trazado_229966" data-name="Trazado 229966" d="M233.535,112.267a2.413,2.413,0,0,0,1.447,1.113c2.352.117,4.7.024,7.057.049,1.258.013,1.27.01,1.274,1.3a13.513,13.513,0,0,1-.034,1.7c-.036.292-.118.566-.5.561-2.61-.033-5.221.076-7.83-.059a5.183,5.183,0,0,1-4.555-3c-1.041-2.07-1.941-4.213-2.866-6.34a1.692,1.692,0,0,1,.9-2.376,26.464,26.464,0,0,1,1.74,3.6c.361.741.681,1.5,1.012,2.256a1.411,1.411,0,0,0,1.555.995,1.007,1.007,0,0,1,.805.2" transform="translate(-180.161 -83.387)" fill="#fc4b52"/>
    <path id="Trazado_229967" data-name="Trazado 229967" d="M216.583,37.938c-.027,1.61.19,3.251-.485,4.788a3.668,3.668,0,0,1-2.208,2.388,4.757,4.757,0,0,1-4.238-4.422c-.057-.772,0-1.552-.029-2.327-.014-.392.16-.478.509-.474,2.15.024,4.3.033,6.45.048" transform="translate(-166.127 -30.028)" fill="#fedece"/>
    <path id="Trazado_229968" data-name="Trazado 229968" d="M213.716,112.791a6.647,6.647,0,0,1-5.23-4.12c-.853-1.821-1.571-3.708-2.482-5.5a3,3,0,0,1,2.945-4.491,4.475,4.475,0,0,0-.515,5.26c.733,1.477,1.4,2.992,2.026,4.517a9.718,9.718,0,0,0,3.256,4.332" transform="translate(-162.955 -78.165)" fill="#c93c41"/>
    <path id="Trazado_229969" data-name="Trazado 229969" d="M150.665,126.7c-1.775-1.131-1.78-1.135-.538-2.719q3.488-4.448,6.987-8.888c.154-.2.314-.384.57-.7v3.589a42.989,42.989,0,0,1-2.832,3.765c-1.078,1.414-2.2,2.8-3.3,4.193-.237.3-.391.74-.886.756" transform="translate(-118.286 -90.658)" fill="#fc4b52"/>
    <path id="Trazado_229970" data-name="Trazado 229970" d="M302.274,352.2c-1.49.506-2.976,1.022-4.47,1.511a.733.733,0,0,1-.993-.491c-.028-.072-.064-.142-.086-.216-.207-.688-.719-1.484-.527-2.035.181-.52,1.2-.511,1.855-.741.875-.31,1.772-.557,2.659-.832a1.957,1.957,0,0,1,1.906,1.235,1.137,1.137,0,0,1-.343,1.568" transform="translate(-234.704 -276.894)" fill="#798b97"/>
    <path id="Trazado_229971" data-name="Trazado 229971" d="M210.013,14.317a2.717,2.717,0,0,1,2.6-3.095c1.05-.048,2.1,0,3.156.011a3.181,3.181,0,0,1,1.272,2.592c.025.294-.084.567-.476.56-2.183-.038-4.367.089-6.549-.068" transform="translate(-166.401 -8.878)" fill="#e8f4fd"/>
    <path id="Trazado_229972" data-name="Trazado 229972" d="M189.638,359.66c-1.987.01-3.974.006-5.961.037-.576.009-.661-.251-.537-.718q.316-1.193.629-2.387c1.464-.184,2.934-.039,4.4-.079a.5.5,0,0,1,.451.257,12.012,12.012,0,0,1,1.131,2.536.367.367,0,0,1-.114.353" transform="translate(-145.1 -282.525)" fill="#798b97"/>
    <path id="Trazado_229973" data-name="Trazado 229973" d="M244.857,87.683a3.509,3.509,0,0,0-1.021-2.422l-.669-.745a4.056,4.056,0,0,1,4.515,4.164c.013,1.546,0,3.093,0,4.854-1.088-2.028-1.709-4.063-2.828-5.851" transform="translate(-192.711 -66.973)" fill="#c93c41"/>
    <path id="Trazado_229974" data-name="Trazado 229974" d="M49.752,348.443a3.082,3.082,0,0,1-2.928-2.828,3.041,3.041,0,0,1,2.578-3.223.808.808,0,0,1,1.039.432c.3.6.934,1.144.519,1.945-.281.061-.474-.164-.718-.225a.875.875,0,0,0-1.083.346.909.909,0,0,0,.047,1.083.832.832,0,0,0,1.092.282,1.036,1.036,0,0,1,.576-.188c.324.142.281.414.2.658a2.536,2.536,0,0,1-1.32,1.718" transform="translate(-37.1 -271.306)" fill="#798b97"/>
    <path id="Trazado_229975" data-name="Trazado 229975" d="M156.05,140.4c1.933-2.447,3.857-4.9,5.809-7.336a5.278,5.278,0,0,1,1.209-1.378,4.123,4.123,0,0,1-1.035,3.594c-1.519,1.71-2.889,3.556-4.258,5.392-.448.6-.775.7-1.276.145-.136-.151-.3-.278-.449-.417" transform="translate(-123.67 -104.365)" fill="#c93c41"/>
    <path id="Trazado_229976" data-name="Trazado 229976" d="M237.708,111.721c-2.163-.011-2.132-.023-2.951-2.024-.555-1.356-1.217-2.667-1.815-4.005-.146-.326-.232-.678-.345-1.019a1.793,1.793,0,0,1,2.414.993c.916,2.011,1.8,4.036,2.7,6.055" transform="translate(-184.334 -82.84)" fill="#c93c41"/>
    <path id="Trazado_229977" data-name="Trazado 229977" d="M201.368,100.9c0,5.4.025,10.791,0,16.186,0,.759.222.944.957.933,2.87-.041,5.742-.036,8.613,0,.657.007.958-.129.882-.846a17.257,17.257,0,0,1-.015-1.78,9.459,9.459,0,0,0,2.193.47c.249.006.467.044.461.378-.01.517-.012,1.035,0,1.552.008.345-.2.357-.458.357q-6.145,0-12.289.007c-.315,0-.473-.081-.472-.433q.02-8.267.029-16.534a.938.938,0,0,1,.1-.287" transform="translate(-159.481 -79.965)" fill="#c93c41"/>
    <path id="Trazado_229978" data-name="Trazado 229978" d="M264.021,148.075c2.434-.007,4.869-.035,7.3-.006.645.008.88-.175.825-.825a11.918,11.918,0,0,1,0-1.86c.042-.58-.159-.757-.743-.749-2.175.031-4.351.016-6.527.008-.275,0-.574.093-.819-.126,3.158,0,6.315.016,9.472-.008.572,0,.787.143.752.735-.047.8-.022,1.6-.008,2.4.006.352-.11.52-.487.519-3.183-.01-6.367-.009-9.55-.015a.72.72,0,0,1-.217-.074" transform="translate(-209.238 -114.525)" fill="#c93c41"/>
    <path id="Trazado_229979" data-name="Trazado 229979" d="M60.779,344.574a2.261,2.261,0,0,0-1.489-2.343,3.047,3.047,0,0,1,3.573,2.5,3.125,3.125,0,0,1-2.759,3.562,3.247,3.247,0,0,1-.464-.013,4.614,4.614,0,0,0,1.167-1.825c.046-.179.115-.337-.068-.473a6.753,6.753,0,0,1,.039-1.409" transform="translate(-46.988 -271.144)" fill="#65747f"/>
    <path id="Trazado_229980" data-name="Trazado 229980" d="M324.6,148.419c0-1.692,0-1.692,1.676-1.308.126.029.255.043.382.07,1.439.3,1.737.763,1.46,2.214a.715.715,0,0,1-.752.641c-.777.02-1.555,0-2.333.016-.352.009-.45-.149-.437-.468.016-.387,0-.776,0-1.164" transform="translate(-257.243 -116.421)" fill="#fdccbd"/>
    <path id="Trazado_229981" data-name="Trazado 229981" d="M192.227,359.3a14.229,14.229,0,0,0-1.191-2.816c-.149-.3-.411-.261-.665-.26q-2.007,0-4.014.009c.175-.3.465-.158.7-.159,1.883-.009,3.765.018,5.647-.006a.858.858,0,0,1,.935.592c.309.734.673,1.445,1.018,2.164.177.368.064.519-.341.508-.7-.02-1.391-.022-2.087-.032" transform="translate(-147.689 -282.165)" fill="#65747f"/>
    <path id="Trazado_229982" data-name="Trazado 229982" d="M210.185,14.4c2.033-.006,4.066-.038,6.1,0,.712.012.831-.248.7-.871a7.151,7.151,0,0,0-1.045-2.209c2.024-.112,3.275.676,3.665,2.31.19.8.133.871-.7.873-2.661,0-5.322.01-7.983,0-.243,0-.515.114-.733-.1" transform="translate(-166.573 -8.957)" fill="#c2e0fd"/>
    <path id="Trazado_229983" data-name="Trazado 229983" d="M319.674,350.1a1.892,1.892,0,0,0-1.563-2.8c.484-.167.972-.324,1.449-.507a.479.479,0,0,1,.56.089c.823.736,1.657,1.46,2.6,2.288a31.65,31.65,0,0,1-3.046.933" transform="translate(-252.105 -274.788)" fill="#65747f"/>
    <path id="Trazado_229984" data-name="Trazado 229984" d="M136.318,177.836c.556-.822.557-.823,1.305-.24.507.394,1,.809,1.52,1.181.334.238.3.384,0,.616-.571.436-1.128.892-1.669,1.364a1,1,0,0,1-1.644-.113c.66-.564,1.327-1.12,1.98-1.6a7.1,7.1,0,0,1-1.489-1.21" transform="translate(-107.644 -140.421)" fill="#fdccbd"/>
    <path id="Trazado_229985" data-name="Trazado 229985" d="M133.178,180.321a5.286,5.286,0,0,1,1.482,1.045c.2.147.121.267-.01.354-.673.444-1.106,1.222-1.963,1.409-1-.658-1.052-.9-.343-1.8.267-.343.555-.67.833-1" transform="translate(-104.504 -142.905)" fill="#fdddce"/>
    <path id="Trazado_229986" data-name="Trazado 229986" d="M59.7,237.288c-.15-.578-.738-.482-1.117-.693a4.122,4.122,0,0,0-2.165-.712c1.293-.473,2.266.39,3.333.822.276.112.1.4-.05.582" transform="translate(-44.708 -186.83)" fill="#a86969"/>
    <path id="Trazado_229987" data-name="Trazado 229987" d="M58.432,352.042a1.423,1.423,0,0,1-.039,1.409c-.922.655-1.884.422-2.041-.5a1.07,1.07,0,0,1,.562-1.235,1.166,1.166,0,0,1,1.517.328" transform="translate(-44.64 -278.612)" fill="#010101"/>
  </g>
</svg>
