<svg xmlns="http://www.w3.org/2000/svg" xmlns:xlink="http://www.w3.org/1999/xlink" width="306" height="232" viewBox="0 0 306 232">
  <defs>
    <clipPath id="clip-path">
      <rect id="Rectángulo_89688" data-name="Rectángulo 89688" width="84.707" height="79.245" fill="none"/>
    </clipPath>
  </defs>
  <g id="Grupo_148262" data-name="Grupo 148262" transform="translate(-9393 11680)">
    <rect id="Image_Place_Holder" data-name="Image Place Holder" width="306" height="232" transform="translate(9393 -11680)" fill="#d9eaea"/>
    <g id="Grupo_148261" data-name="Grupo 148261" transform="translate(9561.387 -11604)">
      <g id="Grupo_148161" data-name="Grupo 148161" clip-path="url(#clip-path)">
        <path id="Trazado_246460" data-name="Trazado 246460" d="M0,237.93a3.483,3.483,0,0,1,3.76-2.282c3.086.077,6.175.017,9.263.023,2.188,0,3.349,1.181,3.354,3.379,0,.882-.3,1.952.094,2.594.4.658,1.591.337,2.428.492a20.9,20.9,0,0,1,6.619,2.443c.907.518,1.847.979,2.744,1.514a17.46,17.46,0,0,0,8.081,2.285c4.619.285,9.23.729,13.837,1.177a7.447,7.447,0,0,1,6.72,6.921c.046.546.2.782.773.781.8,0,1.6.045,2.394.121a1.535,1.535,0,0,0,1.038-.425q7.723-5.163,15.443-10.33a5.149,5.149,0,0,1,6.378,8.069c-3.11,2.848-6.261,5.652-9.4,8.474-1.926,1.733-3.909,3.408-5.768,5.21a14.69,14.69,0,0,1-8.678,3.978c-6.36.837-12.7,1.822-19.052,2.716a52.131,52.131,0,0,1-5.978.744,7.961,7.961,0,0,1-3.064-.556q-6.97-2.655-13.95-5.281a1.233,1.233,0,0,0-.663-.155c0,.272.008.546,0,.819a2.871,2.871,0,0,1-2.822,2.878c-3.584.036-7.168.025-10.752,0-1.462-.009-2.219-1-2.8-2.178Z" transform="translate(0 -196.572)"/>
        <path id="Trazado_246461" data-name="Trazado 246461" d="M136.821,0h12.156c1.907,0,2.706.7,2.978,2.561a10.789,10.789,0,0,0,6.367,8.645c1.673.8,2.263,1.669,2.03,3.532-1.577,12.608-6.714,23.218-17.367,30.7a39.076,39.076,0,0,1-4.919,2.855,2.318,2.318,0,0,1-2.2-.081c-10.2-4.918-16.709-13.012-20.341-23.585a44.716,44.716,0,0,1-2.186-9.72,2.966,2.966,0,0,1,1.955-3.426,10.732,10.732,0,0,0,6.091-7.464,12.234,12.234,0,0,0,.246-1.464,2.424,2.424,0,0,1,2.622-2.39c4.19-.013,8.379,0,12.569,0V0" transform="translate(-94.516 -0.001)"/>
        <path id="Trazado_246462" data-name="Trazado 246462" d="M91.453,304.188c-.009-2.339-.033-4.678-.018-7.017.006-.864-.293-1.435-1.183-1.605a4.35,4.35,0,0,1,0-3.1,1.322,1.322,0,0,0,1.177-1.523c-.018-.606.047-1.218-.017-1.817-.074-.7.143-.9.846-.8a17.8,17.8,0,0,1,6.2,1.872c1.188.635,2.381,1.264,3.546,1.94a19.947,19.947,0,0,0,9.083,2.638c4.618.263,9.223.755,13.833,1.164a5.069,5.069,0,0,1,4.564,4.588c.03.423,0,.643-.523.674q-11.1.652-22.194,1.35a3.1,3.1,0,0,1-2.6-.96,1.236,1.236,0,0,0-1.831-.088,1.248,1.248,0,0,0,.048,1.78,4.8,4.8,0,0,0,3.86,1.738c4.43-.221,8.858-.481,13.286-.749,3.74-.226,7.476-.529,11.219-.7a31.466,31.466,0,0,1,4.289.222,2.9,2.9,0,0,0,2.011-.509q7.873-5.308,15.777-10.57a2.607,2.607,0,0,1,3.469.027c.086.526-.343.717-.658.951-4.2,3.125-8.44,6.2-12.652,9.312-.443.327-.909.628-1.328.984a14.635,14.635,0,0,1-7.825,3.23c-7.237.963-14.469,1.976-21.678,3.127a11.905,11.905,0,0,1-7.329-.792c-.763-.369-1.584-.637-2.385-.934q-5-1.855-9.975-3.774c-.374-.143-.817-.212-1.011-.649" transform="translate(-75.049 -240.497)" fill="#f9dfc0"/>
        <path id="Trazado_246463" data-name="Trazado 246463" d="M98.727,326.487c5.13,1.96,10.254,3.935,15.393,5.871a7.652,7.652,0,0,0,4.049.2c2.506-.422,5.028-.747,7.543-1.111q3.814-.551,7.628-1.1c2.408-.348,4.806-.823,7.226-1.015a16.271,16.271,0,0,0,8.823-3.629c4.436-3.408,8.991-6.659,13.5-9.971a2.017,2.017,0,0,0,.679-.7,2.59,2.59,0,0,1-.031,4.09c-2.274,2.087-4.582,4.136-6.876,6.2-2.848,2.562-5.732,5.085-8.531,7.7a12,12,0,0,1-6.876,3.065c-6.355.864-12.7,1.813-19.047,2.729-1.662.24-3.322.5-4.987.715a5.923,5.923,0,0,1-2.923-.325q-7.47-2.851-14.956-5.662a.83.83,0,0,1-.653-.941c.041-2.039.031-4.078.039-6.117" transform="translate(-82.323 -262.796)" fill="#eecfae"/>
        <path id="Trazado_246464" data-name="Trazado 246464" d="M29.231,260.949q0,1.549,0,3.1c-1.035.216-1.305.547-1.306,1.643q0,8.329,0,16.658c0,1.1-.007,1.111-1.1,1.107-1.9-.007-3.791-.024-5.687-.036a4.421,4.421,0,0,1-.235-2.221c.211-.35.538-.173.817-.163a4.274,4.274,0,0,0,4.324-3.33,4.124,4.124,0,0,0-3.839-4.984c-.439-.026-.965.143-1.236-.416a4.87,4.87,0,0,1-.094-1.395q0-9.072,0-18.144c0-.247,0-.495,0-.742-.018-1.014-.076-1.075-1.077-1.088-.66-.009-1.32.009-1.979-.008a1.254,1.254,0,0,1-1-.272c.239-.2.526-.121.793-.121q4.622,0,9.243.012c1,0,1.07.077,1.071,1.086,0,2.586,0,5.172,0,7.758,0,1.014.3,1.358,1.305,1.559" transform="translate(-14.028 -208.979)" fill="#ce3735"/>
        <path id="Trazado_246465" data-name="Trazado 246465" d="M19.289,281.83a6.649,6.649,0,0,1,.17,2.279c-1.321.013-2.642.021-3.963.042-.5.008-.7-.238-.669-.714.008-.137,0-.275,0-.413q0-15.329.008-30.658c0-.353-.186-.8.3-1.02,1.155.007,2.311.055,3.463.006.693-.029.877.2.874.879-.025,5.885-.015,11.77-.014,17.655v3.3c-.111.347-.447.372-.712.5a3.975,3.975,0,0,0-2.553,3.462,4.14,4.14,0,0,0,2.363,4.19c.26.14.593.171.733.491" transform="translate(-12.346 -209.67)" fill="#f33b45"/>
        <path id="Trazado_246466" data-name="Trazado 246466" d="M146.52,57.241a33.62,33.62,0,0,1-11.265-10.609,43.144,43.144,0,0,1-6.933-18.967.943.943,0,0,1,.652-1.13,13.013,13.013,0,0,0,7.537-10.26c.092-.612.3-.786.919-.779,2.865.032,5.731.007,8.6,0,2.934-.122,5.869-.02,8.8-.057a.562.562,0,0,1,.59.462,3.153,3.153,0,0,1,.211,1.45c-.209.454-.636.355-1.005.382-4.21.31-8.428.118-12.642.169-.551.007-1.1.013-1.653,0a2,2,0,0,0-2.08,1.437c-.289.774-.564,1.55-.927,2.3a14.769,14.769,0,0,1-5.147,5.813,2.249,2.249,0,0,0-1.057,2.748c.242.875.385,1.777.58,2.665a1.6,1.6,0,0,0,1.614,1.463,14.994,14.994,0,0,1,.994,2.938,1.157,1.157,0,0,1-.326.652,1.205,1.205,0,0,0-.129,1.323,35.251,35.251,0,0,0,6.334,9.9,33.3,33.3,0,0,0,7.6,6.169,1.315,1.315,0,0,1,.66.6,2.089,2.089,0,0,1-1.924,1.332" transform="translate(-107.031 -12.876)" fill="#75cef1"/>
        <path id="Trazado_246467" data-name="Trazado 246467" d="M235.669,56.79a3.954,3.954,0,0,0,1.867-1.327c.186-.14.371-.038.55.012a2.139,2.139,0,0,0,1.741-.268,33.068,33.068,0,0,0,12.944-13.659c.45-.883.9-1.768,1.3-2.673a1.389,1.389,0,0,0-.275-1.858.419.419,0,0,1-.126-.3,10.359,10.359,0,0,1,1.029-2.846,2.17,2.17,0,0,0,1.653-2.017c.13-.841.291-1.683.5-2.507a2.1,2.1,0,0,0-1.063-2.515,16.148,16.148,0,0,1-2.95-2.5A15.3,15.3,0,0,1,249.625,19a2.216,2.216,0,0,0-2.38-1.736,6.2,6.2,0,0,1-2.592-.195c-.316-1.994-.316-1.987-2.316-1.99-2.388,0-4.775-.021-7.162-.032,2.638-.172,5.281-.08,7.922-.116,2.424-.033,4.849,0,7.273-.035.521-.007.765.085.854.663a13.03,13.03,0,0,0,7.79,10.339.811.811,0,0,1,.553.957c-1.782,13.683-7.729,24.659-20.326,31.327a.986.986,0,0,1-1.064.016,27.523,27.523,0,0,1-2.508-1.407" transform="translate(-196.18 -12.425)" fill="#53b3e3"/>
        <path id="Trazado_246468" data-name="Trazado 246468" d="M25.04,391.583a4.391,4.391,0,0,1-3.335-3.926,4.319,4.319,0,0,1,2.439-4.3c.343-.166.71-.282,1.066-.421a4.6,4.6,0,0,1,4.221,1.557,4.363,4.363,0,0,1,.455,4.935,4.429,4.429,0,0,1-4.845,2.152" transform="translate(-18.097 -319.422)"/>
        <path id="Trazado_246469" data-name="Trazado 246469" d="M158.755,59.927a18.122,18.122,0,0,1-.9-2.942,2.8,2.8,0,0,0,.223-2.724c-.577-2.184-.541-2.175,1.2-3.668a16.742,16.742,0,0,0,5.1-7.1,1.374,1.374,0,0,1,1.511-1.063c3.085.035,6.17.013,9.255.015a2.784,2.784,0,0,1,.819.076,1.131,1.131,0,0,1,.611.734,15.756,15.756,0,0,0,4.524,6.078c.286.236.635.473.512.947a6.1,6.1,0,0,0-1.69,1.885c-2.021,3.058-3.994,6.148-6.055,9.179-.625.919-.832.944-1.642.158-1.048-1.016-2.042-2.087-3.179-3.011-.618-.5-1.117-.585-1.546-.2a1.08,1.08,0,0,0,.106,1.62c1.727,1.58,3.3,3.322,5.12,4.8a.95.95,0,0,0,1.347-.073,4.624,4.624,0,0,0,.7-.92q3.722-5.568,7.4-11.162a5.285,5.285,0,0,0,.61-1.518c.376-.279.484.029.565.285a2.144,2.144,0,0,1,0,1.062,38.385,38.385,0,0,1-7.979,17.786,24.952,24.952,0,0,1-3.693,3.753,1.217,1.217,0,0,1-.648.332,1.292,1.292,0,0,1-.869-.411,31.667,31.667,0,0,1-9.593-12.387,2.266,2.266,0,0,0-1.808-1.54" transform="translate(-131.59 -35.396)" fill="#e0dfdd"/>
        <path id="Trazado_246470" data-name="Trazado 246470" d="M163.687,30.623c-3.581.005-7.161.015-10.742.009a.522.522,0,0,0-.573.432,17.219,17.219,0,0,1-6.543,8.589.686.686,0,0,0-.306.836c.216.91.4,1.827.64,2.731a1.357,1.357,0,0,1-.705,1.736c-.975.109-1.466-.18-1.7-1.117q-.473-1.92-.841-3.864a1.771,1.771,0,0,1,.857-1.913,15.3,15.3,0,0,0,6.511-8.539,1.888,1.888,0,0,1,2.1-1.363q6.978-.048,13.955-.093c.439,0,.878-.036,1.317-.056.989.009,1.979.012,2.968.027a1.973,1.973,0,0,1,2.1,1.507,14.951,14.951,0,0,0,6.411,8.211,1.954,1.954,0,0,1,.97,2.245c-.256,1.181-.463,2.372-.727,3.551-.221.988-.576,1.243-1.616,1.273-.81-.167-1.11-.563-1.05-1.455a13.548,13.548,0,0,1,.506-2.506,1.309,1.309,0,0,0-.626-1.6,16.509,16.509,0,0,1-5.991-7.705,1.162,1.162,0,0,0-1.294-.868,39.639,39.639,0,0,0-4.533.147,1.242,1.242,0,0,1-1.1-.217" transform="translate(-119.19 -23.366)"/>
        <path id="Trazado_246471" data-name="Trazado 246471" d="M160.213,146.275c1.1-.1,1.334.026,1.815,1.108a31.843,31.843,0,0,0,9.875,12.779c.151.114.318.206.478.309a9.253,9.253,0,0,1,2.271,1.32,1.427,1.427,0,0,0,1.735.013A29.93,29.93,0,0,0,184.8,154a31.157,31.157,0,0,0,3.684-6.424,4.771,4.771,0,0,1,.586-1.087,1.1,1.1,0,0,1,1.536-.382c.846.6,1,1.008.637,1.871a33.82,33.82,0,0,1-14.352,16.661,2.337,2.337,0,0,1-2.486.142,33.954,33.954,0,0,1-9.347-7.746,37.3,37.3,0,0,1-5.383-8.841,1.387,1.387,0,0,1,.539-1.92" transform="translate(-133.048 -121.744)"/>
        <path id="Trazado_246472" data-name="Trazado 246472" d="M255.436,60.315c-1.044-.067-1.315.107-1.779,1.193a31.407,31.407,0,0,1-9.824,12.925c-.938.717-1.952,1.333-2.922,2.009a.819.819,0,0,1-1.045.028,22.86,22.86,0,0,1-2.655-1.792,11.217,11.217,0,0,0,2.908-2.492,35.952,35.952,0,0,0,4.522-6.039A41.064,41.064,0,0,0,249.328,53.4a4.169,4.169,0,0,0,.153-1.463c-.027-.166-.036-.439-.339-.226a8.854,8.854,0,0,1-1.306-.893.884.884,0,0,0-.445-.658,16.242,16.242,0,0,1-5.015-6.947c2.113-.034,4.227-.06,6.34-.111.357-.009.476.172.576.446a17.154,17.154,0,0,0,6.683,8.54c.369.25.329.525.259.848-.184.858-.361,1.718-.574,2.569a1.449,1.449,0,0,0,.8,1.909,18.689,18.689,0,0,1-1.025,2.9" transform="translate(-197.879 -35.951)" fill="#d5d5d5"/>
        <path id="Trazado_246473" data-name="Trazado 246473" d="M36.62,399.9a1.861,1.861,0,0,1,1.837-1.92,1.9,1.9,0,0,1,1.963,1.9,1.961,1.961,0,0,1-1.9,1.9,1.9,1.9,0,0,1-1.9-1.879" transform="translate(-30.548 -331.987)" fill="#ececec"/>
        <path id="Trazado_246474" data-name="Trazado 246474" d="M227.728,89.634a1.488,1.488,0,0,1,1.306.893,1.864,1.864,0,0,1-.364,1.316Q224.7,97.82,220.736,103.8c-.649.976-1.4,1.051-2.26.239q-2.408-2.263-4.792-4.55c-.687-.658-.76-1.4-.221-1.947s1.215-.5,1.9.131c1.167,1.091,2.334,2.181,3.469,3.3.395.391.575.37.884-.1,2.26-3.451,4.552-6.88,6.823-10.324a1.735,1.735,0,0,1,1.194-.923" transform="translate(-177.771 -74.772)"/>
      </g>
    </g>
  </g>
</svg>
