<svg xmlns="http://www.w3.org/2000/svg" xmlns:xlink="http://www.w3.org/1999/xlink" width="190" height="104" viewBox="0 0 190 104">
  <defs>
    <clipPath id="clip-path">
      <rect id="Rect치ngulo_89232" data-name="Rect치ngulo 89232" width="68.012" height="68.042" fill="none"/>
    </clipPath>
  </defs>
  <g id="Grupo_147263" data-name="Grupo 147263" transform="translate(-285.049 -411)">
    <rect id="Rect치ngulo_41122" data-name="Rect치ngulo 41122" width="190" height="104" transform="translate(285.049 411)" fill="none"/>
    <g id="Grupo_117447" data-name="Grupo 117447" transform="translate(-3337.23 1038.208)" opacity="0.3">
      <path id="Trazado_158283" data-name="Trazado 158283" d="M3677.784-530.075h0a16.354,16.354,0,0,0,23.129,0l67.216-67.214a16.357,16.357,0,0,0,0-23.129,16.355,16.355,0,0,0-23.129,0L3677.784-553.2A16.353,16.353,0,0,0,3677.784-530.075Z" transform="translate(14.296)" fill="#fc4b52"/>
      <path id="Trazado_158284" data-name="Trazado 158284" d="M3652.069-530.075h0a16.354,16.354,0,0,0,23.129,0l67.216-67.214a16.358,16.358,0,0,0,0-23.129,16.355,16.355,0,0,0-23.129,0L3652.069-553.2A16.354,16.354,0,0,0,3652.069-530.075Z" transform="translate(0)" fill="#feca2e"/>
    </g>
    <g id="Grupo_147264" data-name="Grupo 147264" transform="translate(346.049 429)">
      <g id="Grupo_147264-2" data-name="Grupo 147264" clip-path="url(#clip-path)">
        <path id="Trazado_229822" data-name="Trazado 229822" d="M48.572,30.725c1.978,0,3.845,0,5.712,0a4.382,4.382,0,0,1,4.629,3.383q4.456,14.33,8.891,28.667a3.928,3.928,0,0,1-3.845,5.261q-29.941.011-59.882,0A3.926,3.926,0,0,1,.209,62.787q4.467-14.47,8.972-28.928a4.326,4.326,0,0,1,4.262-3.133c1.943-.012,3.886-.01,5.829-.016.018,0,.036-.019.1-.056A19.651,19.651,0,0,1,15.484,16.57a18.186,18.186,0,0,1,7.16-12.7,18.656,18.656,0,0,1,29.766,17.88,20.356,20.356,0,0,1-3.838,8.979" transform="translate(-0.001 0.001)"/>
        <path id="Trazado_229823" data-name="Trazado 229823" d="M71.343,245.671c-.205.008-.41.022-.615.022q-28.313,0-56.625.007a2.069,2.069,0,0,1-1.734-.626,1.948,1.948,0,0,1-.257-2q2.7-8.646,5.381-17.3c.555-1.78,1.135-3.553,1.7-5.328a1.321,1.321,0,0,1,.912-.219q7.2,0,14.392.006c.322,0,.7-.088.9.312a13.08,13.08,0,0,0-5.527,3.153,4.507,4.507,0,0,0,0,6.658,11.347,11.347,0,0,0,4.885,2.92,28.1,28.1,0,0,0,18.916-.339,10.515,10.515,0,0,0,3.994-2.578,4.516,4.516,0,0,0,0-6.661,13.149,13.149,0,0,0-5.525-3.158c.134-.34.445-.275.7-.276,2.763-.012,5.526-.028,8.288,0a3.365,3.365,0,0,1,3.277,2.451c.637,1.809,1.154,3.657,1.725,5.488q1.712,5.492,3.412,10.988c.6,1.941,1.213,3.878,1.8,5.824.064.213.171.434,0,.651" transform="translate(-9.764 -179.848)" fill="#feca2e"/>
        <path id="Trazado_229824" data-name="Trazado 229824" d="M95.685,29.093c0-8.887,6.054-15.894,14.091-17.043a16.442,16.442,0,0,1,18.565,13.5,17.028,17.028,0,0,1-3.677,13.929c-3.941,5.006-7.948,9.961-11.933,14.933-.265.331-.443.94-1.034.193-4.122-5.212-8.315-10.367-12.414-15.6a16.693,16.693,0,0,1-3.6-9.913" transform="translate(-78.141 -9.702)" fill="#a7e446"/>
        <path id="Trazado_229825" data-name="Trazado 229825" d="M243.933,212.435q-1.745-5.611-3.49-11.222c-1.174-3.785-2.331-7.575-3.517-11.356a3.273,3.273,0,0,0-3.641-2.642q-3.909,0-7.817,0a1.209,1.209,0,0,0-.735.089l-1.438-.4c.472-.6.914-1.147,1.342-1.706.192-.251.452-.173.691-.174,3.383,0,6.766-.012,10.149.008.482,0,.666-.072.654-.617-.034-1.588,0-1.589-1.591-1.589h-7.987c.891-1.118,1.7-2.126,2.5-3.14.158-.2.366-.151.564-.151,2.4,0,4.8-.007,7.2,0a2.2,2.2,0,0,1,2.336,1.8q3.079,9.893,6.151,19.789,1.35,4.343,2.7,8.687c.5,1.628-.242,2.646-1.944,2.646-.708,0-1.416-.014-2.124-.022" transform="translate(-182.354 -146.613)" fill="#cba124"/>
        <path id="Trazado_229826" data-name="Trazado 229826" d="M126.138,240.995a22.182,22.182,0,0,1-9.322-2.049,8.642,8.642,0,0,1-2.033-1.38,2.508,2.508,0,0,1-.034-4.081,9.526,9.526,0,0,1,2.959-1.818,21.458,21.458,0,0,1,3.257-1.028.73.73,0,0,1,.865.311c1.3,1.649,2.62,3.286,3.935,4.925.792.987,1.42.994,2.2.025,1.286-1.6,2.581-3.2,3.845-4.821a.943.943,0,0,1,1.146-.407,15.95,15.95,0,0,1,5.165,2.111c2.538,1.737,2.567,3.641.068,5.41a15.612,15.612,0,0,1-6.359,2.378,29.307,29.307,0,0,1-5.69.425" transform="translate(-92.867 -188.322)" fill="#d4873e"/>
        <path id="Trazado_229827" data-name="Trazado 229827" d="M67.653,187.317a1.3,1.3,0,0,0-.8-.093q-7.7-.009-15.405-.006c.562-2.138,1.238-4.243,1.951-6.333a1.96,1.96,0,0,1,1.969-1.338c2.491-.02,4.982-.008,7.474-.009.181,0,.356-.016.493.157.8,1.013,1.607,2.02,2.5,3.135H64.214c-2.446,0-4.891.011-7.337-.01-.444,0-.632.057-.626.574.019,1.63-.005,1.631,1.616,1.631,2.971,0,5.943.013,8.914-.011a1.3,1.3,0,0,1,1.312.615,12.568,12.568,0,0,0,1,1.28l-1.445.408" transform="translate(-42.015 -146.617)" fill="#cba124"/>
        <path id="Trazado_229828" data-name="Trazado 229828" d="M72.966,337.317q-12.275,0-24.551.014c-.56,0-.728-.114-.711-.7.045-1.51.013-1.511,1.528-1.511q24.1,0,48.21-.014c.609,0,.8.128.781.766-.053,1.441-.016,1.443-1.461,1.443Z" transform="translate(-38.957 -273.666)"/>
        <path id="Trazado_229829" data-name="Trazado 229829" d="M102.3,313.372c-5.989,0-11.977-.008-17.965.014-.561,0-.727-.117-.71-.7.044-1.51.013-1.511,1.529-1.511q17.52,0,35.04-.014c.61,0,.8.131.78.767-.052,1.441-.016,1.442-1.461,1.442Z" transform="translate(-68.287 -254.111)"/>
        <path id="Trazado_229830" data-name="Trazado 229830" d="M121.941,23.932A14.266,14.266,0,1,1,107.661,38.16a14.276,14.276,0,0,1,14.281-14.229" transform="translate(-87.921 -19.544)"/>
        <path id="Trazado_229831" data-name="Trazado 229831" d="M142.577,38.187c-1.6,0-3.058-.007-4.521,0a3.292,3.292,0,1,0-.231,6.581c.768.059,1.217.479,1.2,1.124a1.11,1.11,0,0,1-1.251,1.07c-1.029.011-2.058-.006-3.086.006a3.29,3.29,0,1,0-.014,6.579c1.052.014,2.1-.007,3.155.008a1.094,1.094,0,0,1,1.2,1.054c.251,2.153,1.267,3.151,3.529,3.376a11.449,11.449,0,0,1-4.278,1.866,12.028,12.028,0,0,1-13.549-6.872c-.217-.482-.292-.713.341-.982a4.687,4.687,0,0,0,2.963-4.185c.05-.6.261-.822.867-.869a3.835,3.835,0,0,0-.315-7.659c-.313,0-.626,0-.988,0a11.794,11.794,0,0,1,14.978-1.1" transform="translate(-101.733 -29.412)" fill="#64892a"/>
        <path id="Trazado_229832" data-name="Trazado 229832" d="M181.332,59.785c1.051,0,2.1.019,3.152-.01a1,1,0,0,1,.909.462,12.121,12.121,0,0,1-.026,14.49.923.923,0,0,1-.853.433c-.706-.035-1.416,0-2.124-.014a1.1,1.1,0,0,1-1.183-1.14,3.293,3.293,0,0,0-3.513-3.245c-.959,0-1.919.006-2.878,0-.808-.008-1.29-.43-1.286-1.1s.483-1.082,1.3-1.089c1.028-.008,2.056.009,3.084-.006a3.291,3.291,0,0,0,.206-6.576c-.869-.066-1.336-.487-1.294-1.169.04-.66.515-1.026,1.357-1.03,1.051,0,2.1,0,3.152,0" transform="translate(-141.712 -48.815)" fill="#3d54bc"/>
        <path id="Trazado_229833" data-name="Trazado 229833" d="M123.318,65.8c.411,0,.822-.014,1.232,0a1.642,1.642,0,0,1,.1,3.282c-1.884.2-2.67,1.023-2.849,2.93a2.669,2.669,0,0,1-1.6,2.3c-.236.112-.4.17-.454-.209a11.841,11.841,0,0,1,1.645-8.005.553.553,0,0,1,.553-.3c.456.016.913,0,1.369.005" transform="translate(-97.69 -53.727)" fill="#3d54bc"/>
      </g>
    </g>
  </g>
</svg>
