<svg id="Grupo_147324" data-name="Grupo 147324" xmlns="http://www.w3.org/2000/svg" xmlns:xlink="http://www.w3.org/1999/xlink" width="57.81" height="63.559" viewBox="0 0 57.81 63.559">
  <defs>
    <clipPath id="clip-path">
      <rect id="Rectángulo_89273" data-name="Rectángulo 89273" width="57.81" height="63.559" fill="none"/>
    </clipPath>
  </defs>
  <g id="Grupo_147324-2" data-name="Grupo 147324" clip-path="url(#clip-path)">
    <path id="Trazado_230204" data-name="Trazado 230204" d="M65.247,195.5c-.173-1.209-.358-2.416-.581-3.616a13.387,13.387,0,0,1-.009-5.482,22.435,22.435,0,0,0,.386-2.215,7.335,7.335,0,0,0-.667-4.5c-.606-1.135-1.263-2.239-1.92-3.343a8.78,8.78,0,0,0-3.952-3.556c-1.323-.61-2.611-1.294-3.952-1.861a4.821,4.821,0,0,1-3.018-3.428c-.009-.035-.019-.07-.028-.106-3.791,4.134-8.751,6.92-12.43,11.189a66.718,66.718,0,0,1-5.852,6.588,66.827,66.827,0,0,1-5.866,4.473q-.824.871-1.646,1.744A30.277,30.277,0,0,0,64.378,197.9c.673-.4,1.043-.848.848-1.643a1.175,1.175,0,0,0,.021-.755" transform="translate(-21.295 -138.625)"/>
    <path id="Trazado_230205" data-name="Trazado 230205" d="M40.584,14.278c2.35-2.013,4.71-4.014,7.06-6.027a.9.9,0,0,1,1.277.112c.353-.35.706-.7,1.056-1.053A30.217,30.217,0,0,0,26.023.3,29.778,29.778,0,0,0,9.392,8.357,1.043,1.043,0,0,0,9.176,9.88a1.02,1.02,0,0,0,1.567-.09,29.5,29.5,0,0,1,5.5-4.1A28.394,28.394,0,0,1,29.416,1.984c1.02-.038.979-.009.929,1.014a4.912,4.912,0,0,1-2.009,4.088A3.244,3.244,0,0,0,27.12,9.749a17.249,17.249,0,0,0,.234,2.363A1.638,1.638,0,0,1,25.96,14.2c-.806.219-1.612.442-2.423.645a3.169,3.169,0,0,1-2.068-.213c-.375-.159-.721-.376-1.08-.568a6.15,6.15,0,0,0-4.4-.7,21.105,21.105,0,0,0-3.53,1.188c-1.753.747-3.446.385-5.168.009-.326-.071-.377-.228-.183-.5.251-.347.513-.689.733-1.056A.859.859,0,0,0,7.581,11.7a1.071,1.071,0,0,0-1.5.383,29.489,29.489,0,0,0-5.21,25.11A29.96,29.96,0,0,0,6.026,48.3,285.507,285.507,0,0,1,29.434,25.513q1.382-1.165,2.768-2.326a2.746,2.746,0,0,1,1.577-3.018c.721-.378,1.491-.667,2.2-1.058a6.006,6.006,0,0,1,1.835-.658q1.611-1.375,3.2-2.769a.814.814,0,0,1-.433-1.406" transform="translate(0 0.001)"/>
    <path id="Trazado_230206" data-name="Trazado 230206" d="M239.2,83.361a29.94,29.94,0,0,0-8.654-15.985c-2.539,2.586-5.193,5.063-7.909,7.467q-1.44,1.275-2.9,2.522a15.942,15.942,0,0,1,1.712.384,2.576,2.576,0,0,1,1.386.991,4.908,4.908,0,0,0,2.94,1.819,7.575,7.575,0,0,0,2.863-.163,6.5,6.5,0,0,0,5.45-3.955c.075-.169.12-.431.329-.437.258-.008.281.287.369.466a28.215,28.215,0,0,1-1.778,28.391,5.812,5.812,0,0,0-.478.761.9.9,0,0,0,.311,1.263c.791.273,1.035.2,1.508-.5A29.718,29.718,0,0,0,239.2,83.361" transform="translate(-181.973 -55.797)"/>
    <path id="Trazado_230207" data-name="Trazado 230207" d="M192.069,106.066a16.4,16.4,0,0,0-4.4,1.8,2.855,2.855,0,0,0-1.651,3.306c2.021-1.7,4.044-3.391,6.049-5.106" transform="translate(-153.991 -87.838)" fill="#a4e13b"/>
    <path id="Trazado_230208" data-name="Trazado 230208" d="M199.784,119.8a25.508,25.508,0,0,0-2.4-5.727c-.212.445-.386.809-.559,1.173a6.068,6.068,0,0,1-4.469,3.5c-.523.109-1.052.19-1.578.288a4.727,4.727,0,0,1-4.935-1.858,2.291,2.291,0,0,0-1.108-.847,16.575,16.575,0,0,0-1.835-.458c-.2.168-.393.334-.59.5a.731.731,0,0,1-.189.914,37.746,37.746,0,0,1-3.558,2.429,23.163,23.163,0,0,0-3.37,3.483c-.054.059-.11.115-.165.174.059.19.119.38.178.57a4.24,4.24,0,0,0,2.271,2.65c.766.38,1.546.732,2.319,1.1,4.814,2.274,4.812,2.325,7.544,6.893a8.348,8.348,0,0,1,1.068,6.214,15.909,15.909,0,0,0-.534,4.833c.23,2.17.624,4.318,1.006,6.466a29.353,29.353,0,0,0,2.383-1.717c.109-.356-.215-.781.145-1.087.773-.656,1.286-1.751,2.575-1.554a14.443,14.443,0,0,0,1.832-2.187c-.487-.566-.287-1.062.083-1.616a28.1,28.1,0,0,0,3.883-24.139" transform="translate(-144.951 -94.469)" fill="#a4e13b"/>
    <path id="Trazado_230209" data-name="Trazado 230209" d="M40.979,18.543a1.133,1.133,0,0,0,1.5-.235,28.119,28.119,0,0,1,15.433-7.542,27.555,27.555,0,0,1,4.1-.305c.386,0,.473.123.417.484q-.185,1.173-.313,2.354a2.5,2.5,0,0,1-.886,1.655c-.257.227-.5.474-.755.7a3.92,3.92,0,0,0-1.317,3.934,14.244,14.244,0,0,1,.224,1.652,1.556,1.556,0,0,1-1.134,1.668c-.98.3-1.975.557-2.97.805a3.177,3.177,0,0,1-2.406-.411,10.145,10.145,0,0,0-2.08-.992,6.151,6.151,0,0,0-3.908.143c-.988.349-1.987.668-2.962,1.048a5.25,5.25,0,0,1-3.208.236c-.747-.177-1.5-.3-2.3-.461a4.772,4.772,0,0,1,.87-1.347,1.138,1.138,0,0,0,.112-1.565,9.274,9.274,0,0,1,1.595-1.819" transform="translate(-31.802 -8.663)" fill="#a4e13b"/>
    <path id="Trazado_230210" data-name="Trazado 230210" d="M268.466,311.745a1,1,0,0,1,.254-1.461,10.15,10.15,0,0,0,.976-.926,1.1,1.1,0,0,1,1.49-.254c.4.747.367.964-.235,1.555-.333.327-.688.631-1.017.962a.991.991,0,0,1-1.468.124" transform="translate(-222.152 -255.83)" fill="#010101"/>
    <path id="Trazado_230211" data-name="Trazado 230211" d="M88.257,236.168l.046-.012a3.158,3.158,0,0,0,2.477-3.029c-.859,1-1.68,2.033-2.524,3.042" transform="translate(-73.09 -193.062)" fill="#4bb8eb"/>
    <path id="Trazado_230212" data-name="Trazado 230212" d="M49.421,23.568c2.35-2.013,4.71-4.014,7.06-6.027a.893.893,0,0,1,.377-.2,28.711,28.711,0,0,0-7.517-4.325,29.548,29.548,0,0,0-7.336-1.785c-.5-.06-.793,0-.8.611,0,.553-.153,1.1-.186,1.657a4.774,4.774,0,0,1-1.836,3.668c-.185.145-.34.327-.52.478a2.039,2.039,0,0,0-.736,2.007c.1.676.234,1.353.281,2.034a3.36,3.36,0,0,1-2.439,3.566c-1,.311-2.014.579-3.03.83a4.846,4.846,0,0,1-1.658.1,6.616,6.616,0,0,1-2.669-1.033,4.379,4.379,0,0,0-4-.341c-.576.227-1.169.412-1.752.621a8.66,8.66,0,0,1-4.614.819c-1.009-.192-2.018-.385-3.017-.619a.743.743,0,0,0-1,.446,28.844,28.844,0,0,0-3.363,13.43,30.366,30.366,0,0,0,.849,6.878c.122.508.322.651.815.615.661-.047,1.332.026,1.991-.031a12.587,12.587,0,0,1,7.364,1.76c.444.246.794.448,1.083.612q2.97-3.024,6.019-5.966l-.143-.822a3.493,3.493,0,0,1,2.183-4.091,3.615,3.615,0,0,1,3.05.172q2.164-1.949,4.389-3.834l1.086-.914c-.053-.186-.107-.372-.159-.558a4.709,4.709,0,0,1,2.518-5.647c.8-.4,1.626-.763,2.433-1.157a8.607,8.607,0,0,1,4.859-.815q.424-.368.846-.739a.814.814,0,0,1-.433-1.406" transform="translate(-8.837 -9.289)" fill="#4bb8eb"/>
    <path id="Trazado_230213" data-name="Trazado 230213" d="M109.045,203.5c-.289-1.644-.534-3.295-.8-4.942a16.775,16.775,0,0,1,.437-6.243,6.413,6.413,0,0,0-.9-5.21c-.422-.617-.77-1.284-1.137-1.937a7.246,7.246,0,0,0-3.4-3.11q-2.361-1.082-4.685-2.244a5.717,5.717,0,0,1-2.887-3.29c-1.472,1.389-3.055,2.651-4.633,3.919q2.533,4.395,4.993,8.831a10.451,10.451,0,0,1,1.268,5.053,21.57,21.57,0,0,1-.847,5.311,3.111,3.111,0,0,1-2.143,2.22,18.908,18.908,0,0,1-2.045.539,3.35,3.35,0,0,1-2.74-.592c-.736-.517-1.462-1.047-2.2-1.558a1.807,1.807,0,0,0-2.55.195c-1.206,1.157-2.39,2.337-3.608,3.481-.356.335-.332.459.1.686a28.509,28.509,0,0,0,27.483-.447.524.524,0,0,0,.3-.661" transform="translate(-67.007 -146.189)" fill="#4bb8eb"/>
    <path id="Trazado_230214" data-name="Trazado 230214" d="M238.29,74.911c-2.143,2.122-4.358,4.173-6.617,6.172-.341.3-.686.6-1.029.9a5.555,5.555,0,0,1,3.066,2.07,2.372,2.372,0,0,0,2.255.851,21.262,21.262,0,0,0,2.459-.457,3.959,3.959,0,0,0,2.65-2.068c.366-.676.647-1.4,1.008-2.077a.875.875,0,0,0-.091-1.044,29.754,29.754,0,0,0-3.7-4.346" transform="translate(-191.007 -62.037)" fill="#4bb8eb"/>
    <path id="Trazado_230215" data-name="Trazado 230215" d="M127.264,178.762a1.889,1.889,0,0,0-.894.129,1.676,1.676,0,0,0-1.1,1.732q.993-.937,2-1.861" transform="translate(-103.738 -148.034)" fill="#a4e13b"/>
    <path id="Trazado_230216" data-name="Trazado 230216" d="M24.317,236.967q2.638-2.787,5.309-5.541c-.3-.171-.594-.347-.891-.513a8.9,8.9,0,0,0-5.618-1.395c-.845,0-1.426.03-2-.008s-.682.116-.469.669a29.534,29.534,0,0,0,3.671,6.788" transform="translate(-17.013 -190.017)" fill="#a4e13b"/>
    <path id="Trazado_230217" data-name="Trazado 230217" d="M51.615,208.782c-.529-.932-1.049-1.869-1.588-2.8-1.143.938-2.263,1.9-3.317,2.942.046.265.094.529.137.794a4.971,4.971,0,0,1-3.09,5.477,19.126,19.126,0,0,1-3.091.836c-.071.014-.141.023-.212.03-.358.365-.727.721-1.112,1.064a66.776,66.776,0,0,1-5.86,4.469l-.382.4a29.111,29.111,0,0,0,6.037,5.48.518.518,0,0,0,.8-.066q2-1.993,4.052-3.942a3.564,3.564,0,0,1,4.645-.382c.708.481,1.413.968,2.092,1.489a2.417,2.417,0,0,0,1.988.388c1.709-.247,2.423-1.151,2.786-2.859a11.437,11.437,0,0,0-1.44-9.038c-.891-1.382-1.636-2.857-2.449-4.289" transform="translate(-27.412 -170.587)" fill="#a4e13b"/>
    <rect id="Rectángulo_89271" data-name="Rectángulo 89271" width="58.806" height="2.238" transform="translate(4.957 46.759) rotate(-43.379)"/>
    <rect id="Rectángulo_89272" data-name="Rectángulo 89272" width="59.475" height="2.238" transform="matrix(0.727, -0.687, 0.687, 0.727, 4.957, 51.971)"/>
  </g>
</svg>
