<svg xmlns="http://www.w3.org/2000/svg" xmlns:xlink="http://www.w3.org/1999/xlink" width="301.521" height="292" viewBox="0 0 301.521 292">
  <defs>
    <clipPath id="clip-path">
      <rect id="Rectángulo_89254" data-name="Rectángulo 89254" width="81.704" height="106.537" fill="none"/>
    </clipPath>
  </defs>
  <g id="Grupo_148271" data-name="Grupo 148271" transform="translate(1476.521 6566.699)">
    <rect id="Image_Place_Holder" data-name="Image Place Holder" width="301.521" height="292" transform="translate(-1476.521 -6566.699)" fill="#d9eaea"/>
    <g id="Grupo_148270" data-name="Grupo 148270" transform="translate(-1304.108 -6473.699)">
      <g id="Grupo_147302" data-name="Grupo 147302" clip-path="url(#clip-path)">
        <path id="Trazado_230041" data-name="Trazado 230041" d="M41.828,53.361a1.641,1.641,0,0,1-1.387-1.876,17.815,17.815,0,0,1,2.545-8.666,1.132,1.132,0,0,0-.261-1.649C40.879,39.4,39.1,37.556,37.261,35.7c-.763,1.166-1.449,2.247-2.172,3.3A1.217,1.217,0,0,0,35,40.167c1.142,3.844,2.277,7.69,3.374,11.547.835,2.937-1.109,5.4-4,5.109a3.444,3.444,0,0,1-3.013-2.239c-1.668-4.207-3.318-8.423-4.876-12.673a7.584,7.584,0,0,1,.688-6.7c1.626-2.736,3.31-5.438,5-8.137.311-.5.368-.757-.211-1.113a6.236,6.236,0,0,1-2.37-2.7c-.229-.485-.407-.624-1-.428a4.849,4.849,0,0,1-5.943-2.318,4.935,4.935,0,0,1,1.2-6.036,4.835,4.835,0,0,1,6.374.11c.243.195.386.412.731.083a7.326,7.326,0,0,1,6.883-1.982.968.968,0,0,0,.3-.036c.1-.39-.217-.575-.389-.808-1.34-1.81-2.7-3.608-4.048-5.409C31.607,3.661,32.151,1.432,35.267,0h1.665a7.64,7.64,0,0,1,2.735,2.269q3.48,4.13,7.027,8.2a7.2,7.2,0,0,1,1.876,5.02c-.021,1.35.006,2.7-.007,4.052-.012,1.257-.415,1.71-1.675,1.929a1.462,1.462,0,0,1-1.675-1.594c-.066-1.454-.033-2.911-.016-4.367a3.848,3.848,0,0,0-.905-2.593c-2.487-2.978-5.051-5.891-7.555-8.856a1.119,1.119,0,0,0-.566-.387c-.047.506.294.783.523,1.09,2.071,2.779,4.14,5.56,6.244,8.315a4.1,4.1,0,0,1,.927,2.788,33.267,33.267,0,0,1-.229,5.6,7.493,7.493,0,0,1-6.805,6.038,1.784,1.784,0,0,0-1.52.9c-1.69,2.785-3.454,5.525-5.094,8.34a5.243,5.243,0,0,0-.306,4.8c1.393,3.511,2.7,7.055,4.115,10.559.175.435.254,1.253.878,1.026.484-.176.087-.876-.041-1.311-1.088-3.69-2.1-7.4-3.265-11.068a3.383,3.383,0,0,1,.408-3.238c.6-.846,1.132-1.744,1.725-2.6a17.192,17.192,0,0,0,2.152-4.127,5.187,5.187,0,0,1,6.575-3.553c.838.2,1.319.077,1.711-.784.726-1.6,1.477-1.924,3.314-1.738A3.058,3.058,0,0,1,49.8,26.582q2.858,5.927,5.728,11.847A13.793,13.793,0,0,1,56.9,44.55c-.009,4.505.027,9.011-.017,13.516a5.679,5.679,0,0,0,2.1,4.637Q69.758,71.933,80.5,81.2c1.631,1.4,1.608,2.414-.1,3.728a13.387,13.387,0,0,1-4.145,1.841c-1.422.469-2.794.94-3.57,2.428-.4.776-1.239.775-2.027.494a1.5,1.5,0,0,1-.757-2.15,5.957,5.957,0,0,1,3.428-3.284c1.2-.539,2.481-.865,3.806-1.368a25.5,25.5,0,0,0-2.913-2.646c-3.328-2.817-6.609-5.689-9.917-8.53-.521-.447-.848-.423-1.3.045a19.742,19.742,0,0,1-2.661,2.471c-.532.382-.484.809-.232,1.356,1.665,3.617,3.394,7.2,5.1,10.8.833,1.75,1.615,3.525,2.5,5.252a4.358,4.358,0,0,1,.59,1.759c1.169,2.5,2.363,4.993,3.5,7.511a3.891,3.891,0,0,1-6.932,3.534c-1.227-2.087-2.483-4.158-3.659-6.273-.418-.752-.769-.72-1.322-.212a20.255,20.255,0,0,0-2.35,2.9c-2.418,3.217-4.387,3.879-8.2,2.673-4.606-1.457-4.188-1.443-7.959,1.219-3.378,2.385-5.439,2.387-8.8.008-3.789-2.685-3.381-2.674-7.959-1.23-3.821,1.2-5.975.668-8.15-2.695a7.324,7.324,0,0,0-7.324-3.721c-3.85.239-5.609-1.213-6.88-4.848A15.6,15.6,0,0,0,.289,87.734c-.655-.866-.151-1.859,1.063-2.332,3.091-1.2,6.159-2.46,9.183-3.822,8.819-3.971,17.351-8.443,24.992-14.451,1.034-.813,2.005-1.706,3-2.565a5.354,5.354,0,0,0,1.914-4.309c0-.554.019-1.11,0-1.664a1.6,1.6,0,0,1,1.389-1.871,1.529,1.529,0,0,1,1.958,1.417c.41,3.65-.458,6.844-3.36,9.342A93.009,93.009,0,0,1,26.175,77.487a1.858,1.858,0,0,0-.321.222c1.381.265,2.733.32,4.077.455.973-.04,1.938.154,2.9.165,6.276.068,12.467-.5,18.348-2.907a26.136,26.136,0,0,0,8.591-5.553c1.056-1.042,1.056-1.06-.085-2.076-1.189-1.059-2.421-2.07-3.58-3.166a8.228,8.228,0,0,1-2.6-6.241c-.009-4.367-.056-8.735.021-13.1a12.484,12.484,0,0,0-1.306-5.926c-1.617-3.221-3.1-6.505-4.738-9.718-.09-.178-.135-.4-.376-.461a.553.553,0,0,0-.26.309c-1.026,2.031-1.338,2.163-3.594,1.675a6.56,6.56,0,0,0-2.851-.385c-1.357.829-1.49,1.716-.405,2.806,1.955,1.963,3.922,3.913,5.873,5.879,1.463,1.474,1.54,1.968.6,3.832a20.725,20.725,0,0,0-2.537,6.77c-.071.587-.033,1.178-.121,1.759a1.608,1.608,0,0,1-1.985,1.534" transform="translate(0)"/>
        <path id="Trazado_230042" data-name="Trazado 230042" d="M223.085,277.514q-4.126-8.646-8.252-17.293c-.663-1.39-.637-1.367.5-2.375.906-.8,1.761-1.663,2.614-2.522.284-.286.463-.412.837-.088q6.742,5.856,13.51,11.682c.023.02.026.063.07.182-1.316.475-2.637.939-3.948,1.429a6.08,6.08,0,0,0-3.251,2.61,1.805,1.805,0,0,0,.265,2.671,19.529,19.529,0,0,1-2.348,3.7" transform="translate(-154.776 -184.123)" fill="#fe7f85"/>
        <path id="Trazado_230043" data-name="Trazado 230043" d="M95.13,157.757l-4.7-.426a2.034,2.034,0,0,1,.974-.761,88.765,88.765,0,0,0,14.529-10.34c2.682-2.4,3.165-5.482,2.868-8.811-.082-.922-.778-1.335-1.691-1.345a10.647,10.647,0,0,0,0-3.36c1.017-.03,1.717-.531,1.714-1.554a16.88,16.88,0,0,1,2.342-7.864c1.392-2.691,1.583-2.463-.8-4.81-1.825-1.8-3.626-3.621-5.437-5.433-1.093-1.093-.836-2.425.605-3.133a1.835,1.835,0,0,1,.917.65q3.2,3.194,6.4,6.4a5.655,5.655,0,0,1,1.18,6.874,19.845,19.845,0,0,0-2.4,11.21c.1,1.763.031,3.535.013,5.3a9.968,9.968,0,0,1-2.9,7.029c-3.707,3.855-8.119,6.8-12.579,9.678a6.4,6.4,0,0,0-1.032.694" transform="translate(-65.284 -79.355)" fill="#fe7f85"/>
        <path id="Trazado_230044" data-name="Trazado 230044" d="M123.241,32.836a2.951,2.951,0,0,0-3.265,2.289c-.215.688-.592.81-1.234.629a5.969,5.969,0,0,0-3.371-.2,4.217,4.217,0,0,0-3.124,2.651c-.883,2.844-2.668,5.14-4.25,7.559a3.121,3.121,0,0,0-.408,2.9c1.211,3.93,2.322,7.892,3.474,11.84.145.5.429,1.077-.3,1.3-.7.213-.83-.415-1.017-.9-1.448-3.738-2.884-7.481-4.356-11.209a5.5,5.5,0,0,1,.479-5.248q2.592-4.133,5.12-8.306a1.291,1.291,0,0,1,1.2-.757,7.315,7.315,0,0,0,7.115-7.129c.066-1.661.006-3.327.025-4.99a2.552,2.552,0,0,0-.648-1.6q-3.375-4.481-6.735-8.974a8.09,8.09,0,0,1-.523-.771.426.426,0,0,1,.124-.559.387.387,0,0,1,.559.032c.222.217.432.449.635.685,2.414,2.813,4.811,5.642,7.247,8.436a4.573,4.573,0,0,1,1.226,3.307c-.045,1.281.017,2.565-.018,3.846a1.666,1.666,0,0,0,1.452,1.933,8.709,8.709,0,0,0-.167,2.564c-.041.59.535.417.761.669" transform="translate(-75.758 -8.128)" fill="#f5d08f"/>
        <path id="Trazado_230045" data-name="Trazado 230045" d="M37.533,287.644a88.317,88.317,0,0,0,11.1.591,49.709,49.709,0,0,0,13.4-2.07c.583-.183.842-.093,1.145.428q4.05,6.954,8.158,13.873c.314.53.4.823-.248,1.206a10.9,10.9,0,0,0-3,3.268c-2.116,2.878-2.463,2.989-5.907,1.909-.824-.258-1.658-.489-2.5-.7a5.988,5.988,0,0,0-4.877.8c-1.163.751-2.3,1.542-3.436,2.334a2.854,2.854,0,0,1-3.563-.01c-1.022-.714-2.057-1.408-3.081-2.119a6.478,6.478,0,0,0-5.744-.894c-1.2.341-2.388.7-3.579,1.064a2.765,2.765,0,0,1-3.294-1.08c-.663-.888-1.356-1.755-2-2.654a6.942,6.942,0,0,0-5.968-3c-.9,0-1.8,0-2.7-.025-2.124-.054-2.724-.474-3.468-2.46-.2-.547-.332-1.123-.495-1.685,1.363-.674,2.822-1.109,4.219-1.7a155.53,155.53,0,0,0,14.072-6.672,2.3,2.3,0,0,1,1.77-.4" transform="translate(-12.613 -206.527)" fill="#fe7f85"/>
        <path id="Trazado_230046" data-name="Trazado 230046" d="M107.249,152.143c-.179-.626.426-.625.711-.808,4.6-2.951,9.137-5.98,12.922-9.977a9.2,9.2,0,0,0,2.594-6.269c.063-2.875.028-5.752.012-8.628a14.01,14.01,0,0,1,1.527-6.481,11.32,11.32,0,0,0,1.434-3.535,5.388,5.388,0,0,0-1.45-4.65c-2.149-2.259-4.4-4.424-6.6-6.634-.267-.268-.5-.569-.748-.855.6-.431,1.2-.034,1.794.025a1.555,1.555,0,0,1,.2.034c3.864.938,3.364.8,4.809-2.222.33.141.369.482.5.749,1.7,3.481,3.376,6.969,5.076,10.448a11.144,11.144,0,0,1,1.149,5.009c-.015,4.5.02,9.01-.014,13.515a8.47,8.47,0,0,0,3.086,6.851c1.213,1.034,2.376,2.132,3.639,3.1.72.551.563.871.04,1.42a27.821,27.821,0,0,1-13.774,7.676,51.31,51.31,0,0,1-16.913,1.233" transform="translate(-77.402 -73.74)" fill="#fe999e"/>
        <path id="Trazado_230047" data-name="Trazado 230047" d="M199.487,284.329q3.039,6.353,6.077,12.706,2.342,4.911,4.668,9.831a6.5,6.5,0,0,1,.357.86.685.685,0,0,1-.392.859.658.658,0,0,1-.848-.161,3.563,3.563,0,0,1-.4-.6q-6.289-10.683-12.572-21.369a4.733,4.733,0,0,1-.213-.465c-.1-.118-.149-.3-.031-.369a6.1,6.1,0,0,1,3.36-1.293" transform="translate(-141.54 -205.261)" fill="#fedf9e"/>
        <path id="Trazado_230048" data-name="Trazado 230048" d="M35.976,289.87a6.62,6.62,0,0,0-2.25,1,166.405,166.405,0,0,1-16.5,7.52,2.734,2.734,0,0,1-1.312.256c-.044-.051-.106-.1-.129-.155-.764-2-.758-1.984,1.222-2.792,4.569-1.866,9.083-3.855,13.469-6.122a2.982,2.982,0,0,1,2.258-.317c1.062.274,2.159.412,3.241.609" transform="translate(-11.056 -208.753)" fill="#e4646e"/>
        <path id="Trazado_230049" data-name="Trazado 230049" d="M125.8,58.876a4.184,4.184,0,0,1,1.163,5.764,4.262,4.262,0,0,1-5.924,1.274.678.678,0,0,1-.22-.563c.529-2.246.828-4.623,3.069-5.982.575-.348,1.155-.8,1.912-.493" transform="translate(-87.215 -42.431)" fill="#fedf9e"/>
        <path id="Trazado_230050" data-name="Trazado 230050" d="M121.312,57.038a5.129,5.129,0,0,0-4.086,4.042,9.72,9.72,0,0,0-.675,3,4.248,4.248,0,0,1-1.118-6.1,4.166,4.166,0,0,1,5.879-.943" transform="translate(-82.726 -40.593)" fill="#9e6d50"/>
        <path id="Trazado_230051" data-name="Trazado 230051" d="M195.883,277.884c-1.108.557-2.415.716-3.329,1.661l-1.487-2.383c1.085-.562,2.134-1.072,3.148-1.645.448-.254.6-.078.762.294.294.694.6,1.382.906,2.073" transform="translate(-137.937 -198.816)" fill="#f4cf8f"/>
        <path id="Trazado_230052" data-name="Trazado 230052" d="M92.557,62.709A1.681,1.681,0,0,1,90.8,60.956a1.736,1.736,0,0,1,1.761-1.776,1.855,1.855,0,0,1,1.756,1.72,1.829,1.829,0,0,1-1.761,1.809" transform="translate(-65.551 -42.723)" fill="#775252"/>
      </g>
    </g>
  </g>
</svg>
