<svg id="Grupo_147323" data-name="Grupo 147323" xmlns="http://www.w3.org/2000/svg" xmlns:xlink="http://www.w3.org/1999/xlink" width="63.422" height="63.426" viewBox="0 0 63.422 63.426">
  <defs>
    <clipPath id="clip-path">
      <rect id="Rectángulo_89270" data-name="Rectángulo 89270" width="63.422" height="63.426" fill="none"/>
    </clipPath>
  </defs>
  <g id="Grupo_147323-2" data-name="Grupo 147323" clip-path="url(#clip-path)">
    <path id="Trazado_230181" data-name="Trazado 230181" d="M62.691,13.268a4.427,4.427,0,0,0-3.542-1.717c-1.793-.006-3.585-.012-5.378,0-.5,0-.718-.167-.689-.681.027-.493.022-.99,0-1.483a.755.755,0,0,1,.55-.834,2.359,2.359,0,0,0,1.549-2.251c.021-.68.026-1.36,0-2.04A4.309,4.309,0,0,0,51.092.037c-3.4.016-6.8-.015-10.2.011A4.064,4.064,0,0,0,36.915,3.87c-.051.9-.034,1.813,0,2.719a1.8,1.8,0,0,0,1.115,1.785C39,8.688,39.1,9.3,39,10.113a5.33,5.33,0,0,0,0,.556c0,.852-.025.877-.856.878-1.752,0-3.5.011-5.254,0a3.944,3.944,0,0,0-2.235.6c-.436.283-.668.194-.932-.233a5.146,5.146,0,0,0-3.1-2.3c-.993-.277-.992-.281-.992-1.3,0-.227,0-.453,0-.68a7.679,7.679,0,0,0-1.273-4.263A6.9,6.9,0,0,0,19.52.132,39.433,39.433,0,0,0,14.089.059,4.009,4.009,0,0,0,12.865.2a7.607,7.607,0,0,0-5.2,5.031,10.183,10.183,0,0,0-.312,3.489c.01.513-.184.716-.682.821A5.116,5.116,0,0,0,2.458,13.71C1.635,17.39.929,21.1.221,24.8c-.332,1.737-.436,3.492.755,5.026a.487.487,0,0,1-.1.713A3.044,3.044,0,0,0,.032,32.9C.041,41.988.058,51.076.018,60.162a3.112,3.112,0,0,0,2.553,3.263H43.88a2.979,2.979,0,0,0,2.756-3.148c.04-1.729.027-3.459.031-5.188.015-7.168-.066-14.336.042-21.5.042-2.808-1.557-4.392-4.31-4.113-1.788-.018-3.575,0-5.363-.009-.838,0-.858-.039-.881-.862a19.475,19.475,0,0,0-.122-3.381,7.342,7.342,0,0,0-3.849-5.379,1.205,1.205,0,0,1-.663-.9,18.847,18.847,0,0,0-.38-1.876c-.615-2.139.418-3.089,2.492-3.074,8.3.057,16.6.031,24.9.019.226.007.453.011.678.027a1.98,1.98,0,0,1,1.9,1.915c.021.288.012.576.012.865q0,17.544,0,35.088c0,2.3-.631,2.93-2.935,2.936-2.842.007-5.683-.009-8.525.009-.845.185-1.078.45-1.125,1.288.174.816.506,1.1,1.49,1.141.452.02.621.183.608.63-.02.719-.006,1.439,0,2.158a3.037,3.037,0,0,0,2.648,3.358h3.339a3.278,3.278,0,0,0,1.269-.412A3.413,3.413,0,0,0,59.377,60.3q.034-1.173,0-2.348c-.015-.479.173-.689.642-.8a4.017,4.017,0,0,0,3.4-3.5V15.314a3.773,3.773,0,0,0-.731-2.046M22.817,9.618c-2.121-.019-4.242-.009-6.363-.009s-4.242-.008-6.363.008c-.362,0-.519-.061-.493-.465a18.548,18.548,0,0,1,.125-2.77,5.2,5.2,0,0,1,4.706-4.139,20.183,20.183,0,0,1,4.377.05A5.216,5.216,0,0,1,23.321,7.44c.02.555-.021,1.114.015,1.667.027.414-.119.515-.519.511m27.457,2.107c-1.422-.018-2.844-.007-4.265-.007s-2.844-.014-4.265.009c-.374.006-.5-.08-.485-.472.032-.761.019-1.525,0-2.287-.005-.291.034-.444.392-.442q4.358.021,8.716,0c.355,0,.4.152.4.445-.013.762-.028,1.526.005,2.287.018.407-.143.471-.5.466" transform="translate(0 0.001)"/>
    <path id="Trazado_230182" data-name="Trazado 230182" d="M23.859,201.273a1.062,1.062,0,0,0-1.3-.658c-.657.192-.783.711-.783,1.311,0,6.349-.005,12.7.014,19.046,0,.548-.116.725-.7.715-2.122-.039-4.246-.014-6.369-.016-1.018,0-1.38-.36-1.38-1.375q0-13.419,0-26.838c0-.978.366-1.341,1.347-1.341q15.4,0,30.795-.013c.51,0,.616.158.6.625-.034.947-.013,1.9-.008,2.844a.716.716,0,0,1-.229.6c-.766.719-1.5,1.47-2.254,2.2a2.268,2.268,0,0,0-.7,1.719c.011,1.855,0,3.71.005,5.565a2.117,2.117,0,0,0,2.265,2.289,2.331,2.331,0,0,0,.371,0c.433-.066.552.108.55.541-.018,3.3-.014,6.6-.005,9.894a1.056,1.056,0,0,0,1,1.178,1.1,1.1,0,0,0,1.1-1.161c.008-.144,0-.288,0-.433v-7.421c0-.68.035-1.363-.012-2.04-.033-.487.146-.6.591-.564a2.652,2.652,0,0,0,1.1-.1,2.008,2.008,0,0,0,1.45-1.876c.023-2.04.009-4.081.008-6.122a1.991,1.991,0,0,0-.635-1.43c-.741-.745-1.482-1.491-2.25-2.208a.7.7,0,0,1-.255-.579c.008-1.031.013-2.061,0-3.092,0-.312.075-.432.41-.427,1.525.022,3.05.02,4.575.026a.765.765,0,0,1,.425.7,8.071,8.071,0,0,1,.022.865q0,13.2,0,26.4c0,1.514,0,1.514-1.481,1.514H24.619c-.707,0-.708,0-.708-.69q0-9.489,0-18.978a1.606,1.606,0,0,0-.049-.671" transform="translate(-11.133 -160.352)" fill="#fe9701"/>
    <path id="Trazado_230183" data-name="Trazado 230183" d="M203.958,125.868c-.532-.006-1.065.01-1.6-.025-.4-.026-.473.153-.471.505.006,1.244-.014,2.488-.024,3.729q0-2.287-.008-4.569,0-11.313,0-22.626a3.126,3.126,0,0,0-2.583-3.345,11.029,11.029,0,0,0-1.54-.07c-.272-.119-.3-.367-.3-.612a4.568,4.568,0,0,1,.07-1.387c.009-.017.015-.045.03-.052,1.015-.448,1.071-1.3,1.038-2.259a6.373,6.373,0,0,0-.509-2.821,4.1,4.1,0,0,0-4.832-1.993c-.715.237-.9.562-.852,1.481a1.943,1.943,0,0,1-.359.7,3.527,3.527,0,0,0-.561,1.841c0,.236.1.545-.261.652a7.27,7.27,0,0,0-4.007-5.317.768.768,0,0,1-.454-.6c-.193-1.01-.406-2.015-.6-3.024a2.024,2.024,0,0,1,1.847-2.423c.123-.01.247-.007.371-.007h24.962c.164,0,.329.016.493.024a1.237,1.237,0,0,1,.651.784,4.542,4.542,0,0,1,.3,1.693q0,18.1,0,36.2a4.054,4.054,0,0,1-.35,1.74,1.073,1.073,0,0,1-1.106.7c-2.574-.025-5.148-.012-7.722-.009a1.881,1.881,0,0,0-.673.042,1.118,1.118,0,0,0-.94,1.048" transform="translate(-155.332 -69.824)" fill="#00bbd3"/>
    <path id="Trazado_230184" data-name="Trazado 230184" d="M18.9,90.39c-.8,0-1.607.013-2.41,0A2.944,2.944,0,0,1,13.577,86.8q1.181-5.958,2.39-11.911A3,3,0,0,1,17.321,72.9c.359-.234.537-.187.75.2,1.463,2.672,2.951,5.33,4.434,7.991a4.184,4.184,0,0,0,.549.89.861.861,0,0,1,.051,1.3,7,7,0,0,0-1.188,4.024c-.019.885-.014,1.772,0,2.657.006.321-.1.433-.427.426-.865-.017-1.73-.006-2.6-.006" transform="translate(-11.28 -60.733)" fill="#ba193b"/>
    <path id="Trazado_230185" data-name="Trazado 230185" d="M299.88,124.884c.2-.166.435-.1.654-.1,2.556,0,5.112-.015,7.668.008a.912.912,0,0,0,.956-.6,3.645,3.645,0,0,0,.373-1.543q0-18.336,0-36.671a3.867,3.867,0,0,0-.747-2.243c1.578-.1,2.458.394,2.766,1.568a2.9,2.9,0,0,1,.077.731q.005,18.256,0,36.512a2.126,2.126,0,0,1-2.113,2.325c-3.211.028-6.423.009-9.635.008" transform="translate(-250.315 -69.888)" fill="#00828e"/>
    <path id="Trazado_230186" data-name="Trazado 230186" d="M96.047,136.886c-.041.005-.081.014-.122.015-.949.029-.949.029-.949-.9,0-.741.01-1.483,0-2.224a2.046,2.046,0,0,0-2.124-2.163q-5.252-.036-10.5,0a2.106,2.106,0,0,0-2.118,2.19c-.009.865-.014,1.73,0,2.595.007.348-.054.528-.464.512-.761-.03-1.524-.011-2.286-.007-.243,0-.456,0-.445-.341a18.968,18.968,0,0,1,.223-4.242,5.171,5.171,0,0,1,4.832-3.83c3.748-.026,7.5.006,11.244.013a4.828,4.828,0,0,1,2.347,2.648,6.223,6.223,0,0,1,.553,2.818c-.028.738,0,1.479-.008,2.218a.874.874,0,0,1-.178.694" transform="translate(-64.295 -107.249)" fill="#9f522d"/>
    <path id="Trazado_230187" data-name="Trazado 230187" d="M53.546,70.865H61.86c2.081,0,4.162.008,6.243-.007.417,0,.513.072.291.465q-1.85,3.28-3.665,6.58a.7.7,0,0,1-.764.357,8.843,8.843,0,0,0-4.23.635c-.166.082-.336.157-.5.245-.844.459-.852.465-1.311-.358q-2.106-3.773-4.2-7.554c-.048-.087-.088-.178-.18-.364" transform="translate(-44.696 -59.147)" fill="#ee314c"/>
    <path id="Trazado_230188" data-name="Trazado 230188" d="M77,201.337c.206.232.112.513.112.77q.009,9.4-.007,18.8c0,.56.137.727.715.726q13.943-.028,27.887-.013c.789,0,.84-.047.84-.841q0-13.82.006-27.64a1.662,1.662,0,0,0-.251-.936c.432-.006.865-.029,1.3-.014a1.025,1.025,0,0,1,1.085,1.088c.009.164,0,.33,0,.494q0,13.2,0,26.394c0,1.307-.272,1.574-1.6,1.574q-14.68,0-29.36.016c-.547,0-.722-.113-.72-.7.023-6.181.015-12.362.014-18.543,0-.391-.011-.782-.018-1.174" transform="translate(-64.269 -160.417)" fill="#f47c00"/>
    <path id="Trazado_230189" data-name="Trazado 230189" d="M248.535,17.548q-4.136.015-8.272.03c-.967,0-1.935-.011-2.9.007-.34.006-.481-.091-.464-.45.025-.555,0-1.111.01-1.667a2.061,2.061,0,0,1,2.124-2.1c2.881-.012,5.763,0,8.644.006a1.152,1.152,0,0,1,.669.686,6.656,6.656,0,0,1,.342,3.223.432.432,0,0,1-.15.263" transform="translate(-197.74 -11.156)" fill="#607c8a"/>
    <path id="Trazado_230190" data-name="Trazado 230190" d="M223.391,138.654a7.414,7.414,0,0,0,.121,2.07c-1.976,0-3.953,0-5.929.021-.418.005-.51-.139-.512-.53a28.277,28.277,0,0,0-.1-3.942c.035-.091.108-.186.1-.273a4.07,4.07,0,0,1,.992-2.927,2.708,2.708,0,0,0,1.945.139,2.292,2.292,0,0,1,2.542,2.192,6.633,6.633,0,0,1,.008,1.11,2,2,0,0,0,.832,2.14" transform="translate(-181.111 -111.078)" fill="#00828e"/>
    <path id="Trazado_230191" data-name="Trazado 230191" d="M114.335,163.311c-1.585,0-3.17-.012-4.754.008-.4.005-.541-.1-.525-.515.031-.76.018-1.523,0-2.284,0-.287.087-.4.387-.4q4.878.01,9.755,0c.285,0,.408.1.4.393-.012.8-.02,1.606,0,2.408.012.42-.241.394-.52.393q-2.377,0-4.754,0" transform="translate(-91.03 -133.653)" fill="#ba193b"/>
    <path id="Trazado_230192" data-name="Trazado 230192" d="M138.822,79.579c-.988,0-1.975-.007-2.963,0-.371,0-.567-.038-.324-.469q1.8-3.2,3.572-6.412c.175-.318.363-.331.645-.167a2.875,2.875,0,0,1,1.464,1.9c.342,1.564.647,3.137.975,4.7.075.357-.04.467-.407.458-.987-.023-1.975-.008-2.963-.008Z" transform="translate(-113.043 -60.459)" fill="#ba193b"/>
    <path id="Trazado_230193" data-name="Trazado 230193" d="M322.137,345.495c.536,0,1.072.009,1.607,0,.3-.007.459.06.453.406-.017.907.012,1.814-.013,2.72a1.066,1.066,0,0,1-1.112,1.084c-.659.019-1.319.021-1.978,0a1.019,1.019,0,0,1-1.11-1.124c-.013-.886.006-1.772-.009-2.658-.005-.322.111-.439.432-.429.577.018,1.154,0,1.731,0" transform="translate(-267.087 -288.386)" fill="#545c60"/>
    <path id="Trazado_230194" data-name="Trazado 230194" d="M178.4,137a35.717,35.717,0,0,0-.089-4.17,6.467,6.467,0,0,0-2.625-4.208,5.213,5.213,0,0,1,4.7,4.12,27.072,27.072,0,0,1,.123,3.941c.012.283-.143.345-.385.339-.576-.013-1.152-.016-1.728-.022" transform="translate(-146.65 -107.366)" fill="#773e22"/>
    <path id="Trazado_230195" data-name="Trazado 230195" d="M206.2,228.511c.731-.861.673-.79,1.522-.1a3.432,3.432,0,0,1,1.374,3.3,28.487,28.487,0,0,0-.018,3.513c.006.361-.068.5-.468.493-1.109-.028-2.22-.01-3.33-.006-.234,0-.437.027-.435-.33.015-1.809.007-3.618.013-5.427,0-.068.067-.135.1-.2.257.247.2.571.2.871.01,1.357,0,2.713.009,4.07,0,.235-.061.552.24.637a1.6,1.6,0,0,0,1.2-.045c.178-.093.149-.327.15-.508.007-1.6.01-3.206,0-4.81a1.351,1.351,0,0,0-.309-.852c-.137-.174-.31-.341-.249-.6" transform="translate(-170.986 -190.215)" fill="#fdc008"/>
    <path id="Trazado_230196" data-name="Trazado 230196" d="M206.788,231.7a2.6,2.6,0,0,1,.766,2.333c-.049,1.395-.027,2.792,0,4.188.007.432-.13.561-.561.563-1.428.006-1.427.022-1.428-1.412q0-2.217-.01-4.435a9.578,9.578,0,0,1,1.238-1.237" transform="translate(-171.576 -193.405)" fill="#fedb00"/>
    <path id="Trazado_230197" data-name="Trazado 230197" d="M302.969,17.556A17.4,17.4,0,0,0,302.88,15a3.154,3.154,0,0,0-.771-1.621,7.015,7.015,0,0,1,1.169.031,2.15,2.15,0,0,1,1.791,2.2c.017.494-.017.99.01,1.483.021.387-.135.508-.5.488-.534-.029-1.07-.022-1.606-.03" transform="translate(-252.175 -11.164)" fill="#37474f"/>
    <path id="Trazado_230198" data-name="Trazado 230198" d="M26.074,208.61c0-.824-.008-1.649,0-2.472.01-.849.4-1.235,1.262-1.245.618-.007,1.237-.017,1.854,0a1.051,1.051,0,1,1,0,2.1c-1.015.05-1.015.05-1.015,1.058s.007,2.019,0,3.029a1.084,1.084,0,0,1-1.046,1.2,1.1,1.1,0,0,1-1.057-1.2c-.012-.824,0-1.648,0-2.472" transform="translate(-21.762 -171.02)" fill="#f4f4f4"/>
    <path id="Trazado_230199" data-name="Trazado 230199" d="M66.321,207.073c0,.371.022.743-.005,1.112a1.032,1.032,0,0,1-2.046.117,9.451,9.451,0,0,1,.008-2.523,1,1,0,0,1,1.07-.83,1.007,1.007,0,0,1,.964.95c.031.389.006.782.006,1.173h0" transform="translate(-53.58 -171.073)" fill="#010000"/>
    <path id="Trazado_230200" data-name="Trazado 230200" d="M294.352,137.267c0-3.628-.009-7.255,0-10.883a4.219,4.219,0,1,1,8.434-.09c.022,4.369.006,8.739.006,13.109,0,2.968.02,5.936-.008,8.9a4.059,4.059,0,0,1-2.254,3.779,4,4,0,0,1-4.281-.2,4.152,4.152,0,0,1-1.9-3.732c.014-3.628,0-7.255,0-10.883" transform="translate(-245.697 -101.826)"/>
    <path id="Trazado_230201" data-name="Trazado 230201" d="M228.4,129.371c-.858-.3-1-.5-1.009-1.385,0-.556.006-1.112,0-1.668a2.116,2.116,0,0,0-2.846-2.12,1.178,1.178,0,0,1-1.47-.408,1.112,1.112,0,0,1,.823-1.608,4.231,4.231,0,0,1,5.592,3.847c.026.656.011,1.314.008,1.971,0,.859-.234,1.142-1.1,1.371" transform="translate(-186.125 -101.796)"/>
    <path id="Trazado_230202" data-name="Trazado 230202" d="M86.276,92.026c-.495,0-.991.021-1.484,0a1.067,1.067,0,0,1-1.144-1.047,1.04,1.04,0,0,1,1.117-1.067q1.514-.046,3.029,0a1.048,1.048,0,0,1,1.12,1.068c-.012.6-.442.985-1.155,1.044-.041,0-.082.005-.123.005h-1.36v0" transform="translate(-69.823 -75.028)" fill="#010000"/>
    <path id="Trazado_230203" data-name="Trazado 230203" d="M307.214,147.783q0-5.5,0-11a2.093,2.093,0,0,1,3.292-1.764,2.267,2.267,0,0,1,.927,2.043q-.007,5.313,0,10.625,0,5.5,0,11a2.126,2.126,0,0,1-2.228,2.325,2.069,2.069,0,0,1-1.982-2.171c-.009-3.686,0-7.372,0-11.058" transform="translate(-256.435 -112.375)" fill="#00828e"/>
  </g>
</svg>
