<svg xmlns="http://www.w3.org/2000/svg" xmlns:xlink="http://www.w3.org/1999/xlink" width="152" height="152" viewBox="0 0 152 152">
  <defs>
    <clipPath id="clip-path">
      <rect id="Rectángulo_89236" data-name="Rectángulo 89236" width="141.395" height="141.363" fill="none"/>
    </clipPath>
  </defs>
  <g id="Grupo_148252" data-name="Grupo 148252" transform="translate(-308 -1128)">
    <g id="Elipse_5604" data-name="Elipse 5604" transform="translate(308 1128)" fill="#fff" stroke="#fec0c2" stroke-width="6">
      <circle cx="76" cy="76" r="76" stroke="none"/>
      <circle cx="76" cy="76" r="73" fill="none"/>
    </g>
    <g id="Grupo_147271" data-name="Grupo 147271" transform="translate(313.713 1132.637)">
      <g id="Grupo_147270" data-name="Grupo 147270" clip-path="url(#clip-path)">
        <path id="Trazado_229908" data-name="Trazado 229908" d="M382.6,195.732a1.6,1.6,0,0,1,0-1.933Z" transform="translate(-241.202 -122.282)" fill="#4fbfd5"/>
        <path id="Trazado_229909" data-name="Trazado 229909" d="M195.775,0a1.594,1.594,0,0,1-1.933,0Z" transform="translate(-122.309)" fill="#3eb9d0"/>
        <path id="Trazado_229910" data-name="Trazado 229910" d="M186.345,0c-.491.5-1.11.194-1.669.266q-.125-.095-.077-.182c.031-.056.06-.085.09-.085Z" transform="translate(-116.468)" fill="#3fb9d0"/>
        <path id="Trazado_229911" data-name="Trazado 229911" d="M182.03,0q0,.133-.013.266C181.47.173,180.85.528,180.373,0Z" transform="translate(-113.81)" fill="#65c7da"/>
        <path id="Trazado_229912" data-name="Trazado 229912" d="M203.373,0c-.184.331-.368.3-.552,0Z" transform="translate(-127.974)" fill="#96d9e6"/>
        <path id="Trazado_229913" data-name="Trazado 229913" d="M382.73,204.078c-.349-.184-.309-.368,0-.552Z" transform="translate(-241.336 -128.419)" fill="#b1e2ec"/>
        <path id="Trazado_229914" data-name="Trazado 229914" d="M382.746,179.385c-.3-.184-.331-.368,0-.552Z" transform="translate(-241.352 -112.838)" fill="#98d9e6"/>
        <path id="Trazado_229915" data-name="Trazado 229915" d="M39.476,262.69c-15.968-9.534-26.632-23.243-32.223-40.943-.137-.434-.2-.891-.3-1.338a15.309,15.309,0,0,1,9.117-11.322,5.866,5.866,0,0,1,2.221-.628,10.119,10.119,0,0,1-2.534.151c-.436-.048-1.044.133-1.141-.6,1.344-.816,2.814-.285,4.223-.4a3.5,3.5,0,0,1,1.12.139c1.233.9,1.732,2.333,2.463,3.577,2.089,3.554,4.184,7.107,6.232,10.686.694,1.214,1.076,1.214,1.759-.024.752-1.365,1.612-2.667,2.345-4.043a2.673,2.673,0,0,1,1.12-1.352,8.3,8.3,0,0,1,2.846-.079c.671.122.947.673,1.246,1.182.834,1.418,1.658,2.842,2.5,4.258.759,1.282,1.034,1.3,1.807-.03.8-1.383,1.631-2.752,2.422-4.143.267-.47.47-1.016,1.125-1.091.725.176.99.91,1.557,1.283a5.1,5.1,0,0,0,2.932.98,13.292,13.292,0,0,1,1.862,0c.721.592.817,1.521,1.222,2.284a24.252,24.252,0,0,0,13.115,11.633c2.111.812,2.563,1.876,1.667,4.073a2.529,2.529,0,0,1-1.832.434c-1.656.016-3.312,0-4.967.008-1.789.013-1.808.035-2.159,1.735a.79.79,0,0,1-.349.3,16.024,16.024,0,0,1-3.985.144c-8.4-.3-15.19,7.307-14.767,14.774.13,2.293.045,4.6,0,6.9-.01.536.2,1.247-.644,1.446" transform="translate(-4.39 -130.955)" fill="#a7e446"/>
        <path id="Trazado_229916" data-name="Trazado 229916" d="M49.981,24.765l20.23.069c.778,0,1.591-.091,2.07.744a7.351,7.351,0,0,1,.188,3.639,25.288,25.288,0,0,1-3.305,9.2,41.269,41.269,0,0,1-3.914,4.7,24.642,24.642,0,0,1-17.306,6.328c-6.662-.041-13.325.008-19.987-.016a33.319,33.319,0,0,1-6.027-.171c-.282-.18-.389-.394-.06-.619A2.257,2.257,0,0,1,23.2,48.38q5.789-.019,11.578,0a6.005,6.005,0,0,1,1.984.345c-4.973-1.441-7.853-4.826-8.887-9.825-1.209-5.846,2.922-12.552,8.907-13.725a.461.461,0,0,0,.324-.207,34.211,34.211,0,0,1,6.15-.143c2.241-.035,4.482-.041,6.723-.06" transform="translate(-13.671 -15.618)" fill="#12263f"/>
        <path id="Trazado_229917" data-name="Trazado 229917" d="M230.683,316.609a71.948,71.948,0,0,1-21.624,7.9,89.956,89.956,0,0,1-10.158,1.2,7.935,7.935,0,0,1-.108-2.6c-.024-3.313-.017-6.626,0-9.939a9.544,9.544,0,0,0-.349-2.864,1.912,1.912,0,0,1,.152-1.148,6.774,6.774,0,0,0,.273-2.712c.035-.4-.051-.921.388-1.1.489-.2.7.3.943.61,1.147,1.44,1.455,1.426,2.425-.187,2.44-4.056,4.758-8.185,7.185-12.25.331-.555.6-1.161,1.354-1.253a44.062,44.062,0,0,1,5.782-.01,14.667,14.667,0,0,1,10.1,5.288,15.017,15.017,0,0,1,3.173,5.746,12.432,12.432,0,0,1,.614,4.175c-.089,3.049.185,6.1-.151,9.15" transform="translate(-125.19 -184.343)" fill="#ebebf0"/>
        <path id="Trazado_229918" data-name="Trazado 229918" d="M327.763,213.722a17.043,17.043,0,0,1,9.116,3.981,63.557,63.557,0,0,1-2.946,11.393,69.177,69.177,0,0,1-12.6,21.927,67.476,67.476,0,0,1-9.275,9.155,2.252,2.252,0,0,1-.453-1.809c0-8.207-.04-16.414.012-24.618.106-3.25.012-6.5.05-9.755.02-1.716.182-1.908,1.812-2.427a29.9,29.9,0,0,0,11.806-6.8,4.413,4.413,0,0,1,1.591-1.054,1.228,1.228,0,0,1,.892,0" transform="translate(-196.602 -134.798)" fill="#ffedb6"/>
        <path id="Trazado_229919" data-name="Trazado 229919" d="M124.914,293.222a.374.374,0,0,1,.229-.015c.919-.089,1.093.723,1.419,1.259,2.313,3.8,4.491,7.684,6.757,11.514.187.316.379.628.583.934.5.744,1,.968,1.776.263.746-.675,1.038-.519,1.157.479a5.243,5.243,0,0,0,.29,2.159,1.9,1.9,0,0,1,.148,1.152,9.855,9.855,0,0,0-.337,2.848q.017,5.142,0,10.284a2.891,2.891,0,0,1-.364,1.976A52.445,52.445,0,0,1,122.98,324a64.012,64.012,0,0,1-11.049-3.965c-.088-4.683-.511-9.391.234-14.036a15.269,15.269,0,0,1,8.8-11.782,16.524,16.524,0,0,1,3.954-.994" transform="translate(-70.499 -184.998)" fill="#ebebf0"/>
        <path id="Trazado_229920" data-name="Trazado 229920" d="M10.628,90.42l6.345.06a.99.99,0,0,1,.187.912c-.948,3.713-.584,7.5-.646,11.264a30.382,30.382,0,0,0,.863,9.44c2.548,8.416,8.133,13.8,16.432,16.458a9.552,9.552,0,0,0,4.91.282c.516-.107,1.078-.34,1.577.1a6.746,6.746,0,0,1,.247,2.829c0,1.6.041,3.2-.017,4.8a6.65,6.65,0,0,1-3.614,5.9,2.5,2.5,0,0,1-1.7.383l-3.274.085c-2.837-.258-5.182-3.539-5.146-5.791.027-1.692-.012-3.385.007-5.076.057-2.724.061-2.733-2.419-3.737a26.511,26.511,0,0,1-8.4-5.618,27.844,27.844,0,0,1-5.255-8.543c-1.461-3.724-1.714-7.634-1.757-11.617a3.561,3.561,0,0,0-1.255,2.631c-.08,1.787-.064,3.577-.008,5.364A5.019,5.019,0,0,0,8.543,113c.256.422.644.8.539,1.366-.258.468-.694.411-1.074.285-1.544-.511-2.953-1.2-3.46-2.943l-.3-1.614a15.347,15.347,0,0,1-.014-4.222,3.642,3.642,0,0,1,1.61-3c.359-.206.3-.676.586-.931a1.672,1.672,0,0,1,.8-.52c1.756-.351,2-1.541,1.9-3.081a24.177,24.177,0,0,1,.58-6.569c.113-.548.133-1.229.917-1.352" transform="translate(-2.586 -57.052)" fill="#f9a58d"/>
        <path id="Trazado_229921" data-name="Trazado 229921" d="M293.625,266.364q0,13.4.006,26.793a73.176,73.176,0,0,1-9.959,6.886c-.427-.476-.2-1.053-.222-1.582-.143-3.437.285-6.89-.3-10.314-.093-.541-.216-1.077-.325-1.616a18.791,18.791,0,0,1-.432-4.214c.026-4.623,0-9.247.015-13.87a3.561,3.561,0,0,1,.356-2.131,2.477,2.477,0,0,1,1.688-.4q3.753-.027,7.506,0a2.328,2.328,0,0,1,1.671.451" transform="translate(-178.179 -167.777)" fill="#feca2e"/>
        <path id="Trazado_229922" data-name="Trazado 229922" d="M13.826,49.351c-.989,1.777-.871,3.775-1.081,5.694a25.987,25.987,0,0,0-.015,3.968c.035.777-.2,1.137-.992,1.284a3.746,3.746,0,0,0-2.075.955c-.769-.2-.384-.828-.387-1.233-.033-4.187-.018-8.375-.024-12.563a3.956,3.956,0,0,0-.085-1.369c.342-7.743,3.6-13.839,10.275-17.928a18.086,18.086,0,0,1,9.779-2.827c.01.585-.543.445-.815.544A11.956,11.956,0,0,0,20.182,37.8a12.591,12.591,0,0,0,9.044,11.32c-4.1,0-8.2-.024-12.293.017-1.033.01-2.1-.286-3.107.213" transform="translate(-5.784 -15.984)" fill="#12263f"/>
        <path id="Trazado_229924" data-name="Trazado 229924" d="M114.405,293.208a20.9,20.9,0,0,0-6.31,2.837A15,15,0,0,0,102,306.1c-.663,4.094-.152,8.236-.3,12.354-.019.526.21,1.112-.276,1.562-2.1-1.125-4.33-2.009-6.345-3.3.363-.5.178-1.068.2-1.606.139-3.348-.325-6.721.337-10.046a15.1,15.1,0,0,1,14.1-11.879c1.562-.039,3.126.011,4.689.02" transform="translate(-59.99 -184.984)" fill="#d2d2d7"/>
        <path id="Trazado_229925" data-name="Trazado 229925" d="M179.038,355.067q.018-6.764.039-13.527c0-.683-.079-1.4.531-1.917a1.449,1.449,0,0,1,1.257-.4c1.827.147,3.713-.475,5.485.4a1.579,1.579,0,0,1,.522,1.357q.014,6.862,0,13.724a2.426,2.426,0,0,1-.19.646c-2.058-.011-4.116-.015-6.173-.039a2.659,2.659,0,0,1-1.468-.246" transform="translate(-112.968 -213.99)" fill="#fc4b52"/>
        <path id="Trazado_229926" data-name="Trazado 229926" d="M2.361,213.342c2.746-2.184,5.705-3.855,9.343-3.9H16.1a24.455,24.455,0,0,0-5.789,2.9,15.093,15.093,0,0,0-5.693,8.306c-.094.361.045.887-.56.962a44.745,44.745,0,0,1-1.7-8.265" transform="translate(-1.49 -132.152)" fill="#85b638"/>
        <path id="Trazado_229927" data-name="Trazado 229927" d="M8.961,81.577a2.6,2.6,0,0,1,.215,1.607c.012,4.046,0,8.093.017,12.14,0,.475-.219,1.021.264,1.418a.786.786,0,0,1-.617.551q.039-7.309.081-14.618c0-.366.026-.732.04-1.1" transform="translate(-5.578 -51.473)" fill="#f9a58e"/>
        <path id="Trazado_229928" data-name="Trazado 229928" d="M3.982,132.281q.007,2.111.014,4.222a7.688,7.688,0,0,1-.014-4.222" transform="translate(-2.33 -83.465)" fill="#f9a58e"/>
        <path id="Trazado_229929" data-name="Trazado 229929" d="M233.181,32.516c4.338-2.485,9.063-3,13.943-2.757.593.03,1.19-.023,1.784-.037a6.906,6.906,0,0,1,5.266,2.3.915.915,0,0,1-.269.875c-2.846,3.49-2.47,7.356-1.324,11.309a4.16,4.16,0,0,1,.407,1.85c-1.919,3.6-5.1,5.661-8.766,7.081a17.412,17.412,0,0,1-7.151,1.052c-1.051-.047-2.106,0-3.159,0-1.641.033-3.283.033-4.924.01a1.481,1.481,0,0,0-1.681,1.391c-.177.942-.311,1.889-.454,2.835-.531,1.941-1.732,2.165-3.966.744a.558.558,0,0,1-.127-.24c-.246-6.352-1.008-12.759,2.41-18.653a21.12,21.12,0,0,1,6.506-7.167,2.483,2.483,0,0,1,1.5-.6" transform="translate(-140.4 -18.742)" fill="#12263f"/>
        <path id="Trazado_229930" data-name="Trazado 229930" d="M302.132,45.981a23.592,23.592,0,0,1-1.42-6.251,10.01,10.01,0,0,1,2.794-7.772c3.671-3.05,7.8-2.775,11.861-1.268,7.156,2.657,11.226,7.9,11.937,15.555a43.79,43.79,0,0,1,.1,7.709c-.031,3.568,0,7.136-.014,10.7,0,1.468-.014,1.485-1.438.944a13.482,13.482,0,0,1-1.946-.655c-.6-.6-.444-1.369-.447-2.086a34.052,34.052,0,0,0-.489-7.279,1.555,1.555,0,0,0-1.777-1.46c-2.161.04-4.325.054-6.485,0a14.462,14.462,0,0,1-12.146-6.754,2.278,2.278,0,0,1-.534-1.39" transform="translate(-189.731 -18.673)" fill="#12263f"/>
        <path id="Trazado_229931" data-name="Trazado 229931" d="M360.585,106.373a6.74,6.74,0,0,1,3.433,1.133V95.594c.026,3.627.063,7.25.068,10.874a2.7,2.7,0,0,0,.62,1.876c1.64,1.99,1.441,4.351,1.181,6.7a7.179,7.179,0,0,1-1.84,3.221,4.328,4.328,0,0,1-5.244,1.1,1.467,1.467,0,0,1,.054-1.067,29.725,29.725,0,0,0,1.3-10c-.021-.663-.147-1.386.426-1.936" transform="translate(-226.342 -60.317)" fill="#d37f6c"/>
        <path id="Trazado_229933" data-name="Trazado 229933" d="M344.919,158.175a7.045,7.045,0,0,0,5.143-1.138c.017,3.708.014,7.416.068,11.123.013.865-.312,1.084-1.123,1.077-3.021-.025-6.043.011-9.064.024a4.244,4.244,0,0,1-2.98.227c-.7-.327-.341-.724-.031-1.058.4-.433.894-.774,1.331-1.176a24.183,24.183,0,0,0,5.817-7.862,2.4,2.4,0,0,1,.839-1.219" transform="translate(-212.358 -99.086)" fill="#12263f"/>
        <path id="Trazado_229935" data-name="Trazado 229935" d="M142.337,215.029c.07-2.78.063-2.764-2.4-3.8a23.906,23.906,0,0,1-13.564-13.8c-1.308-1.485-1.39-3.381-1.721-5.189a6.047,6.047,0,0,1-.028-1.494c0-4.226.023-8.45-.015-12.675,0-.184-.016.048-.015-.137.007-4.4.387-4.794,4.684-4.78a7.882,7.882,0,0,1,2.722.2c.762.535.322,1.232.252,1.882-.716,6.638-1.306,13.343.41,19.852,2.246,8.52,7.953,13.976,16.364,16.577a10.616,10.616,0,0,0,4.91.34,1.712,1.712,0,0,1,1.572.232,5.54,5.54,0,0,1,.275,2.585c0,.158,0,.316,0,.473.006,1.194,0,2.388,0,3.582,0,4.024-1.56,6.151-5.434,7.444a8.21,8.21,0,0,1-2.874,0c-3.925-1.257-5.461-3.347-5.431-7.5.009-1.268-.247-2.569.3-3.8" transform="translate(-78.615 -109.245)" fill="#f9a58d"/>
        <path id="Trazado_229936" data-name="Trazado 229936" d="M49.613,201.884c.023,1.5.089,3.006.058,4.507a6.124,6.124,0,0,0,3.742,5.975c.362.182.7.41,1.049.616-1.117,1.95-2.217,3.91-3.357,5.847-.7,1.195-1.027,1.178-1.76-.069q-4.292-7.3-8.564-14.609a1.871,1.871,0,0,1-.969-1.254c-.082-.611.057-1.217.731-1.243,3.026-.116,6.066-.532,9.071.231" transform="translate(-25.106 -127.1)" fill="#64892a"/>
        <path id="Trazado_229937" data-name="Trazado 229937" d="M156.978,286.655c.02,1.513.045,3.027.059,4.54a6.3,6.3,0,0,0,4.365,6.161c.21.076.407.186.611.281.252.672-.235,1.128-.531,1.6a7.7,7.7,0,0,0-1.583,5.211,1.248,1.248,0,0,1-.392,1.241c-.6-.864-.023-1.881-.359-2.786-.313-.056-.347.223-.48.388-.818,1.018-1.46,1.046-2.129-.061-1.894-3.135-3.691-6.328-5.59-9.459-.966-1.592-1.65-3.374-3.047-4.687-.256-2.161-.192-2.183,2.124-2.24s4.646.247,6.953-.186" transform="translate(-93.256 -180.871)" fill="#d2d2d7"/>
        <path id="Trazado_229938" data-name="Trazado 229938" d="M88.419,212.928c3.4-1.239,5.233-3.658,4.963-7.568-.078-1.136.015-2.284.029-3.426a7.85,7.85,0,0,1,4.75-.16,1.726,1.726,0,0,1,.085,2.482c-1.779,2.3-1.723,4.829-1.107,7.46a1.78,1.78,0,0,1,.055,1.207q-1.7,2.822-3.392,5.644c-.947,1.584-1.156,1.575-2.112-.068-1.083-1.861-2.18-3.714-3.271-5.571" transform="translate(-55.79 -127.132)" fill="#64892a"/>
        <path id="Trazado_229940" data-name="Trazado 229940" d="M110.778,203.261a10.029,10.029,0,0,1-.519-6.573,3.063,3.063,0,0,1,.834-1.7,2.713,2.713,0,0,0,.773-2.623l.179-.107c.637.982,1.4.387,2.144.18.764-.213.938-.775.937-1.477,0-1.144-.032-2.289.018-3.431.023-.51-.109-1.138.611-1.354q.011,6.518.022,13.036c-.769-.155-.611-.8-.634-1.3-.062-1.317,0-2.639-.039-4.192a4.742,4.742,0,0,0-1.392,3.359c-.09,2.824-.379,5.7,1.462,8.19a.6.6,0,0,1,.054.527,5.225,5.225,0,0,1-4.449-2.535" transform="translate(-69.372 -117.469)" fill="#f9a58e"/>
        <path id="Trazado_229941" data-name="Trazado 229941" d="M120.644,217.308c-2.878-3.532-2.845-10.417.277-12.891,0,1.687-.019,3.21.01,4.732.01.527-.2,1.112.263,1.57-.146,2.275.715,4.339,1.356,6.45a4.734,4.734,0,0,1-1.906.139" transform="translate(-74.79 -128.981)" fill="#febda9"/>
        <path id="Trazado_229942" data-name="Trazado 229942" d="M60.729,118.194c-3.517,1.159-6.78.247-9.957-1.252A23.931,23.931,0,0,1,37.009,99.493a15.386,15.386,0,0,1-.356-3.539c.087-4.4-.34-8.817.26-13.207.136-.993.37-1.972.559-2.957,6.377-.013,12.755-.111,19.13-.014,6.471.1,12.325-1.454,17.288-5.779a6.447,6.447,0,0,1,.8-.518c1.383,1.021,1.741,2.637,2.327,4.1a24.163,24.163,0,0,1,1.689,9.248,3.08,3.08,0,0,1-.226,1.475,12.429,12.429,0,0,1-2.53,1.631,20.327,20.327,0,0,0-9.72,15.67c-.3,2.891-.159,5.774-.237,8.66a5.408,5.408,0,0,1-.18,1.907c-1.467,1.247-3.037,2.239-5.088,2.024" transform="translate(-23.085 -46.362)" fill="#febda9"/>
        <path id="Trazado_229943" data-name="Trazado 229943" d="M143.477,81.063a26.82,26.82,0,0,0-3.625-14.76c1.255-1.341,2.181-2.96,3.56-4.2a11.2,11.2,0,0,1,3.415,7.853c.083,3.3.038,6.595.049,9.893a4.042,4.042,0,0,1-3.4,1.209" transform="translate(-88.243 -39.188)" fill="#12263f"/>
        <path id="Trazado_229944" data-name="Trazado 229944" d="M208.14,252.176q0-.141-.007-.282c.935-.695,2.018-.395,3.032-.39,1.1,0,1.585-.382,1.514-1.51a13.559,13.559,0,0,1,.046-2.444,2,2,0,0,1,1.164-1.429,23.363,23.363,0,0,0,9.563-10.989,2.035,2.035,0,0,1,.686-1,6.357,6.357,0,0,0,5.786-2.16,1.029,1.029,0,0,1,.859-.366c1.485.33,2.864.978,4.313,1.414a1.548,1.548,0,0,1,1.254,1.465c.09,3.164.107,6.328-.01,9.492a1.252,1.252,0,0,1-.34.738q-.017,10.088-.033,20.177a16.216,16.216,0,0,0-5.37-7.493,14.019,14.019,0,0,0-8.116-3.029c-1.748-.039-3.5-.017-5.246-.022-.709-1.766-.709-1.767-2.753-1.771-1.552,0-3.1.009-4.655-.006a2.3,2.3,0,0,1-1.688-.39" transform="translate(-131.326 -146.133)" fill="#ffedb6"/>
        <path id="Trazado_229945" data-name="Trazado 229945" d="M199.45,287.312c2.367-.009,4.734-.022,7.1-.026,2.187,0,2.276.1,1.995,2.194-1.256.87-1.679,2.332-2.423,3.544-2.054,3.349-3.98,6.777-5.951,10.177-.94,1.62-1.765,1.627-2.736.011-.161-.268-.323-.534-.558-.924-.527,1.316.2,2.648-.469,3.794-.61-.6-.441-1.386-.4-2.089a6.59,6.59,0,0,0-1.2-4.555,1.347,1.347,0,0,1-.363-1.395c2.41-.883,4.211-2.363,4.838-4.975a18.77,18.77,0,0,0,.139-3.7c.027-.686.018-1.374.026-2.061" transform="translate(-122.636 -181.269)" fill="#d2d2d7"/>
        <path id="Trazado_229946" data-name="Trazado 229946" d="M184.79,316.423a10.055,10.055,0,0,1,1.962,8.039,1.285,1.285,0,0,0-.392.822l-6.742,0a1.315,1.315,0,0,0-.39-.819c-.724-3.169.962-5.587,2.507-8.049l3.054.01" transform="translate(-112.979 -199.647)" fill="#fc4b52"/>
        <path id="Trazado_229947" data-name="Trazado 229947" d="M271.058,195.313c-.007-3.246-.059-6.493,0-9.738a1.444,1.444,0,0,0-1.3-1.7,20.457,20.457,0,0,1-4.228-1.55c.175-2.179-.054-4.383.385-6.545.673-.678,1.541-.446,2.334-.448.919,0,1.283-.347,1.323-1.289.135-3.239.159-3.227-2.85-4.469a5.684,5.684,0,0,1-2.828-1.819,10.148,10.148,0,0,1-.183-3.008c-.015-3.163-.01-6.327,0-9.491a4.381,4.381,0,0,1,.185-1.627c.2-.371.454-.462.688-.047a2.95,2.95,0,0,1,.22,1.482q.016,3.031,0,6.062a2.973,2.973,0,0,0,.911,2.216,24.9,24.9,0,0,0,10.263,6.475,15.087,15.087,0,0,0,5.587.477c.489-.027,1-.252,1.435.18-.005,1.326.04,2.655-.032,3.977-.054.988.343,1.238,1.276,1.232,4.16-.024,8.321.017,12.481.034A30.856,30.856,0,0,1,282.8,183.99c-.8.212-.964.659-.96,1.4.018,3.312,0,6.624-.012,9.936l-10.771-.009" transform="translate(-166.382 -96.735)" fill="#d37f6c"/>
        <path id="Trazado_229948" data-name="Trazado 229948" d="M16.539,133.7a6.056,6.056,0,0,1-2.177.165c-2.394-2.884-1.52-6.332-1.645-9.605a2.111,2.111,0,0,1,.168-.659c.315-1.014.747-2.429,1.685-2.4.723.024.327,1.575.312,2.422A27.747,27.747,0,0,0,16.539,133.7" transform="translate(-7.988 -76.474)" fill="#febda9"/>
        <path id="Trazado_229950" data-name="Trazado 229950" d="M274.069,120.435c-7.585,1.3-13.11-2.425-18.119-7.422a1.9,1.9,0,0,1-.457-1.52c.006-2.251.011-4.5-.006-6.754,0-.489.156-1.02-.237-1.451a3.074,3.074,0,0,1-.635-1.91,16.818,16.818,0,0,0-4.036-8.14,3.255,3.255,0,0,1-.937-1.491,30.284,30.284,0,0,1,.306-7.54c.15-.875.173-1.866,1.117-2.395,2.642-.168,5.309.189,7.931-.425A17.86,17.86,0,0,0,269.851,74a21.944,21.944,0,0,0,3.473,4.243,13.886,13.886,0,0,0,8.788,3.5c2.482.084,4.971.09,7.452,0,1.035-.039,1.324.406,1.532,1.266.776,3.217.49,6.492.6,9.745-.022,3.775.116,7.566-1.11,11.222-.2.6-.382,1.207-.572,1.811a23.711,23.711,0,0,1-7.439,10.2c-.316.261-.616.539-.924.809a34.037,34.037,0,0,1-7.579,3.644" transform="translate(-157.451 -46.691)" fill="#df9280"/>
        <path id="Trazado_229951" data-name="Trazado 229951" d="M213.621,113.288a18.29,18.29,0,0,1,5.275,11.321q.026,7.338.052,14.677a8.835,8.835,0,0,1,.114,4.782.7.7,0,0,1-.969.248c-.843-.375-1.789-.418-2.608-.855a3.4,3.4,0,0,1-.317-2.137,35.389,35.389,0,0,0-.512-6.989c-.211-1.162-.716-1.658-1.921-1.612-1.787.069-3.58.012-5.37.018a14.919,14.919,0,0,1-13.185-6.884c-.257-.38-.552-.734-.8-1.12a17.106,17.106,0,0,1-1.395-8.583,7.654,7.654,0,0,1,2.892-5.691,1.383,1.383,0,0,0,.5-.154,9.121,9.121,0,0,1,7.009-2.013c.406.034.817.01,1.226.012a13.384,13.384,0,0,1,1.851.494c1.083.454,1.654.179,1.736-1.013a4.275,4.275,0,0,0,2.353,2.2c1.556.811,3.169,1.643,4.069,3.3" transform="translate(-121.096 -68.012)" fill="#12263f"/>
        <path id="Trazado_229952" data-name="Trazado 229952" d="M239.744,105.254a18.891,18.891,0,0,0-5.793-3.732c-.924-.327-.433-1.172-.629-1.767.305-4.7.305-4.7,4.915-4.7.865,0,1.731.028,2.6.043-1.112,2.69-1.105,5.527-1.094,8.364q0,.9,0,1.79" transform="translate(-147.219 -59.978)" fill="#d37e6c"/>
        <path id="Trazado_229953" data-name="Trazado 229953" d="M146.565,111.227c-.39,1.241-1.6,1.962-1.979,3.235a15.111,15.111,0,0,0,.376,9.676c.155.426.442.814.211,1.3.014,1.381-1.092,2.1-1.894,2.9a17.56,17.56,0,0,1-12.7,5.137c-1.4.007-2.847.351-4.2-.321-1.875-.016-3.751-.011-5.625-.059-.668-.018-.978.194-1.1.878a14.162,14.162,0,0,0-.48,3.515,21.276,21.276,0,0,0-.2,5.344c-.007.814-.267,1.2-1.033,1.275a6.792,6.792,0,0,0-2.166.823c-.413-.386-.061-.928-.344-1.309l-.069-4.947c.021-2.483.077-4.967.058-7.45-.077-9.486,4.039-16.386,12.608-20.564l3.4-1.21a60.127,60.127,0,0,1,10.592-.395,5.6,5.6,0,0,1,4.552,2.181" transform="translate(-72.786 -68.776)" fill="#12263f"/>
        <path id="Trazado_229954" data-name="Trazado 229954" d="M143.75,161.237c2.867-.166,5.763.18,8.6-.574a16.993,16.993,0,0,0,10.2-7.138c.637-.061.689.53.916.876a14.319,14.319,0,0,0,12.387,6.78c2.162.037,4.329.086,6.486-.026,1.147-.059,1.492.435,1.691,1.411a41.129,41.129,0,0,1,.568,8.785c0,.275.035.55.055.825.679,1.25.391,2.609.345,3.906a26.124,26.124,0,0,1-1.052,7.308c-.2.6-.322,1.26-.984,1.576a23.079,23.079,0,0,1-10.1,12.21c-.347.211-.775.317-.951.745a10.239,10.239,0,0,1-4.965,1.933,15.321,15.321,0,0,1-9.5-1.267,23.9,23.9,0,0,1-13.681-15.766,24.869,24.869,0,0,1-.842-7.894c.127-3.623-.279-7.261.285-10.87.148-.946.366-1.882.552-2.822" transform="translate(-90.159 -96.868)" fill="#febda9"/>
        <path id="Trazado_229955" data-name="Trazado 229955" d="M208.06,275.774l4.965-1.933c0,1.195-.035,2.391.013,3.584.034.817-.225,1.169-1.092,1.133-1.284-.055-2.573-.012-3.859-.01q-.013-1.387-.027-2.773" transform="translate(-131.28 -172.786)" fill="#fecc71"/>
        <path id="Trazado_229956" data-name="Trazado 229956" d="M251.467,216.851a28.466,28.466,0,0,0,1.653-11.007c0-.594.025-1.189.039-1.784a6.452,6.452,0,0,1,3.292,1.022,3.035,3.035,0,0,1,1.9,2.637c-.123,2.213.486,4.485-.53,6.627-1.941,2.474-3.939,3.262-6.352,2.5" transform="translate(-158.668 -128.751)" fill="#f9a58d"/>
      </g>
    </g>
  </g>
</svg>
