<svg id="Grupo_148203" data-name="Grupo 148203" xmlns="http://www.w3.org/2000/svg" xmlns:xlink="http://www.w3.org/1999/xlink" width="124.135" height="160.923" viewBox="0 0 124.135 160.923">
  <defs>
    <clipPath id="clip-path">
      <rect id="Rectángulo_89690" data-name="Rectángulo 89690" width="124.135" height="160.923" fill="#cba124"/>
    </clipPath>
  </defs>
  <g id="Grupo_148165" data-name="Grupo 148165" clip-path="url(#clip-path)">
    <path id="Trazado_246496" data-name="Trazado 246496" d="M6.119,160.923c-1.482-1.011-3.26-1.777-4.356-3.106a8.089,8.089,0,0,1-1.57-4.451c-.218-3.76-.084-7.541-.071-11.314.007-1.76.847-2.778,2.261-2.821,1.479-.045,2.432,1.018,2.444,2.825.024,3.563,0,7.126.013,10.689.011,2.39,1.068,3.442,3.462,3.457,2.876.018,5.753,0,8.864,0v-1.738q0-8.1,0-16.191a11.183,11.183,0,0,1,.022-1.257,2.317,2.317,0,0,1,2.517-2.247,2.268,2.268,0,0,1,2.167,2.568c.024,5.187.01,10.375.011,15.562v3.2H51.536c.347-2.37.716-4.784,1.051-7.2,1.091-7.882,2.131-15.771,3.3-23.642a3.033,3.033,0,0,0-.907-2.924c-.7-.7-1.31-1.491-1.935-2.214-4.6,1.146-5.825.693-8.557-3.127-2.925-4.09-5.881-8.158-8.749-12.288a2.205,2.205,0,0,0-2.678-1.117c-3.68.8-7.409,1.375-11.111,2.08-.912.174-1.794.506-2.785.793a20.682,20.682,0,0,1,1.33,2.58,7.578,7.578,0,0,1-.934,7.18c-.632.9-1.349,1.737-2.04,2.593-3.437,4.255-6.76,4.952-11.845,2.276-.28,1.831-.62,3.555-.784,5.3-.132,1.4.005,2.83-.082,4.241a2.339,2.339,0,0,1-4.677.044c-1.259-13.1,6.806-25.482,19.293-29.17,4.045-1.194,8.3-1.684,12.463-2.473q4.706-.892,9.423-1.717a3.881,3.881,0,0,1,1.853-.032c1.414.5,2.043-.257,2.209-1.382a39.069,39.069,0,0,0,.311-4.989A1.467,1.467,0,0,0,45,89.97a27.826,27.826,0,0,1-12.48-19.853,1.467,1.467,0,0,0-.913-.944c-4.006-1.026-6.046-3.525-6.1-7.628-.023-1.676,0-3.354,0-5.03A7.573,7.573,0,0,1,27.5,51.364a2.537,2.537,0,0,0,.619-1.486c.052-3.562.066-7.127-.015-10.688a2.376,2.376,0,0,0-.932-1.518c-1.686-1.314-3.615-2.356-5.151-3.817C18.6,30.6,17.908,26.7,19.777,22.367c1.921-4.452,5.211-7.813,8.923-10.79a53.914,53.914,0,0,1,68.034,1.037,29.133,29.133,0,0,1,6.946,8.249c3,5.561,2.027,10.372-2.93,14.321a10.785,10.785,0,0,1-2.591,1.754c-1.8.705-2.328,1.861-2.161,3.727.181,2.027.054,4.083.038,6.127a11.874,11.874,0,0,0,1.456,5.967c2.133,4.051,1.864,8.62.122,12.88a6.051,6.051,0,0,1-4.8,3.444c-.8.148-1.109.4-1.236,1.24A27.689,27.689,0,0,1,79.41,89.851a2.394,2.394,0,0,0-.9,1.751,32.844,32.844,0,0,0,.577,4.93,1.471,1.471,0,0,0,1.058.87c1.8.192,3.641.083,5.414.388q8.743,1.5,17.447,3.225c10.35,2.053,19.242,11.67,20.7,22.354a39.694,39.694,0,0,1,.339,5.165c.036,7.546-.147,15.1.074,22.635.14,4.772-1.45,8.11-6.061,9.755ZM41.3,48.4V53.6a3.3,3.3,0,0,1-1.952,3.3,3.42,3.42,0,0,1-3.647-.613,11.639,11.639,0,0,0-3.178-1.6c-1.533-.489-2.158-.016-2.254,1.593s-.057,3.245-.047,4.868c.016,2.544.824,3.335,3.4,3.383,2.7.05,3.234.5,3.432,3.137a23.253,23.253,0,0,0,10.93,18.628c12.517,8.222,29.924,3.9,36.58-9.1a25.313,25.313,0,0,0,2.588-9.949c.14-2.021.852-2.646,2.88-2.713a14.789,14.789,0,0,0,1.723-.082A2.238,2.238,0,0,0,93.884,62.3c.094-2.088.089-4.188-.01-6.277-.056-1.178-.752-1.873-2.02-1.377a13.969,13.969,0,0,0-3.211,1.526c-1.251.917-2.466,1.4-3.911.69a3.449,3.449,0,0,1-1.856-3.524c.029-1.61.006-3.221.006-4.917A77.945,77.945,0,0,1,41.3,48.4m63.739,58.071c-.983-.281-1.912-.622-2.87-.806-3.6-.693-7.226-1.234-10.795-2.046a2.507,2.507,0,0,0-3.056,1.277c-3.073,4.432-6.235,8.8-9.39,13.177-1.649,2.286-3.934,3.281-6.255,2.417a1.88,1.88,0,0,0-2.577.834,7.26,7.26,0,0,1-1.026,1.188,2.637,2.637,0,0,0-.77,2.66c.938,6.369,1.771,12.753,2.654,19.13.544,3.928,1.117,7.852,1.679,11.794H102.3v-5.906c0-4.3-.016-8.592.012-12.888a2.249,2.249,0,0,1,2.207-2.526,2.342,2.342,0,0,1,2.488,2.446c.031.417.011.838.011,1.257q0,8.016,0,16.031v1.7c3.247,0,6.231.032,9.214-.011a2.878,2.878,0,0,0,3.105-3.172c.012-8.906.029-17.812-.055-26.718a37.054,37.054,0,0,0-.756-5.137c-5.673,2.59-8.438,1.921-12.2-2.78l-.394-.49c-3.381-4.2-3.591-6.6-.888-11.43M91.321,34.457c0-1.883.007-3.55,0-5.217-.011-2.162-.58-2.939-2.658-3.43C77.306,23.125,65.847,21,54.14,22.349c-6.421.737-12.76,2.24-19.1,3.561a3.131,3.131,0,0,0-2.024,2.044,49.288,49.288,0,0,0-.1,6.5h2.017q18.627,0,37.255,0a13.053,13.053,0,0,1,1.726.049A2.137,2.137,0,0,1,75.9,36.59a2.1,2.1,0,0,1-1.611,2.383,7.475,7.475,0,0,1-2.017.191q-18.156.016-36.312.011c-.526,0-1.052.049-1.938.093a25.549,25.549,0,0,0,11.047,5.262A73.176,73.176,0,0,0,73,45.755a38.726,38.726,0,0,0,14.177-4.333c.955-.544,1.816-1.255,2.72-1.889a22.745,22.745,0,0,0-4.543-.372c-1.679-.049-2.754-1.033-2.729-2.413s1.071-2.264,2.808-2.285c1.879-.023,3.759-.005,5.888-.005m4.716-1.813c5.017-2.857,5.96-6.185,2.815-10.587A34.834,34.834,0,0,0,92.9,15.646C76.344,1.818,51.213,1.035,33.754,13.7c-3.711,2.692-7.177,5.657-9.337,9.807-1.926,3.7-.355,7.431,3.731,8.954,0-1.39-.026-2.743.005-4.094a7.437,7.437,0,0,1,5.327-7c19.062-5.8,38.116-4.978,57.155.091a7.191,7.191,0,0,1,5.4,7.082c.027,1.3,0,2.6,0,4.1M50.873,93.118l-2.112,7.522L62.1,110.6l13.325-9.959-2.115-7.523a30.075,30.075,0,0,1-22.433,0m9.728,32.3c-1.435,10.333-2.847,20.5-4.266,30.713h11.52c-1.43-10.278-2.847-20.455-4.274-30.713Zm-20.667-22.9c3.134,4.385,6.185,8.685,9.3,12.941a1.474,1.474,0,0,0,1.33.393c2.227-.864,4.411-1.84,6.757-2.842-.538-.433-.929-.769-1.34-1.076-3.982-2.977-8.008-5.9-11.927-8.955a3.536,3.536,0,0,0-4.116-.46m26.878,10.463c2.206.946,4.228,1.76,6.2,2.681a1.611,1.611,0,0,0,2.352-.667c2.725-3.9,5.525-7.757,8.289-11.635a7,7,0,0,0,.467-.908,3.344,3.344,0,0,0-3.974.53c-1.41,1.241-3,2.278-4.507,3.406l-8.827,6.594M7.592,116.148c2.234,2.39,4.037,2.371,5.817.24.738-.883,1.483-1.765,2.151-2.7,1.259-1.763.865-3.424-1.386-4.8l-6.581,7.258m108.774.293a22.193,22.193,0,0,0-6.8-7.439c-1.971,1.694-2.152,3.121-.725,4.992.6.79,1.234,1.559,1.87,2.323,1.807,2.169,3.5,2.237,5.651.125m-49.859,1.678c-4.058-2.23-5.039-2.225-8.742-.007,2.174,3.573,6.126,3.624,8.742.007M32.929,49.833l3.48,1.09c.635-3.984.176-4.795-3.48-6.2Zm58.338-5.226c-3.992,2.032-4.082,2.2-3.511,6.324l3.511-1.117Z" transform="translate(0 0)" fill="#cba124"/>
    <path id="Trazado_246497" data-name="Trazado 246497" d="M71.894,335.113c-1.989,0-3.978.027-5.966-.008a3.739,3.739,0,0,1-4-3.75,67.063,67.063,0,0,1,0-6.747,3.716,3.716,0,0,1,4-3.744q6.044-.062,12.089,0a3.69,3.69,0,0,1,3.976,3.9q.086,3.216,0,6.435a3.742,3.742,0,0,1-3.976,3.911c-.1,0-.21,0-.314,0H71.894m5.317-9.419H66.718v4.7H77.211Z" transform="translate(-35.873 -186.1)" fill="#cba124"/>
    <path id="Trazado_246498" data-name="Trazado 246498" d="M195.825,335.113c-1.989,0-3.978.023-5.966-.007a3.727,3.727,0,0,1-4.025-3.854q-.093-3.294,0-6.592a3.631,3.631,0,0,1,3.762-3.782q6.2-.091,12.4-.008a3.667,3.667,0,0,1,3.886,3.688,62.844,62.844,0,0,1-.01,6.9,3.719,3.719,0,0,1-3.929,3.652c-.1,0-.209,0-.314,0h-5.809m5.325-9.449H190.613v4.609H201.15Z" transform="translate(-107.766 -186.099)" fill="#cba124"/>
  </g>
</svg>
