<svg xmlns="http://www.w3.org/2000/svg" xmlns:xlink="http://www.w3.org/1999/xlink" width="152" height="163" viewBox="0 0 152 163">
  <defs>
    <clipPath id="clip-path">
      <ellipse id="Elipse_5607" data-name="Elipse 5607" cx="73" cy="78.5" rx="73" ry="78.5" transform="translate(727 1117)" fill="#fff"/>
    </clipPath>
    <clipPath id="clip-path-2">
      <rect id="Rectángulo_89235" data-name="Rectángulo 89235" width="141.089" height="157" fill="none"/>
    </clipPath>
  </defs>
  <g id="Grupo_148253" data-name="Grupo 148253" transform="translate(-724 -1117)">
    <g id="Elipse_5605" data-name="Elipse 5605" transform="translate(724 1128)" fill="#fff" stroke="#ffe4e5" stroke-width="6">
      <circle cx="76" cy="76" r="76" stroke="none"/>
      <circle cx="76" cy="76" r="73" fill="none"/>
    </g>
    <g id="Enmascarar_grupo_117497" data-name="Enmascarar grupo 117497" clip-path="url(#clip-path)">
      <g id="Grupo_147269" data-name="Grupo 147269" transform="translate(729.456 1117)">
        <g id="Grupo_147269-2" data-name="Grupo 147269" clip-path="url(#clip-path-2)">
          <path id="Trazado_229886" data-name="Trazado 229886" d="M91.855,10.71c1.034-.747,1.068-1.33-.174-1.945a22.094,22.094,0,0,1-2.535-1.73,28.069,28.069,0,0,1,5.783-2.429A103.457,103.457,0,0,1,116.27.324c.364-.039.839.185,1.071-.325h1.226c.169.189.4.151.613.158s.443.031.613-.158h5.825c.169.189.4.151.613.158s.444.031.613-.158h.919c1.584.7,3.324.636,4.976,1.02,6.372,1.483,11.931,4.321,16.181,9.428a7.1,7.1,0,0,1,2.662,5.007c.472,3.346.449,6.708-1.205,9.864a14.7,14.7,0,0,1-6.326,6.24,8.217,8.217,0,0,1-1.259.751,41.348,41.348,0,0,1-11.011,2.909,2.551,2.551,0,0,1-1.5-.089,2.14,2.14,0,0,0-.836-.354c-5.8-.246-11.171-2.3-16.648-3.905-4.932-1.448-9.9-2.553-15.081-1.614a29.583,29.583,0,0,0-8.741,3.184c-1.606.862-1.913.727-2.18-1.077a28.2,28.2,0,0,1,1.565-13.551,30.749,30.749,0,0,1,3.491-7.1" transform="translate(-51.082 0.001)" fill="#694b4b"/>
          <path id="Trazado_229887" data-name="Trazado 229887" d="M165.311.27c-.25.021-.493.029-.6-.27h.613q.154.1.1.186c-.037.056-.074.084-.111.084" transform="translate(-97.227)" fill="#a89696"/>
          <path id="Trazado_229888" data-name="Trazado 229888" d="M166.172.27q.014-.135.015-.27h.613a.535.535,0,0,1-.629.27" transform="translate(-98.088)" fill="#958080"/>
          <path id="Trazado_229889" data-name="Trazado 229889" d="M182.552.264a.526.526,0,0,1-.63-.264h.613q.143.079.1.17c-.027.063-.056.094-.086.094" transform="translate(-107.385)" fill="#9c8888"/>
          <path id="Trazado_229890" data-name="Trazado 229890" d="M183.435.264q-.015-.132-.016-.264h.613c-.1.313-.346.293-.6.264" transform="translate(-108.269)" fill="#b1a2a2"/>
          <path id="Trazado_229891" data-name="Trazado 229891" d="M169.293,76.762l.914-.648c1.13-.486,1.827.3,2.539.916a20.019,20.019,0,0,1,5.52,8.676,43.9,43.9,0,0,1,2.488,12.086c.087,1.371.347,2.728.45,4.11a3.844,3.844,0,0,1,4.881.518c2.476,1.861,3.008,4.3,2.244,7.2-.894,3.394-1.69,6.813-2.538,10.219-.625,2.509-1.3,3.138-3.915,3.457-.91.111-.9.683-.9,1.3a20,20,0,0,1-.756,6.034,16.977,16.977,0,0,1-5.97,8.31c-.577.465-1.362.725-1.614,1.536a2.17,2.17,0,0,1-.294.294,4.745,4.745,0,0,0-1.006.8c-2.568,2.025-5.2,3.96-7.825,5.907a15.726,15.726,0,0,1-10.151,3.253c-1.989-.066-3.982.013-5.975-.02-3.464-.647-6.02-2.833-8.209-5.318a29.483,29.483,0,0,1-7.749-20.268c.073-10.268-.023-20.536.039-30.8a8.924,8.924,0,0,1,5.521-8.634,12.175,12.175,0,0,1,5.109-.8,56.858,56.858,0,0,0,18.639-3.162,27.746,27.746,0,0,0,8.554-4.953" transform="translate(-77.581 -44.839)" fill="#efbf86"/>
          <path id="Trazado_229892" data-name="Trazado 229892" d="M6.07,285.943c1.895-2.759,4.758-3.8,7.847-4.516,6.916-1.591,13.821-3.237,20.732-4.85a56.078,56.078,0,0,0,7.606-1.974c.709-.054.774.556.971.985,3.177,6.959,6.376,13.907,9.492,20.894.229.513.484,1.013.742,1.511,1.28,2.478,3.154,2.954,5.353,1.227,2.288-1.8,4.589-3.571,6.988-5.217.825-.567,1.494-.68,1.841.491.2,1.155,1.276,1.825,1.621,2.9,0,2.8-.318,5.578-.508,8.362-.268,3.9-.444,7.812-.858,11.7a2.592,2.592,0,0,1-.472,1.578l-39.279.011c-.5-.556-.372-1.246-.384-1.9-.039-2.194.123-4.4-.068-6.583-.364-4.161-2.5-7.323-5.613-10-3.822-3.3-7.545-6.707-11.274-10.11a35.338,35.338,0,0,1-4.736-4.516" transform="translate(-3.583 -162.091)" fill="#eef1f9"/>
          <path id="Trazado_229893" data-name="Trazado 229893" d="M192.623,319.047l-6.781-.01a5.183,5.183,0,0,1-.64-2.936c-.24-5.122-.821-10.221-1.007-15.345a17.849,17.849,0,0,1-.2-3.336c.321-1.091,1.422-1.749,1.624-2.91.381-1.237,1.087-1.127,1.96-.5,2.153,1.557,4.338,3.068,6.362,4.795a8.224,8.224,0,0,0,.973.744c1.937,1.208,3.7.788,4.729-1.27,2.026-4.069,3.8-8.257,5.7-12.387q2.4-5.22,4.761-10.456c.177-.391.279-.922.914-.844,3.372,1.279,6.947,1.778,10.418,2.675,5.053,1.306,10.162,2.394,15.247,3.576,1.923.447,3.859.831,5.74,1.46a10.09,10.09,0,0,1,4.781,3.628c-2,2.4-4.5,4.268-6.757,6.387-3.534,3.313-7.283,6.391-10.8,9.73a13.4,13.4,0,0,0-4.132,10.043c-.017,1.736.005,3.472-.007,5.207a2.324,2.324,0,0,1-.384,1.745h-7.978a3.128,3.128,0,0,1-.466-2.039,2.883,2.883,0,0,0-3.028-2.981q-8.8-.116-17.592,0c-1.947.029-2.817,1.007-2.967,2.979a3.11,3.11,0,0,1-.466,2.039" transform="translate(-108.579 -162.085)" fill="#eef1f9"/>
          <path id="Trazado_229894" data-name="Trazado 229894" d="M134.9,77.914c-1.173,1.976-3.138,2.984-5.075,3.92a51.177,51.177,0,0,1-17.177,4.4c-2.638.277-5.269.112-7.909.453a8.463,8.463,0,0,0-7.2,7.907c-.118,11.34-.209,22.685.023,34.021.125,6.122,2.666,11.527,6.449,16.34a19.3,19.3,0,0,0,8.087,6.288,6.11,6.11,0,0,0,1.037.219c-.07.756-.7.667-1.155.682-5.167.175-10.083-.54-14.3-3.915-2.073-1.66-4.233-3.212-6.371-4.789-.395-.291-.717-.734-1.357-.771-.027,2.162,0,4.3-.016,6.442a3.58,3.58,0,0,1-.28,1.944c-.291.225-.429.131-.444-.214.012-2.807-.012-5.615.057-8.42a2.065,2.065,0,0,0-1.06-1.874A16.042,16.042,0,0,1,80.9,127c-.006-.505-.186-1.01-.184-1.514,0-.772-.27-1.023-1.082-1.044a3.158,3.158,0,0,1-3.288-2.636c-1.04-3.938-2.048-7.885-2.993-11.847a6.321,6.321,0,0,1,1.818-6.028c1.013-1.324,2.485-1.528,3.979-1.512,1.642.018,1.646.081,1.663-1.62A25.845,25.845,0,0,1,82.6,91.54c1.961-5.006,5.706-8.029,10.619-9.9,4.836-1.846,9.833-1.58,14.817-1.3,4.171.238,8.326.724,12.512.322a2.489,2.489,0,0,1,1.782.224,39.128,39.128,0,0,0,11-2.385l1.571-.589" transform="translate(-43.192 -45.991)" fill="#e5ae78"/>
          <path id="Trazado_229895" data-name="Trazado 229895" d="M2.487,302.285c1.735.753,2.8,2.329,4.18,3.5,3.744,3.19,7.272,6.63,10.944,9.907a24.706,24.706,0,0,1,4.917,5.149,13.62,13.62,0,0,1,2.012,6.76c.107,2.593.023,5.193.021,7.79-6.227,0-12.455-.075-18.681.036a5.644,5.644,0,0,1-5.807-5.607q-.15-10.487.007-20.977a9.419,9.419,0,0,1,2.406-6.563" transform="translate(0 -178.433)" fill="#e3e9f5"/>
          <path id="Trazado_229896" data-name="Trazado 229896" d="M284.442,335.394c.143-3.194-.194-6.388.236-9.591.547-4.081,2.969-6.91,5.852-9.491,2.53-2.264,5.1-4.482,7.628-6.75,2.453-2.2,4.866-4.452,7.314-6.663a5.9,5.9,0,0,1,1.046-.616A9.626,9.626,0,0,1,308.931,309c.089,6.889.063,13.779.018,20.669a5.516,5.516,0,0,1-5.828,5.73q-9.339.009-18.679,0" transform="translate(-167.901 -178.432)" fill="#e3e9f5"/>
          <path id="Trazado_229897" data-name="Trazado 229897" d="M118,50.327c-6.22.946-12.407-.169-18.609-.323A27.642,27.642,0,0,0,87.48,52.122c-5.65,2.449-8.65,6.872-9.948,12.678a28.957,28.957,0,0,0-.669,6.974c.008.365.239,1.091-.619.785-1.956-.7-3.692-.042-5.406.811-.666-4.149-1.655-8.178-4.41-11.523a2.26,2.26,0,0,1-.511-1.4c-.483-9.481,1.148-18.456,6.475-26.507a29.2,29.2,0,0,1,7.243-7.8c.571.408.064.684-.125.994a31.8,31.8,0,0,0-4.742,18.151c.116,3.046.117,3.076,2.7,1.74a25.616,25.616,0,0,1,13.964-3.07,41.943,41.943,0,0,1,8.627,1.737c4.911,1.452,9.75,3.163,14.847,3.933a23.031,23.031,0,0,0,2.583.133c.4.016.76,0,.517.566" transform="translate(-38.862 -15.431)" fill="#5a4146"/>
          <path id="Trazado_229898" data-name="Trazado 229898" d="M204.26,250.286c-1.18,2.472-2.394,4.929-3.533,7.42-1.756,3.841-3.451,7.709-5.189,11.557-.733,1.624-1.484,3.241-2.273,4.839-1.183,2.4-3.186,2.956-5.392,1.388-2.48-1.763-4.876-3.646-7.283-5.51-.622-.481-1.087-.713-1.415.237-1.219-2.067-3.474-2.771-5.3-4.033-.486-.335-1.132-.47-1.353-1.123a.94.94,0,0,1,.048-.454c1.6-2.155,3.787-3.7,5.736-5.486,3.685-3.372,7.424-6.689,11.132-10.036,1.892-1.709,3.826-3.37,5.711-5.086a3.15,3.15,0,0,0,1.08-2.573c-.046-2.092-.026-4.185-.006-6.278.006-.593-.139-1.246.431-1.706a1.209,1.209,0,0,0,.236-.036c.007,2.693.034,5.385.011,8.078-.008.9.164,1.222,1.113.769a2.466,2.466,0,0,1,3.176,1.023c.925,1.2,1.644,2.56,2.559,3.77.778,1.028,1.3,2.007.514,3.242" transform="translate(-101.828 -137.774)" fill="#e3e9f5"/>
          <path id="Trazado_229899" data-name="Trazado 229899" d="M126,277.243c0,.086,0,.172,0,.257-1.353,1.246-3.107,1.851-4.6,2.874a8.361,8.361,0,0,0-2.5,2.339c-.259-.52-.419-.884-1.151-.354a78.552,78.552,0,0,0-6.68,5.039c-2.312,2.08-5.126,1.944-6.511-1.2-3.337-7.588-6.812-15.116-10.24-22.664a5.323,5.323,0,0,0-.5-.748c-.782-1.228-.3-2.22.509-3.228.66-.825,1.192-1.751,1.781-2.632,1.752-2.623,2.146-2.764,5.059-1.8l.292.344c1.335.5,2.164,1.669,3.173,2.559,2.4,2.12,4.783,4.27,7.161,6.42q5.39,4.915,10.843,9.759c1.129,1.008,2.237,2.038,3.37,3.041" transform="translate(-55.145 -150.27)" fill="#e3e9f5"/>
          <path id="Trazado_229900" data-name="Trazado 229900" d="M241.952,72.633a6.39,6.39,0,0,0-4.3-.567c-1.164.364-1.1-.531-1.161-1.211a70.063,70.063,0,0,0-1.223-9.378c-1.174-5.119-2.75-10.047-6.747-13.775-.689-.642-1.342-1.439-2.45-1.374,7.76-3.521,9.994-13.842,5.5-20.287a5.151,5.151,0,0,1-.288-.54c4.186.549,7.2,2.914,9.54,6.254,3.182,4.538,4.534,9.76,5.422,15.117a77.378,77.378,0,0,1,.941,12.8,3.317,3.317,0,0,1-.757,2.233,21.675,21.675,0,0,0-4.48,10.724" transform="translate(-133.447 -15.053)" fill="#785550"/>
          <path id="Trazado_229901" data-name="Trazado 229901" d="M167.772,328.905q.688,9.884,1.373,19.768c.052.759.063,1.521.093,2.282H155.816q.519-7.908,1.039-15.816c.137-2.079.284-4.156.425-6.234a12.856,12.856,0,0,1,4.1-.149,35.6,35.6,0,0,1,6.395.149" transform="translate(-91.975 -194.004)" fill="#5b5d6e"/>
          <path id="Trazado_229902" data-name="Trazado 229902" d="M205.068,375.1c-.273-4.717.76-5.666,5.426-5.543,4.99.131,9.986.029,14.979.03,3.039,0,4.118,1.085,4.118,4.137q0,.688,0,1.375H205.068" transform="translate(-121.024 -218.135)" fill="#e3e9f5"/>
          <path id="Trazado_229903" data-name="Trazado 229903" d="M152.146,264.794c-1.614-.369-2.442-1.781-3.565-2.77-3.668-3.229-7.255-6.551-10.873-9.836a1.035,1.035,0,0,1,.977-.3c12.444.934,22.655-3.857,31.438-12.285a44.513,44.513,0,0,0,5.01-5.528.923.923,0,0,1,.976-.589c0,2.8-.028,5.61.006,8.414a2.406,2.406,0,0,1-.813,2.017q-10.137,9.067-20.237,18.175c-.985.887-1.946,1.8-2.918,2.7" transform="translate(-81.286 -137.821)" fill="#e5ae78"/>
          <path id="Trazado_229904" data-name="Trazado 229904" d="M160.571,234.184c.029,1.515-1.3,2.2-2.1,3.1a46.024,46.024,0,0,1-18.145,12.832,37.537,37.537,0,0,1-9.449,2.215,32.426,32.426,0,0,1-7.732-.039c-3.444-2.976-6.912-5.926-10.108-9.174v-9.455a53.018,53.018,0,0,1,5.244,3.769c2.886,2.063,5.495,4.606,9.094,5.441,3.057.71,6.145,1.235,9.291.522,2.943-.084,5.9.234,8.828-.162,3.883-.525,6.849-2.868,9.83-5.165,1.724-1.328,3.5-2.594,5.246-3.889" transform="translate(-66.724 -137.929)" fill="#d19a6e"/>
          <path id="Trazado_229905" data-name="Trazado 229905" d="M167.639,318.2a6.894,6.894,0,0,1-3.429.276c-2.354-.091-4.732.376-7.063-.277a3.271,3.271,0,0,1-1.548-2.458,1.755,1.755,0,0,1,1.021-1.829c2.022-1.137,3.84-2.637,6.08-3.384,1.787,1.108,3.548,2.261,5.371,3.305a1.857,1.857,0,0,1,1.118,1.907,3.287,3.287,0,0,1-1.55,2.459" transform="translate(-91.842 -183.301)" fill="#515262"/>
        </g>
      </g>
    </g>
  </g>
</svg>
