<svg xmlns="http://www.w3.org/2000/svg" xmlns:xlink="http://www.w3.org/1999/xlink" width="152" height="162" viewBox="0 0 152 162">
  <defs>
    <clipPath id="clip-path">
      <ellipse id="Elipse_5608" data-name="Elipse 5608" cx="73" cy="78.5" rx="73" ry="78.5" transform="translate(727 1117)" fill="#fff"/>
    </clipPath>
    <clipPath id="clip-path-2">
      <rect id="Rectángulo_89234" data-name="Rectángulo 89234" width="100.006" height="162.781" fill="none"/>
    </clipPath>
  </defs>
  <g id="Grupo_148254" data-name="Grupo 148254" transform="translate(-1140 -1118)">
    <g id="Elipse_5606" data-name="Elipse 5606" transform="translate(1140 1128)" fill="#fff" stroke="#fec0c2" stroke-width="6">
      <circle cx="76" cy="76" r="76" stroke="none"/>
      <circle cx="76" cy="76" r="73" fill="none"/>
    </g>
    <g id="Enmascarar_grupo_117498" data-name="Enmascarar grupo 117498" transform="translate(416 1)" clip-path="url(#clip-path)">
      <g id="Grupo_147268" data-name="Grupo 147268" transform="translate(749.997 1117.219)">
        <g id="Grupo_147267" data-name="Grupo 147267" clip-path="url(#clip-path-2)">
          <path id="Trazado_229860" data-name="Trazado 229860" d="M120.192,304.174a11.813,11.813,0,0,1,2.645,8.938c-1.835,3.268-5,4.182-8.38,4.688a11.119,11.119,0,0,1-1.64.052q-29.72,0-59.441.007a12.26,12.26,0,0,1-9.4-3.908,10.621,10.621,0,0,1-2.99-6.593,62.912,62.912,0,0,1,.025-9.977c.283-.887,1.065-1.176,1.823-1.48,5.3-2.124,10.614-4.207,15.893-6.38a1.566,1.566,0,0,1,1.4-.14.936.936,0,0,1,.262.408c1.166,5.349,4.943,7.782,9.961,8.561,4.552.708,8.827-.085,12.341-3.357a8.734,8.734,0,0,0,2.528-4.321c.131-.512.135-1.111.751-1.365a5,5,0,0,1,2.334.671q12.027,4.809,24.065,9.591a43.231,43.231,0,0,1,5.527,2.39,4.645,4.645,0,0,1,2.289,2.214" transform="translate(-22.917 -162.458)" fill="#fc4b52"/>
          <path id="Trazado_229861" data-name="Trazado 229861" d="M6.072,91.991c0-8.678-.165-17.359.047-26.031a41.154,41.154,0,0,1,9.535-25.409,1.743,1.743,0,0,1,1.528.394c6.063,3.908,12.879,5.584,19.894,6.589a112.349,112.349,0,0,0,15.491,1.093,3.122,3.122,0,0,1,.79.146A81.953,81.953,0,0,0,69.24,54.957c.679.2,1.416.363,1.535,1.259-.233,1.609-1.347,2.688-2.343,3.829-3.243,3.716-7.508,5.932-11.915,7.869a77.381,77.381,0,0,1-18.151,5.357c-2.35-.182-4.082,1.712-6.43,1.908-2.148.179-4.814-1.2-6.67-.056-1.1-.016-2.165.367-3.271.3-1.041,0-2.081-.031-3.121.032-5.241.688-4.336-.448-4.443,4.82-.02.974.021,1.949-.015,2.923.038,1.38.047,2.758-.008,4.136a1.443,1.443,0,0,1-1.455,1.5c-2.565-.272-4.694.414-6.1,2.74-.16.265-.387.535-.784.413" transform="translate(-3.376 -22.74)" fill="#a55d4e"/>
          <path id="Trazado_229862" data-name="Trazado 229862" d="M18.446,306.594c0,3.058-.008,6.116.009,9.174A11.312,11.312,0,0,0,29.61,326.935q30.53.026,61.059.006c3.731,0,6.683-1.7,9.25-4.237.012,1.639-.076,3.287.067,4.915a2.456,2.456,0,0,1-1.755,2.841,48.66,48.66,0,0,1-19.363,4.333q-28.912.073-57.823-.005A47.675,47.675,0,0,1,1.4,330.26a2.023,2.023,0,0,1-1.373-2.247,57.331,57.331,0,0,0,0-5.9,11.646,11.646,0,0,1,2.719-8.347c.724-1.609,2.194-2.345,3.668-3.027,1.325-.613,2.7-1.113,4.065-1.641,2.073-.748,4.1-1.625,6.156-2.4.583-.22,1.178-.615,1.811-.1" transform="translate(0 -172.05)" fill="#c93c41"/>
          <path id="Trazado_229863" data-name="Trazado 229863" d="M65.084,26.3a92.765,92.765,0,0,1-26.375-3.351,41.494,41.494,0,0,1-10.7-5.143,25.922,25.922,0,0,1,5.483-5.663,56.4,56.4,0,0,0,10.489,5.31,53.9,53.9,0,0,0,10.992,2.607A30.018,30.018,0,0,1,45.47,6.7a4.033,4.033,0,0,1-.46-2.048A40.894,40.894,0,0,1,58.983.467a48.9,48.9,0,0,1,25.627,3.24,45.509,45.509,0,0,1,13.623,8.573c-.035,1.091-1,1.361-1.69,1.808-5.851,3.8-12.361,5.742-19.207,6.754-6.294.931-12.611.725-19.018.536a49.9,49.9,0,0,0,5.363,3.494c.563.361,1.353.551,1.4,1.432" transform="translate(-15.73 0)" fill="#b36e5a"/>
          <path id="Trazado_229864" data-name="Trazado 229864" d="M211.178,239.417c-2.178-2.224-5.122-3.037-7.849-4.25a2.745,2.745,0,0,1-.508-2.015c0-15.634-.039-31.267.014-46.9a1.431,1.431,0,0,1,.809-1.453,16.526,16.526,0,0,0,6.551-9.23c.181-.582.026-1.473.992-1.613q.022,16.2.042,32.4,0,16.528-.049,33.056" transform="translate(-113.902 -97.701)" fill="#a55d4e"/>
          <path id="Trazado_229865" data-name="Trazado 229865" d="M13.936,235.494c-2.79,1.1-5.705,1.972-7.846,4.263-.023-.6-.064-1.2-.064-1.8q-.005-30.794.014-61.588c0-.6-.328-1.3.3-1.805,1.011,1.737,1.384,3.752,2.487,5.466a15.519,15.519,0,0,0,4.6,5c.57.361,1.1.736.978,1.539.058,15.631.019,31.258.024,46.885a3.511,3.511,0,0,1-.5,2.036" transform="translate(-3.344 -98.042)" fill="#a55d4e"/>
          <path id="Trazado_229866" data-name="Trazado 229866" d="M131.149,56.14c-.2-.928-1.04-.8-1.666-.993-5.312-1.666-10.655-3.253-15.444-6.215,2.294-.81,4.7-.7,7.07-.8a75.15,75.15,0,0,0,22.2-3.94,29.22,29.22,0,0,0,6.46-3.18c.593-.4,1.163-1.089,2.048-.619a40.491,40.491,0,0,1,8.856,19.664,165.431,165.431,0,0,1-25-2.741c-1.631-.284-1.818-1.82-2.5-2.916a4.5,4.5,0,0,1-.519-1.8c-.22,1.177.136,2.752-1.5,3.543" transform="translate(-64.048 -22.596)" fill="#b36e5a"/>
          <path id="Trazado_229867" data-name="Trazado 229867" d="M162.692,78.343c1.007-.8,1.976,0,2.915.153a142.5,142.5,0,0,0,15.127,1.833c2,.1,4,.334,6.007.27a1.539,1.539,0,0,1,1.225.661,33.927,33.927,0,0,1,.7,6.974q.011,12.417,0,24.835c-.57.125-.745-.352-.966-.683a5.212,5.212,0,0,0-5.565-2.435,1.5,1.5,0,0,1-1.641-.743,52.65,52.65,0,0,1-.194-6.337,11.823,11.823,0,0,0,.02-1.576c-.639-6.087-4.311-10.2-8.9-13.761-2.894-2.243-5.816-4.474-8.035-7.448-.38-.511-.915-.984-.685-1.743" transform="translate(-91.341 -43.803)" fill="#a55d4e"/>
          <path id="Trazado_229868" data-name="Trazado 229868" d="M140.679,33.528c-2.495,1.308-4.807,2.938-7.484,3.931a69.065,69.065,0,0,1-15.5,3.631c-4.917.621-9.856.739-14.792.978l-.637-.031c-2.613-1.829-5.578-3.134-8.056-5.357,1.1-.532,2.057.1,3.033.108,7.954.105,15.907.192,23.676-1.949,5.227-1.44,10.236-3.341,14.5-6.827a26.687,26.687,0,0,1,5.266,5.515" transform="translate(-52.911 -15.733)" fill="#c28678"/>
          <path id="Trazado_229869" data-name="Trazado 229869" d="M52.035,10.617a75.113,75.113,0,0,0,3.486,7.522,33.29,33.29,0,0,0,7.224,8.036c-1.394.57-2.672.045-3.87-.188a46.959,46.959,0,0,1-17.214-6.755,2.79,2.79,0,0,1-1.145-1.121,40.134,40.134,0,0,1,11.519-7.493" transform="translate(-22.755 -5.963)" fill="#a55d4e"/>
          <path id="Trazado_229870" data-name="Trazado 229870" d="M14.286,172.038a16.36,16.36,0,0,1-7.9-11.448c-.626-2.4-.211-4.849-.3-7.273,1.432-2.539,3.42-4.056,6.518-3.532-.014.78-.75.854-1.2,1.178a4.972,4.972,0,0,0-2.256,3.8,18.333,18.333,0,0,0,4.4,13.95,15.927,15.927,0,0,0,3.808,3.062c.459.279,1.011.441,1.275.978-.11.571-.579.6-1.017.678-1.266-.092-2.571-.1-3.33-1.4" transform="translate(-3.389 -84.066)" fill="#feddce"/>
          <path id="Trazado_229871" data-name="Trazado 229871" d="M199.39,149.788c3.1-.517,5.082,1.024,6.522,3.549l-.034,6.991c-.959,2.852-1.91,5.691-3.9,8.067a15.2,15.2,0,0,1-4.278,3.645,3.927,3.927,0,0,1-3.3,1.4c-.439-.066-.9-.1-1.044-.643.267-.612.9-.765,1.394-1.078,5.234-3.283,7.759-8.112,8.112-14.173.041-.708-.005-1.419.007-2.129a4.884,4.884,0,0,0-2.416-4.538c-.423-.264-1.083-.368-1.063-1.089" transform="translate(-108.595 -84.07)" fill="#feddce"/>
          <path id="Trazado_229872" data-name="Trazado 229872" d="M24.414,200.681c1.065.378,2.03,1.074,3.233,1.012.895.423,1.725-.33,2.607-.146a6.97,6.97,0,0,1,1.551.116c.831.238,1.119,1,1.508,1.632a43.18,43.18,0,0,0,17.93,16.412c.857.429,1.87.718,2.148,1.843.208,4.684.181,9.365.024,14.045-.566,1.566-.79,3.369-2.721,4.019q-8.623,3.488-17.245,6.978c-.5.2-.99.441-1.485.662-2.731.668-5.183,2.084-7.855,2.909q-.013-24.057-.021-48.114c0-.473-.142-1,.327-1.367" transform="translate(-13.517 -112.709)" fill="#784132"/>
          <path id="Trazado_229873" data-name="Trazado 229873" d="M162.737,201.686c1.2.058,2.176-.628,3.244-1.008.511.423.325,1.009.325,1.531q.007,23.982-.007,47.964-8.526-3.346-17.049-6.7c-3.1-1.223-6.176-2.484-9.264-3.728-2.052-.586-2.425-2.394-2.983-4.073-.217-2.468-.1-4.939-.09-7.408.006-2.245-.135-4.493.089-6.733.188-.851.877-1.218,1.572-1.54a43.7,43.7,0,0,0,11.915-8.291,40.847,40.847,0,0,0,6.387-8.062c.446-.724.73-1.618,1.652-1.959a5.005,5.005,0,0,1,1.3-.137c.983-.214,1.917.533,2.909.14" transform="translate(-76.873 -112.707)" fill="#784132"/>
          <path id="Trazado_229874" data-name="Trazado 229874" d="M108.168,281.469a7.626,7.626,0,0,0,2.568,3.655,12.486,12.486,0,0,1-2.775,5.6,12.693,12.693,0,0,1-7.828,3.716c-4.855.637-9.388-.208-12.957-3.9a7.449,7.449,0,0,1-2.376-5.56,8.968,8.968,0,0,0,2.291-3.5,1.213,1.213,0,0,1,.48.822c.828,4.521,5.283,6.268,9.185,6.611a15.523,15.523,0,0,0,1.789,0c3.37-.307,6.37-1.281,8.337-4.325.632-.978.544-2.211,1.285-3.12" transform="translate(-47.623 -158.082)" fill="#c93c41"/>
          <path id="Trazado_229875" data-name="Trazado 229875" d="M95.036,136.912A47.268,47.268,0,0,1,83.374,150.4,53.214,53.214,0,0,1,74,155.971a2.541,2.541,0,0,1-1.735,1.109,28.983,28.983,0,0,1-17.217.109,3.79,3.79,0,0,1-2.075-1.218A45.885,45.885,0,0,1,37.3,144.47a66.619,66.619,0,0,1-5.37-7.562c-1.262-.826-1.753-2.212-2.353-3.457a61.468,61.468,0,0,1-5.541-17.871c-.163-1.114.3-2.144.083-3.218l-.028-4.266a1.9,1.9,0,0,1,1.526-.446,125.494,125.494,0,0,0,19.1-1.688c9.658-1.6,19.106-3.917,27.6-9.046,3.312-2,6.32-4.342,8-8a22.1,22.1,0,0,0,1.005-2.943c.133-.445.153-1.1.756-1.13.486-.022.636.551.78.941a22.107,22.107,0,0,0,4.788,7.38,93.35,93.35,0,0,0,7.28,6.356c2.553,2.224,5.061,4.476,6.581,7.646a13.939,13.939,0,0,1,1.273,6.179,3.436,3.436,0,0,1,.178,2.085,60.821,60.821,0,0,1-6.072,19.056,4.9,4.9,0,0,1-1.854,2.426" transform="translate(-13.48 -47.651)" fill="#fecdbe"/>
          <path id="Trazado_229876" data-name="Trazado 229876" d="M102.673,103.5a14.868,14.868,0,0,0-4.147-9.862c-2.689-3.042-6.057-5.32-9.068-8a24.506,24.506,0,0,1-6.943-9.523c-.114-.3-.263-.577-.492-1.075C80.965,82.126,76.018,85.725,70.465,88.7c-7.479,4.012-15.595,6.133-23.9,7.573a127.73,127.73,0,0,1-15.228,1.732c-2.4.124-4.795.152-7.19.265-.015-2.235-.027-4.47-.05-6.706-.006-.637,0-1.184.9-1.2,1.357-.028,2.713-.153,4.069-.237a9.65,9.65,0,0,0,3.234-.036c.992.278,1.961-.817,2.962-.049.028,2.093.368,2.518,2.462,2.488,4.7-.067,9.414.327,14.1-.318a10.693,10.693,0,0,0,2.243-.477c.9-.328.912-.849.26-1.448a6.768,6.768,0,0,0-3.1-1.411c-.829-.206-1.771-.121-2.421-.846,2.984-.751,6.011-1.361,8.941-2.28C65.31,83.379,72.774,80.758,78.4,74.737a9.878,9.878,0,0,0,2.237-3.366c1.023-1.11.916-2.621,1.444-4.017.9,1.732,1.389,3.642,2.805,5.014,1.827,3.118,4.588,5.334,7.327,7.573,2.775,2.269,5.7,4.385,7.778,7.386A18.361,18.361,0,0,1,102.907,95a2.389,2.389,0,0,0,.023,1.589q.03,3.451.059,6.9a.2.2,0,0,1-.316.007" transform="translate(-13.533 -37.828)" fill="#f9a58d"/>
          <path id="Trazado_229877" data-name="Trazado 229877" d="M17.376,147.62a79.588,79.588,0,0,0,1.68,9.7,62.24,62.24,0,0,0,6.131,14.847l-1.678-.022c-.512-.276-1.268.132-1.627-.576-5.43-2.264-8.141-6.657-9.5-12.1a20.207,20.207,0,0,1-.309-6.028c.134-2.466,1.806-3.828,3.876-4.809.679-.048,1.477.072,1.426-1.007" transform="translate(-6.735 -82.908)" fill="#f9a58d"/>
          <path id="Trazado_229878" data-name="Trazado 229878" d="M38.658,119.223a4.125,4.125,0,0,1-3.234.036l3.234-.036" transform="translate(-19.895 -66.959)" fill="#f1af9c"/>
          <path id="Trazado_229879" data-name="Trazado 229879" d="M193.629,149.805q.158,0,.315-.007c.448,0,.881.346,1.34.051,2.888,1.245,3.984,3.389,3.966,6.557a18.9,18.9,0,0,1-4.945,13.068,10.831,10.831,0,0,1-4.956,3.315c-.472.8-1.35.243-1.961.58l-1.343.023a60.435,60.435,0,0,0,7.487-21.311,17.845,17.845,0,0,0,.1-2.276" transform="translate(-104.489 -84.131)" fill="#f9a58d"/>
          <path id="Trazado_229880" data-name="Trazado 229880" d="M203.524,132.015a1.184,1.184,0,0,1-.023-1.589q.011.794.023,1.589" transform="translate(-114.127 -73.251)" fill="#f3b19e"/>
          <path id="Trazado_229881" data-name="Trazado 229881" d="M33.249,202.248l1.627.576a4.621,4.621,0,0,1-2.642-.252c.354-.06.764.053,1.016-.324" transform="translate(-18.103 -113.589)" fill="#f9d2c2"/>
          <path id="Trazado_229882" data-name="Trazado 229882" d="M189.108,202.826l1.96-.58c.249.377.653.265,1,.32a5.618,5.618,0,0,1-2.965.26" transform="translate(-106.209 -113.588)" fill="#f9d2c2"/>
          <path id="Trazado_229883" data-name="Trazado 229883" d="M90.055,247.1a28.854,28.854,0,0,0,21.027,0q-.024,3.612-.05,7.225a2.507,2.507,0,0,1-1.863.441c-1.695.018-3.39,0-5.085.009-3.84.032-5.649,1.817-5.682,5.6-.011,1.2.038,2.4-.011,3.6a5.337,5.337,0,0,0,2.329,4.943c.385.269.878.5.844,1.107a13.28,13.28,0,0,1-8.074-1.937,7.2,7.2,0,0,1-3.459-5.912q.011-7.541.021-15.081" transform="translate(-50.566 -138.778)" fill="#f9a58d"/>
          <path id="Trazado_229884" data-name="Trazado 229884" d="M111.606,279.264a6.317,6.317,0,0,1-3.646-6.817c.117-1.131.011-2.284.02-3.427a5.16,5.16,0,0,1,5.4-5.47c2.563-.019,5.125,0,7.688.008l.078,7.842c-.19,3.757-3,6.732-7.14,7.533-.793.153-1.6.222-2.4.33" transform="translate(-60.605 -148.014)" fill="#feccbd"/>
          <path id="Trazado_229885" data-name="Trazado 229885" d="M28.025,112.015s23.932-.811,33.394-5.05-.845,6.224-.845,6.224L43.99,116.682Z" transform="translate(-15.74 -59.507)" fill="#f9a58d"/>
        </g>
      </g>
    </g>
  </g>
</svg>
