<svg id="Grupo_148207" data-name="Grupo 148207" xmlns="http://www.w3.org/2000/svg" xmlns:xlink="http://www.w3.org/1999/xlink" width="140.373" height="158.368" viewBox="0 0 140.373 158.368">
  <defs>
    <clipPath id="clip-path">
      <rect id="Rectángulo_89692" data-name="Rectángulo 89692" width="140.373" height="158.368" fill="#cba124"/>
    </clipPath>
  </defs>
  <g id="Grupo_148170" data-name="Grupo 148170" clip-path="url(#clip-path)">
    <path id="Trazado_246504" data-name="Trazado 246504" d="M5.566,158.367c-.56-.242-1.132-.46-1.68-.728a6.914,6.914,0,0,1-3.8-7.3c.681-4.373,1.475-8.728,2.222-13.09.009-.051.026-.1.038-.15.4-1.66,1.433-2.48,2.792-2.209,1.3.259,1.992,1.344,1.733,2.975-.654,4.117-1.36,8.225-2.069,12.333-.422,2.444.424,3.528,2.888,3.528q62.527.008,125.054,0c2.364,0,3.241-1.113,2.844-3.438q-3.357-19.631-6.686-39.266a7.844,7.844,0,0,0-6.006-6.844c-5.043-1.443-10.046-3.025-15.068-4.543-.434-.131-.881-.221-1.5-.374,0,3.973-.024,7.823.046,11.671.005.294.627.708,1.036.845A11.977,11.977,0,1,1,92.041,122.51c.5-5.45,3.417-8.98,8.549-10.787.442-.156,1.031-.752,1.039-1.154.076-4.221.046-8.443.046-12.779l-7.988-2.416c-.664,1.528-1.342,2.958-1.916,4.429q-9.419,24.149-18.809,48.31c-.536,1.376-.842,3.059-2.77,3.066s-2.243-1.674-2.782-3.051Q57.394,122.559,47.376,96.988c-.186-.475-.417-.932-.715-1.592L38.692,97.78c0,1.753-.058,3.4.043,5.041a1.57,1.57,0,0,0,.9,1.1c5.481,1.811,8.2,5.269,8.652,11.118.523,6.727,1.062,13.453,1.57,20.181.328,4.34-2.1,6.974-6.432,7.022a15.49,15.49,0,0,1-2.467-.074,2.272,2.272,0,0,1,.24-4.532c.771-.042,1.545-.031,2.318-.018,1.318.021,1.857-.6,1.751-1.918-.407-5.083-.776-10.169-1.168-15.253q-.225-2.927-.49-5.851a6.806,6.806,0,0,0-6.763-6.353c-3.837-.223-6.96,1.968-7.442,5.661-.6,4.59-.852,9.225-1.243,13.842q-.319,3.773-.6,7.548c-.14,1.939.2,2.3,2.1,2.322.721.009,1.446-.025,2.162.038a2.137,2.137,0,0,1,2.09,2.1,2,2,0,0,1-1.646,2.3c-5.233.99-9.884-.957-9.346-7.174.608-7.029,1.055-14.073,1.764-21.091.509-5.037,3.525-8.206,8.268-9.722.869-.278,1.161-.611,1.11-1.475-.064-1.065-.015-2.136-.015-3.408l-11.4,3.453c-1.723.522-3.434,1.09-5.173,1.551a7.637,7.637,0,0,0-5.984,6.678c-.826,4.975-1.684,9.945-2.532,14.916a8.492,8.492,0,0,1-.232,1.052,2.151,2.151,0,0,1-2.558,1.708A2.059,2.059,0,0,1,4.3,126.12c.236-1.99.6-3.966.936-5.944.6-3.552,1.2-7.1,1.832-10.65a11.525,11.525,0,0,1,8.515-9.6c5.751-1.772,11.525-3.467,17.268-5.262.56-.175,1.319-.764,1.4-1.258Q36.351,80.9,48.1,76.27a5.989,5.989,0,0,0,.572-.325l-.94-1.161a37.527,37.527,0,0,1-7.823-15.748c-.194-.891-.488-1.259-1.48-1.324-4.711-.306-7.148-2.98-7.177-7.7-.015-2.478-.338-5.217,1.732-6.948,1.881-1.573,1.916-3.354,1.9-5.429-.045-6.7-.113-13.4.04-20.094A17.909,17.909,0,0,1,52.249.14q17.926-.281,35.86,0c9.36.145,17.037,8.033,17.352,17.39.047,1.39.061,2.783.024,4.172-.041,1.559-.838,2.448-2.148,2.514A2.268,2.268,0,0,1,100.9,21.8c-.087-1.231,0-2.474-.063-3.708-.392-7.771-5.994-13.3-13.772-13.363Q70.143,4.6,53.216,4.736c-7.71.072-13.441,5.588-13.643,13.288-.212,8.076-.047,16.162-.047,24.243l4.007,1.33c.026-.569.072-1.1.073-1.634.005-5.307,0-10.614.005-15.922.012-6.435,3.841-10.255,10.3-10.284,1.185-.005,2.374.061,3.554-.013a12.234,12.234,0,0,1,8.886,2.8,5.933,5.933,0,0,0,7.717-.03,12.081,12.081,0,0,1,8.74-2.768c1.386.084,2.782-.008,4.173.02,5.871.116,9.73,3.991,9.77,9.872.038,5.41.009,10.821.009,16.231v1.747l4.115-1.34c0-2.639,0-5.356,0-8.075,0-2.519.728-3.609,2.376-3.585,1.59.023,2.247,1.045,2.251,3.5,0,2.01-.065,4.022.04,6.026a2.791,2.791,0,0,0,.849,1.775,6.643,6.643,0,0,1,2.56,4.586,28.416,28.416,0,0,1,.028,5.234c-.413,3.51-2.964,5.731-6.768,5.954-1.145.067-1.549.409-1.8,1.529a37.432,37.432,0,0,1-7.7,15.474c-.318.394-.631.791-.922,1.157a61.342,61.342,0,0,1,5.415,3.006,20.2,20.2,0,0,1,8.769,14.134,1.834,1.834,0,0,0,1.556,1.73c5.672,1.676,11.324,3.418,16.99,5.117a11.693,11.693,0,0,1,8.813,9.873q3.468,20.238,6.932,40.477a6.911,6.911,0,0,1-4.643,7.8c-.281.105-.548.25-.821.376ZM96.116,49.857c-3.377-.536-4-1.265-4-4.731,0-6.544.013-13.088-.008-19.632-.009-2.552-1.4-4.789-3.6-4.9-4.225-.21-8.47-1.027-12.414,2.023-3.658,2.829-8.043,2.692-11.846.027a11.407,11.407,0,0,0-7.92-2.263c-.869.077-1.751.006-2.627.013-3.673.031-5.454,1.832-5.458,5.55q-.012,9.584,0,19.168c0,3.487-.678,4.284-4.4,4.768.283,3.13.219,6.364.931,9.418a30.432,30.432,0,0,0,8.16,14.325c5.734,5.893,12.608,8.809,20.917,7.467,6.3-1.018,11.228-4.426,15.194-9.293,5.2-6.382,8.21-13.5,7.067-21.941M54.945,93.109c4.96,3.708,9.753,7.267,14.51,10.873.759.575,1.189.18,1.739-.232q6.614-4.958,13.238-9.9c.312-.234.58-.527.939-.857-2.6-2.919-2.276-6.511-2.425-10.074C74.33,87.105,65.9,87.039,57.329,82.9c.083,3.723.124,7.2-2.385,10.208m48.87,37.451a7.321,7.321,0,1,0-7.213-7.339,7.363,7.363,0,0,0,7.213,7.339m-33.7,11.573c.3-.624.518-.99.668-1.381.755-1.969,1.38-4,2.266-5.9a8.876,8.876,0,0,0,.6-6.4c-.49-1.778-.694-3.636-1.006-5.461-.6-3.489-.59-3.49-4.344-3.029-.7,3.787-1.408,7.623-2.1,11.463a1.513,1.513,0,0,0,.135.744c1.214,3.219,2.438,6.434,3.778,9.961m30.99-49.384c-.6-6.136-6.743-11.978-13.247-12.745,0,2.657-.05,5.314.037,7.966a3.455,3.455,0,0,0,.812,1.8,2,2,0,0,0,1.238.571c1.6.218,3.249.212,4.818.563,2.1.469,4.138,1.193,6.342,1.848m-61.9.015c2.56-.761,4.946-1.524,7.365-2.163a6.468,6.468,0,0,1,3-.287c1.64.4,2.5-.355,2.661-1.681.356-2.855.446-5.743.651-8.7C45.9,80.974,40.28,86.3,39.2,92.765m18.621,17.364,7.727-3.295L53.055,97.5l-.237.241,5.007,12.387m24.73,0,5-12.437-.288-.158-12.457,9.314,7.746,3.282m-7.275,2.2c-3.413-2.68-6.821-2.641-10.179-.016,1.6,4.046,8.332,4.241,10.179.016M36.127,46.611a4,4,0,0,0-.206.761c-.021,1.026-.057,2.054-.017,3.079q.12,3.146,3.458,2.436v-5.8l-3.234-.474m64.858.475v6.324c1.117-.432,2.334-.522,2.819-1.165,1.263-1.674.628-3.656.5-5.644l-3.317.485M62.946,123.314c.327-1.815.592-3.152.793-4.5a1.41,1.41,0,0,0-.2-.987c-.895-1.122-1.837-2.208-2.8-3.272-.163-.18-.511-.194-.773-.284-.079.263-.294.576-.217.78.985,2.618,2.012,5.221,3.2,8.261m14.475,0c1.171-3,2.185-5.557,3.149-8.131.093-.247-.117-.607-.186-.914a2.689,2.689,0,0,0-.872.419c-.867.944-1.715,1.91-2.5,2.923a1.85,1.85,0,0,0-.374,1.226c.17,1.343.454,2.671.78,4.477" transform="translate(0 0)" fill="#cba124"/>
  </g>
</svg>
