<svg xmlns="http://www.w3.org/2000/svg" xmlns:xlink="http://www.w3.org/1999/xlink" width="190" height="104" viewBox="0 0 190 104">
  <defs>
    <clipPath id="clip-path">
      <rect id="Rect치ngulo_89686" data-name="Rect치ngulo 89686" width="57.034" height="71" fill="none"/>
    </clipPath>
  </defs>
  <g id="Grupo_148259" data-name="Grupo 148259" transform="translate(-285.049 -2264)">
    <g id="Grupo_148007" data-name="Grupo 148007" transform="translate(0 1853)">
      <rect id="Rect치ngulo_41122" data-name="Rect치ngulo 41122" width="190" height="104" transform="translate(285.049 411)" fill="none"/>
      <g id="Grupo_117447" data-name="Grupo 117447" transform="translate(-3337.23 1038.208)" opacity="0.3">
        <path id="Trazado_158283" data-name="Trazado 158283" d="M3677.784-530.075h0a16.354,16.354,0,0,0,23.129,0l67.216-67.214a16.357,16.357,0,0,0,0-23.129,16.355,16.355,0,0,0-23.129,0L3677.784-553.2A16.353,16.353,0,0,0,3677.784-530.075Z" transform="translate(14.296)" fill="#fc4b52"/>
        <path id="Trazado_158284" data-name="Trazado 158284" d="M3652.069-530.075h0a16.354,16.354,0,0,0,23.129,0l67.216-67.214a16.358,16.358,0,0,0,0-23.129,16.355,16.355,0,0,0-23.129,0L3652.069-553.2A16.354,16.354,0,0,0,3652.069-530.075Z" transform="translate(0)" fill="#feca2e"/>
      </g>
      <g id="Grupo_148159" data-name="Grupo 148159" transform="translate(351.049 427)">
        <g id="Grupo_148159-2" data-name="Grupo 148159" clip-path="url(#clip-path)">
          <path id="Trazado_246406" data-name="Trazado 246406" d="M15.58,5.43a1.119,1.119,0,0,1,.5-1.579A21.465,21.465,0,0,1,26.03.141c.14-.016.334.083.408-.141h.415a.179.179,0,0,0,.277,0H29.9c1,.18,2,.337,3,.544a20.981,20.981,0,0,1,7.476,3.226,1.157,1.157,0,0,1,.553,1.576.991.991,0,0,1-1.585.419c-.875-.513-1.714-1.085-2.627-1.532a5.223,5.223,0,0,0-1.039-.412,24.827,24.827,0,0,1,2.16,3.213,31.541,31.541,0,0,1,3.183,8.748c.266,1.253.253,1.261,1.509,1.01.791-.157,1.582-.317,2.355-.551a1.48,1.48,0,0,0,1.045-2.289,20.483,20.483,0,0,0-2.958-4.823,1.843,1.843,0,0,1-.384-.572c-.162-.5-.248-1,.334-1.317.828-.372,1.206-.373,1.663.367a5.471,5.471,0,0,0,3.636,2.409A18.185,18.185,0,0,1,53.988,12.6a6.444,6.444,0,0,1,2.891,3.494,4.028,4.028,0,0,1-.827,3.7,11,11,0,0,1-4.578,3.232c-.57.246-.749.5-.593,1.119A10.079,10.079,0,0,1,51.074,26a9.436,9.436,0,0,0,.595,3.078,5.4,5.4,0,0,1-4.185,7.266.8.8,0,0,0-.766.621,18.363,18.363,0,0,1-3.416,6.27c-.252.3-.3.452.048.749a3.921,3.921,0,0,1,1.377,3.186c-.014,4.9,0,9.8-.007,14.693a2.491,2.491,0,0,0,.145.944,4.573,4.573,0,0,1-6.937,5.46c-.075-.052-.149-.107-.292-.209A4.23,4.23,0,0,1,34.465,71H22.009a4.317,4.317,0,0,1-2.9-2.433c-.192-.468-.415-.094-.578-.006a4.518,4.518,0,0,1-5.172-.425,4.463,4.463,0,0,1-1.639-4.182,11.418,11.418,0,0,0,.1-1.309c.007-5.034.02-10.069,0-15.1a4.29,4.29,0,0,1,1.529-3.679c.238-.187.18-.3.023-.484A18.859,18.859,0,0,1,9.791,36.81a.552.552,0,0,0-.529-.434,5.485,5.485,0,0,1-4.024-8.144c.373-.664.1-1.454.243-2.178.148-.745.181-1.513.338-2.255.1-.488-.065-.684-.487-.868a12.424,12.424,0,0,1-3.389-2.1C.5,19.536-.4,18.013.176,15.994a5.617,5.617,0,0,1,2.059-2.8,19.346,19.346,0,0,1,6.93-3.3,3.211,3.211,0,0,0,2.159-1.51,5.925,5.925,0,0,1,.646-.81,1.046,1.046,0,0,1,1.516-.3c.676.44.728,1.131.106,1.869a20.193,20.193,0,0,0-2.769,4.373c-.02.042-.041.083-.06.124-.689,1.468-.319,2.255,1.235,2.658.848.22,1.715.358,2.564.568.557.137.784-.031.886-.593a30.178,30.178,0,0,1,1.811-6.167,25.135,25.135,0,0,1,3.679-6.355,17.92,17.92,0,0,0-3.374,1.829,1.759,1.759,0,0,1-1.287.4c-.346-.045-.625-.166-.695-.555" transform="translate(0)"/>
          <path id="Trazado_246407" data-name="Trazado 246407" d="M145.457,0c-.092.184-.185.2-.277,0Z" transform="translate(-118.327)" fill="#868686"/>
          <path id="Trazado_246408" data-name="Trazado 246408" d="M198.5,23.1a1.221,1.221,0,0,0,.125,1.73,18.346,18.346,0,0,1,3.095,5.042,1.589,1.589,0,0,1-1.155,2.384c-1.039.3-2.112.456-3.158.713-.67.165-.763-.114-.858-.63a32.879,32.879,0,0,0-1.754-6.093,23.417,23.417,0,0,0-3.907-6.716c.355-.178.613.007.871.126a20.752,20.752,0,0,1,3.064,1.721c.712.487,1.079.436,1.684-.173q1,.949,1.993,1.9" transform="translate(-155.579 -15.859)" fill="#f09960"/>
          <path id="Trazado_246409" data-name="Trazado 246409" d="M60.679,20.843a1.085,1.085,0,0,0,1.643.15,19.6,19.6,0,0,1,3.566-1.955c.124-.051.283-.242.418-.029.1.158-.083.235-.159.328a27.936,27.936,0,0,0-5.4,12.209c-.231,1.084-.208,1.106-1.258.893-.924-.188-1.845-.4-2.756-.637a1.608,1.608,0,0,1-1.171-2.48,19.057,19.057,0,0,1,2.992-4.873c.584-.7.584-1.11.029-1.754a15.413,15.413,0,0,0,2.1-1.852" transform="translate(-45.099 -15.413)" fill="#f09960"/>
          <path id="Trazado_246410" data-name="Trazado 246410" d="M92.413,141.562a.737.737,0,0,0-.811-.759.822.822,0,0,0-.826.774,10.15,10.15,0,0,0-.033,1.031c-.013.269.029.56-.231.758a12.883,12.883,0,0,1-2.069-.059.622.622,0,0,1-.431-.7,19.062,19.062,0,0,1,.528-4.513c.1-.4.327-.666.8-.5,1.836.159,3.67.344,5.508.472a82.811,82.811,0,0,0,12.713-.131,64.027,64.027,0,0,0,8.4-1.234c.546-.12.518.247.593.512a16.992,16.992,0,0,1-3.006,15.932,16.736,16.736,0,0,1-12.676,6.545c-.251.015-.5-.008-.757-.013a17.935,17.935,0,0,1-10.293-9.452c-.156-.318-.239-.618.19-.8a4.115,4.115,0,0,0,2.662-1.672,2.358,2.358,0,0,0-.124-2.939c-.171-.235-.432-.426-.412-.767" transform="translate(-71.734 -111.395)" fill="#fedcce"/>
          <path id="Trazado_246411" data-name="Trazado 246411" d="M106.084,27.5a99.99,99.99,0,0,1-10.015-.46c-.608-.055-.785-.191-.641-.865a27.941,27.941,0,0,1,4.149-10.323,11.516,11.516,0,0,1,3.26-3.256,5.489,5.489,0,0,1,6.308-.034,14.2,14.2,0,0,1,4.869,5.908,31.485,31.485,0,0,1,2.607,7.78c.118.557,0,.744-.59.8-3.31.3-6.623.484-9.946.454" transform="translate(-77.739 -9.442)" fill="#f2a877"/>
          <path id="Trazado_246412" data-name="Trazado 246412" d="M41.555,68.214a3.9,3.9,0,0,0,2.611,2.546,24.975,24.975,0,0,0,6.928,1.491,110.6,110.6,0,0,0,21.332-.171,25.89,25.89,0,0,0,6.847-1.216,3.522,3.522,0,0,0,2.2-4.953c-.168-.418-.355-.828-.611-1.421,2.587.926,5.042,1.715,6.823,3.731a2.035,2.035,0,0,1,.014,2.942,9.394,9.394,0,0,1-3.609,2.488,40.041,40.041,0,0,1-10.833,2.9,84.035,84.035,0,0,1-19.518.407c-.57-.05-1.136-.155-1.7-.235a25.784,25.784,0,0,1-5.248-1.526,16.282,16.282,0,0,1-4.066-2.3,3.949,3.949,0,0,1-1.764-3.673c.052-.394.025-.9.6-1.006" transform="translate(-33.351 -52.562)" fill="#f5b78d"/>
          <path id="Trazado_246413" data-name="Trazado 246413" d="M65.929,137.147c-.287.019-.509.066-.591.43a23.07,23.07,0,0,0-.543,4.672c0,.214,0,.425.28.463-.066.379-.413.294-.646.379a3.322,3.322,0,0,0-2.391,2.28,2.5,2.5,0,0,0,1.014,2.682,4.307,4.307,0,0,0,3.031.939c.182-.01.369-.065.515.1-.134.129-.232.233-.125.462a17.927,17.927,0,0,0,2.835,4.393,18.453,18.453,0,0,0,7.134,5.072,1.132,1.132,0,0,1,.263.21,15.94,15.94,0,0,1-9.862-2.994,17.054,17.054,0,0,1-7.554-14.97,15.63,15.63,0,0,1,.829-4.686c.064-.194.02-.524.456-.437,1.781.354,3.569.672,5.355,1" transform="translate(-48.321 -110.95)" fill="#fecabd"/>
          <path id="Trazado_246414" data-name="Trazado 246414" d="M136.784,286.752c0-.947.01-1.893-.006-2.84a.741.741,0,0,1,.321-.71c.114-.076.2-.192.307-.279a4.277,4.277,0,0,0,1.505-5.341,11.9,11.9,0,0,1-.423-1.6,2.674,2.674,0,0,0-1.34-1.842.617.617,0,0,1-.37-.654c.021-.553.019-1.109,0-1.662-.01-.322.123-.389.414-.348a18.129,18.129,0,0,0,5.095,0c.311-.044.472.006.459.374-.022.623-.021,1.247,0,1.87a.662.662,0,0,1-.35.616,2.633,2.633,0,0,0-1.01,1.526c-.247.912-.473,1.829-.709,2.744a3.272,3.272,0,0,0,1.02,3.52,2.91,2.91,0,0,1,1.075,2.639c-.1,1.611-.046,3.231-.019,4.847.008.468-.146.574-.586.568-1.613-.024-3.226-.029-4.839,0-.478.009-.572-.161-.559-.592.028-.946.009-1.893.009-2.84" transform="translate(-111.476 -221.252)" fill="#e16e7d"/>
          <path id="Trazado_246415" data-name="Trazado 246415" d="M17.359,69.123c-.784.838-.588,2.7.563,3.882a14.017,14.017,0,0,0,4.712,2.919,32.82,32.82,0,0,0,4.855,1.526c.133.034.279.024.347.178A38.915,38.915,0,0,1,14.339,74,7.286,7.286,0,0,1,11.8,72.024a2.087,2.087,0,0,1-.012-2.842,5.861,5.861,0,0,1,1.421-1.3,19.428,19.428,0,0,1,4.878-2.276,5.961,5.961,0,0,0-.725,3.516" transform="translate(-9.155 -53.472)" fill="#f2a877"/>
          <path id="Trazado_246416" data-name="Trazado 246416" d="M191.178,324.531a9.044,9.044,0,0,0,3.583-3.311c1.233,1.211,2.492,2.364,3.65,3.612a2.484,2.484,0,0,1-3.488,3.5c-1.293-1.209-2.492-2.521-3.744-3.8" transform="translate(-155.817 -261.806)" fill="#d8495d"/>
          <path id="Trazado_246417" data-name="Trazado 246417" d="M82.049,324.69c-1.266,1.293-2.454,2.583-3.728,3.781a2.4,2.4,0,0,1-3.37-.185,2.436,2.436,0,0,1-.122-3.333c1.076-1.17,2.239-2.261,3.349-3.4.276-.283.351-.079.49.118a8.705,8.705,0,0,0,3.382,3.02" transform="translate(-60.497 -261.963)" fill="#d8495d"/>
          <path id="Trazado_246418" data-name="Trazado 246418" d="M174.877,297.055a3.034,3.034,0,0,1-.625,2.017,7.089,7.089,0,0,1-2.1,2.074,1.7,1.7,0,0,1-2.32-.26c-1.756-1.725-1.683-1.419-1.067-3.688.127-.466.221-.942.361-1.4.216-.718.754-.87,1.3-.363.472.441.9.93,1.38,1.36a.983.983,0,0,0,1.63-.246c.207-.392.386-.787.905-.638.494.142.48.62.537,1.027.013.09,0,.184,0,.123" transform="translate(-137.226 -240.543)" fill="#fedcce"/>
          <path id="Trazado_246419" data-name="Trazado 246419" d="M103.98,297.118a4.622,4.622,0,0,1,.064-.5c.074-.347.178-.69.614-.723.379-.029.56.206.722.523a1.017,1.017,0,0,0,1.787.308c.439-.408.841-.855,1.277-1.266.545-.514,1.1-.38,1.307.329.261.907.508,1.819.71,2.74.261,1.19-1.744,3.156-2.954,2.926a5.447,5.447,0,0,1-3.526-4.335" transform="translate(-84.747 -240.556)" fill="#fedcce"/>
          <path id="Trazado_246420" data-name="Trazado 246420" d="M80.632,269.193c0,1.267,0,2.324,0,3.381a.465.465,0,0,1-.233.455A3.19,3.19,0,0,0,78.979,276a1.3,1.3,0,0,1-.425,1.023c-.892.885-1.754,1.8-2.709,2.642a14.174,14.174,0,0,1,4.787-10.472" transform="translate(-61.816 -219.402)" fill="#dd5c6d"/>
          <path id="Trazado_246421" data-name="Trazado 246421" d="M204.161,269.03a13.883,13.883,0,0,1,4.735,10.235c-.863-.882-1.722-1.767-2.591-2.643a.712.712,0,0,1-.158-.574c0-1.418-.336-2.663-1.763-3.318-.212-.1-.225-.258-.224-.451,0-1.011,0-2.023,0-3.249" transform="translate(-166.398 -219.269)" fill="#e16d7d"/>
          <path id="Trazado_246422" data-name="Trazado 246422" d="M75.133,252.18c0-1.749,0-3.5,0-5.248a2.152,2.152,0,0,1,.3-1.187c.483-.757.816-.813,1.481-.225a28.355,28.355,0,0,0,2.524,1.872,23.474,23.474,0,0,0-4.309,4.788" transform="translate(-61.236 -199.783)" fill="#f1a876"/>
          <path id="Trazado_246423" data-name="Trazado 246423" d="M212.316,251.858a19.063,19.063,0,0,0-3.855-4.377c-.3-.24-.4-.379.008-.625a14.307,14.307,0,0,0,2.406-1.839.435.435,0,0,1,.652-.036,1.615,1.615,0,0,1,.777,1.247c.032,1.876.013,3.753.013,5.629" transform="translate(-169.69 -199.563)" fill="#f2a876"/>
          <path id="Trazado_246424" data-name="Trazado 246424" d="M256.394,156.466a21.746,21.746,0,0,0,0-6.476,3.255,3.255,0,0,1,2.536,3.034,3.369,3.369,0,0,1-2.537,3.442" transform="translate(-208.97 -122.247)" fill="#fdcabd"/>
          <path id="Trazado_246425" data-name="Trazado 246425" d="M38.273,156.4a3.31,3.31,0,0,1-2.539-3.394,3.223,3.223,0,0,1,2.537-3.1,19.253,19.253,0,0,0,0,6.491" transform="translate(-29.123 -122.182)" fill="#fecabd"/>
          <path id="Trazado_246426" data-name="Trazado 246426" d="M182.561,264.7c0,1.449-.011,2.809.008,4.169a.627.627,0,0,1-.391.652c-.3.142-.387-.163-.553-.289-.2-.153-.36-.422-.579-.479-.906-.233-.846-.9-.838-1.606.018-1.606,0-1.607,1.488-2.151.256-.094.516-.177.865-.3" transform="translate(-146.873 -215.737)" fill="#f4b68d"/>
          <path id="Trazado_246427" data-name="Trazado 246427" d="M180.243,344.352c.821.842,1.5,1.52,2.161,2.224a2.219,2.219,0,0,1-.223,2.209,2,2,0,0,1-1.737.8c-.29-.069-.2-.274-.2-.432-.007-1.521,0-3.043,0-4.8" transform="translate(-146.897 -280.659)" fill="#f4b78d"/>
          <path id="Trazado_246428" data-name="Trazado 246428" d="M115.132,346.707c0,1.564-.009,2.968.006,4.373,0,.332-.1.439-.432.433a2.026,2.026,0,0,1-1.908-2.382.645.645,0,0,1,.159-.293c.565-.577,1.137-1.147,1.71-1.717.111-.11.233-.208.465-.414" transform="translate(-91.899 -282.578)" fill="#f3b68c"/>
          <path id="Trazado_246429" data-name="Trazado 246429" d="M115.077,268.859a14.351,14.351,0,0,1,.1,2.733c.011.195-.147.258-.281.353-.262.186-.5.407-.76.6-.2.141-.294.533-.665.275-.3-.211-.752-.287-.64-.834a4.615,4.615,0,0,0,.033-.759,5.626,5.626,0,0,1,1.711-2.275.4.4,0,0,1,.5-.089" transform="translate(-91.946 -219.084)" fill="#f4b78d"/>
          <path id="Trazado_246430" data-name="Trazado 246430" d="M115.3,265.511c-.858.348-1.239,1.176-1.81,1.813a6.679,6.679,0,0,0-.4.551V264.7l2.213.815" transform="translate(-92.171 -215.737)" fill="#f1a876"/>
          <path id="Trazado_246431" data-name="Trazado 246431" d="M41.182,131.818a8.238,8.238,0,0,1,.18-1.609c.033-.309.171-.358.461-.238.357.148.753.2,1.108.356.184.078.59-.024.478.407-.082.317-.092.649-.59.692a10.8,10.8,0,0,0-1.638.392" transform="translate(-33.559 -105.882)" fill="#f3eb85"/>
          <path id="Trazado_246432" data-name="Trazado 246432" d="M254.8,132.882a7.388,7.388,0,0,0-1.786-.469c-.4-.018-.374-.361-.438-.6-.09-.34.278-.2.4-.328.028-.028.087-.024.131-.037,1.749-.516,1.755-.511,1.689,1.437" transform="translate(-205.845 -106.896)" fill="#f3eb85"/>
          <path id="Trazado_246433" data-name="Trazado 246433" d="M74.5,156.983s-.056,8.04,2.933,11.605-5.38-2.136-6.034-4.091,1.036-9.084,3.1-7.514" transform="translate(-58.077 -127.764)" fill="#fecabd"/>
          <path id="Trazado_246434" data-name="Trazado 246434" d="M89.328,149.911a17.389,17.389,0,0,0,1.881,11.93c3.406,5.779,13.608-4.158,13.608-4.158Z" transform="translate(-72.528 -122.183)" fill="#fedcce"/>
        </g>
      </g>
    </g>
  </g>
</svg>
