<svg id="Grupo_146863" data-name="Grupo 146863" xmlns="http://www.w3.org/2000/svg" xmlns:xlink="http://www.w3.org/1999/xlink" width="58.325" height="55.203" viewBox="0 0 58.325 55.203">
  <defs>
    <clipPath id="clip-path">
      <rect id="Rectángulo_89061" data-name="Rectángulo 89061" width="58.325" height="55.203" fill="none"/>
    </clipPath>
  </defs>
  <g id="Grupo_146862" data-name="Grupo 146862" clip-path="url(#clip-path)">
    <path id="Trazado_219802" data-name="Trazado 219802" d="M211.685,88.357a3.3,3.3,0,0,1-1.45-5.315,10.136,10.136,0,0,1,5.49-3.369,15.118,15.118,0,0,1,6.964-.106,9.856,9.856,0,0,1,7,5.925c.185.4.389.785.535,1.194a6.931,6.931,0,0,0,2.536,3.291,3.583,3.583,0,0,1,.679,5.436,12.139,12.139,0,0,1-8.417,4.408c-.512.056-1.028.079-1.543.118a.758.758,0,0,1-.614.163,12.339,12.339,0,0,1-3.566-.57,3.244,3.244,0,0,1-2.327-3.942,9.321,9.321,0,0,0,.194-2.777,4.284,4.284,0,0,0-3.412-3.946c-.479-.134-.967-.215-1.455-.3a1.078,1.078,0,0,1-.609-.208" transform="translate(-176.06 -66.594)" fill="#3c3854"/>
    <path id="Trazado_219803" data-name="Trazado 219803" d="M9.882,95.729c-.911,0-1.822-.02-2.733,0a7.065,7.065,0,0,1-7.03-6.061C-.4,86.81.85,84.655,2.867,82.823a9.669,9.669,0,0,1,2.969-1.838,34.021,34.021,0,0,0,5.343-2.973,11.661,11.661,0,0,1,5.062-1.928,7.45,7.45,0,0,1,4.536.878,4.568,4.568,0,0,1,2.252,5.281c-.056.23-.106.463-.158.694a5.728,5.728,0,0,1-1.039,2.3,15.858,15.858,0,0,1-2.726,3.047,1.342,1.342,0,0,1-1.449.373,1.811,1.811,0,0,0-2.022.659,1.872,1.872,0,0,0-.259,2.117.964.964,0,0,1,.156.444,8.82,8.82,0,0,1-5.121,3.827,1.136,1.136,0,0,1-.531.021" transform="translate(0 -63.928)" fill="#3c3854"/>
    <path id="Trazado_219804" data-name="Trazado 219804" d="M52.492,242.945c.594.943.932,2.008,1.428,3a.577.577,0,0,1,.266.311,25.79,25.79,0,0,1,1.639,5.4c-.177.365.034.727.012,1.1-.04.693-.348,1.042-1.053,1.05-.846.009-1.692,0-2.539,0a7.894,7.894,0,0,1-.6-2.169,40.1,40.1,0,0,0-1.805-6.168,17.3,17.3,0,0,0-.866-1.764,1.481,1.481,0,0,0-.322-.425c-.111-.094-.241-.164-.379-.074s-.117.238-.081.377a.845.845,0,0,0,.1.218,28.341,28.341,0,0,1,2.809,8.321,2.868,2.868,0,0,1,.207,1.676l-8.013-.005a.9.9,0,0,1-.245-.532,15.93,15.93,0,0,1,.467-7.834,6.9,6.9,0,0,1,1.044-1.931,2.41,2.41,0,0,1,1.6-.936,3.452,3.452,0,0,0,.412-.061c.139-.041.271-.1.272-.272,0-.2-.154-.26-.318-.289a1.759,1.759,0,0,0-.592.022,3.144,3.144,0,0,0-2.063,1.4,10.012,10.012,0,0,0-1.576,4.639,16.438,16.438,0,0,0,.1,5.048c.042.246.151.506-.024.75-1.569,0-3.138.016-4.707.009-.769,0-1.131-.409-1.15-1.192a29.656,29.656,0,0,1,.72-8.089,30.18,30.18,0,0,1,3.23-8.162,1.152,1.152,0,0,1,.863-.076,16.032,16.032,0,0,1,6.3,2.68,38.318,38.318,0,0,1,4.168,3.255c.256.222.461.492.7.73" transform="translate(-30.683 -198.604)" fill="#e0f6be"/>
    <path id="Trazado_219805" data-name="Trazado 219805" d="M139.258,14.607a2.8,2.8,0,0,1,.237-1.413c.129-.37.071-.516-.324-.609a5.763,5.763,0,0,1-4.654-5.033C134.2,4.945,134.687,2.6,137.346.9a4.926,4.926,0,0,1,2.52-.82,36.831,36.831,0,0,1,5.768.072,5.883,5.883,0,0,1,4.944,5.475,6.7,6.7,0,0,1-1.221,4.792,5.257,5.257,0,0,1-4.333,2.251,6.559,6.559,0,0,0-5.132,1.585,3.2,3.2,0,0,1-.633.354" transform="translate(-113.017 -0.001)" fill="#a7e446"/>
    <path id="Trazado_219806" data-name="Trazado 219806" d="M240.834,223.223a14.607,14.607,0,0,1,2.887,6.965,30.725,30.725,0,0,1-.672,11.77,1.01,1.01,0,0,1-1.1.87c-.794,0-1.588-.008-2.382-.013-.173-.253-.037-.5.024-.744.386-1.522.843-3.027,1.194-4.558a20.057,20.057,0,0,0,.645-5.371,5.024,5.024,0,0,0-.163-1.178,1.759,1.759,0,0,0-2.517-1.119,3.05,3.05,0,0,0-1.181,1.065,14.6,14.6,0,0,0-1.821,4.513c-.589,2.17-.953,4.391-1.44,6.584-.064.286-.061.6-.326.809-.536,0-1.072.023-1.608.01a.935.935,0,0,1-1.058-.9,6.147,6.147,0,0,0-1.285-3.026,4.791,4.791,0,0,1-.49-5.324,31.8,31.8,0,0,1,3.147-4.907,38.977,38.977,0,0,0,2.383-3.637,2.13,2.13,0,0,1,.914-.2,20.011,20.011,0,0,0,4.176-1.458c.214-.088.417-.239.672-.15" transform="translate(-192.493 -187.643)" fill="#fc4b52"/>
    <path id="Trazado_219807" data-name="Trazado 219807" d="M81.454,128.306a2.149,2.149,0,0,1,2.561-3.293.569.569,0,0,0,.628-.169,12.807,12.807,0,0,0,4.117-5.363.775.775,0,0,1,.1-.145,6.056,6.056,0,0,1,.73,2.267c.063.147.078.268-.141.263-.849-.494-1.536-.344-1.882.558a5.68,5.68,0,0,0,.531,5.349c.579.894,1.576.762,2.093-.18.2-.368.235-.789.4-1.168,1.3.737,1.409,1.544.385,2.585a1.5,1.5,0,0,0-.422.564c-.182.66-.6.722-1.173.595-.5-.111-.607.028-.448.509a1.094,1.094,0,0,0,1.358.738,1.915,1.915,0,0,1,.022.943,2.175,2.175,0,0,1-2.356,2.038c-.851.03-1.7.023-2.556,0a2.18,2.18,0,0,0-2.1,1.072c-.324.522-.586,1.075-.9,1.6a.388.388,0,0,1-.383-.091,32.121,32.121,0,0,0-3.237-2.044.538.538,0,0,1-.287-.283l-.008-.234c.678-.719,1.506-1.272,2.186-1.993a5.823,5.823,0,0,0,1.376-2.332c.18-.592.211-1.138-.432-1.5a.274.274,0,0,1-.165-.29" transform="translate(-65.987 -100.327)" fill="#fe967b"/>
    <path id="Trazado_219808" data-name="Trazado 219808" d="M229.4,150.443a20.935,20.935,0,0,1-4.762,1.753,3.512,3.512,0,0,1-1,.055,4.279,4.279,0,0,0-.348-3.717,1.579,1.579,0,0,0-1.538-.919,9.793,9.793,0,0,0-1.125.061c-2.129.314-3.2-.55-3.331-2.7-.012-.2,0-.4.008-.594a2.81,2.81,0,0,1,1.007-.3c.233-.069.5-.148.426-.456s-.337-.194-.544-.164c-.341.05-.684.24-1.018-.021a6.045,6.045,0,0,0-1.2-1.134c-.771-.595-.794-1.059-.147-1.776a7.521,7.521,0,0,0,.624-.789,2.443,2.443,0,0,0,.386-2.3,5.163,5.163,0,0,1-.15-.813,7.907,7.907,0,0,1,3.158.748c2.01.955,2.62,2.723,2.516,4.843a14.612,14.612,0,0,1-.227,1.711,3.036,3.036,0,0,0,2.126,3.693,12.935,12.935,0,0,0,4.218.588,16.167,16.167,0,0,0,.925,2.234" transform="translate(-181.058 -114.863)" fill="#fe967b"/>
    <path id="Trazado_219809" data-name="Trazado 219809" d="M260.464,275.864c.631-2.947,1.1-5.931,2.01-8.815a11.44,11.44,0,0,1,1.447-3.185,3.542,3.542,0,0,1,1.1-1.068,1.925,1.925,0,0,1,2.926,1.343,14.515,14.515,0,0,1-.294,5.381c-.412,2.146-1.1,4.223-1.608,6.344h-5.585" transform="translate(-218.975 -220.692)" fill="#fe967b"/>
    <path id="Trazado_219810" data-name="Trazado 219810" d="M165.751,246.591a2.4,2.4,0,0,0,.9-2.129c-.121-1.217-.045-2.453-.051-3.681,0-.375.073-.736.471-.876.413-.145.709.09.983.38.367.389.4.941.7,1.362-.421.476-.418.536.1.908a6.479,6.479,0,0,1,.632.537c.169.158.361.406.6.175.261-.253.008-.472-.158-.657a4.418,4.418,0,0,0-.718-.618c-.114-.082-.313-.128-.231-.349a5.381,5.381,0,0,1,.723-1.493,1.7,1.7,0,0,1,2.569-.511,4.261,4.261,0,0,1,.3,6.8c-1.174.992-2.576,1.647-3.771,2.6-.108.086-.207.182-.31.273-.141.107-.262.031-.376-.049a12.44,12.44,0,0,1-2.327-2.346.25.25,0,0,1-.027-.327" transform="translate(-139.307 -201.151)" fill="#fe967b"/>
    <path id="Trazado_219811" data-name="Trazado 219811" d="M64.127,215.479a26.337,26.337,0,0,1,3.907,2.418,23.388,23.388,0,0,1,5.153,7,1.375,1.375,0,0,1,.238.6,4.985,4.985,0,0,1-1.367-1.1,28.227,28.227,0,0,0-6.351-4.318,11.049,11.049,0,0,0-4.31-1.17,11.668,11.668,0,0,1,2.73-3.428" transform="translate(-51.617 -181.155)" fill="#a7e446"/>
    <path id="Trazado_219812" data-name="Trazado 219812" d="M149.084,284.363a9.681,9.681,0,0,0,2.73,2.723c.68.455.679.455.112,1.053a44.577,44.577,0,0,1-4.145,3.838c-.364-.392-.3-.924-.435-1.388-.417-1.468-.926-2.9-1.47-4.326.856-.634,1.716-1.263,2.568-1.9.226-.169.428-.272.64,0" transform="translate(-122.64 -238.924)" fill="#a7e446"/>
    <path id="Trazado_219813" data-name="Trazado 219813" d="M67.622,175.647c1,.772,1.064.983.624,2.216a5.278,5.278,0,0,1-1.318,2.017,10.729,10.729,0,0,1-2.271,1.877.81.81,0,0,1-.494-.174c-.672-.615-1.346-1.229-2.011-1.85-.064-.06-.078-.174-.116-.263a9.3,9.3,0,0,0,3.057-1.338,13.549,13.549,0,0,0,2.3-2.3,1.368,1.368,0,0,1,.225-.19" transform="translate(-52.154 -147.668)" fill="#322f4c"/>
    <path id="Trazado_219814" data-name="Trazado 219814" d="M71.279,282.845a15.908,15.908,0,0,1,.608-9.169,4.447,4.447,0,0,1,2.2-2.62,2.8,2.8,0,0,1,1.446-.249c.294.027.493.184.484.494a.431.431,0,0,1-.462.448c-1.69-.05-2.337,1.169-2.843,2.44a13.949,13.949,0,0,0-.766,6.719c.068.649.193,1.288.252,1.937l-.923,0" transform="translate(-59.591 -227.659)" fill="#a7e446"/>
    <path id="Trazado_219815" data-name="Trazado 219815" d="M111.623,289.061a49.6,49.6,0,0,0-2.149-7.9,12.864,12.864,0,0,0-.984-1.968c-.189-.31-.442-.675-.017-.929.4-.241.637.108.835.43a21.161,21.161,0,0,1,2.283,5.977,42.025,42.025,0,0,1,.972,4.4l-.939-.008" transform="translate(-90.999 -233.871)" fill="#a7e446"/>
    <path id="Trazado_219816" data-name="Trazado 219816" d="M139.134,141.131a2.784,2.784,0,0,1,.225-1.22c.153-.406.38-.451.616-.068a5.077,5.077,0,0,1,.649,3.151,4.86,4.86,0,0,1-.157.817c-.058.228-.115.519-.392.537s-.372-.274-.465-.48c-.138-.306-.225-.634-.333-.953a1.1,1.1,0,0,0,.524-1.3c-.075-.4-.422-.357-.668-.483" transform="translate(-116.966 -117.347)" fill="#fe977b"/>
    <path id="Trazado_219817" data-name="Trazado 219817" d="M139,149.042c.613-.149.831.011.855.627.038.971-.04,1.1-.712,1.158a4.424,4.424,0,0,1-.144-1.785" transform="translate(-116.83 -125.257)" fill="#362e45"/>
    <path id="Trazado_219818" data-name="Trazado 219818" d="M147.28,133.835c.11-.054.12-.161.141-.263a.291.291,0,0,1,.058.4c-.058.067-.152-.051-.2-.133" transform="translate(-123.82 -112.295)" fill="#feb9a7"/>
    <path id="Trazado_219819" data-name="Trazado 219819" d="M164.857,36.418a.889.889,0,0,1-.9.9.92.92,0,1,1,.9-.9" transform="translate(-137.077 -29.829)" fill="#fdfdfe"/>
    <path id="Trazado_219820" data-name="Trazado 219820" d="M183.859,40.483a.55.55,0,0,1,.6-.579.6.6,0,1,1-.028,1.2c-.381-.008-.558-.243-.572-.623" transform="translate(-154.572 -33.548)" fill="#fbfdfe"/>
    <path id="Trazado_219821" data-name="Trazado 219821" d="M201.3,37.563c.322-.01.471.144.488.382a.4.4,0,0,1-.418.463.425.425,0,0,1-.07-.845" transform="translate(-168.928 -31.58)" fill="#f5fafe"/>
    <path id="Trazado_219822" data-name="Trazado 219822" d="M230.27,146.7c.023.4-.091.784-.572.785s-.582-.391-.58-.807c0-.395.105-.761.553-.775.484-.015.615.349.6.8" transform="translate(-192.622 -122.66)" fill="#3a3046"/>
    <path id="Trazado_219823" data-name="Trazado 219823" d="M178.6,254.328h-3.062l1.148,2.953,2.734-.3v-2" transform="translate(-147.573 -213.816)" fill="#fe967b"/>
  </g>
</svg>
