<svg id="Grupo_148215" data-name="Grupo 148215" xmlns="http://www.w3.org/2000/svg" xmlns:xlink="http://www.w3.org/1999/xlink" width="139.542" height="139.516" viewBox="0 0 139.542 139.516">
  <defs>
    <clipPath id="clip-path">
      <rect id="Rectángulo_89693" data-name="Rectángulo 89693" width="139.542" height="139.516" fill="#cba124"/>
    </clipPath>
  </defs>
  <g id="Grupo_148173" data-name="Grupo 148173" clip-path="url(#clip-path)">
    <path id="Trazado_246507" data-name="Trazado 246507" d="M327.834,135.578a3.406,3.406,0,0,1-3.228,1.533c-6.4-.039-12.8-.012-19.2-.02-2.367,0-3.133-.758-3.17-3.055a44.132,44.132,0,0,0-5.438-20.574,4.937,4.937,0,0,1-.72-2.143c-.014-1.327,1.124-2.135,2.8-2.146,3.042-.021,6.083-.006,9.125-.007h1.518a9.719,9.719,0,0,1,4.426-5.721A9.3,9.3,0,0,1,327.3,108.33c.166.458.356.907.534,1.36v3.542c-.1.245-.218.485-.293.737a9.293,9.293,0,0,1-17.687.768c-.116-.292-.244-.58-.371-.88h-7.044c1,3.027,2.177,5.977,2.938,9.031.771,3.1,1.134,6.3,1.691,9.538h1.466c5.312,0,10.625.032,15.937-.021a3.528,3.528,0,0,1,3.364,1.537Zm-13.924-24.07a4.657,4.657,0,0,0,4.658,4.662,4.714,4.714,0,0,0,4.619-4.729,4.616,4.616,0,0,0-4.617-4.553,4.559,4.559,0,0,0-4.659,4.619" transform="translate(-188.292 -65.001)" fill="#cba124"/>
    <path id="Trazado_246508" data-name="Trazado 246508" d="M268.1,0a24.633,24.633,0,0,1,3.26,1.3,9.177,9.177,0,0,1,4.364,10.14,9.331,9.331,0,0,1-7.907,7.082,9.15,9.15,0,0,1-9.646-5.588,1.738,1.738,0,0,0-1.951-1.316c-4.54.065-9.082.028-13.623.028h-1.508v4.836c0,2.589.072,5.18-.033,7.764a2,2,0,0,0,1.366,2.134,46.789,46.789,0,0,1,12.2,8.8c1.326,1.314,1.477,2.635.438,3.691-1.011,1.026-2.4.9-3.691-.383A43.587,43.587,0,0,0,238.334,29.5a2.869,2.869,0,0,1-1.9-2.953c.038-4.9,0-9.809.022-14.714A4.521,4.521,0,0,1,241.331,7c5.04-.033,10.082-.009,15.122-.012.621,0,1.186.1,1.494-.766A8.986,8.986,0,0,1,264.77.211,1.236,1.236,0,0,0,265.105,0h3M266.7,13.924a4.662,4.662,0,0,0,4.615-4.706,4.712,4.712,0,0,0-4.639-4.572,4.611,4.611,0,0,0-4.641,4.663,4.565,4.565,0,0,0,4.665,4.615" transform="translate(-150.36)" fill="#cba124"/>
    <path id="Trazado_246509" data-name="Trazado 246509" d="M49.168,0a21.734,21.734,0,0,1,4.289,2.2,11.4,11.4,0,0,1,2.7,3.664,1.692,1.692,0,0,0,1.8,1.151c4.859-.041,9.719-.027,14.578-.016,3.537.008,5.285,1.744,5.293,5.252.009,3.759,0,7.519,0,11.349,2.13-.552,4.13-1.106,6.149-1.582,1.586-.374,2.8.3,3.081,1.623.3,1.391-.434,2.392-2.007,2.871-2.728.83-5.462,1.648-8.157,2.58-2.243.776-3.69-.122-3.706-2.523-.029-4.314-.009-8.629-.009-12.943V11.752c-.459-.038-.847-.1-1.235-.1-4.723-.007-9.447.018-14.169-.024a1.4,1.4,0,0,0-1.567,1.06,9.242,9.242,0,0,1-10.3,5.765,9.3,9.3,0,0,1-.5-18.188C45.668.2,45.916.09,46.17,0ZM52.24,9.3a4.615,4.615,0,0,0-4.65-4.655,4.639,4.639,0,0,0-.01,9.278A4.569,4.569,0,0,0,52.24,9.3" transform="translate(-24.346)" fill="#cba124"/>
    <path id="Trazado_246510" data-name="Trazado 246510" d="M327.84,228.69c-.135.375-.283.747-.4,1.127a9.222,9.222,0,0,1-8.333,6.548,9.1,9.1,0,0,1-9.131-5.774,1.454,1.454,0,0,0-1.652-1.127c-3.085.058-6.173.033-9.259.019-2.7-.012-3.717-1.67-2.418-4.014a46.658,46.658,0,0,0,4.74-12.689,2.306,2.306,0,0,1,4.523-.015,2.429,2.429,0,0,1-.071,1.2c-.98,3.153-1.988,6.3-3,9.44-.135.423-.32.83-.524,1.354H309.5c.118-.285.257-.612.389-.943a9.276,9.276,0,0,1,17.622.854c.1.344.219.683.328,1.024Zm-9.256,3.073a4.618,4.618,0,0,0,4.607-4.7,4.712,4.712,0,0,0-4.628-4.582,4.654,4.654,0,0,0-4.648,4.671,4.563,4.563,0,0,0,4.668,4.611" transform="translate(-188.298 -134.134)" fill="#cba124"/>
    <path id="Trazado_246511" data-name="Trazado 246511" d="M188.4,0a3.523,3.523,0,0,1,1.537,3.359c-.052,5.349-.021,10.7-.021,16.049v1.5c2.415.314,4.7.573,6.97.919,1.805.275,2.736,1.712,2.126,3.194a2.229,2.229,0,0,1-2.507,1.43c-3.017-.294-6.037-.568-9.052-.884a2.335,2.335,0,0,1-2.191-2.626c-.04-2.085-.013-4.171-.014-6.256,0-4.489.031-8.977-.018-13.465A3.393,3.393,0,0,1,186.765,0Z" transform="translate(-117.799)" fill="#cba124"/>
    <path id="Trazado_246512" data-name="Trazado 246512" d="M122.734,83.065a39.52,39.52,0,1,1-39.6,39.416,39.508,39.508,0,0,1,39.6-39.416m-.063,74.4a34.878,34.878,0,1,0-34.9-34.925,34.9,34.9,0,0,0,34.9,34.925" transform="translate(-52.87 -52.826)" fill="#cba124"/>
    <path id="Trazado_246513" data-name="Trazado 246513" d="M56.622,298.3H73.181v-8.209c0-1.5-.07-3,.025-4.494a1.709,1.709,0,0,0-1.178-1.846A47.982,47.982,0,0,1,57.381,272.39c-1.137-1.3-1.222-2.667-.223-3.617,1.084-1.03,2.441-.883,3.666.511a44.625,44.625,0,0,0,15.193,11.268,2.809,2.809,0,0,1,1.824,2.868c-.033,4.9,0,9.809-.02,14.713a4.528,4.528,0,0,1-4.834,4.881q-7.561.058-15.122-.007a1.478,1.478,0,0,0-1.668,1.125,9.152,9.152,0,0,1-10.3,5.71,9.29,9.29,0,1,1,10.352-12.48c.119.294.235.589.372.935m-4.383,2.47a4.563,4.563,0,0,0-4.608-4.672,4.659,4.659,0,0,0-4.671,4.648,4.711,4.711,0,0,0,4.58,4.63,4.616,4.616,0,0,0,4.7-4.606" transform="translate(-24.346 -170.503)" fill="#cba124"/>
    <path id="Trazado_246514" data-name="Trazado 246514" d="M241.074,302.73c5.428,0,10.645.022,15.862-.047.37,0,.886-.618,1.071-1.059a9.285,9.285,0,1,1,9.1,12.722,9.077,9.077,0,0,1-8.887-5.54,2,2,0,0,0-2.293-1.442c-4.766.055-9.533.034-14.3.019-3.433-.011-5.19-1.777-5.2-5.207-.01-4.676.041-9.352-.026-14.028a3.2,3.2,0,0,1,2.118-3.381,44.555,44.555,0,0,0,12.831-8.822,3.561,3.561,0,0,1,2.35-.983,2.717,2.717,0,0,1,1.774,1.4,2.233,2.233,0,0,1-.712,2.69,49.168,49.168,0,0,1-10.365,7.9,5.06,5.06,0,0,1-1.071.585c-2.047.558-2.391,1.932-2.3,3.884.167,3.705.048,7.424.048,11.313m20.94,2.407a4.615,4.615,0,0,0,4.71,4.595,4.714,4.714,0,0,0,4.57-4.64,4.658,4.658,0,0,0-4.684-4.638,4.562,4.562,0,0,0-4.6,4.683" transform="translate(-150.343 -174.863)" fill="#cba124"/>
    <path id="Trazado_246515" data-name="Trazado 246515" d="M18.412,97.2c3.079,0,6.162.039,9.241-.044a2.05,2.05,0,0,0,1.268-.963A47,47,0,0,1,40.159,84.084a3.164,3.164,0,0,1,2.328-.64,2.535,2.535,0,0,1,1.6,1.712,3.219,3.219,0,0,1-1.022,2.418,48.044,48.044,0,0,0-8.805,9.044c-.876,1.211-1.69,2.47-2.474,3.743a2.845,2.845,0,0,1-2.681,1.5c-3.131-.046-6.264.013-9.395-.032a1.545,1.545,0,0,0-1.775,1.143,9.139,9.139,0,0,1-10.307,5.678,9.274,9.274,0,1,1,10.18-12.907c.2.454.38.918.6,1.457M14,99.545a4.563,4.563,0,0,0-4.659-4.621,4.612,4.612,0,0,0-4.617,4.55,4.71,4.71,0,0,0,4.615,4.731A4.663,4.663,0,0,0,14,99.545" transform="translate(-0.047 -53.036)" fill="#cba124"/>
    <path id="Trazado_246516" data-name="Trazado 246516" d="M25.352,224.8c-1.063-3.334-2.082-6.517-3.087-9.7a10.97,10.97,0,0,1-.3-1.327,2.317,2.317,0,1,1,4.518-1.009c.722,2.43,1.343,4.9,2.214,7.274a49.632,49.632,0,0,0,2.548,5.405c1.181,2.309.238,3.984-2.339,4-3.133.02-6.265.029-9.4-.011a1.376,1.376,0,0,0-1.586,1.019,9.209,9.209,0,0,1-10.8,5.691A9.3,9.3,0,1,1,17.9,223.679c.334.854.7,1.189,1.636,1.149,1.946-.083,3.9-.025,5.816-.025m-11.4,2.327a4.658,4.658,0,0,0-4.635-4.686,4.708,4.708,0,0,0-4.643,4.7,4.614,4.614,0,0,0,4.591,4.578,4.568,4.568,0,0,0,4.687-4.6" transform="translate(0 -134.096)" fill="#cba124"/>
    <path id="Trazado_246517" data-name="Trazado 246517" d="M173.612,316.111c0,5.872,0,11.634,0,17.395a8.863,8.863,0,0,1-.1,1.626A2.159,2.159,0,0,1,171.325,337a2.2,2.2,0,0,1-2.291-1.906,8.54,8.54,0,0,1-.086-1.491q-.008-7.967,0-15.934v-1.554c-2.462-.323-4.836-.591-7.193-.959a2.325,2.325,0,1,1,.7-4.583c.226.021.449.067.675.085,3.024.251,6.046.661,9.073.7a63.261,63.261,0,0,0,7.034-.651c.315-.032.627-.111.943-.13a2.311,2.311,0,1,1,.591,4.584c-2.32.367-4.658.626-7.153.953" transform="translate(-101.495 -197.501)" fill="#cba124"/>
    <path id="Trazado_246518" data-name="Trazado 246518" d="M20.674,159.807c.9-4.311,1.732-8.34,2.6-12.361a2.463,2.463,0,0,1,2.148-2.162c1.747-.226,2.813,1.372,2.38,3.324q-1.058,4.768-1.929,9.576a25.472,25.472,0,0,0-.186,3.529c-.07,1.838-.857,2.735-2.65,2.743q-10.143.048-20.287,0c-1.64-.006-2.64-.938-2.652-2.3-.013-1.417,1.009-2.333,2.752-2.34,5.537-.023,11.074-.009,16.611-.01h1.216" transform="translate(-0.06 -92.382)" fill="#cba124"/>
    <path id="Trazado_246519" data-name="Trazado 246519" d="M170.858,131.022c.878.217,1.644.342,2.364.6a6.675,6.675,0,0,1,4.535,6.19c.051,7.216.068,14.433-.008,21.649a6.607,6.607,0,0,1-6.421,6.515q-12.116.137-24.235,0a6.612,6.612,0,0,1-6.422-6.516q-.111-10.824,0-21.649a6.748,6.748,0,0,1,5.575-6.485c.4-.077.8-.158,1.326-.262,0-1.508-.05-3,.009-4.488.2-5.049,2.518-8.8,7.209-10.744a11.054,11.054,0,0,1,12.178,2.064,11.469,11.469,0,0,1,3.894,8.949c.015,1.4,0,2.8,0,4.179m-11.648,30.356c3.724,0,7.448.011,11.172,0,1.941-.008,2.75-.8,2.754-2.715q.02-10.014,0-20.027c0-1.989-.809-2.813-2.826-2.818q-11.1-.028-22.207,0c-2.019.005-2.818.825-2.821,2.821q-.016,9.945,0,19.891c0,2.093.769,2.844,2.892,2.85,3.679.011,7.357,0,11.035,0m6.868-30.295a55.488,55.488,0,0,0-.035-5.6,6.757,6.757,0,0,0-5.647-5.834,6.933,6.933,0,0,0-7.5,3.955c-1.093,2.416-.611,4.943-.615,7.477Z" transform="translate(-89.427 -73.04)" fill="#cba124"/>
    <path id="Trazado_246520" data-name="Trazado 246520" d="M179.549,185.136a7.041,7.041,0,0,1,6.7,5.216,6.913,6.913,0,0,1-3.308,7.8,2.068,2.068,0,0,0-1.263,1.564,2.013,2.013,0,0,1-2.161,1.692,1.987,1.987,0,0,1-2.183-1.655,2.193,2.193,0,0,0-1.363-1.647,6.933,6.933,0,0,1-3.2-7.849,7.052,7.052,0,0,1,6.777-5.121m2.245,6.976a2.294,2.294,0,0,0-4.588.008,2.294,2.294,0,1,0,4.588-.008" transform="translate(-109.718 -117.739)" fill="#cba124"/>
  </g>
</svg>
