<svg id="Grupo_146862" data-name="Grupo 146862" xmlns="http://www.w3.org/2000/svg" xmlns:xlink="http://www.w3.org/1999/xlink" width="194.57" height="184.154" viewBox="0 0 194.57 184.154">
  <defs>
    <clipPath id="clip-path">
      <rect id="Rectángulo_89061" data-name="Rectángulo 89061" width="194.57" height="184.154" fill="none"/>
    </clipPath>
  </defs>
  <g id="Grupo_146862-2" data-name="Grupo 146862" clip-path="url(#clip-path)">
    <path id="Trazado_219802" data-name="Trazado 219802" d="M216.981,109.72a11.018,11.018,0,0,1-4.836-17.73,33.814,33.814,0,0,1,18.315-11.24,50.433,50.433,0,0,1,23.231-.354c11.221,2.459,18.579,9.6,23.336,19.767.617,1.319,1.3,2.618,1.785,3.985a23.123,23.123,0,0,0,8.461,10.978c6.279,4.667,7.227,12.07,2.265,18.134-7.237,8.843-16.808,13.472-28.077,14.7-1.709.187-3.431.265-5.146.394a2.53,2.53,0,0,1-2.05.543c-4.029-.226-8.049-.509-11.9-1.9-6.229-2.257-8.767-6.609-7.763-13.151.469-3.061,1.1-6.089.647-9.265-1.024-7.147-4.439-11.215-11.384-13.163-1.6-.447-3.227-.717-4.855-1.006a3.6,3.6,0,0,1-2.032-.693" transform="translate(-98.137 -37.12)" fill="#3c3854"/>
    <path id="Trazado_219803" data-name="Trazado 219803" d="M32.965,141.723c-3.04,0-6.08-.067-9.117,0C12.913,141.944,2.732,134.235.4,121.5c-1.747-9.531,2.437-16.72,9.165-22.83a32.256,32.256,0,0,1,9.905-6.132c6.383-2.519,12.04-6.332,17.824-9.919,5.218-3.235,10.667-5.851,16.888-6.431a24.853,24.853,0,0,1,15.133,2.93c6.527,3.764,9.282,10.3,7.511,17.616-.187.769-.352,1.543-.527,2.315-.337,2.93-1.993,5.291-3.466,7.685-2.411,3.919-5.792,7.017-9.092,10.166a4.478,4.478,0,0,1-4.833,1.245,6.04,6.04,0,0,0-6.746,2.2,6.246,6.246,0,0,0-.864,7.063,3.215,3.215,0,0,1,.522,1.48c-4.293,6.136-9.6,10.908-17.082,12.766a3.79,3.79,0,0,1-1.77.072" transform="translate(0 -35.634)" fill="#3c3854"/>
    <path id="Trazado_219804" data-name="Trazado 219804" d="M89.855,258.622c1.98,3.146,3.111,6.7,4.764,10a1.927,1.927,0,0,1,.886,1.038,86.036,86.036,0,0,1,5.469,18.026c-.589,1.218.112,2.425.041,3.654-.134,2.312-1.161,3.476-3.511,3.5-2.823.031-5.646,0-8.469,0-1.259-2.245-1.424-4.8-1.991-7.234-1.629-6.974-3.294-13.93-6.022-20.578a57.693,57.693,0,0,0-2.889-5.886,4.941,4.941,0,0,0-1.075-1.419c-.369-.315-.806-.546-1.264-.247s-.389.794-.269,1.258a2.817,2.817,0,0,0,.318.726c5.085,8.587,7.17,18.2,9.37,27.759.418,1.817,1.391,3.617.689,5.592l-26.731-.018a2.99,2.99,0,0,1-.817-1.773c-1.425-8.828-1.378-17.562,1.557-26.135a23.016,23.016,0,0,1,3.484-6.44,8.041,8.041,0,0,1,5.344-3.124,11.506,11.506,0,0,0,1.374-.2c.463-.138.9-.348.907-.908,0-.676-.514-.869-1.061-.964a5.866,5.866,0,0,0-1.976.072,10.489,10.489,0,0,0-6.881,4.664c-3.333,4.622-4.49,9.991-5.257,15.477a54.836,54.836,0,0,0,.329,16.839c.139.821.5,1.689-.081,2.5-5.235.013-10.469.054-15.7.029-2.566-.012-3.772-1.364-3.836-3.977-.223-9.088.149-18.12,2.4-26.985,2.424-9.54,5.7-18.741,10.775-27.227a3.844,3.844,0,0,1,2.88-.252c7.765,1.186,14.541,4.733,21.009,8.939a127.839,127.839,0,0,1,13.906,10.859c.853.74,1.536,1.641,2.331,2.435" transform="translate(-17.103 -110.703)" fill="#e0f6be"/>
    <path id="Trazado_219805" data-name="Trazado 219805" d="M150.537,48.727a9.337,9.337,0,0,1,.791-4.713c.43-1.234.237-1.721-1.082-2.032-8.588-2.021-14.45-8.088-15.524-16.79S135.286,8.67,144.159,3A16.431,16.431,0,0,1,152.566.262c6.412-.167,12.854-.6,19.241.239,8.933,1.172,16.028,9.217,16.492,18.264.3,5.781-.305,11.281-4.074,15.986-3.713,4.634-8.5,7.737-14.456,7.51-6.475-.247-12.272.681-17.122,5.287a10.676,10.676,0,0,1-2.111,1.18" transform="translate(-62.996 0)" fill="#a7e446"/>
    <path id="Trazado_219806" data-name="Trazado 219806" d="M268.561,223.286c5.423,6.824,8.284,14.747,9.631,23.235,2.1,13.234.729,26.3-2.241,39.265a3.37,3.37,0,0,1-3.672,2.9c-2.648,0-5.3-.028-7.946-.044-.576-.844-.122-1.68.081-2.48,1.288-5.079,2.814-10.1,3.983-15.206,1.349-5.894,2.421-11.823,2.153-17.918a16.762,16.762,0,0,0-.543-3.931,5.866,5.866,0,0,0-8.4-3.733,10.175,10.175,0,0,0-3.939,3.554c-3.113,4.579-4.65,9.8-6.076,15.054-1.966,7.24-3.178,14.648-4.8,21.964-.212.954-.2,2.011-1.089,2.7-1.788.015-3.577.078-5.363.034-2.132-.052-3.225-.9-3.528-3a20.507,20.507,0,0,0-4.285-10.094c-4.373-5.513-4.476-11.51-1.636-17.76,2.712-5.97,6.788-11.051,10.5-16.371a130.022,130.022,0,0,0,7.949-12.132c.926-.63,2.029-.492,3.051-.668,4.916-.851,9.377-2.984,13.93-4.863.715-.295,1.392-.8,2.242-.5" transform="translate(-107.297 -104.594)" fill="#fc4b52"/>
    <path id="Trazado_219807" data-name="Trazado 219807" d="M88.381,149.259c-2.02-3.341-2.025-6.242-.015-8.845,1.968-2.547,4.986-3.373,8.558-2.14a1.9,1.9,0,0,0,2.095-.564c6.007-4.862,10.926-10.561,13.733-17.89a2.584,2.584,0,0,1,.327-.484,20.2,20.2,0,0,1,2.435,7.564c.21.49.259.894-.47.878-2.831-1.649-5.123-1.148-6.277,1.86a18.947,18.947,0,0,0,1.771,17.844c1.932,2.982,5.259,2.541,6.982-.6.675-1.229.784-2.632,1.339-3.9,4.322,2.458,4.7,5.152,1.284,8.623a5.014,5.014,0,0,0-1.409,1.883c-.606,2.2-2.012,2.408-3.912,1.984-1.665-.371-2.024.094-1.493,1.7.653,1.972,2.309,2.872,4.53,2.462a6.389,6.389,0,0,1,.074,3.144c-.945,4.652-3.173,6.634-7.861,6.8-2.839.1-5.686.075-8.527,0a7.272,7.272,0,0,0-6.992,3.576c-1.08,1.743-1.956,3.586-3.007,5.337a1.293,1.293,0,0,1-1.276-.3,107.155,107.155,0,0,0-10.8-6.82,1.8,1.8,0,0,1-.956-.944l-.026-.782c2.262-2.4,5.023-4.244,7.292-6.647a19.426,19.426,0,0,0,4.592-7.779c.6-1.976.7-3.8-1.442-4.99a.915.915,0,0,1-.551-.967" transform="translate(-36.781 -55.923)" fill="#fe967b"/>
    <path id="Trazado_219808" data-name="Trazado 219808" d="M262.187,182.718c-5.148,2.353-10.263,4.784-15.887,5.849a11.718,11.718,0,0,1-3.336.183c1.69-4.329.946-8.427-1.16-12.4a5.269,5.269,0,0,0-5.132-3.065,32.67,32.67,0,0,0-3.753.2c-7.1,1.047-10.682-1.834-11.112-9.018-.039-.658.016-1.322.028-1.983.995-.757,2.241-.659,3.36-.993.776-.232,1.666-.494,1.42-1.522-.237-.993-1.124-.648-1.816-.547-1.137.165-2.281.8-3.4-.071a20.165,20.165,0,0,0-4.016-3.785c-2.572-1.984-2.648-3.533-.489-5.926a25.1,25.1,0,0,0,2.081-2.633,8.148,8.148,0,0,0,1.287-7.672,17.226,17.226,0,0,1-.5-2.713,26.377,26.377,0,0,1,10.536,2.5c6.706,3.185,8.742,9.083,8.394,16.157a48.745,48.745,0,0,1-.757,5.707c-1.018,6,1.361,10.161,7.092,12.318,4.544,1.712,9.311,1.8,14.069,1.961.615,2.656,2.1,4.952,3.086,7.454" transform="translate(-100.923 -64.025)" fill="#fe967b"/>
    <path id="Trazado_219809" data-name="Trazado 219809" d="M260.464,307.066c2.106-9.832,3.684-19.787,6.7-29.407A38.16,38.16,0,0,1,272,267.035a11.813,11.813,0,0,1,3.686-3.562,6.42,6.42,0,0,1,9.76,4.479c1.1,6.054.158,12.012-.982,17.95-1.374,7.159-3.662,14.087-5.364,21.163H260.464" transform="translate(-122.058 -123.015)" fill="#fe967b"/>
    <path id="Trazado_219810" data-name="Trazado 219810" d="M165.867,263.706c2.04-1.923,3.3-3.978,2.992-7.1-.4-4.059-.151-8.183-.171-12.279-.006-1.252.245-2.456,1.57-2.921,1.378-.485,2.366.3,3.279,1.269,1.224,1.3,1.345,3.14,2.336,4.542-1.4,1.588-1.4,1.789.319,3.028a21.614,21.614,0,0,1,2.109,1.791c.563.528,1.2,1.354,2,.582.871-.844.028-1.574-.526-2.192a14.744,14.744,0,0,0-2.4-2.061c-.38-.275-1.045-.427-.772-1.163a17.952,17.952,0,0,1,2.413-4.981c2.135-3.22,5.3-3.846,8.571-1.7,7.781,5.1,8.258,16.54,1,22.671-3.918,3.309-8.594,5.494-12.58,8.689-.359.287-.691.606-1.036.91-.472.356-.875.1-1.254-.165a41.5,41.5,0,0,1-7.761-7.828.833.833,0,0,1-.091-1.09" transform="translate(-77.651 -112.123)" fill="#fe967b"/>
    <path id="Trazado_219811" data-name="Trazado 219811" d="M70.5,215.479a87.862,87.862,0,0,1,13.032,8.065c7.37,6.569,12.735,14.623,17.192,23.345a4.588,4.588,0,0,1,.795,2.008c-1.911-.73-3.09-2.407-4.561-3.672-6.523-5.614-13.367-10.731-21.188-14.4a36.86,36.86,0,0,0-14.378-3.9A38.926,38.926,0,0,1,70.5,215.479" transform="translate(-28.772 -100.977)" fill="#a7e446"/>
    <path id="Trazado_219812" data-name="Trazado 219812" d="M156.576,284.761c2.575,3.491,5.316,6.815,9.107,9.082,2.268,1.519,2.266,1.517.374,3.513a148.706,148.706,0,0,1-13.826,12.8c-1.215-1.307-1.01-3.083-1.45-4.632-1.391-4.9-3.089-9.683-4.9-14.432,2.857-2.113,5.724-4.214,8.565-6.348.752-.565,1.426-.906,2.134.011" transform="translate(-68.361 -133.178)" fill="#a7e446"/>
    <path id="Trazado_219813" data-name="Trazado 219813" d="M80.671,175.647c3.349,2.576,3.549,3.28,2.082,7.394a17.607,17.607,0,0,1-4.4,6.73c-2.351,2.291-4.648,4.664-7.578,6.26a2.7,2.7,0,0,1-1.648-.581c-2.242-2.051-4.489-4.1-6.708-6.173-.214-.2-.261-.58-.386-.876,3.542-1.163,7.195-2.07,10.2-4.464a45.2,45.2,0,0,0,7.684-7.657,4.563,4.563,0,0,1,.752-.633" transform="translate(-29.071 -82.311)" fill="#322f4c"/>
    <path id="Trazado_219814" data-name="Trazado 219814" d="M72.2,311c-2.112-10.383-1.874-20.634,2.03-30.589,1.442-3.677,3.544-6.987,7.354-8.742a9.337,9.337,0,0,1,4.823-.832c.98.09,1.644.613,1.613,1.647a1.438,1.438,0,0,1-1.543,1.493c-5.638-.167-7.8,3.9-9.482,8.141-2.86,7.2-3.365,14.732-2.556,22.413.228,2.165.642,4.3.84,6.462L72.2,311" transform="translate(-33.217 -126.899)" fill="#a7e446"/>
    <path id="Trazado_219815" data-name="Trazado 219815" d="M119.522,314.471c-1.918-8.914-3.8-17.84-7.169-26.357a42.914,42.914,0,0,0-3.282-6.565c-.63-1.032-1.473-2.251-.057-3.1,1.345-.805,2.126.361,2.784,1.435,3.783,6.17,5.856,13,7.616,19.939a140.191,140.191,0,0,1,3.241,14.675l-3.133-.028" transform="translate(-50.724 -130.362)" fill="#a7e446"/>
    <path id="Trazado_219816" data-name="Trazado 219816" d="M139.15,144.754a9.286,9.286,0,0,1,.751-4.068c.511-1.354,1.268-1.506,2.056-.225a16.937,16.937,0,0,1,2.166,10.513,16.211,16.211,0,0,1-.523,2.725c-.194.76-.382,1.73-1.308,1.792s-1.242-.915-1.553-1.6c-.461-1.019-.749-2.116-1.112-3.18a3.678,3.678,0,0,0,1.749-4.345c-.251-1.34-1.407-1.191-2.229-1.611" transform="translate(-65.198 -65.41)" fill="#fe977b"/>
    <path id="Trazado_219817" data-name="Trazado 219817" d="M139.074,149.164c2.044-.5,2.773.036,2.854,2.093.128,3.239-.134,3.664-2.374,3.862a14.758,14.758,0,0,1-.479-5.955" transform="translate(-65.122 -69.819)" fill="#362e45"/>
    <path id="Trazado_219818" data-name="Trazado 219818" d="M147.28,134.45c.366-.181.4-.538.47-.878a.97.97,0,0,1,.194,1.321c-.193.223-.509-.172-.664-.443" transform="translate(-69.018 -62.594)" fill="#feb9a7"/>
    <path id="Trazado_219819" data-name="Trazado 219819" d="M169.08,38.609a2.967,2.967,0,0,1-3.012,3,3.068,3.068,0,1,1,3.012-3" transform="translate(-76.408 -16.627)" fill="#fdfdfe"/>
    <path id="Trazado_219820" data-name="Trazado 219820" d="M183.859,41.835a1.836,1.836,0,0,1,2-1.931,2.007,2.007,0,1,1-.092,4.01c-1.272-.027-1.862-.811-1.907-2.08" transform="translate(-86.16 -18.7)" fill="#fbfdfe"/>
    <path id="Trazado_219821" data-name="Trazado 219821" d="M202.147,37.565c1.076-.035,1.572.479,1.628,1.276a1.342,1.342,0,0,1-1.4,1.544,1.418,1.418,0,0,1-.232-2.82" transform="translate(-94.162 -17.603)" fill="#f5fafe"/>
    <path id="Trazado_219822" data-name="Trazado 219822" d="M232.963,148.561c.075,1.344-.305,2.616-1.91,2.618s-1.943-1.3-1.935-2.693c.007-1.317.352-2.538,1.844-2.585,1.614-.052,2.051,1.165,2,2.66" transform="translate(-107.369 -68.371)" fill="#3a3046"/>
    <path id="Trazado_219823" data-name="Trazado 219823" d="M185.748,254.328H175.533l3.83,9.85,9.121-1v-6.657" transform="translate(-82.258 -119.183)" fill="#fe967b"/>
  </g>
</svg>
