<svg id="Grupo_146867" data-name="Grupo 146867" xmlns="http://www.w3.org/2000/svg" xmlns:xlink="http://www.w3.org/1999/xlink" width="41.073" height="54" viewBox="0 0 41.073 54">
  <defs>
    <clipPath id="clip-path">
      <rect id="Rectángulo_89063" data-name="Rectángulo 89063" width="41.073" height="54" fill="none"/>
    </clipPath>
  </defs>
  <g id="Grupo_146866" data-name="Grupo 146866" clip-path="url(#clip-path)">
    <path id="Trazado_219847" data-name="Trazado 219847" d="M78.538,0a4.591,4.591,0,0,0,1.25.3,10.771,10.771,0,0,1,8.156,9.442,9.122,9.122,0,0,1,.064,1.47c-.027.393.094.55.495.5a3.673,3.673,0,0,1,.578.011.112.112,0,0,1-.054.157c-.837.22-.823.221-.841,1.139a30.159,30.159,0,0,1-.064,3.348.294.294,0,0,1-.128.134,1.165,1.165,0,0,1-.668.1q-11.7,0-23.4,0c-.123,0-.246,0-.369-.007-.448-.045-.5-.137-.239-.508a1.809,1.809,0,0,0,.3-1.094,24,24,0,0,1,.146-3.576,10.965,10.965,0,0,1,9.188-9.131,32.54,32.54,0,0,1,3.894-.117c.3-.008.6.016.9-.015A.98.98,0,0,0,78.518.606C78.411.42,78.18.268,78.327,0Z" transform="translate(-54.254)" fill="#fc4b52"/>
    <path id="Trazado_219848" data-name="Trazado 219848" d="M53.486,0a.487.487,0,0,0,.2.355A1.116,1.116,0,0,1,53.9,1.71a1.057,1.057,0,0,1-1.117.612c-1.054,0-2.109-.02-3.163,0a10.566,10.566,0,0,0-7.153,2.829,10.762,10.762,0,0,0-3.253,5.576,16.364,16.364,0,0,0-.271,4.234,1.662,1.662,0,0,1-.614,1.489h.655l23.564,0c.211,0,.421.007.632.01q.048.024.041.06c-.005.026-.012.038-.021.038l-.018.018a.858.858,0,0,1-.6.143c-.787,0-1.574.017-2.361-.008-.368.031-.736.015-1.1.015q-8.366,0-16.732,0c-.719,0-1.438.008-2.157-.014-.991.015-1.983.019-2.974,0-.785.026-1.57.01-2.354.008a.765.765,0,0,1-.589-.161c0-2.247-.168-4.507.024-6.737A10.384,10.384,0,0,1,39.8,1.357,9.524,9.524,0,0,1,43.661.086c.043,0,.082-.056.122-.086Z" transform="translate(-29.413)" fill="#fe8b94"/>
    <path id="Trazado_219849" data-name="Trazado 219849" d="M76.519,117.481c1.964-.005,3.928-.015,5.892-.015q7.077,0,14.153.008a1.132,1.132,0,0,1,.157.8c.005,1.591.011,3.181,0,4.772a1.141,1.141,0,0,0,.365.981c-.508.037-.564.355-.533.781a7.511,7.511,0,0,1-.176,1.805c-.031.179-.11.4.181.456-.379.707-.48,1.512-.8,2.24a10.562,10.562,0,0,1-6.293,5.909,10.374,10.374,0,0,1-2.053.579.793.793,0,0,1-.653-.059c-.064-.115.017-.2.067-.286.382-.7.177-1.186-.595-1.372a16.932,16.932,0,0,1-2.326-.66,10.549,10.549,0,0,1-6.739-7.957,9.883,9.883,0,0,1-.264-2.4c.019-.772.027-1.545,0-2.316-.041-1.1.231-2.237-.378-3.27" transform="translate(-65.734 -100.909)" fill="#feead1"/>
    <path id="Trazado_219850" data-name="Trazado 219850" d="M92.429,295.855l-17,0a.733.733,0,0,1-.165-.541c.009-3.866-.046-7.732.027-11.6a.384.384,0,0,1,.173-.318c.263.1.2.34.208.534.017.437.007.875.005,1.313,0,.263.1.35.359.259.346-.124.7-.239,1.045-.353.537-.174.471-.681.617-1.072.231-.153.359.05.489.164a8.781,8.781,0,0,0,5.055,2.254,7.991,7.991,0,0,0,3.907-.614,8.428,8.428,0,0,0,4.274-3.958.748.748,0,0,1,.288-.366.725.725,0,0,1,.8.374,2.468,2.468,0,0,1,.066.784c0,4.143.01,8.286-.023,12.428a1.015,1.015,0,0,1-.133.707" transform="translate(-64.65 -241.864)" fill="#cae2f9"/>
    <path id="Trazado_219851" data-name="Trazado 219851" d="M57.422,117.561a1.722,1.722,0,0,1,.538,1.462c-.036,1.458-.052,2.918,0,4.376a10.749,10.749,0,0,0,3.441,7.863A11.056,11.056,0,0,0,67.092,134c.439.078.842.234.961.691a.943.943,0,0,1-.4,1.1c-.106.237-.329.227-.536.254a12.564,12.564,0,0,1-5.484-.647c-.642-.323-1.317-.573-1.938-.947a10.62,10.62,0,0,1-4.635-5.484,11.759,11.759,0,0,0-.593-1.821c.205-.02.126-.153.114-.27a26.477,26.477,0,0,1-.222-2.709c-.114-2.125-.06-4.251-.025-6.376a.407.407,0,0,1,.106-.235h2.983" transform="translate(-46.637 -100.99)" fill="#fef2e3"/>
    <path id="Trazado_219852" data-name="Trazado 219852" d="M167.871,206.842a10.614,10.614,0,0,0,5.994-5.453c.052-.11.088-.228.131-.342.92.62,1.912.254,2.876.2.888-.052,1.774-.156,2.66-.235a2.706,2.706,0,0,1,1.522.324,1.828,1.828,0,0,0,1.575.241c0,1.212.01,2.424,0,3.636a2.8,2.8,0,0,1-3.379,2.806,1.051,1.051,0,0,1-.809.127c-2.476-.238-4.955-.408-7.44-.529-.84-.041-1.679-.073-2.52-.085a1.069,1.069,0,0,1-.61-.12.412.412,0,0,1,0-.566" transform="translate(-144.115 -172.668)" fill="#a7e446"/>
    <path id="Trazado_219853" data-name="Trazado 219853" d="M167.917,246.106c2.681,0,5.353.186,8.022.415,1.115.1,2.233.164,3.349.244q0,3.839,0,7.678c-.218.084-.363-.063-.51-.174a7.766,7.766,0,0,0-1.638-.891,27.549,27.549,0,0,1-3.026-1.054c-.527-.193-1.063-.358-1.6-.534a1.157,1.157,0,0,1-.617-.374l-.7-.263a1.96,1.96,0,0,1-1.044-.566A6.834,6.834,0,0,1,167.886,247c0-.3-.217-.6.031-.894" transform="translate(-144.148 -211.418)" fill="#9f7765"/>
    <path id="Trazado_219854" data-name="Trazado 219854" d="M232.7,296.911a8.921,8.921,0,0,1,2.1,1.177,7.027,7.027,0,0,1,1.953,3.474,6.778,6.778,0,0,1,.168,1.349c-.011,1.633,0,3.267,0,4.9,0,.913-.333,1.25-1.224,1.249-1.036,0-2.072-.006-3.108-.009a.811.811,0,0,1-.157-.594q-.008-5.465,0-10.93c0-.227-.052-.511.267-.615" transform="translate(-199.661 -255.062)" fill="#cae2f9"/>
    <path id="Trazado_219855" data-name="Trazado 219855" d="M14.138,308.731c-1.121,0-2.243,0-3.364,0-.662,0-.958-.3-.96-.965,0-1.962-.047-3.926.015-5.886a5.372,5.372,0,0,1,1.364-3.332c.2-.237.419-.461.629-.691a2.215,2.215,0,0,0,.122-.2,5.036,5.036,0,0,1,1.6-1.03c.213-.089.474-.207.6.143a3.132,3.132,0,0,1,.05.788q0,2.9,0,5.8a15.388,15.388,0,0,0,.095,2.314c.009.789.018,1.578.009,2.367a.98.98,0,0,1-.166.7" transform="translate(-8.415 -254.732)" fill="#edf6fe"/>
    <path id="Trazado_219856" data-name="Trazado 219856" d="M3.5,200.253l-.095.089c0-2.388-.012-4.775.005-7.163,0-.414-.111-.531-.53-.535a2.745,2.745,0,0,1-2.752-2.514,21.7,21.7,0,0,1,.013-4.873,2.806,2.806,0,0,1,2.933-2.235c1.583.123,3.16.355,4.752.357a.631.631,0,0,1,.356.452,13.87,13.87,0,0,0,.378,1.343.751.751,0,0,1-.807.458c-.458,0-.9-.119-1.364-.105a2.6,2.6,0,0,0-2.623,2.611c-.019.755,0,1.511,0,2.266a10.561,10.561,0,0,1-.126,2.3c.083,2.333.025,4.666.033,7a.981.981,0,0,1-.169.545" transform="translate(0 -157.22)" fill="#d9febe"/>
    <path id="Trazado_219857" data-name="Trazado 219857" d="M202.53,290.613c-.183.174-.1.4-.1.6q-.013,5.771-.014,11.542l-5.046-.007a25.593,25.593,0,0,1-.054-2.725c-.009-.261.135-.239.3-.148.124.067.231.16.355.226a.938.938,0,0,0,1.423-.714,3.668,3.668,0,0,0,.022-.578q0-4.03,0-8.059a5.623,5.623,0,0,0-.057-.84c-.017-.114-.105-.28.11-.327a8.027,8.027,0,0,1,1.723.629c.446.129.889.269,1.334.4" transform="translate(-169.494 -248.764)" fill="#c69983"/>
    <path id="Trazado_219858" data-name="Trazado 219858" d="M40.6,308.579q0-1.529,0-3.059c.235-.027.324.18.467.3a.976.976,0,0,0,1.627-.5,2.661,2.661,0,0,0,.077-.784c0-1.669.009-3.339,0-5.008a2.6,2.6,0,0,1,1.668-2.619c.413-.177.8-.4,1.224-.561q0,6.112,0,12.223l-5.061.006" transform="translate(-34.878 -254.58)" fill="#c69982"/>
    <path id="Trazado_219859" data-name="Trazado 219859" d="M199.122,284.59a22.418,22.418,0,0,1,.1,3.69c.023,1.895-.008,3.791.015,5.686.007.589-.083,1.095-.657,1.366-.6.286-1.073,0-1.564-.518v2.941a.243.243,0,0,1-.1.01q-.006-6.629-.013-13.258c0-.245-.009-.491-.014-.736.73.306,1.515.462,2.227.818" transform="translate(-169.143 -243.775)" fill="#dfb6a2"/>
    <path id="Trazado_219860" data-name="Trazado 219860" d="M220.63,186.3a.914.914,0,0,1-1.264.076,3.262,3.262,0,0,0-2.307-.439c-.889.154-1.8.178-2.705.246a8.191,8.191,0,0,0-.936.087,1.236,1.236,0,0,1-1.422-.5,10.726,10.726,0,0,0,.543-1.724.655.655,0,0,1,.4-.491c1.539.005,3.058-.265,4.593-.335a2.76,2.76,0,0,1,3.1,3.077" transform="translate(-182.116 -157.393)" fill="#d9febe"/>
    <path id="Trazado_219861" data-name="Trazado 219861" d="M37.539,117.507q0,3.078.005,6.156a.714.714,0,0,1-.086.456c-1.948-.344-2.838-1.348-2.841-3.206q0-1.34,0-2.679c0-.245.01-.49.015-.735l2.907.009" transform="translate(-29.737 -100.937)" fill="#6e6f80"/>
    <path id="Trazado_219862" data-name="Trazado 219862" d="M219.177,124.081c-.391.072-.536-.05-.531-.484.025-2.024.012-4.048.012-6.072l2.936.016q0,1.709-.009,3.417a2.949,2.949,0,0,1-2.408,3.124" transform="translate(-187.828 -100.96)" fill="#585966"/>
    <path id="Trazado_219863" data-name="Trazado 219863" d="M239.569,93.154q-.008-.049-.02-.1l.012-.012c.237-.2.527-.144.8-.159.6-.034.812-.237.828-.841.02-.731,0-1.463.008-2.2a1.268,1.268,0,0,1,.1-.663c.276-.109.284.124.286.266.007.444.273.5.63.493.665-.012,1.331.013,2-.008a2.639,2.639,0,0,1,1.761.57,1.475,1.475,0,0,0,.858.327,2.3,2.3,0,0,1-2.418,2.3c-1.614.015-3.228.016-4.842.022" transform="translate(-205.785 -76.591)" fill="#fc4b52"/>
    <path id="Trazado_219864" data-name="Trazado 219864" d="M253.307,85.589c-.246.229-.445.23-.713-.023a2.512,2.512,0,0,0-1.906-.728c-.718.035-1.44-.016-2.158.016-.441.02-.677-.077-.6-.569a.4.4,0,0,0-.092-.393,5.649,5.649,0,0,0-.741-.744c0-.027-.006-.053-.01-.079,1.315,0,2.632-.034,3.946,0a2.273,2.273,0,0,1,2.271,2.524" transform="translate(-212.263 -71.346)" fill="#fe8c94"/>
    <path id="Trazado_219865" data-name="Trazado 219865" d="M107.45,56.464c-1.316,0-2.632,0-3.948,0-.685,0-.909-.252-.866-.938a4.876,4.876,0,0,1,9.67-.1c.112.714-.13,1.031-.855,1.034-1.334.005-2.667,0-4,0" transform="translate(-88.166 -44.016)" fill="#42434d"/>
    <path id="Trazado_219866" data-name="Trazado 219866" d="M240.607,83.642c.454.042.641.35.741.744,0,.992,0,1.985-.006,2.978,0,.648-.272.922-.907.931-.3,0-.592,0-.888,0,0-1.327.023-2.654-.013-3.98-.014-.516.1-.762.656-.666a2.185,2.185,0,0,0,.418-.006" transform="translate(-205.771 -71.84)" fill="#e74857"/>
    <path id="Trazado_219867" data-name="Trazado 219867" d="M112.821,242.972l.1.955c-.054.55-.448.757-.91.884a12.521,12.521,0,0,1-2.542.41,14.8,14.8,0,0,1-4.648-.381,1.561,1.561,0,0,1-1.128-.854,2.407,2.407,0,0,1,.1-1.043.522.522,0,0,1,.167-.391,24.313,24.313,0,0,0,2.642.595,8.995,8.995,0,0,0,3.467-.057,9.73,9.73,0,0,0,2.74-.631q.006.257.013.514" transform="translate(-89.052 -208.284)" fill="#fed8ac"/>
    <path id="Trazado_219868" data-name="Trazado 219868" d="M111.412,141.407c0,.3.02.6-.005.9a.9.9,0,0,1-.866.838.888.888,0,0,1-.94-.746,6.672,6.672,0,0,1,0-1.994.854.854,0,0,1,.949-.724.874.874,0,0,1,.858.834c.024.3,0,.6,0,.9" transform="translate(-94.089 -119.989)" fill="#585966"/>
    <path id="Trazado_219869" data-name="Trazado 219869" d="M152.942,141.4c0,.3.019.6-.005.894a.908.908,0,0,1-1.811-.01c-.026-.6-.028-1.194,0-1.789a.854.854,0,0,1,.908-.829.873.873,0,0,1,.9.839c.023.3,0,.6,0,.894" transform="translate(-129.807 -119.98)" fill="#585966"/>
    <path id="Trazado_219870" data-name="Trazado 219870" d="M84.7,252.886c.564.938,1.575.885,2.45,1.022a15.134,15.134,0,0,0,5.506-.217,1.573,1.573,0,0,0,1.2-.812,7.059,7.059,0,0,0,1.949,3.2c.383.342.825.591,1.23.9a8.451,8.451,0,0,1-7.662,5.077,8.623,8.623,0,0,1-6-2.4c-.09-.083-.188-.156-.282-.234a5.734,5.734,0,0,1-1.622-2.44c.032-.157.163-.217.282-.289a6.167,6.167,0,0,0,2.618-3.167c.085-.22.1-.487.331-.633" transform="translate(-69.988 -217.236)" fill="#feead1"/>
    <path id="Trazado_219871" data-name="Trazado 219871" d="M45.024,285.036a1.631,1.631,0,0,1-.846.557,2.508,2.508,0,0,0-1.9,2.584c.018,1.808.014,3.618,0,5.426a1.191,1.191,0,0,1-1.684,1.222c-.282-.132-.428-.4-.63-.618-.2-2.536-.04-5.076-.09-7.613-.01-.49-.006-.981-.009-1.471.059-.311.354-.269.554-.358s.411-.161.613-.25c1.173-.4,2.36-.768,3.522-1.2.207-.078.451-.256.665.017a2.055,2.055,0,0,1-.1,1.482l-.095.228" transform="translate(-34.241 -243.266)" fill="#dfb6a2"/>
    <path id="Trazado_219872" data-name="Trazado 219872" d="M76.927,283.543l.018-1.555c.162-.214.346-.366.635-.227a19.763,19.763,0,0,0,1.575,2.419c0,.978-.059,1.074-1.007,1.376-.381.121-.854.476-1.121.291s-.068-.748-.086-1.145-.01-.772-.014-1.158" transform="translate(-66.049 -242.001)" fill="#edf6fe"/>
    <path id="Trazado_219873" data-name="Trazado 219873" d="M36.3,204.648q-.017.218-.035.435a.881.881,0,0,1-.545.155c-1.73-.037-3.451.152-5.177.226-.923.04-1.844.138-2.767.191-.695.018-1.384.108-2.075.174a.98.98,0,0,1-.8-.116,19.184,19.184,0,0,0,.1-3.111,12.327,12.327,0,0,1,.051-1.786,2.84,2.84,0,0,1,3.532-2.226,1.349,1.349,0,0,0,1.37-.254,10.379,10.379,0,0,0,5.8,6.016,1.417,1.417,0,0,1,.547.3" transform="translate(-21.397 -170.38)" fill="#a7e446"/>
    <path id="Trazado_219874" data-name="Trazado 219874" d="M24.856,249.426c.957.011,1.9-.237,2.855-.2a.969.969,0,0,1,.775,1.044c.016,1.472.012,2.945,0,4.417a.824.824,0,0,1-.368.767c-.332.287-.8.25-1.152.5a7.065,7.065,0,0,0-2.121,1.178q0-3.85.009-7.7" transform="translate(-21.345 -214.093)" fill="#c69a83"/>
    <path id="Trazado_219875" data-name="Trazado 219875" d="M45.574,252.793a1.79,1.79,0,0,0,.217-.955c-.013-1.331-.031-2.663.007-3.992a1.344,1.344,0,0,0-.633-1.281c2.639-.206,5.278-.414,7.927-.439.193,0,.386.008.579.012l-.158.946a6.449,6.449,0,0,1-3.184,4.11l-.635.227c-1.37.468-2.719,1-4.121,1.373" transform="translate(-38.799 -211.434)" fill="#9f7765"/>
    <path id="Trazado_219876" data-name="Trazado 219876" d="M128,187.658c0,1.489-.8,2.7-1.779,2.7s-1.779-1.207-1.779-2.7.8-2.7,1.779-2.7,1.779,1.207,1.779,2.7" transform="translate(-106.898 -158.892)" fill="#fed8ac"/>
  </g>
</svg>
