<svg id="Grupo_148219" data-name="Grupo 148219" xmlns="http://www.w3.org/2000/svg" xmlns:xlink="http://www.w3.org/1999/xlink" width="141.876" height="141.911" viewBox="0 0 141.876 141.911">
  <defs>
    <clipPath id="clip-path">
      <rect id="Rectángulo_89699" data-name="Rectángulo 89699" width="141.876" height="141.911" fill="#cba124"/>
    </clipPath>
  </defs>
  <g id="Grupo_148177" data-name="Grupo 148177" clip-path="url(#clip-path)">
    <path id="Trazado_246525" data-name="Trazado 246525" d="M36.571,75.253V68.382c-1.506,0-2.967.011-4.429,0a11.448,11.448,0,0,1-7.7-20,2.621,2.621,0,0,0,.735-1.549A13.762,13.762,0,0,1,52.6,46.453c.154,1.4.154,1.4,2.318,3.476a6.221,6.221,0,0,0,2.59-4.39A13.524,13.524,0,0,1,71.675,34.051a13.8,13.8,0,0,1,13,12.575c.116,1.278.116,1.278,2.328,3.3a6.373,6.373,0,0,0,2.579-4.414,13.5,13.5,0,0,1,14.183-11.457,13.875,13.875,0,0,1,13,12.6,3.292,3.292,0,0,0,.927,1.893,11.491,11.491,0,0,1,2.893,12.477,11.374,11.374,0,0,1-10.467,7.349c-1.524.029-3.049,0-4.686,0v6.875H138.55c2.945,0,3.677.848,3.184,3.726-3.7,21.578-14.812,38.261-33.347,49.838A67.244,67.244,0,0,1,65.922,139.11C37.94,136.6,17.871,122.395,5.628,97.155A66.073,66.073,0,0,1,.048,78.165c-.29-1.893.736-2.908,2.894-2.909q15.884-.008,31.768,0Zm100.494,4.682H54.946c0,2.149.1,4.2-.048,6.239a4.809,4.809,0,0,1-1.033,2.516A23.146,23.146,0,0,1,43.8,95.956a6.1,6.1,0,0,0-4.139,4.73c-.31,1.286-.387,2.255.509,3.239,2.867,3.152,3.757,6.84,3.408,11.06-.157,1.9-.614,3.208-2.208,4.282-2.227,1.5-4.322,3.2-6.51,4.841,3.054,2.4,10.388,5.822,15.969,7.6a1.464,1.464,0,0,0,1.9-.622c2.227-2.859,4.462-5.717,6.815-8.472a5.249,5.249,0,0,1,2.54-1.579c2.754-.7,5.562-1.192,8.474-1.79-.589-2.972-1.109-5.824-1.731-8.654a2.669,2.669,0,0,1,1.419-3.223c3.411-2,6.792-4.054,10.188-6.083,1.986-1.188,2.319-1.165,4.214.255,2.175,1.63,4.31,3.317,6.543,4.865a9.673,9.673,0,0,0,3.05,1.381c2.028.521,4.155.68,6.149,1.29,3.245.992,6.017-.64,9.132-1.123-.611-3.077-1.16-5.97-1.772-8.849a2.756,2.756,0,0,1,.729-2.751c2.2-2.188,4.382-4.389,6.58-6.576a2.35,2.35,0,0,1,2.62-.6c1.665.578,3.334,1.147,5.025,1.636a3.258,3.258,0,0,0,1.786.06q4.968-1.577,9.885-3.316a1.777,1.777,0,0,0,1.011-.992c.61-2.147,1.114-4.325,1.687-6.623M56.872,133.2c32.524,7.359,65.539-11.733,76.168-40.319a31.584,31.584,0,0,0-4.119,1.368,10.949,10.949,0,0,1-10.363.038,1.461,1.461,0,0,0-1.988.411c-1.089,1.2-2.342,2.253-3.392,3.483a2.549,2.549,0,0,0-.526,1.848c.494,2.91,1.108,5.8,1.713,8.692.224,1.072.176,2.352-.833,2.635-3.728,1.049-7.529,1.836-11.3,2.715-.082.019-.182-.052-.275-.07-3.178-.626-6.371-1.187-9.526-1.913a9.62,9.62,0,0,1-3.2-1.427c-2.123-1.452-4.116-3.093-6.218-4.579a1.662,1.662,0,0,0-1.461-.115q-3.671,2.072-7.231,4.338a1.6,1.6,0,0,0-.557,1.327c.487,2.816,1.073,5.614,1.63,8.417.388,1.947-.193,2.915-2.11,3.323-3.121.666-6.254,1.273-9.376,1.932a2.025,2.025,0,0,0-1.108.512c-1.964,2.39-3.88,4.82-5.928,7.384M4.936,79.884a66.572,66.572,0,0,0,25.718,41.5,2.329,2.329,0,0,0,.387-.158,41.145,41.145,0,0,1,4.725-3.459,5.558,5.558,0,0,0,3.14-6.526,4.966,4.966,0,0,0-.538-1.708c-1.084-1.738-2.232-3.438-3.392-5.126a2.893,2.893,0,0,1-.386-2.829c.711-1.97,1.247-4.008,2.049-5.938a4.491,4.491,0,0,1,1.79-2.031,63.342,63.342,0,0,1,6.38-3.2c2.2-.947,3.582-2.79,5.234-4.345a.975.975,0,0,0,.3-.613c.023-1.841.013-3.682.013-5.559ZM41.208,63.8c1.694,0,3.255.038,4.815-.008a6.854,6.854,0,0,0,6.312-4.765,6.621,6.621,0,0,0-2.554-7.581A3.523,3.523,0,0,1,48.024,47.9a9.11,9.11,0,1,0-18.218-.014,3.549,3.549,0,0,1-1.743,3.553,6.314,6.314,0,0,0-2.809,6.457,6.065,6.065,0,0,0,4.463,5.42,42.215,42.215,0,0,0,6.909.652,11.565,11.565,0,0,1,.01-1.528,2.679,2.679,0,0,0-1.6-3.089c-1.451-.8-2.777-1.818-4.252-2.8l2.509-3.772L36.7,54.917v-4.78h4.53V54.86l3.313-2.075,2.5,3.751c-1.737,1.17-3.4,2.264-5.031,3.414a1.812,1.812,0,0,0-.767,1.043,22.635,22.635,0,0,0-.037,2.8m21.637-7.251,2.51-3.774,3.406,2.148V50.136h4.529v4.726L76.6,52.784l2.5,3.752c-1.734,1.168-3.4,2.263-5.03,3.412a1.824,1.824,0,0,0-.769,1.043,22.883,22.883,0,0,0-.035,2.805c1.69,0,3.252.038,4.811-.008a6.854,6.854,0,0,0,6.314-4.763,6.623,6.623,0,0,0-2.552-7.582A3.524,3.524,0,0,1,80.083,47.9a9.11,9.11,0,1,0-18.217-.019,3.547,3.547,0,0,1-1.741,3.554,6.312,6.312,0,0,0-2.812,6.456,6.065,6.065,0,0,0,4.461,5.421,42.358,42.358,0,0,0,6.911.654,11.55,11.55,0,0,1,.01-1.527,2.676,2.676,0,0,0-1.6-3.09c-1.451-.8-2.777-1.817-4.254-2.805M105.5,63.8c1.493,0,2.965.023,4.437,0a6.863,6.863,0,0,0,6.54-4.847,6.676,6.676,0,0,0-2.748-7.643,3.149,3.149,0,0,1-1.582-3.2,9.116,9.116,0,1,0-18.216,0,3.142,3.142,0,0,1-1.583,3.2,6.606,6.606,0,0,0-2.916,6.946,6.417,6.417,0,0,0,5.435,5.371,37.826,37.826,0,0,0,5.882.057,7.344,7.344,0,0,1,.009-1.176,2.748,2.748,0,0,0-1.659-3.2c-1.449-.779-2.764-1.806-4.2-2.765l2.536-3.767,3.337,2.135v-4.74h4.646v4.679l3.243-2.072,2.495,3.784a27.084,27.084,0,0,1-3.576,2.344c-2.111.956-2.6,2.524-2.216,4.6a2.489,2.489,0,0,0,.135.306M41.28,68.329v6.838h27.3V68.309c-5.23.4-10.165.084-13.648-4.607-3.563,4.764-8.5,4.962-13.654,4.627m45.76-4.59c-1.745,2.12-3.694,3.718-6.206,4.166-2.452.438-4.976.468-7.46.678v6.6h27.282V68.329c-5.154.342-10.082.124-13.616-4.59" transform="translate(0 2.517)" fill="#cba124"/>
    <path id="Trazado_246526" data-name="Trazado 246526" d="M15.764,10.888c.693-3.352,2.192-4.578,5.475-4.579q7.368,0,14.737,0c4.266.008,7.368,2.921,7.358,6.888s-3.112,6.838-7.4,6.85c-2.811.008-5.621,0-8.036,0-.924,1.378-1.458,2.878-2.518,3.569a8.4,8.4,0,0,1-4.172.97c-3.954.12-7.915.055-11.874.039a6.9,6.9,0,0,1-7.208-6.895c.011-3.91,3.1-6.822,7.259-6.841,2.1-.01,4.191,0,6.38,0m4.806.01c-.852,3.48-2.241,4.569-5.741,4.571-1.857,0-3.715-.021-5.572.008a2.3,2.3,0,1,0,.028,4.565c1.857.028,3.715.008,5.573.008h7.779c.688-3.354,2.194-4.576,5.486-4.58,2.762,0,5.524.028,8.287-.018a2.256,2.256,0,0,0,2.338-2.211,2.208,2.208,0,0,0-2.213-2.323C31.2,10.871,25.876,10.9,20.57,10.9" transform="translate(0.157 0.466)" fill="#cba124"/>
    <path id="Trazado_246527" data-name="Trazado 246527" d="M66.7,24.626a9.159,9.159,0,1,1,9.171-9.037A9.192,9.192,0,0,1,66.7,24.626m.033-4.588a4.573,4.573,0,1,0-4.592-4.518,4.591,4.591,0,0,0,4.592,4.518" transform="translate(4.257 0.467)" fill="#cba124"/>
    <path id="Trazado_246528" data-name="Trazado 246528" d="M120.179,8.044c2.54-1.919,5.183-2.359,7.945-.83a6.717,6.717,0,0,1,3.509,5.9h-4.476c-.337-1.187-.968-2.241-2.458-2.2-1.361.038-1.992.956-2.309,2.212H118c-.343-1.192-.969-2.256-2.459-2.211-1.351.041-2.007.938-2.3,2.2h-4.5a6.629,6.629,0,0,1,3.479-5.893c2.755-1.542,5.4-1.109,7.958.819" transform="translate(8.042 0.465)" fill="#cba124"/>
    <path id="Trazado_246529" data-name="Trazado 246529" d="M120.9,23.8h-4.412c-.352-1.246-.975-2.242-2.414-2.222-1.411.019-2.075.97-2.348,2.23h-4.392c-.361-1.244-.976-2.246-2.416-2.231-1.42.014-2.05,1-2.367,2.213H98.093a6.577,6.577,0,0,1,3.428-5.882c2.744-1.554,5.4-1.156,7.872.712,6.2-2.976,11.412-.682,11.512,5.18" transform="translate(7.255 1.253)" fill="#cba124"/>
    <path id="Trazado_246530" data-name="Trazado 246530" d="M54.327,5.831l2.936-2.892,2.9,3.232L57.037,8.9l-2.71-3.074" transform="translate(4.018 0.217)" fill="#cba124"/>
    <path id="Trazado_246531" data-name="Trazado 246531" d="M75.292,9.015,72.281,6l3.068-3.066c1.027,1.03,2.05,2.054,3,3.01L75.292,9.015" transform="translate(5.346 0.217)" fill="#cba124"/>
    <path id="Trazado_246532" data-name="Trazado 246532" d="M57.255,21.054l2.968,3.014-2.947,3.017-3.009-2.944c.974-1.005,1.979-2.044,2.988-3.087" transform="translate(4.013 1.557)" fill="#cba124"/>
    <path id="Trazado_246533" data-name="Trazado 246533" d="M75.57,21.195l2.819,2.882-3.257,2.9L72.457,23.87l3.113-2.675" transform="translate(5.359 1.567)" fill="#cba124"/>
    <rect id="Rectángulo_89695" data-name="Rectángulo 89695" width="4.387" height="4.413" transform="translate(68.794 0)" fill="#cba124"/>
    <rect id="Rectángulo_89696" data-name="Rectángulo 89696" width="4.454" height="4.385" transform="translate(55 13.729)" fill="#cba124"/>
    <rect id="Rectángulo_89697" data-name="Rectángulo 89697" width="4.401" height="4.427" transform="translate(82.501 13.709)" fill="#cba124"/>
    <rect id="Rectángulo_89698" data-name="Rectángulo 89698" width="4.394" height="4.419" transform="translate(68.791 27.479)" fill="#cba124"/>
  </g>
</svg>
