<svg id="Grupo_146866" data-name="Grupo 146866" xmlns="http://www.w3.org/2000/svg" xmlns:xlink="http://www.w3.org/1999/xlink" width="141.159" height="185.586" viewBox="0 0 141.159 185.586">
  <defs>
    <clipPath id="clip-path">
      <rect id="Rectángulo_89063" data-name="Rectángulo 89063" width="141.158" height="185.586" fill="none"/>
    </clipPath>
  </defs>
  <g id="Grupo_146866-2" data-name="Grupo 146866" clip-path="url(#clip-path)">
    <path id="Trazado_219847" data-name="Trazado 219847" d="M116.022,0c1.333.748,2.865.7,4.3,1.041a37.018,37.018,0,0,1,28.032,32.451,31.347,31.347,0,0,1,.218,5.051c-.094,1.35.323,1.891,1.7,1.709a12.622,12.622,0,0,1,1.986.037.383.383,0,0,1-.186.54c-2.878.758-2.829.758-2.891,3.914-.076,3.836.283,7.679-.218,11.508a1.009,1.009,0,0,1-.441.462,4,4,0,0,1-2.294.328q-40.217.012-80.435.005c-.422,0-.847.017-1.267-.025-1.539-.155-1.724-.47-.822-1.747a6.217,6.217,0,0,0,1.043-3.761,82.467,82.467,0,0,1,.5-12.29A37.685,37.685,0,0,1,96.822,7.841c4.455-.657,8.921-.28,13.382-.4,1.026-.029,2.056.055,3.078-.051a3.367,3.367,0,0,0,2.673-5.3C115.587,1.444,114.793.921,115.3,0Z" transform="translate(-32.562)" fill="#fc4b52"/>
    <path id="Trazado_219848" data-name="Trazado 219848" d="M100.388,0a1.674,1.674,0,0,0,.686,1.222,3.834,3.834,0,0,1,.725,4.654c-.716,1.7-2.16,2.111-3.839,2.1-3.623-.013-7.248-.068-10.87.007A36.315,36.315,0,0,0,62.5,17.71a36.985,36.985,0,0,0-11.18,19.164c-1.15,4.788-1.043,9.678-.931,14.55a5.712,5.712,0,0,1-2.111,5.116h2.253q40.492,0,80.984.01c.724,0,1.448.023,2.173.035q.164.084.14.206c-.018.088-.042.131-.072.131l-.062.061a2.949,2.949,0,0,1-2.058.49c-2.7,0-5.41.06-8.115-.028-1.264.108-2.531.051-3.8.051q-28.753.007-57.505,0c-2.471,0-4.942.028-7.412-.047-3.407.052-6.814.066-10.221-.009-2.7.088-5.394.035-8.092.027a2.629,2.629,0,0,1-2.023-.553c-.014-7.721-.578-15.49.083-23.153,1.106-12.826,7.561-22.632,18.8-29.1A32.733,32.733,0,0,1,66.62.3c.148-.014.28-.193.42-.3Z" transform="translate(-17.653)" fill="#fe8b94"/>
    <path id="Trazado_219849" data-name="Trazado 219849" d="M76.519,117.516c6.75-.018,13.5-.051,20.25-.05q24.32,0,48.64.029a3.89,3.89,0,0,1,.539,2.761c.018,5.467.036,10.934-.012,16.4a3.923,3.923,0,0,0,1.256,3.37c-1.744.125-1.937,1.221-1.832,2.685a25.81,25.81,0,0,1-.606,6.2c-.106.617-.376,1.361.622,1.567-1.3,2.428-1.648,5.2-2.747,7.7-4.209,9.963-11.633,16.5-21.629,20.306a35.653,35.653,0,0,1-7.056,1.99,2.727,2.727,0,0,1-2.245-.2c-.218-.4.06-.673.229-.983,1.313-2.413.609-4.075-2.043-4.715a58.2,58.2,0,0,1-7.995-2.267c-12.584-5.009-20.225-14.186-23.16-27.346a33.966,33.966,0,0,1-.908-8.249c.064-2.652.093-5.31-.005-7.96-.141-3.775.794-7.687-1.3-11.239" transform="translate(-39.453 -60.564)" fill="#feead1"/>
    <path id="Trazado_219850" data-name="Trazado 219850" d="M134.272,330.72l-58.408.006a2.521,2.521,0,0,1-.567-1.859c.03-13.285-.159-26.572.093-39.855a1.318,1.318,0,0,1,.595-1.094c.9.348.689,1.167.715,1.836.06,1.5.025,3.008.018,4.512,0,.9.36,1.2,1.234.89,1.19-.425,2.39-.823,3.591-1.213,1.845-.6,1.619-2.34,2.12-3.685.794-.527,1.233.171,1.679.563a30.18,30.18,0,0,0,17.372,7.746,27.462,27.462,0,0,0,13.426-2.11,28.964,28.964,0,0,0,14.688-13.6,2.57,2.57,0,0,1,.988-1.259,2.49,2.49,0,0,1,2.764,1.286,8.484,8.484,0,0,1,.228,2.694c0,14.238.034,28.476-.079,42.714a3.487,3.487,0,0,1-.456,2.431" transform="translate(-38.802 -145.164)" fill="#cae2f9"/>
    <path id="Trazado_219851" data-name="Trazado 219851" d="M65.057,117.565a5.917,5.917,0,0,1,1.849,5.023c-.123,5.01-.177,10.03-.012,15.038.349,10.55,3.985,19.785,11.825,27.022a38,38,0,0,0,19.57,9.411c1.509.267,2.894.806,3.3,2.376a3.24,3.24,0,0,1-1.377,3.8c-.366.815-1.132.779-1.842.873-6.473.861-12.707-.29-18.848-2.225-2.206-1.109-4.528-1.969-6.662-3.256a36.5,36.5,0,0,1-15.928-18.848,40.412,40.412,0,0,0-2.039-6.259c.705-.068.433-.524.392-.926a91,91,0,0,1-.764-9.309c-.391-7.3-.2-14.609-.084-21.914a1.4,1.4,0,0,1,.364-.808l10.253,0" transform="translate(-27.991 -60.613)" fill="#fef2e3"/>
    <path id="Trazado_219852" data-name="Trazado 219852" d="M168.14,221.082c9.246-3.632,16.311-9.661,20.6-18.741.179-.379.3-.784.45-1.177,3.161,2.13,6.571.872,9.885.679,3.053-.178,6.1-.535,9.142-.808a9.3,9.3,0,0,1,5.232,1.114c1.746.94,3.453,1.549,5.412.828.007,4.165.034,8.33.017,12.495a9.64,9.64,0,0,1-11.613,9.645,3.612,3.612,0,0,1-2.781.437c-8.509-.819-17.031-1.4-25.57-1.818-2.888-.139-5.771-.249-8.66-.293a3.676,3.676,0,0,1-2.1-.413,1.416,1.416,0,0,1-.017-1.947" transform="translate(-86.496 -103.633)" fill="#a7e446"/>
    <path id="Trazado_219853" data-name="Trazado 219853" d="M168.2,246.106c9.215-.006,18.4.641,27.57,1.426,3.833.328,7.673.562,11.51.839q0,13.195-.005,26.388c-.751.29-1.246-.217-1.754-.6a26.691,26.691,0,0,0-5.63-3.061c-3.655-.668-6.885-2.552-10.4-3.623-1.811-.663-3.653-1.231-5.483-1.837a3.978,3.978,0,0,1-2.119-1.287l-2.422-.9a6.736,6.736,0,0,1-3.588-1.946A23.488,23.488,0,0,1,168.1,249.18c.012-1.025-.747-2.079.106-3.074" transform="translate(-86.516 -126.89)" fill="#9f7765"/>
    <path id="Trazado_219854" data-name="Trazado 219854" d="M233.371,296.911c2.688.85,4.9,2.54,7.227,4.043,3.228,3.423,5.79,7.226,6.711,11.939a23.289,23.289,0,0,1,.576,4.637c-.036,5.613-.008,11.227-.016,16.841-.005,3.139-1.144,4.3-4.208,4.293-3.561,0-7.122-.021-10.683-.032a2.786,2.786,0,0,1-.541-2.042q-.028-18.783.016-37.565c0-.781-.18-1.757.918-2.114" transform="translate(-119.834 -153.085)" fill="#cae2f9"/>
    <path id="Trazado_219855" data-name="Trazado 219855" d="M24.719,338.469c-3.853,0-7.707.013-11.561-.006-2.275-.011-3.294-1.03-3.3-3.315-.015-6.744-.163-13.493.052-20.23A18.462,18.462,0,0,1,14.6,303.466c.693-.816,1.441-1.585,2.163-2.376a7.611,7.611,0,0,0,.419-.7,17.309,17.309,0,0,1,5.505-3.539c.733-.307,1.629-.71,2.074.492a10.764,10.764,0,0,1,.172,2.707q.009,9.966,0,19.932a52.885,52.885,0,0,0,.326,7.953c.03,2.711.062,5.422.032,8.134a3.368,3.368,0,0,1-.572,2.4" transform="translate(-5.051 -152.887)" fill="#edf6fe"/>
    <path id="Trazado_219856" data-name="Trazado 219856" d="M12.035,242.258l-.326.308c0-8.206-.041-16.411.018-24.616.01-1.422-.383-1.825-1.821-1.837A9.433,9.433,0,0,1,.45,207.471a74.594,74.594,0,0,1,.045-16.749c.5-4.516,5.529-8.035,10.079-7.682,5.442.422,10.859,1.221,16.332,1.226a2.167,2.167,0,0,1,1.224,1.554,47.673,47.673,0,0,0,1.3,4.617,2.58,2.58,0,0,1-2.774,1.575c-1.572,0-3.106-.408-4.688-.361a8.936,8.936,0,0,0-9.016,8.974c-.065,2.594-.007,5.191-.017,7.787a36.294,36.294,0,0,1-.432,7.917c.284,8.019.084,16.037.114,24.054a3.371,3.371,0,0,1-.58,1.874" transform="translate(0 -94.361)" fill="#d9febe"/>
    <path id="Trazado_219857" data-name="Trazado 219857" d="M215.265,293.131c-.629.6-.344,1.368-.346,2.056q-.044,19.833-.046,39.666l-17.343-.025c-.439-3.114-.08-6.245-.187-9.366-.031-.9.463-.823,1.043-.51.425.23.794.55,1.222.776a3.223,3.223,0,0,0,4.89-2.453,12.61,12.61,0,0,0,.075-1.988q0-13.849,0-27.7a19.32,19.32,0,0,0-.194-2.886c-.059-.391-.361-.962.379-1.123,2.188.134,3.9,1.576,5.923,2.163,1.533.444,3.056.924,4.583,1.388" transform="translate(-101.728 -149.305)" fill="#c69983"/>
    <path id="Trazado_219858" data-name="Trazado 219858" d="M40.6,338.377q0-5.256,0-10.512c.808-.093,1.114.62,1.606,1.019a3.353,3.353,0,0,0,5.591-1.7,9.144,9.144,0,0,0,.265-2.694c0-5.737.031-11.474-.009-17.21-.03-4.265,1.82-7.32,5.732-9,1.421-.61,2.766-1.371,4.206-1.929q0,21,0,42.008l-17.394.019" transform="translate(-20.934 -152.796)" fill="#c69982"/>
    <path id="Trazado_219859" data-name="Trazado 219859" d="M204.548,286.585c.748,4.209.3,8.455.354,12.683.078,6.512-.029,13.027.05,19.54.025,2.023-.287,3.763-2.259,4.7-2.079.983-3.689.01-5.376-1.779v10.109a.836.836,0,0,1-.33.033q-.022-22.783-.046-45.565c0-.843-.031-1.687-.047-2.53,2.509,1.052,5.208,1.587,7.653,2.813" transform="translate(-101.517 -146.31)" fill="#dfb6a2"/>
    <path id="Trazado_219860" data-name="Trazado 219860" d="M241.668,193.808c-1.377,1.325-2.681,1.255-4.344.26a11.211,11.211,0,0,0-7.927-1.508c-3.056.53-6.192.612-9.3.845a28.149,28.149,0,0,0-3.217.3c-1.9.362-3.714.161-4.887-1.707a36.865,36.865,0,0,0,1.866-5.926,2.25,2.25,0,0,1,1.365-1.687c5.29.018,10.51-.91,15.785-1.15,6.629-.3,10.844,3.8,10.655,10.575" transform="translate(-109.304 -94.466)" fill="#d9febe"/>
    <path id="Trazado_219861" data-name="Trazado 219861" d="M44.661,117.528l.017,21.157a2.454,2.454,0,0,1-.3,1.566c-6.7-1.182-9.755-4.633-9.763-11.019q-.006-4.6,0-9.209c0-.841.033-1.683.05-2.525l9.99.03" transform="translate(-17.848 -60.581)" fill="#6e6f80"/>
    <path id="Trazado_219862" data-name="Trazado 219862" d="M220.472,140.057c-1.343.249-1.844-.172-1.825-1.663.085-6.956.04-13.913.042-20.869l10.089.053q-.015,5.872-.031,11.744-.035,8.565-8.274,10.735" transform="translate(-112.732 -60.595)" fill="#585966"/>
    <path id="Trazado_219863" data-name="Trazado 219863" d="M239.616,102.891q-.029-.17-.067-.338l.041-.04c.815-.7,1.81-.494,2.752-.548,2.05-.116,2.789-.816,2.847-2.889.069-2.514.007-5.03.026-7.544a4.36,4.36,0,0,1,.344-2.278c.947-.373.976.428.984.914.025,1.525.938,1.717,2.165,1.7,2.286-.04,4.575.046,6.859-.027a9.071,9.071,0,0,1,6.051,1.959,5.069,5.069,0,0,0,2.95,1.124c.025,4.494-3.481,7.852-8.311,7.9-5.546.051-11.094.053-16.641.077" transform="translate(-123.509 -45.969)" fill="#fc4b52"/>
    <path id="Trazado_219864" data-name="Trazado 219864" d="M268.457,91.771c-.844.786-1.528.79-2.451-.078a8.632,8.632,0,0,0-6.55-2.5c-2.468.12-4.949-.057-7.417.056-1.514.07-2.326-.264-2.053-1.957a1.386,1.386,0,0,0-.317-1.352,19.414,19.414,0,0,0-2.546-2.557c-.009-.091-.019-.182-.033-.272,4.521-.012,9.044-.115,13.562-.012,4.9.112,8.56,4.436,7.805,8.673" transform="translate(-127.398 -42.821)" fill="#fe8c94"/>
    <path id="Trazado_219865" data-name="Trazado 219865" d="M119.193,69.2c-4.523,0-9.046.013-13.569,0-2.356-.009-3.123-.866-2.975-3.224.439-6.982,7.115-13.679,14.186-14.584A16.949,16.949,0,0,1,135.882,65.64c.386,2.455-.446,3.545-2.938,3.555-4.583.017-9.167,0-13.75,0" transform="translate(-52.916 -26.418)" fill="#42434d"/>
    <path id="Trazado_219866" data-name="Trazado 219866" d="M243.226,83.678c1.56.145,2.2,1.2,2.546,2.558-.006,3.411-.005,6.822-.021,10.233-.01,2.225-.934,3.169-3.116,3.2-1.017.014-2.035,0-3.052-.006,0-4.559.078-9.121-.046-13.677-.048-1.772.359-2.617,2.253-2.288a7.508,7.508,0,0,0,1.436-.02" transform="translate(-123.501 -43.118)" fill="#e74857"/>
    <path id="Trazado_219867" data-name="Trazado 219867" d="M135.137,244.225q.169,1.64.339,3.281c-.187,1.892-1.538,2.6-3.126,3.038a43.032,43.032,0,0,1-8.736,1.409,50.861,50.861,0,0,1-15.973-1.31,5.365,5.365,0,0,1-3.877-2.935,8.272,8.272,0,0,1,.341-3.585,1.8,1.8,0,0,1,.575-1.343,83.565,83.565,0,0,0,9.081,2.043c3.982.522,7.958.828,11.914-.2,3.3-.044,6.333-1.214,9.418-2.17q.022.884.044,1.767" transform="translate(-53.448 -125.009)" fill="#fed8ac"/>
    <path id="Trazado_219868" data-name="Trazado 219868" d="M116.007,145.627c0,1.026.069,2.058-.017,3.077a3.1,3.1,0,0,1-2.976,2.882,3.051,3.051,0,0,1-3.232-2.564,22.928,22.928,0,0,1,0-6.852,2.936,2.936,0,0,1,3.26-2.488,3,3,0,0,1,2.948,2.868c.081,1.02.015,2.051.014,3.077" transform="translate(-56.471 -72.016)" fill="#585966"/>
    <path id="Trazado_219869" data-name="Trazado 219869" d="M157.417,145.624c0,1.025.066,2.055-.017,3.074a3.12,3.12,0,0,1-6.226-.035c-.09-2.046-.1-4.1,0-6.148a2.936,2.936,0,0,1,3.122-2.849,3,3,0,0,1,3.105,2.884c.077,1.019.015,2.049.012,3.074" transform="translate(-77.909 -72.011)" fill="#585966"/>
    <path id="Trazado_219870" data-name="Trazado 219870" d="M92.575,252.9c1.939,3.224,5.414,3.041,8.42,3.514a52.011,52.011,0,0,0,18.922-.747,5.405,5.405,0,0,0,4.116-2.789,24.262,24.262,0,0,0,6.7,10.983c1.316,1.175,2.837,2.031,4.229,3.081a29.045,29.045,0,0,1-26.334,17.448,29.635,29.635,0,0,1-20.613-8.246c-.308-.284-.645-.537-.969-.805a19.707,19.707,0,0,1-5.574-8.385c.109-.539.559-.747.968-.993a21.2,21.2,0,0,0,9-10.885c.293-.757.333-1.675,1.136-2.175" transform="translate(-42.006 -130.382)" fill="#feead1"/>
    <path id="Trazado_219871" data-name="Trazado 219871" d="M57.609,289.56a5.6,5.6,0,0,1-2.907,1.913c-3.766,1.29-6.58,3.835-6.53,8.879.062,6.215.047,12.433,0,18.649-.025,3.5-2.913,5.546-5.789,4.2-.97-.454-1.47-1.392-2.167-2.126-.692-8.715-.139-17.444-.311-26.166-.033-1.685-.022-3.371-.032-5.057.2-1.068,1.215-.925,1.9-1.232s1.413-.553,2.108-.859c4.033-1.387,8.11-2.638,12.105-4.137.71-.266,1.55-.878,2.285.058.238,1.723.69,3.46-.343,5.1l-.325.784" transform="translate(-20.551 -146.005)" fill="#dfb6a2"/>
    <path id="Trazado_219872" data-name="Trazado 219872" d="M77.025,288.017l.062-5.345c.558-.734,1.19-1.259,2.182-.78a67.92,67.92,0,0,0,5.412,8.313c.011,3.362-.2,3.691-3.462,4.73-1.308.417-2.936,1.635-3.852,1s-.235-2.572-.295-3.936c-.058-1.325-.035-2.654-.048-3.98" transform="translate(-39.642 -145.246)" fill="#edf6fe"/>
    <path id="Trazado_219873" data-name="Trazado 219873" d="M64.073,220.031q-.06.748-.12,1.5a3.026,3.026,0,0,1-1.872.533c-5.947-.128-11.861.521-17.792.776-3.171.136-6.337.476-9.509.657-2.388.062-4.756.37-7.13.6-.95.091-1.909.3-2.741-.4.716-3.545.2-7.13.341-10.693a42.366,42.366,0,0,1,.177-6.139c1.07-5.679,6.285-8.86,12.14-7.649,1.681.348,3.344.525,4.707-.874,3.668,9.756,10.461,16.5,19.922,20.676a4.869,4.869,0,0,1,1.879,1.02" transform="translate(-12.842 -102.26)" fill="#a7e446"/>
    <path id="Trazado_219874" data-name="Trazado 219874" d="M24.877,249.926c3.29.036,6.517-.814,9.812-.695a3.33,3.33,0,0,1,2.663,3.589c.056,5.061.04,10.121.008,15.182a2.832,2.832,0,0,1-1.265,2.637c-1.139.987-2.759.859-3.96,1.7-2.778.724-4.978,2.485-7.289,4.05q.015-13.233.03-26.466" transform="translate(-12.811 -128.496)" fill="#c69a83"/>
    <path id="Trazado_219875" data-name="Trazado 219875" d="M46.571,269.043a6.153,6.153,0,0,0,.745-3.283c-.044-4.574-.106-9.15.023-13.721a4.617,4.617,0,0,0-2.175-4.4c9.07-.708,18.14-1.423,27.245-1.51.663-.006,1.327.028,1.989.042q-.272,1.626-.544,3.252a22.166,22.166,0,0,1-10.942,14.126l-2.181.78c-4.709,1.608-9.344,3.436-14.162,4.718" transform="translate(-23.287 -126.9)" fill="#9f7765"/>
    <path id="Trazado_219876" data-name="Trazado 219876" d="M136.667,194.228c0,5.118-2.738,9.267-6.115,9.267s-6.115-4.149-6.115-9.267,2.737-9.266,6.115-9.266,6.115,4.149,6.115,9.266" transform="translate(-64.159 -95.365)" fill="#fed8ac"/>
  </g>
</svg>
