<svg id="Grupo_148220" data-name="Grupo 148220" xmlns="http://www.w3.org/2000/svg" xmlns:xlink="http://www.w3.org/1999/xlink" width="104.08" height="132.281" viewBox="0 0 104.08 132.281">
  <defs>
    <clipPath id="clip-path">
      <rect id="Rectángulo_89700" data-name="Rectángulo 89700" width="104.08" height="132.281" fill="#cba124"/>
    </clipPath>
  </defs>
  <g id="Grupo_148178" data-name="Grupo 148178" clip-path="url(#clip-path)">
    <path id="Trazado_246534" data-name="Trazado 246534" d="M85.142,136.84a2.82,2.82,0,0,1-1.417-2.294c-1.054-8.238-2.149-16.471-3.232-24.706-.539-4.093-1.076-8.187-1.625-12.365H60.145c.749,1.684,1.363,3.273,2.143,4.776a29.07,29.07,0,0,1,3.45,13.236c0,.258.013.518,0,.775a1.929,1.929,0,0,1-2.045,2.011,1.854,1.854,0,0,1-1.814-2.08,24.391,24.391,0,0,0-2.136-10.282c-.782-1.722-1.628-3.416-2.4-5.143-.35-.782-.609-1.607-.881-2.422a9.139,9.139,0,0,1,1.085-8.5,8.986,8.986,0,0,0,1.667-6.843,8.48,8.48,0,0,0-7.2-6.969,13.95,13.95,0,0,0-1.928-.14c-1.454-.02-2.909-.007-4.526-.007,0,1.187.012,2.249,0,3.312a5.177,5.177,0,0,1-5.429,5.447q-2.068.016-4.136,0a5.159,5.159,0,0,1-5.367-5.371c-.016-1.071,0-2.142,0-3.265-2.192,0-4.286.055-6.375-.03a3.629,3.629,0,0,1-2.2-.656,1.819,1.819,0,0,1,1.224-3.069c1.7-.2,3.434-.18,5.153-.24.679-.024,1.359,0,2.193,0v-1.49q0-17.379-.026-34.758A4.8,4.8,0,0,0,30,33.6c-.856-1.589-1.834-3.113-2.77-4.659A5.27,5.27,0,0,1,26.839,24c1.659-4.106,3.345-8.2,4.983-12.316A3.231,3.231,0,0,1,35.1,9.455c1.981,0,3.963,0,5.945,0a3.231,3.231,0,0,1,3.3,2.2c1.641,4.114,3.314,8.215,4.981,12.318a5.3,5.3,0,0,1-.358,4.949,2.664,2.664,0,0,1-.2.329c-2.81,3.457-3.389,7.4-3.277,11.79.251,9.77.079,19.552.079,29.329V71.97c3.705.18,7.381-.427,10.83,1.41l.735-5.581c-.723,0-1.353.009-1.984,0a6.616,6.616,0,0,1-6.758-6.406,6.4,6.4,0,0,1,6.428-6.8q13.18-.147,26.362-.006a6.51,6.51,0,0,1,6.518,6.63A6.7,6.7,0,0,1,80.932,67.8c-.635.013-1.27,0-2.03,0,.4,3.128.78,6.1,1.17,9.079Q82.093,92.3,84.12,107.725c1.147,8.747,2.263,17.5,3.466,26.237a2.733,2.733,0,0,1-1.151,2.878ZM61.03,67.855c-.336,2.634-.692,5.227-.97,7.83a1.918,1.918,0,0,0,.5,1.111,12.443,12.443,0,0,1,.772,14.286c-.43.728-.851,1.462-1.341,2.305H78.336L74.981,67.855ZM38.078,32.145c1.2,0,2.412.059,3.609-.032a1.788,1.788,0,0,0,1.2-.677,36.825,36.825,0,0,0,2.508-4.2A2.994,2.994,0,0,0,45.55,25.1c-1.384-3.651-2.906-7.249-4.341-10.881a1.164,1.164,0,0,0-1.311-.906,33.983,33.983,0,0,1-3.61,0,1.159,1.159,0,0,0-1.318.888c-1.269,3.236-2.5,6.494-3.933,9.656a4.582,4.582,0,0,0,.279,4.526c1.5,2.873,3.194,4.848,6.761,3.762M68.034,58.418v.014c-4.347,0-8.694-.035-13.04.018a2.594,2.594,0,0,0-2.732,2.656A2.661,2.661,0,0,0,55.016,63.9q12.975.054,25.952.008a2.649,2.649,0,0,0,2.618-1.753c.774-1.927-.571-3.7-2.9-3.726-4.218-.04-8.435-.011-12.653-.011M34.59,44.217h6.994V36.063H34.59Zm-.045,12.158h7.038V48.266H34.545ZM34.525,68.5H41.6V60.447H34.525Zm-.012,4.061c0,2.374-.071,4.684.063,6.982.025.433.837,1.113,1.342,1.169a19.764,19.764,0,0,0,4.367,0,1.863,1.863,0,0,0,1.316-1.2c.133-2.295.062-4.6.062-6.948Z" transform="translate(-10.376 -4.558)" fill="#cba124"/>
    <path id="Trazado_246535" data-name="Trazado 246535" d="M138.3,132.281c-.3-.147-.6-.3-.907-.438a5.28,5.28,0,0,1,1.933-10.141c1.154-.037,2.311-.006,3.543-.006V40.906a6.625,6.625,0,0,1-4.278-4.668,6.5,6.5,0,0,1,1.744-6.225l-8.3-16.321c-2.695.717-5.347,1.4-7.98,2.153-.359.1-.656.522-.918.846A8.084,8.084,0,1,1,119.78,4.139a3.459,3.459,0,0,0,1.948.119C126.6,3,131.467,1.724,136.307.355c2.653-.75,4.916-.371,6.836,1.7a1.226,1.226,0,0,0,.974.263c.928-.174,1.829-.482,2.754-.681a1.817,1.817,0,0,1,2.257,1.238,1.73,1.73,0,0,1-1.14,2.389c-2.273.391-3.763,1.343-4.5,3.709-.455,1.454-2.013,2.17-3.519,2.589-1.321.369-2.648.718-4.095,1.109.762,1.51,1.47,2.921,2.186,4.328,1.754,3.451,3.523,6.893,5.256,10.355a1.3,1.3,0,0,0,1.368.85,6.2,6.2,0,0,1,5.973,3.567,6.117,6.117,0,0,1-.712,6.906,1.235,1.235,0,0,0-.054,1.585c1.965,3.826,3.906,7.663,5.855,11.5.117.23.24.457.354.689.7,1.43.465,2.55-.654,3.1-1.073.525-2.075.07-2.781-1.306-1.531-2.985-3.044-5.98-4.566-8.969-.331-.649-.67-1.294-1.161-2.24v78.668c.906,0,1.875,0,2.843,0,3.09.008,5.253,1.694,5.751,4.481.449,2.509-1.008,4.79-3.752,5.885a1.441,1.441,0,0,0-.3.222Zm-13.268-120.8a1.431,1.431,0,0,0,.3-.026c4.481-1.193,8.965-2.379,13.441-3.592,1.408-.381,2.088-1.386,1.792-2.521-.316-1.208-1.387-1.706-2.889-1.309q-6.476,1.712-12.945,3.449a4.488,4.488,0,0,0-.687.293l.989,3.706m-4.048.181a4.205,4.205,0,1,0-4.148,4.245,4.229,4.229,0,0,0,4.148-4.245m24.038,113.911c-1.721,0-3.443.013-5.163-.005-1-.01-1.766.346-1.771,1.412s.752,1.434,1.754,1.431q5.034-.019,10.069,0c1,0,1.767-.357,1.774-1.415s-.752-1.44-1.757-1.429c-1.635.019-3.27.005-4.905.005m-.12-88.314a2.577,2.577,0,0,0,2.584-2.636,2.609,2.609,0,0,0-5.218.036,2.607,2.607,0,0,0,2.634,2.6" transform="translate(-52.414 0)" fill="#cba124"/>
    <path id="Trazado_246536" data-name="Trazado 246536" d="M23.841,199.107c-2.535-.432-5.11-.7-7.6-1.327-6.5-1.626-11.893-4.838-14.6-11.34A23.451,23.451,0,0,1,1,170.988,49.593,49.593,0,0,1,3.24,165.1c.572-1.39,1.25-2.736,1.873-4.1a7.4,7.4,0,0,0-.58-7.663c-2.8-4.373-2.645-8.957.1-13.394.839-1.359,1.982-1.689,3.009-.985.96.658,1.047,1.773.248,3.07-1.889,3.068-2.1,6.287-.08,9.249,2.569,3.769,2.559,7.524.771,11.484-.8,1.762-1.637,3.5-2.442,5.263a22.939,22.939,0,0,0-1.893,13.6,13.981,13.981,0,0,0,7.768,10.48,29.849,29.849,0,0,0,12.315,3.013c5.844.35,11.623.033,17.152-2.148a15.174,15.174,0,0,0,8.457-7.373,1.906,1.906,0,0,1,2.663-1.065c1.045.506,1.352,1.618.736,2.88a18.527,18.527,0,0,1-9.449,8.776c-.988.449-2.126.657-2.393,2.018-.068.345-.553.608-.845.91H39.351c-.521-.328-1.072-.976-1.559-.93-2.161.2-4.3.6-6.454.93Z" transform="translate(0 -66.825)" fill="#cba124"/>
    <path id="Trazado_246537" data-name="Trazado 246537" d="M54.118,175.5a8.848,8.848,0,1,1-8.777-8.924,8.847,8.847,0,0,1,8.777,8.924m-3.878-.073a4.97,4.97,0,1,0-5,5,4.931,4.931,0,0,0,5-5" transform="translate(-17.562 -80.319)" fill="#cba124"/>
    <path id="Trazado_246538" data-name="Trazado 246538" d="M46.9,215.9c1.636,0,3.272-.021,4.908.007,1.368.023,2.143.717,2.171,1.862a1.95,1.95,0,0,1-2.2,1.995q-4.907.045-9.816,0a1.973,1.973,0,0,1-2.184-2.021c.047-1.117.853-1.813,2.211-1.835,1.636-.025,3.272-.006,4.908-.006" transform="translate(-19.18 -104.096)" fill="#cba124"/>
  </g>
</svg>
